<svg version="1" xmlns="http://www.w3.org/2000/svg" width="800" height="800" viewBox="0 0 600.000000 600.000000"><path d="M0 300v300h600V0H0v300zM266.5 39.1c0 .7-13.9 12.6-17.1 14.6-3.7 2.4 3.8-.7 9.3-3.8 12-6.9 22.7-8.4 36.2-5.3 6.2 1.4 7.5 1.4 12.9 0 12.6-3.3 25.2-1.3 37.2 5.9 7.9 4.7 11.7 5.6 5.9 1.4-7.2-5.3-15-12.7-14-13.3 1.5-1 16.2 1.3 22.9 3.5 7.6 2.5 13.2 6.6 19.2 14 2.5 3.1 7.2 7.8 10.5 10.4 8 6.4 7.8 6.2 7.1 7.3-.3.6-3.8 0-8.8-1.4-7.7-2.3-8.9-2.4-15.6-1.3-4 .7-10.1.9-13.5.6-6.7-.7-25.9-6.7-26.4-8.3-.2-.6 3.2-2.1 7.4-3.3 13.4-4 13.4-4.1 1.3-3.6-13.3.6-21.4-.5-32.1-4.1l-7.6-2.6-7.4 2.5C283.3 56 275.1 57 262 56.5c-12.1-.5-12.1-.4 1.3 3.6 4.2 1.2 7.6 2.7 7.4 3.2-.5 1.6-20.4 7.7-27.1 8.4-3.4.3-9.3 0-13.1-.6-6.4-1.1-7.7-1-15.2 1.2-11.8 3.4-12.3 2.4-2.5-5.3 3.7-3 7.4-6.3 8.2-7.4 6.4-9.1 15.9-16.2 24.9-18.6 8.4-2.2 20.6-3.3 20.6-1.9zm-48.2 13.5c.3.4-.6 2.3-2.2 4.3-1.5 2-4.6 6.1-6.9 9.2-4.9 6.8-9.5 10.7-22.5 18.8-9 5.6-11.5 7.8-17.1 14.9-1.9 2.4-1.9 2.4 0 1.4 5-2.9 10.8-7.2 17.3-12.9 7.6-6.7 13.9-10.4 20.9-12.2 5.2-1.4 21.2-.4 21.2 1.3-.1.6-3.8 3.4-8.3 6.2-14.5 9.1-18.5 10.7-32.2 12.4-6.4.8-9 1.7-15.3 5.5-11.3 6.8-12 5.9-3.9-4.9 3-3.9 7.2-10.9 9.4-15.6 6.1-13 13.5-19.2 30.8-26.1 7.8-3.1 7.9-3.1 8.8-2.3zm175 2.3c16.3 6.1 26.1 14.5 31.3 26.8 1.6 3.7 5.5 10.4 8.7 14.7 3.4 4.6 5.4 8.3 4.9 8.8s-4.1-1-8.6-3.7c-6.6-3.9-9-4.7-15.9-5.6-9-1.1-13.2-2.2-19.2-5.1-7.2-3.5-20.5-12.2-20.5-13.4 0-1.7 14.5-2.7 20.7-1.4 6.4 1.4 15.1 6.6 21.9 13 5.2 4.9 16.2 12.5 17 11.7 1.2-1.2-11.5-12.3-20.6-18-5.8-3.6-12.4-8.5-14.6-10.9-5.2-5.4-14.5-18.4-13.7-19.2.8-.7-.5-1.1 8.6 2.3zM172 79.7c0 .3-1.6 5.1-3.6 10.5-4.5 12.3-8.7 18.8-19.7 30.5-8.3 8.9-10.7 12.4-14.1 20.8l-1.6 4 4.8-5.1c2.6-2.8 7.8-9.6 11.5-15.2 7.2-10.7 12.5-15.9 19.9-19.2 4.7-2 19.4-4.7 20.5-3.7.9 1-14.7 17.5-20.8 22.1-3.1 2.4-9.4 5.8-14 7.6-7.2 2.8-9.5 4.4-16.1 10.8-4.3 4.2-8 7.3-8.4 6.9-.4-.4.8-4.6 2.6-9.4 1.8-4.9 3.7-11.3 4.2-14.3 2-11.6 4.2-18.3 7.8-23.8 4.5-6.8 8.4-10.7 18.2-17.7 7.2-5.3 8.8-6.1 8.8-4.8zm267.5 4.7c11.5 7.7 20.6 18.9 23.7 29.1.5 1.6 1.2 6 1.7 9.6.5 3.6 2.5 10.7 4.6 15.8 5.1 12.9 4.1 14-4.4 4.9-6.3-6.7-7.9-7.9-16.1-11.2-5-2.1-11.6-5.7-14.8-8-6.2-4.6-21.9-21.3-20.9-22.3 1.1-1 15.8 1.6 20.4 3.7 6.2 2.7 15.6 12.1 21 21 4.3 6.9 13.2 17.5 14 16.6.3-.2-.9-3.2-2.5-6.7-2.1-4.5-6-9.7-13.1-17.3-9.9-10.8-15.3-19.2-18.1-28.1-.7-2.2-2.1-5.6-3.1-7.6-1.8-3.6-1.6-5.4.5-4.2.6.4 3.8 2.5 7.1 4.7zm-314 55.3c-.9 17.4-2.5 23.2-12 43.8-3.1 6.7-3.8 9.4-4.2 16.5l-.4 8.5 3.4-8c1.9-4.4 4.4-12 5.6-16.9 4.3-18.3 10.8-27.4 24.9-34.5 4.4-2.2 8.2-3.8 8.5-3.5.8.8-8.7 21.6-12.7 27.8-3.8 5.9-8.4 10.9-15.7 16.9-3.6 2.8-5.6 5.7-8.8 12.6-2.2 4.9-4.1 9.2-4.1 9.5 0 2.3 4.1-.5 10.1-6.9 3.9-4.1 7.5-7.5 8-7.5s.6 3.4.2 7.5l-.6 7.5H149v-5c0-4.3.3-5 2-5 2 0 2 .7 2 41.5s0 41.5-2 41.5c-1.8 0-2-.7-2-6.5V273h-22v2.7c0 1.6.5 6.8 1 11.8.5 4.9.7 9.1.4 9.4-.8.8-14.1-12.9-16-16.5-1-1.9-2.2-3.4-2.6-3.4-1.8 0-.6 5 3.2 13.4 3.6 8.2 4.9 9.8 14.4 19 10.3 10 10.5 10.2 17.6 24.9 3.9 8.2 6.9 15.2 6.5 15.5-.3.4-4.4-1.3-9-3.6-13.8-7.1-20.5-16.4-24.6-34.1-1.1-4.7-3.4-12.2-5.2-16.5l-3.2-8-.3 5.5c-.3 6.8 1.3 12.4 7.7 26.9 2.7 6.3 5.7 14.2 6.5 17.5 1.7 7.1 3.1 29.5 1.8 29.5-1.6 0-12.4-15.3-15.8-22.3-4.6-9.7-6.1-18.8-4.4-28 1.9-10.4 2.5-33.2.9-36.9-1.2-2.9-1.3-2.7-3.7 6.4-1.3 5.1-2.9 11.5-3.6 14.2-.7 2.8-1.7 5.1-2.2 5.3-1.2.4-7-17.1-8.5-26l-1.1-6.7H55.4c-17.3 0-31.4-.3-31.4-.6s5.8-6.9 13-14.6l12.9-14.1-12-13.8c-6.7-7.7-12.5-14.2-13-14.5-3.3-2 1.8-2.4 31.1-2.4 24.8 0 32.1-.3 32.4-1.3 2.9-10.3 7.2-21.7 8.3-21.7.7 0 1.3.8 1.3 1.7 0 1 1.2 6.2 2.7 11.5 2.2 7.6 3.2 9.8 4.6 9.8 1.5 0 1.7-1.2 1.7-11.8-.1-6.4-.7-14.6-1.5-18.2-2.6-12-1.3-21.8 4.5-33.5 3.2-6.3 13.9-21.4 15.3-21.5.4 0 .5 5.3.2 11.7zm361.7.7c9.8 14.2 12.8 26.2 10.3 40.7-.8 4.9-1.5 14.1-1.5 20.5 0 10.1.2 11.5 1.6 11.2 1.1-.2 2.6-3.3 4.5-9.8 1.6-5.2 2.9-10.3 2.9-11.3 0-.9.6-1.7 1.3-1.7 1.2 0 7.8 18.5 7.7 21.7 0 1 6.9 1.3 31 1.3 28.3 0 33.4.4 30.1 2.4-.5.3-6.3 6.8-13 14.5l-12 13.8 12.9 14.1c7.2 7.7 13 14.3 13 14.6 0 .3-13.6.7-30.2.8l-30.3.3-.8 6.3c-1.4 11.7-9.7 32.5-9.7 24.4 0-1.1-.9-5.1-2.1-8.8-1.2-3.8-2.7-9.5-3.4-12.9-1.3-6-1.3-6-2.5-3-1.4 3.7-.9 28 .9 37.8 2.3 12.6-2.2 26.7-13.6 41.9-3.2 4.3-6.2 7.8-6.7 7.8-1.4 0 .1-24.9 1.9-31 .9-3 4.4-11.7 7.6-19.2 5.3-12.1 6-14.7 6.5-22l.5-8.3-3.1 7c-1.8 3.8-4.5 12-6 18.2-3.3 13.3-7.7 22-13.7 27.3-4.7 4.1-18.8 11.9-19.8 10.9-.8-.8 8.7-21.7 12.8-28.1 1.9-3 7.3-8.9 12-13.2 7.5-7 9-8.9 12.6-16.7 2.6-5.5 4.1-10.2 4.1-12.6v-3.8l-2.6 4.5c-2.6 4.6-14.1 17-15.7 17-.5 0-.7-2.4-.3-5.3.3-2.8.8-8.2 1.2-12l.6-6.7H451v6.5c0 5.8-.2 6.5-2 6.5-2 0-2-.7-2-41.5s0-41.5 2-41.5c1.7 0 2 .7 2 5v5H475.3l-.7-7.5c-.4-4.6-.3-7.5.3-7.5.5 0 4 3.4 7.8 7.5s7.7 7.5 8.6 7.5c.9 0 1.7-.2 1.7-.5 0-.2-1.8-4.4-4.1-9.3-3.6-8-4.8-9.6-11.1-14.7-3.9-3.2-8.9-8.3-11.2-11.4-4.3-6-16.3-30.7-15.3-31.7 1.1-1.2 16.8 7.9 21.1 12.2 5.7 5.8 9.8 14.5 13 27.6 1.4 5.8 4 13.5 5.6 17l3 6.3-.5-8.3c-.5-7.2-1.3-9.9-5.9-20.5-8.9-20.1-10.6-27.2-10.5-43.7v-8.5l3 3.5c1.7 1.9 4.9 6.1 7.1 9.4zm-221.6 49.5c18.1 29.7 33 53.8 33.3 53.5.2-.2 15.1-24.4 33.1-53.6l32.6-53.3 26.2-.3 26.2-.2v41h-13l.2 69.7.3 69.8 6.3.3 6.2.3V355h-66v-38h13v-97.4l-23.1 37.9c-12.7 20.9-23.7 39-24.5 40.2-1.4 2.2-1.9 2.3-17.7 2.3h-16.2l-24.4-40c-13.4-22-24.6-40-24.8-40-.1 0-.3 21.8-.3 48.5V317h13v38h-66v-38h13V177h-13v-41h52.7l32.9 53.9zm-112 173c5.1 2.1 11.1 5.2 13.5 6.9 6 4.2 23.8 22.7 22.7 23.7-1 1-18-2.6-22-4.6-6.3-3.2-12.7-9.7-18.7-19-3.1-4.7-8-11.2-10.9-14.5l-5.3-5.9 2.1 5.4c3.2 8.2 3.6 8.8 13.6 19.8 11.2 12.2 15.1 18.1 19.3 29.3 5.5 14.4 5.6 14.2-3.9 7.6-15.8-11.1-23.9-22.8-26-38.1-.7-4.4-2.7-12-4.7-16.8-5-12.7-3.8-14 4.5-4.9 6 6.4 7.7 7.7 15.8 11.1zm315.9-6.4c-2.1 5.4-4.1 12.9-4.7 16.7-1.7 12.7-5.9 20.8-15.1 29.5-5.7 5.4-17.6 13.8-18.3 13-.7-.6 4.8-16.3 7.5-21.5 2.5-4.9 8.1-11.9 17.3-21.8 4.9-5.2 8.3-10 10.2-14.2 1.5-3.5 2.6-6.5 2.4-6.7-.8-.8-10.4 11.1-14.3 17.5-5 8.3-14.1 17.5-20 20.1-3.3 1.5-18.1 4.9-21.2 4.9-2.1 0 5.5-9 15.7-18.7 5.8-5.5 12.8-9.8 22-13.2 4.2-1.6 7.3-3.9 13-9.6 4.1-4.1 7.8-7.1 8.3-6.6.5.5-.8 5.2-2.8 10.6zm-43.2-7.8c-.7.2-1.4 1.9-1.4 3.6l-.2 3.2-.4-3c-.3-1.6-1-3.3-1.6-3.7-.7-.4.2-.7 1.8-.7 1.7 0 2.4.3 1.8.6zm2.8 3.8c-.9 3-.9 3-1-1-.1-2.5.2-3.6.9-2.9.6.6.6 2.1.1 3.9zm4.8-.8c0 3.3-.1 3.5-.9 1.5s-.4-5.2.6-5.2c.2 0 .4 1.7.3 3.7zM432 354c0 .5-.2 1-.4 1-.3 0-.8-.5-1.1-1-.3-.6-.1-1 .4-1 .6 0 1.1.4 1.1 1zm-241 45.9c6.4.8 11.5 2.1 15.7 4 7.2 3.4 22.3 12.9 22.3 14.1 0 1.2-12.4 2.3-18.6 1.7-6.9-.7-15.7-5.4-23.7-12.7-6-5.5-17.7-13.7-17.7-12.4 0 .3 1.8 2.8 4 5.4 2.5 3 7.9 7.2 14.3 11.1 5.6 3.5 12.7 8.6 15.7 11.5 5.9 5.6 15.7 19 14.7 20.1-1 .9-14.9-4.5-21.4-8.3-7.9-4.7-14.6-12.2-17.9-20.3-1.5-3.6-5.1-9.8-7.9-13.6-6.5-8.9-6.7-9.3-6-10.4.3-.5 4.2 1.2 8.8 3.8 7.3 4.2 9.3 4.9 17.7 6zm245.9-5.7c-1.2 1.8-3.7 5.1-5.5 7.3-1.7 2.2-4.8 7.5-6.7 11.8-4.6 10-8.3 14.6-15.8 19.6-6.2 4.1-21.1 10.4-23.5 9.9-2-.4 10.2-17.4 15.9-22.1 2.4-2 9.1-6.5 14.9-10.1 9-5.6 14.1-10.2 17.2-15.4 1.7-2.9-7.9 3.6-15.7 10.6-10 8.9-18.7 13.4-26.8 14-6.7.5-16.9-.6-16.9-1.7 0-1.3 14.7-10.6 22.1-14.1 4.6-2.1 9.5-3.4 15.9-4.2 8.1-1 10.2-1.7 17.3-5.9 4.5-2.6 8.6-4.3 9.1-3.9.5.5-.2 2.3-1.5 4.2zm-222 28.9c6.7 1.9 8.5 2 16.6 1.1 5.4-.6 11.2-.7 14.5-.1 6.2.9 25 7 25 8 0 1.1-11.5 5.1-17.2 5.9-6.6.9-4.2 1.2 14.7 1.4 14 .1 15.6.3 23.9 3.2l8.9 3.1 8.6-3c8.3-3 9.3-3.1 25.9-3.3 9.5 0 17.5-.4 17.9-.7.3-.4-1.1-.7-3.3-.8-4.5 0-17.6-4-18.1-5.4-.4-1.4 17-7.4 24.3-8.5 3.5-.4 9.4-.4 14.6.3 8 .9 9.5.8 16.4-1.2 4.8-1.4 8-1.9 8.6-1.3.6.6-1.9 3.3-6.6 7.1-4.1 3.4-9 8.2-10.8 10.7-3.9 5.5-10.6 10.6-17.3 13.2-7.6 3-25.6 5.4-25.5 3.4.1-.4 2.3-2.5 5.1-4.7 2.7-2.2 6.9-5.5 9.2-7.4 5.2-4.1 2.2-3.5-6.2 1.4-11.8 6.9-21 8.5-33.2 6-10-2.1-9.4-2.1-19.4 0-11.1 2.5-18.6 1.2-30.9-5-9.7-5-13.6-6.7-13.6-6 0 .2 1.3 1.1 3 2 3.3 1.7 15.3 12.1 15.9 13.7.6 1.6-13.7.1-21.2-2.2-8.4-2.6-15.1-7.2-20.3-14-2.4-3-7.5-8.1-11.4-11.3-6.2-5.1-8.4-7.7-6.3-7.7.4 0 4.1 1 8.2 2.1zm7.4 57.2c1.3.1 1.7 1 1.7 3.7l-.1 3.5-1.4-2.6c-2.6-4.8-9.5-4.6-9.5.3 0 1.4 1.5 2.6 5.4 4.3 2.9 1.3 5.6 3.1 6 4 2.4 6.5-1.9 12.1-8.7 11.2-4.4-.6-7.7-3.1-7.7-5.9 0-2.6 1.5-2.2 2.8.6 2.6 5.8 12.8 3.8 10.5-2-.3-.8-3-2.6-5.9-3.9-4-1.8-5.5-3-6-5-1.3-5.4 3.2-10.1 8.6-8.9 1.4.3 3.3.6 4.3.7zm95.3 1.8c6.4 5.3 5.5 17.7-1.6 21.4-12.9 6.7-25.2-10.2-14.9-20.4 4-4.1 12.2-4.6 16.5-1zm98.1-.9c.7.5 1.7.7 2.3.3.6-.4 1 .8 1 3.2v3.8l-2.6-3.3c-4.2-5.3-11.3-4.2-13.4 2.3-1.4 4.2-.6 8.5 2.1 12 2.7 3.3 8.3 3.5 11.6.3 2-1.8 2.3-1.9 2.3-.5 0 2.4-5.8 5.7-9.8 5.7-10.2 0-15.8-12.4-9.4-20.9 3.3-4.5 12-6.1 15.9-2.9zm63.6 0c2.1.8 2.7 1.7 2.7 4.2-.1 2.8-.2 2.9-1.2 1.1-2.8-5.3-9.3-6.2-12.7-1.9-2.5 3.2-2.8 10.1-.6 14.4 1.7 3.3 5.9 4.9 8.4 3.3 2.3-1.5 2.6-5.4.5-7-1.5-1.1-1.1-1.3 3.5-1.3 4.8 0 5.1.1 3.7 1.6-.9.8-1.6 2.8-1.6 4.4 0 2.2-.6 3-3.1 3.9-10.1 3.5-17.9-1.8-17.9-12.1 0-4.3 1.9-8.4 4.9-10.3 4-2.6 7.5-2.6 13.4-.3zm22.2 5c3.5 12.8 5.4 16.8 7.9 16.8 2.8 0 3.6-2.9 3.6-13.1 0-5.9-.3-7-2.2-8.3-2.2-1.6-2.2-1.6 1.7-1.6 3.8 0 4.3.4 10.5 8.3l6.5 8.2.3-6.5c.3-5.7 0-6.7-1.9-8.2-2.1-1.8-2-1.8 2.7-1.8 3.8.1 4.5.3 3.2 1.1-1.6.9-1.8 2.6-1.8 12.4 0 6.3-.4 11.5-.8 11.5-.5 0-1.7-1.2-2.9-2.8-1.1-1.5-4.5-5.8-7.7-9.6l-5.6-6.9v8.2c0 7.5.2 8.2 2.3 9 1.8.7 1.3.9-2.8 1.2-4.4.4-17.9-.5-14.7-.9.6-.1 1.2-1.3 1.2-2.7 0-2.3-.3-2.5-5-2.5-2.7 0-5 .2-5 .4s-.3 1.1-.6 2c-.4 1.1.2 1.9 1.7 2.5 1.9.8 1.3 1-3.1.9-3 0-4.7-.2-3.8-.5 1.1-.3 2.9-3.5 4.8-8.6 1.7-4.5 3.6-9.4 4.2-11 1-2.7 3.6-4.9 4.9-4.1.3.2 1.4 3.2 2.4 6.6zm-417.7-5.1c-1.5.8-1.8 2.4-1.8 9.3 0 9.6 1.2 11.9 5.9 11.9 5.2 0 6.5-2.2 7-11.5.3-7 .1-8.4-1.5-9.5-1.6-1.1-1.2-1.3 3.1-1.3 4.1 0 4.6.2 3.2 1.2-1.2 1-1.8 3.6-2.3 9.7-.9 11-2.9 13.6-10.4 13.6-4.4 0-5.5-.4-7.6-2.8-2.1-2.5-2.4-3.8-2.4-11.2 0-6.9-.3-8.6-1.7-9.4-1.4-.8-.4-1 4.2-1 4.6 0 5.6.2 4.3 1zm30.7 6.1c3.2 4 6.2 7.7 6.7 8.2.4.6.8-2.2.8-6.2 0-6.6-.2-7.3-2.2-8.2-1.8-.7-1-.9 3.2-.8 3 0 4.7.2 3.8.5-1.6.4-2.4 5.1-3.1 19.8l-.2 4.9-7.3-9.2c-4.1-5.1-7.8-9.2-8.3-9.2-.5 0-.9 2.9-.9 6.5 0 5.2.4 6.9 2 8.5l2 2h-4.7c-3.8-.1-4.4-.3-3-1.1 1.4-.8 1.7-2.5 1.7-10.9s-.3-10.1-1.7-10.9c-1.5-.8-1.1-1 1.8-1.1 3.4 0 4.2.6 9.4 7.2zM138 481c-1.2.7-1.5 3.1-1.5 11s.3 10.3 1.5 11c1 .7-.2 1-4 1-4.2-.1-5.1-.3-3.7-1.1 1.4-.8 1.7-2.5 1.7-10.9s-.3-10.1-1.7-10.9c-1.4-.8-.5-1 3.7-1.1 3.9 0 5.1.3 4 1zm12.6.3c-1.8 1.3-1.8 1.6.4 8.3 1.2 3.8 2.6 7.3 3 7.7.4.5 2-2.6 3.6-6.9 2.7-7.4 2.7-7.7.9-9-1.6-1.2-.1-1.4 11.3-1.4H183v2.7c0 2.5-.1 2.5-1.8 1-1-1-3.3-1.7-5-1.7-3.1 0-3.2.1-3.2 4.5 0 4.1.2 4.5 2.5 4.5 1.3 0 2.9-.8 3.4-1.8.8-1.3 1-.7 1 2.8-.1 2.5-.3 3.7-.6 2.7-.3-1.1-1.4-1.7-3.4-1.7-2.8 0-2.9.2-2.9 4.5v4.5h4.5c3.8 0 4.7-.4 5.5-2.3.8-2 .9-1.9.9 1l.1 3.3h-9.2c-5.1 0-8.8-.4-8.2-.8 1.6-1 2.7-11.4 1.9-17.3-.5-3.8-1.1-4.9-2.5-4.9-2.5 0-3.6 1.7-8.5 13.2-2.4 5.7-4.7 10.3-5.1 10.3-.4 0-1.3-1.8-2.1-4-3.4-10.1-6.6-17.7-8-19-1.3-1.3-.8-1.5 4.3-1.5s5.6.2 4 1.3zm52.2.3c2.9 2 2.9 6.1 0 9.1l-2.2 2.4 2.4 4.5c1.4 2.5 3.4 5.2 4.5 6 1.9 1.4 1.9 1.4-.3 1.4-3.8 0-6.1-1.8-8.7-7-3.3-6.4-5.5-6.6-5.5-.5 0 3.1.5 4.7 1.8 5.4 1.3.8.4 1-3.8 1s-5.1-.2-3.7-1c1.4-.8 1.7-2.5 1.7-10.9s-.3-10.1-1.7-10.9c-1.4-.8.1-1 5.7-1.1 5.3 0 8.2.5 9.8 1.6zm31.8 0c-1.2 1.2-1.6 3.7-1.6 10.4s.4 9.2 1.6 10.4c1.4 1.5 1.1 1.6-3.8 1.6-4.1-.1-4.9-.3-3.5-1.1 1.4-.8 1.7-2.5 1.7-10.9s-.3-10.1-1.7-10.9c-1.4-.8-.6-1 3.5-1.1 4.9 0 5.2.1 3.8 1.6zm25.4 1.6c0 3.2 0 3.2-1.6 1-1-1.4-2.5-2.2-4.5-2.2H251v10c0 8.4.3 10.1 1.8 10.9 1.3.8.4 1-3.8 1s-5.1-.2-3.7-1c1.4-.8 1.7-2.5 1.7-11v-10l-3.2.3c-2.3.2-3.6 1.1-4.5 2.8-1.2 2.4-1.3 2.4-1.3-1.3V480h22v3.2zm12.2-2.2c-2.1.9-2.2 1.1-.8 3.7 3.5 6.7 3.9 6.8 6.3 1.9 2.1-4.2 2.1-4.6.5-5.5-1.3-.8-.5-1 3.3-1 3.7 0 4.6.2 3.3.9-.9.6-3 3.3-4.7 6-2.5 4-3.1 6.1-3.1 10.4 0 4.4.4 5.5 1.8 5.9.9.3-1.2.5-4.8.5-4.8.1-5.9-.2-4.2-.8 3.8-1.6 3-7.7-1.8-15.5-2.3-3.5-4.9-6.6-5.8-6.8-.9-.3 1.5-.5 5.3-.5 5.2-.1 6.4.2 4.7.8zm68.4 1.5c.8 3.3-.1 4.3-1.6 1.6-.8-1.6-2-2.1-5-2.1h-4v4.5c0 4.3.1 4.5 3 4.5 1.7 0 3.3-.7 3.9-1.8.8-1.3 1-.7 1 2.8s-.2 4.1-1 2.7c-.6-1-2.2-1.7-3.9-1.7-2.9 0-3 .1-3 4.9 0 3 .5 5.1 1.3 5.4.6.3-1 .6-3.8.6-2.9 0-4.5-.3-3.7-.7 2.1-1.4 2.8-16.3.9-20.1l-1.5-3.1h8.4c8.1 0 8.4.1 9 2.5zm23.4 6.7c1.9 4.8 3.7 8.8 4 8.8.3 0 2.3-4.1 4.5-9l3.9-9h4.1c3.2.1 3.6.3 2.3 1.1-1.5.8-1.8 2.5-1.8 10.9s.3 10.1 1.8 10.9c1.3.8.2 1-4.3 1-3.3-.1-5.2-.3-4.2-.6 1.4-.4 1.7-1.7 1.7-8.6l-.1-8.2-4.1 9.3c-2.3 5.1-4.7 9.1-5.3 8.9-.5-.2-2.6-4.3-4.6-9-1.9-4.8-3.9-8.4-4.2-8-.4.3-.7 3.7-.7 7.4 0 5.4.4 7 1.8 7.8 1.3.8.7 1-2.8 1s-4.1-.2-2.7-1c1.4-.8 1.7-2.5 1.7-11.4 0-7.3-.4-10.5-1.2-10.9-.7-.3.5-.4 2.7-.3l4 .2 3.5 8.7zm31.2-8c-1.7 1.7-1.7 21.4.1 22.1.6.3-1 .5-3.8.5-2.7 0-4.4-.2-3.7-.5 1.7-.7 1.7-20.4 0-22.1-.9-.9-.1-1.2 3.7-1.2 3.8 0 4.6.3 3.7 1.2zm35.6-.1c-1.3.7-1.8 2.3-1.8 5.4v4.5h11v-4.5c0-3.1-.5-4.7-1.7-5.4-1.4-.8-.5-1 3.7-1.1 4.2 0 5.1.3 4.2 1.2-1.7 1.7-1.7 21.4.1 22.1.6.3-1.3.5-4.3.5s-4.7-.2-3.7-.5c1.3-.3 1.7-1.5 1.7-5.4V493h-11v4.9c0 3.9.4 5.1 1.8 5.4.9.3-.8.5-3.8.5s-4.9-.2-4.2-.5c1.7-.7 1.7-20.4 0-22.1-.9-.9 0-1.2 4.3-1.2 4.1.1 5 .3 3.7 1.1zm28 0c-1.5.8-1.8 2.5-1.8 11.4 0 9 .2 10.4 1.8 10.8.9.3-.7.5-3.6.6-4.9.1-5.2 0-3.8-1.5 2.3-2.3 2.3-18-.1-20.6-1.5-1.7-1.4-1.8 3.8-1.8 4.2.1 5 .3 3.7 1.1zm24.7 50.1c7.2 23 8.3 25.8 11.1 26.8 5 2 2.3 3-7.6 3-9.6 0-13.1-1.2-7.5-2.6 2.6-.6 3.1-2.6 1.9-7.2-.6-2.1-1.2-2.2-9-2.2h-8.3l-.7 3.7c-.5 2.9-.3 3.9 1.1 5 1.1.7 2.5 1.3 3.2 1.3.7 0 1.3.4 1.3 1s-3.7 1-9 1c-8.7 0-11.8-1.2-6.5-2.6 1.4-.3 3-1.5 3.6-2.5 1.5-2.8 12.9-34.4 12.9-35.7 0-1.1 5.2-3.9 7.6-4.1.6-.1 3.2 6.8 5.9 15.1zm-376.1-11.3c1.9 1.8 2.6 3.5 2.6 6.3 0 5.3-1.5 7.7-6 9.7l-3.9 1.7 4.5 1.2c7.2 1.9 10.1 8.3 7 15.6-2.3 5.5-6.1 6.6-23 6.6-8 0-14.6-.4-14.6-.8 0-.5 1.1-1.4 2.5-2L79 557l-.2-18.2c-.3-17.9-.4-18.3-2.5-19.3-4.8-2.1-1.7-2.6 13.1-2.3 14.8.3 15.6.4 18 2.7zm24.6-2.1c0 .4-1 1.2-2.2 1.7-2.2 1-2.3 1.4-2.6 19.3L127 557l2.5 1.2c4.5 2 2.7 2.8-6.5 2.8-8.5 0-11.5-1.1-7.2-2.7.9-.4 2-1.1 2.4-1.7.4-.6.8-8.6.8-17.8 0-13.8-.3-16.9-1.6-18.2-.8-.9-2-1.6-2.5-1.6s-.9-.5-.9-1c0-.6 3.7-1 9-1 5 0 9 .3 9 .8zm33.7 1.6c2.4 1.4 4.5 2 4.8 1.5.4-.5 1-.9 1.6-.9 1 0 1.3 11.3.3 12.3-.4.4-1.9-1.3-3.4-3.6-3.5-5.6-6.9-7.7-12.4-7.7-8.2 0-13.6 6.9-13.6 17.5 0 12.8 7.6 20.8 18.1 19 2.7-.5 5.1-1.8 7.4-4.2 3-3.1 3.5-3.3 4.1-1.8 1 2.5-6.1 9-11.2 10.4-18.1 5-32.4-10.5-27-29.2 3-10.4 10-15.6 21.1-15.7 4.5 0 7 .6 10.2 2.4zM206 522c0 2.7-.4 5-1 5-.5 0-1-.5-1-1 0-.6-.9-1.9-2-3-1.6-1.6-3.3-2-8.5-2H187v15.1l5.3-.3c4.3-.2 5.4-.7 6.2-2.6 1.7-3.9 2.5-2.4 2.5 5.3 0 4.3-.4 7.5-1 7.5-.5 0-1-.9-1-2 0-2.5-2.9-4-7.9-4H187v6.6c0 9.5.7 10.4 8.6 10.4 5.4 0 6.9-.4 8.8-2.3 1.3-1.3 2.5-3 2.8-3.8 1-2.8 1.6-.3 1.1 4.8l-.6 5.3h-16.8c-15.8 0-20.3-.8-14.6-2.6 1.2-.4 2.5-1.2 2.9-1.8.4-.6.8-8.6.8-17.8 0-13.8-.3-16.9-1.6-18.2-.8-.9-2.2-1.6-3-1.6-.8 0-1.4-.5-1.4-1 0-.6 6-1 16-1h16v5zm25.3 5.4c4.3 5.6 9.6 12.2 11.7 14.6l3.9 4.5.1-12.2c0-12.9-.8-15.3-5.1-15.3-1 0-1.9-.5-1.9-1 0-.6 3.5-1 8.5-1 8.6 0 10.4.7 6.3 2.5-3.1 1.4-3.5 4.2-3.7 24.8-.1 13.8-.4 17.8-1.3 17.5-.7-.3-7.4-7.9-14.8-16.9l-13.5-16.6-.3 12.6c-.3 15.5-.1 16.7 3.8 17.4 6.2 1.3 3 2.7-6 2.7-5.3 0-9-.4-9-1s.8-1 1.9-1c1 0 2.3-.6 2.9-1.3.5-.6 1.1-9.1 1.3-18.7l.4-17.5-3.2-1.5c-1.8-.8-3.3-1.8-3.3-2.3 0-.4 3-.7 6.8-.6h6.7l7.8 10.3zm67.5-4.2c.3 6.3-1 7.6-2.7 2.8-1.2-3.5-4.8-5.2-10-4.8l-3.6.3-.3 16c-.1 8.8 0 17 .3 18.3.3 1.2 1.8 2.8 3.3 3.5 2.6 1.1 2.6 1.2-2 1.5-2.6.2-7.1.2-10 0-5.1-.3-5.2-.4-2.6-1.5 1.5-.7 3-2.3 3.3-3.5.3-1.3.4-9.5.3-18.3l-.3-16-3.6-.3c-5.2-.4-8.8 1.3-10 4.8-.6 1.6-1.5 3-2 3-1 0-1.2-10.3-.2-11.4.4-.3 9.5-.5 20.2-.4l19.6.3.3 5.7zM332 522c0 2.7-.4 5-1 5-.5 0-1-.5-1-1 0-.6-.9-1.9-2-3-1.6-1.6-3.3-2-8.5-2H313v15.1l5.3-.3c4.3-.2 5.4-.7 6.2-2.6 1.7-3.9 2.5-2.4 2.5 5.3 0 4.3-.4 7.5-1 7.5-.5 0-1-.9-1-2 0-2.5-2.9-4-7.9-4H313v7.3c0 4.3.5 7.8 1.2 8.5 1.2 1.2 11.4 1.7 14.3.6.8-.4 2.2-1.9 3.1-3.5 2.2-4.3 2.9-3.5 2.6 2.6l-.4 5.5h-16.9c-9.3 0-16.9-.4-16.9-.8 0-.5 1.1-1.4 2.4-2 3-1.3 3.6-4.5 3.6-19.7 0-15.5-.5-18.3-3.6-19.1-6-1.5-1.1-2.4 13.6-2.4h16v5zm18.9-2.8c2.6 4.3 20.6 26.7 21.5 26.8.4 0 .6-5.6.5-12.5-.4-13.4-.8-14.5-5.6-14.5-1.3 0-2.3-.5-2.3-1 0-.6 3.7-1 9-1s9 .4 9 1c0 .5-.6 1-1.2 1-4 .1-4.3 1.3-4.8 22.1-.3 12.8-.9 20.4-1.5 20.6-.6.2-7.1-7.2-14.5-16.4l-13.5-16.8-.3 13.4c-.1 7.4-.1 14 .2 14.7.3.7 1.8 1.5 3.5 1.9 5.9 1.3 3 2.5-5.9 2.5-5.3 0-9-.4-9-1s.6-1 1.4-1c.8 0 2.2-.7 3-1.6 1.3-1.3 1.6-4.4 1.6-18.9v-17.3l-3-1.2c-4.8-2-3.5-3 3.8-3 5.9 0 6.9.3 8.1 2.2zm54 8c4.4 5.7 9.5 12.2 11.3 14.5 1.8 2.3 3.7 4.2 4.2 4.3.5 0 .7-5.4.4-11.9-.4-12.8-1.3-15.1-5.4-15.1-1.3 0-2.4-.5-2.4-1 0-.6 3.5-1 8.5-1s8.5.4 8.5 1c0 .5-.3 1-.7 1-3.5.1-3.8 1.9-4.3 22.2-.4 15-.8 20.3-1.7 20.3-.7 0-7.4-7.7-15-17l-13.8-17-.3 11c-.4 15.1.5 18.7 4.6 19.9 5.7 1.6 3.4 2.6-5.8 2.6-5.3 0-9-.4-9-1s.6-1 1.4-1c.8 0 2.2-.7 3-1.6 1.3-1.3 1.6-4.4 1.6-18.9v-17.3l-3-1.2c-4.7-2-3.5-3 3.4-3h6.4l8.1 10.2zm45.1-9.4c0 .4-1 1.2-2.2 1.7-2.2 1-2.3 1.4-2.6 19.3L445 557l2.5 1.2c4.5 2 2.7 2.8-6.5 2.8-9.1 0-11.5-1.1-6.5-3l2.5-1v-36l-2.5-1.2c-4.5-2-2.7-2.8 6.5-2.8 5 0 9 .3 9 .8zm68 .1c0 .5-1.1 1.2-2.4 1.5-3.2.8-3.9 5.3-3.5 22.6.5 15 .4 15 9 15 5.9 0 10.9-2.6 10.9-5.6 0-.8.5-1.4 1-1.4 1.1 0 1.3 5.2.4 8.7-.6 2.3-.9 2.3-17.5 2.3-9.3 0-16.9-.4-16.9-.8 0-.5 1.1-1.4 2.5-2l2.5-1.2v-17.4c0-14.5-.3-17.7-1.6-19-.8-.9-2-1.6-2.5-1.6s-.9-.5-.9-1c0-.6 3.8-1 9.5-1 5.2 0 9.5.4 9.5.9z"/><path d="M351 45.5c1.4.8 3 1.4 3.5 1.4.6 0-.1-.6-1.5-1.4-1.4-.8-2.9-1.4-3.5-1.4-.5 0 .1.6 1.5 1.4zM356 47.5c0 .2 2.3 1.6 5 3 2.8 1.4 5 2.3 5 2 0-.2-2.2-1.6-5-3-2.7-1.4-5-2.3-5-2zM284.8 48.7c1.2.2 3.2.2 4.5 0 1.2-.2.2-.4-2.3-.4s-3.5.2-2.2.4zM313.8 48.7c1.2.2 3.2.2 4.5 0 1.2-.2.2-.4-2.3-.4s-3.5.2-2.2.4zM276.3 49.7c.9.2 2.3.2 3 0 .6-.3-.1-.5-1.8-.5-1.6 0-2.2.2-1.2.5zM323.3 49.7c.9.2 2.3.2 3 0 .6-.3-.1-.5-1.8-.5-1.6 0-2.2.2-1.2.5zM237.8 51.6c-3.8 2-3.6 2.8.2.9 1.7-.9 3-1.8 3-2 0-.7-.1-.6-3.2 1.1zM269.8 50.7c.6.2 1.8.2 2.5 0 .6-.3.1-.5-1.3-.5-1.4 0-1.9.2-1.2.5zM330.8 50.7c.7.3 1.6.2 1.9-.1.4-.3-.2-.6-1.3-.5-1.1 0-1.4.3-.6.6zM335.8 51.7c.7.3 1.6.2 1.9-.1.4-.3-.2-.6-1.3-.5-1.1 0-1.4.3-.6.6zM225.4 62.4c-5.5 2-14 7.4-13.1 8.2 1 1 21.1-7.7 23.6-10.1 1.2-1.3-5.1-.1-10.5 1.9zM373.5 64.2c6.4 3.3 16.6 7.1 17.2 6.4.8-.7-8.6-6.6-12.8-8.1-2.3-.8-5.6-1.5-7.3-1.5-2.9.1-2.7.3 2.9 3.2zM254.8 63.7c1.2.2 3 .2 4 0 .9-.3-.1-.5-2.3-.4-2.2 0-3 .2-1.7.4zM344.8 63.7c1.2.2 3 .2 4 0 .9-.3-.1-.5-2.3-.4-2.2 0-3 .2-1.7.4zM244.3 64.7c.9.2 2.5.2 3.5 0 .9-.3.1-.5-1.8-.5-1.9 0-2.7.2-1.7.5zM354.3 64.7c.9.2 2.5.2 3.5 0 .9-.3.1-.5-1.8-.5-1.9 0-2.7.2-1.7.5zM237.8 65.7c.6.2 1.8.2 2.5 0 .6-.3.1-.5-1.3-.5-1.4 0-1.9.2-1.2.5zM362.8 65.7c.7.3 1.6.2 1.9-.1.4-.3-.2-.6-1.3-.5-1.1 0-1.4.3-.6.6zM206.9 60.7c-1.3 1.6-1.2 1.7.4.4.9-.7 1.7-1.5 1.7-1.7 0-.8-.8-.3-2.1 1.3zM196.9 69.1l-7.4 7.1 7.8-6.8c4.2-3.8 7.7-7 7.7-7.1 0-.8-1.2.2-8.1 6.8zM205 84c-.8.5-1 1-.5 1 .6 0 1.7-.5 2.5-1s1.1-1 .5-1c-.5 0-1.7.5-2.5 1zM200 86c-.8.5-1 1-.5 1 .6 0 1.7-.5 2.5-1s1.1-1 .5-1c-.5 0-1.7.5-2.5 1zM194 88.5c-1.4.8-2 1.4-1.5 1.4.6 0 2.1-.6 3.5-1.4 1.4-.8 2.1-1.4 1.5-1.4-.5 0-2.1.6-3.5 1.4zM395 60.4c0 .2.8 1 1.8 1.7 1.5 1.3 1.6 1.2.3-.4s-2.1-2.1-2.1-1.3zM401 65.1c6.2 6.3 17.1 15.9 13.5 12-2.2-2.3-6.7-6.6-10-9.4-3.3-2.8-4.9-3.9-3.5-2.6zM392.9 83.1c3 1 5.6 1.7 5.8 1.5.5-.5-8.6-3.6-10.1-3.5-.6 0 1.3.9 4.3 2zM401 86c.8.5 2 1 2.5 1 .6 0 .3-.5-.5-1s-1.9-1-2.5-1c-.5 0-.3.5.5 1zM407.1 88.4c.2.2 1.5.9 2.9 1.5 2.4 1.1 2.4 1.1.6-.3-1.6-1.3-4.9-2.4-3.5-1.2zM162.9 89.7c-1.3 1.6-1.2 1.7.4.4.9-.7 1.7-1.5 1.7-1.7 0-.8-.8-.3-2.1 1.3zM156 99.2c-4.9 7-10.9 16.8-9.7 15.8 1-.9 15.6-23 15.1-23-.2 0-2.6 3.3-5.4 7.2zM165.2 116.9c-4.4 3.3-8.3 6.4-8.6 7-.4.6 3.3-1.9 8.1-5.6 10.1-7.5 9.8-7.3 9.1-7.3-.4 0-4.2 2.7-8.6 5.9zM152.4 127.2l-1.9 2.3 2.3-1.9c2.1-1.8 2.7-2.6 1.9-2.6-.2 0-1.2 1-2.3 2.2zM440 91.4c0 .2.8 1 1.8 1.7 1.5 1.3 1.6 1.2.3-.4s-2.1-2.1-2.1-1.3zM449.1 104.2c6.4 9.8 8 11.9 5.9 7.8-1.8-3.5-11-17-11.5-17-.3 0 2.3 4.2 5.6 9.2zM429 111.7c1.4 1 6.3 4.6 11 8.1 4.7 3.4 6.7 4.6 4.5 2.6-2.2-2-6.5-5.3-9.5-7.3-5.8-4-10.2-6.4-6-3.4z"/><path d="M457 117c.6 1.1 1.3 2 1.6 2 .2 0 0-.9-.6-2s-1.3-2-1.6-2c-.2 0 0 .9.6 2zM115.1 156.6c-.7 2.5-1 4.8-.8 5.1.3.2 1-1.7 1.6-4.3.7-2.5 1-4.8.8-5.1-.3-.2-1 1.7-1.6 4.3zM137.7 160.2c-5.3 6.3-14.4 19.8-13.4 19.8.2 0 2.5-3.1 5-6.8 2.5-3.8 6.6-9.4 9.1-12.5 2.5-3.2 4.4-5.7 4.2-5.7-.2 0-2.4 2.4-4.9 5.2zM113.1 164.6c0 1.1.3 1.4.6.6.3-.7.2-1.6-.1-1.9-.3-.4-.6.2-.5 1.3zM112.2 169c0 1.4.2 1.9.5 1.2.2-.6.2-1.8 0-2.5-.3-.6-.5-.1-.5 1.3zM111.1 173.6c0 1.1.3 1.4.6.6.3-.7.2-1.6-.1-1.9-.3-.4-.6.2-.5 1.3zM110.1 178.6c0 1.1.3 1.4.6.6.3-.7.2-1.6-.1-1.9-.3-.4-.6.2-.5 1.3zM95.3 207c0 3.6.2 5 .4 3.2.2-1.7.2-4.7 0-6.5-.2-1.7-.4-.3-.4 3.3zM81.6 230.1c-3.2 2.5-3.5 6.8-.6 9.4 2 1.8 2 1.8-.5 4.3-5 5-1.5 12.4 6 12.4 5 0 8.5-3.3 8.5-8.2 0-2.4-.7-4.3-2-5.5-1.7-1.6-1.8-2-.6-3.4 2.6-3 2.7-5.7.5-8.4-2.6-3.4-7.5-3.6-11.3-.6zm7.8 1.5c2 2 2 3.8 0 5.9-1.3 1.2-1.9 1.3-3.1.4-2.8-2.3-3.4-4.7-1.7-6.3 1.9-2 2.9-2 4.8 0zm-.1 14.2c3.8 3.3 1 9-3.8 7.8-3.3-.8-4.3-4.8-2.1-8.1 1.7-2.6 2.5-2.5 5.9.3z"/><path d="M65 230c0 .5.9 1 2 1 1.9 0 2 .7 2 11.1 0 10.2-.2 11.1-2 11.6-4.1 1.1-1.8 2.3 4.5 2.3 3.7 0 6.5-.4 6.5-1s-.7-1-1.5-1c-1.3 0-1.5-2.1-1.5-12.5V229h-5c-2.7 0-5 .4-5 1zM96 229.9c0 .5.9 1.1 2 1.4 1.8.5 2 1.4 2 11.2 0 9.8-.2 10.7-2 11.2-4.1 1.1-1.8 2.3 4.5 2.3 3.7 0 6.5-.4 6.5-1s-.6-1-1.4-1c-2.2 0-2.6-2.3-2.6-14.1V229h-4.5c-2.5 0-4.5.4-4.5.9zM110.3 232.5c-1.2 3.8-.8 4.2 2.1 2 1.1-.8 3.7-1.5 5.7-1.5h3.8l-5 10.5c-2.7 5.7-4.9 10.9-4.9 11.5 0 .5 1.6 1 3.5 1 3.3 0 3.5-.2 3.5-3.3 0-3.8 2.7-12.2 5.9-18.5 1.1-2.2 2.1-4.4 2.1-4.7 0-.3-3.5-.5-7.8-.5h-7.9l-1 3.5zM95.4 284c0 6.3.1 8.9.3 5.7.2-3.1.2-8.3 0-11.5-.2-3.1-.3-.5-.3 5.8zM106 273.9c0 .6.5 1.3 1 1.6.6.3 1-.1 1-.9 0-.9-.4-1.6-1-1.6-.5 0-1 .4-1 .9zM119.6 278c.3 1.4 1.1 3.2 1.6 4 .6 1 .7.7.2-1-.3-1.4-1.1-3.2-1.6-4-.6-1-.7-.7-.2 1zM123 314c.6 1.1 1.3 2 1.6 2 .2 0 0-.9-.6-2s-1.3-2-1.6-2c-.2 0 0 .9.6 2zM110.1 316.6c0 1.1.3 1.4.6.6.3-.7.2-1.6-.1-1.9-.3-.4-.6.2-.5 1.3zM126.6 319.5c2.8 4.9 10.1 15 12 16.6.9.7-.9-2.2-4.2-6.6-3.2-4.4-6.7-9.2-7.7-10.5-1.8-2.5-1.8-2.5-.1.5zM111.2 322c0 1.4.2 1.9.5 1.2.2-.6.2-1.8 0-2.5-.3-.6-.5-.1-.5 1.3zM112.1 325.8c-.1 1.9 3.2 14.8 3.6 13.7.1-.6-.6-4.2-1.6-8-1.1-3.9-2-6.4-2-5.7zM142 340.5c1.3 1.4 2.6 2.5 2.8 2.5.3 0-.5-1.1-1.8-2.5s-2.6-2.5-2.8-2.5c-.3 0 .5 1.1 1.8 2.5zM116.2 342c0 .8.8 3.7 1.8 6.5 1 2.7 1.8 4.3 1.8 3.5 0-.8-.8-3.8-1.8-6.5-1-2.8-1.8-4.3-1.8-3.5zM483.2 144.5c0 .5.6 2.6 1.3 4.5.7 1.9 1.4 2.8 1.4 2 0-.8-.6-2.9-1.4-4.5-.7-1.7-1.3-2.6-1.3-2zM486.1 154c0 .8.4 2.4.9 3.5.5 1.3.9 1.4.9.5 0-.8-.4-2.4-.9-3.5-.5-1.3-.9-1.4-.9-.5zM463.2 159.1c2.5 3.1 6 7.7 7.7 10.3 1.8 2.5 3.4 4.6 3.7 4.6 1.2 0-10.3-15.5-13.7-18.5-1.2-1.1-.2.5 2.3 3.6zM488.1 161.6c0 1.1.3 1.4.6.6.3-.7.2-1.6-.1-1.9-.3-.4-.6.2-.5 1.3zM489.1 165.6c0 1.1.3 1.4.6.6.3-.7.2-1.6-.1-1.9-.3-.4-.6.2-.5 1.3zM490.2 170c0 1.4.2 1.9.5 1.2.2-.6.2-1.8 0-2.5-.3-.6-.5-.1-.5 1.3zM491.2 175c0 1.4.2 1.9.5 1.2.2-.6.2-1.8 0-2.5-.3-.6-.5-.1-.5 1.3zM475.9 176.5c.5 1.1 1.7 2.9 2.6 4l1.6 2-1-2c-.5-1.1-1.7-2.9-2.6-4l-1.6-2 1 2zM507.3 209c0 2.5.2 3.5.4 2.2.2-1.2.2-3.2 0-4.5-.2-1.2-.4-.2-.4 2.3zM475.8 229.4c-2.1 1.5-3.6 5.5-3 7.8.6 2.7 1.9 2.1 2.5-1.1.7-3.3 3-4.5 5.8-3.1 4.7 2.6.7 13.4-7 19.1-1.7 1.2-2.8 2.6-2.5 3.1.3.4 3.9.8 7.9.8 7.3 0 7.5-.1 9-3.1 1.8-3.3 1.4-4.8-.7-3.2-.7.6-3 1.3-5.1 1.5l-3.7.4 3.9-4c6.8-6.9 7.7-12.1 3.2-16.7-3.2-3.1-7.4-3.8-10.3-1.5zM495 230c-3 3-4 6.3-4 12.9 0 12.9 10.2 18.2 15.2 8.1 2-3.8 2.4-12.4.8-16.4-1.4-3.7-4.7-6.6-7.5-6.6-1.4 0-3.4.9-4.5 2zm7.3 6c1.6 9.1-1.5 21.5-4.3 16.9-2.2-3.4-2.3-13.2-.3-20.2.9-3.4 3.7-1.4 4.6 3.3z"/><path d="M508 229.9c0 .5.9 1.1 2 1.4 1.8.5 2 1.4 2 11.2 0 9.8-.2 10.7-2 11.2-4.1 1.1-1.8 2.3 4.5 2.3 3.7 0 6.5-.4 6.5-1s-.6-1-1.4-1c-2.2 0-2.6-2.3-2.6-14.1V229h-4.5c-2.5 0-4.5.4-4.5.9zM522.3 232.5c-1.2 3.8-.8 4.2 2.1 2 1.1-.8 3.7-1.5 5.7-1.5h3.8l-5 10.5c-2.7 5.7-4.9 10.9-4.9 11.5 0 .5 1.6 1 3.5 1 3.3 0 3.5-.2 3.5-3.3 0-3.8 2.7-12.2 5.9-18.5 1.1-2.2 2.1-4.4 2.1-4.7 0-.3-3.5-.5-7.8-.5h-7.9l-1 3.5zM483.6 274.5c-.9 2.6-.7 3.2.5 1.2.6-1 .9-2.1.6-2.3-.2-.3-.7.2-1.1 1.1zM495 275.2c0 1.9.2 2 1 .8 1.3-1.9 1.3-3 0-3-.5 0-1 1-1 2.2zM506.8 280.3c.5 10.8.9 12.2 1 3.2.1-4.4-.2-8.5-.6-9.2-.4-.7-.6 2-.4 6zM481.6 279.5c-.9 2.6-.7 3.2.5 1.2.6-1 .9-2.1.6-2.3-.2-.3-.7.2-1.1 1.1zM479.6 284.5c-.9 2.6-.7 3.2.5 1.2.6-1 .9-2.1.6-2.3-.2-.3-.7.2-1.1 1.1zM473.5 322.2c-2.6 4-6.6 9.5-8.9 12.3-2.2 2.7-3.2 4.3-2.2 3.5 2.1-1.6 10.9-13.3 14.5-19.3 3.9-6.4 1.6-4-3.4 3.5zM491.2 321c0 1.4.2 1.9.5 1.2.2-.6.2-1.8 0-2.5-.3-.6-.5-.1-.5 1.3zM488 333.7c-1.4 5.4-2.7 10.5-2.9 11.3-.2.8-.1 1.3.3.9.9-.8 5.8-19.9 5.4-21-.2-.6-1.5 3.3-2.8 8.8zM458.4 342.2l-1.9 2.3 2.3-1.9c1.2-1.1 2.2-2.1 2.2-2.3 0-.8-.8-.2-2.6 1.9zM155.5 371c1 1.1 2 2 2.3 2 .3 0-.3-.9-1.3-2s-2-2-2.3-2c-.3 0 .3.9 1.3 2zM159.5 374c.7 1.1 11.6 8.9 16 11.4 3 1.7 3 1.7.5-.1-8.9-6.6-17-12.1-16.5-11.3zM145 379c.6 1.1 1.3 2 1.6 2 .2 0 0-.9-.6-2s-1.3-2-1.6-2c-.2 0 0 .9.6 2zM148 384c.6 1.1 1.3 2 1.6 2 .2 0 0-.9-.6-2s-1.3-2-1.6-2c-.2 0 0 .9.6 2z"/><path d="M151.7 390c.9 1.7 2.8 4.3 4.1 5.8 1.3 1.5.6.1-1.4-3.1-3.8-5.9-5.8-7.9-2.7-2.7zM158 399.4c0 .2.8 1 1.8 1.7 1.5 1.3 1.6 1.2.3-.4s-2.1-2.1-2.1-1.3zM447.4 370.2l-1.9 2.3 2.3-1.9c1.2-1.1 2.2-2.1 2.2-2.3 0-.8-.8-.2-2.6 1.9zM438 377.1c-6.9 5.3-8.4 6.7-6 5.4 2.3-1.3 13-9.6 13-10.1 0-.7-.1-.6-7 4.7zM455 382c-.6 1.1-.8 2-.6 2 .3 0 1-.9 1.6-2 .6-1.1.8-2 .6-2-.3 0-1 .9-1.6 2zM424.4 386.6c-1.8 1.4-1.8 1.5.4.4 1.2-.6 2.2-1.3 2.2-1.5 0-.8-.5-.6-2.6 1.1zM448.6 392c-2.5 3.8-4.4 7-4.1 7 .2 0 2.2-2.6 4.3-5.8 4.7-7 5.4-8.2 4.9-8.2-.2 0-2.5 3.1-5.1 7zM441.9 401.7c-1.3 1.6-1.2 1.7.4.4.9-.7 1.7-1.5 1.7-1.7 0-.8-.8-.3-2.1 1.3zM194 407c.8.5 2 1 2.5 1 .6 0 .3-.5-.5-1s-1.9-1-2.5-1c-.5 0-.3.5.5 1zM201 410c.8.5 2 1 2.5 1 .6 0 .3-.5-.5-1s-1.9-1-2.5-1c-.5 0-.3.5.5 1zM186.5 416.9c2.2 2.3 6.7 6.6 10 9.4 6.9 5.8 4.4 3.2-6.5-6.9-4.1-3.8-5.7-4.9-3.5-2.5zM204.5 433c1 1.1 2 2 2.3 2 .3 0-.3-.9-1.3-2s-2-2-2.3-2c-.3 0 .3.9 1.3 2zM409 406c-.8.5-1 1-.5 1 .6 0 1.7-.5 2.5-1s1.1-1 .5-1c-.5 0-1.7.5-2.5 1zM402 409c-.8.5-1 1-.5 1 .6 0 1.7-.5 2.5-1s1.1-1 .5-1c-.5 0-1.7.5-2.5 1zM397 411c-.8.5-1 1-.5 1 .6 0 1.7-.5 2.5-1s1.1-1 .5-1c-.5 0-1.7.5-2.5 1zM410 422.2l-8.5 8 8.3-7.2c7.3-6.4 10-9.1 9-9-.2.1-4.1 3.7-8.8 8.2zM398.4 432.2l-1.9 2.3 2.3-1.9c1.2-1.1 2.2-2.1 2.2-2.3 0-.8-.8-.2-2.6 1.9zM211 424.5c0 .1 2.4 1.9 5.3 3.9 5 3.4 18.3 8.3 19.5 7.2.7-.8.8-.7-6.8-4.6-5.6-2.9-18-7.4-18-6.5zM386 425.7c-4.5 1.5-19 8.8-19 9.5 0 1.2.8 1 9-1.7 4.1-1.4 9.1-3.9 11-5.5 3.2-2.7 2.8-3.6-1-2.3zM235.8 429.7c.7.3 1.6.2 1.9-.1.4-.3-.2-.6-1.3-.5-1.1 0-1.4.3-.6.6zM365.8 429.7c.7.3 1.6.2 1.9-.1.4-.3-.2-.6-1.3-.5-1.1 0-1.4.3-.6.6zM241.3 430.7c.9.2 2.3.2 3 0 .6-.3-.1-.5-1.8-.5-1.6 0-2.2.2-1.2.5zM358.3 430.7c.9.2 2.3.2 3 0 .6-.3-.1-.5-1.8-.5-1.6 0-2.2.2-1.2.5zM249.8 431.7c1.2.2 3 .2 4 0 .9-.3-.1-.5-2.3-.4-2.2 0-3 .2-1.7.4zM348.8 431.7c1.2.2 3.2.2 4.5 0 1.2-.2.2-.4-2.3-.4s-3.5.2-2.2.4zM236 442.4c0 .3 1.4 1.2 3 2.1 1.7.9 3 1.3 3 1.1 0-.3-1.3-1.2-3-2.1-1.6-.9-3-1.3-3-1.1zM357 447c-4.1 2.1-7.2 3.9-6.7 4 1 0 14.7-6.9 14.7-7.5 0-.7.3-.8-8 3.5zM267.8 444.7c.7.3 1.6.2 1.9-.1.4-.3-.2-.6-1.3-.5-1.1 0-1.4.3-.6.6zM332.8 444.7c.6.2 1.8.2 2.5 0 .6-.3.1-.5-1.3-.5-1.4 0-1.9.2-1.2.5zM273.3 445.7c.9.2 2.3.2 3 0 .6-.3-.1-.5-1.8-.5-1.6 0-2.2.2-1.2.5zM326.8 445.7c.6.2 1.8.2 2.5 0 .6-.3.1-.5-1.3-.5-1.4 0-1.9.2-1.2.5zM280.3 446.7c.9.2 2.5.2 3.5 0 .9-.3.1-.5-1.8-.5-1.9 0-2.7.2-1.7.5zM318.8 446.7c1.2.2 3 .2 4 0 .9-.3-.1-.5-2.3-.4-2.2 0-3 .2-1.7.4zM306.4 482.8c-2 1.3-3.4 5-3.4 9.2 0 10.4 8.4 14.9 12.4 6.6 3.4-7.2.4-16.6-5.1-16.6-1.6 0-3.3.4-3.9.8zM494.2 489.9c-1.6 5.2-1.6 5.1 1.8 5.1 1.7 0 3-.5 3-1.2 0-1.8-2.3-7.8-3-7.8-.4 0-1.2 1.7-1.8 3.9zM193 486.5c0 4.4.5 5 4 4.5 1.7-.2 4-2.8 4-4.6 0-2.1-3-4.4-5.6-4.4-2.2 0-2.4.4-2.4 4.5zM469.3 535l-3.2 9h6.5c4.9 0 6.5-.3 6.2-1.3-.3-.6-1.5-4.4-2.8-8.2-1.2-3.9-2.5-7.3-2.9-7.7-.4-.4-2.1 3.3-3.8 8.2zM88 528.5c0 8.4-.1 8.3 7.5 6.5 4.5-1 6.5-3.2 6.5-7.2 0-4.4-3.1-6.8-9-6.8h-5v7.5zM88 547.3c0 8.4.8 9.7 6.3 9.7 8.1 0 12.6-9.1 7.2-14.5-2-2.1-3.4-2.5-8-2.5H88v7.3z"/></svg>