<?xml version="1.0" standalone="no"?>
<!DOCTYPE svg PUBLIC "-//W3C//DTD SVG 20010904//EN"
 "http://www.w3.org/TR/2001/REC-SVG-20010904/DTD/svg10.dtd">
<svg version="1.0" xmlns="http://www.w3.org/2000/svg"
 width="600.000000pt" height="600.000000pt" viewBox="0 0 600.000000 600.000000"
 preserveAspectRatio="xMidYMid meet">
<metadata>
Created by potrace 1.11, written by Peter Selinger 2001-2013
</metadata>
<g transform="translate(0.000000,600.000000) scale(0.100000,-0.100000)"
fill="#000000" stroke="none">
<path d="M0 3000 l0 -3000 3000 0 3000 0 0 3000 0 3000 -3000 0 -3000 0 0
-3000z m2665 2609 c0 -7 -139 -126 -171 -146 -37 -24 38 7 93 38 120 69 227
84 362 53 62 -14 75 -14 129 0 126 33 252 13 372 -59 79 -47 117 -56 59 -14
-72 53 -150 127 -140 133 15 10 162 -13 229 -35 76 -25 132 -66 192 -140 25
-31 72 -78 105 -104 80 -64 78 -62 71 -73 -3 -6 -38 0 -88 14 -77 23 -89 24
-156 13 -40 -7 -101 -9 -135 -6 -67 7 -259 67 -264 83 -2 6 32 21 74 33 134
40 134 41 13 36 -133 -6 -214 5 -321 41 l-76 26 -74 -25 c-106 -37 -188 -47
-319 -42 -121 5 -121 4 13 -36 42 -12 76 -27 74 -32 -5 -16 -204 -77 -271 -84
-34 -3 -93 0 -131 6 -64 11 -77 10 -152 -12 -118 -34 -123 -24 -25 53 37 30
74 63 82 74 64 91 159 162 249 186 84 22 206 33 206 19z m-482 -135 c3 -4 -6
-23 -22 -43 -15 -20 -46 -61 -69 -92 -49 -68 -95 -107 -225 -188 -90 -56 -115
-78 -171 -149 -19 -24 -19 -24 0 -14 50 29 108 72 173 129 76 67 139 104 209
122 52 14 212 4 212 -13 -1 -6 -38 -34 -83 -62 -145 -91 -185 -107 -322 -124
-64 -8 -90 -17 -153 -55 -113 -68 -120 -59 -39 49 30 39 72 109 94 156 61 130
135 192 308 261 78 31 79 31 88 23z m1750 -23 c163 -61 261 -145 313 -268 16
-37 55 -104 87 -147 34 -46 54 -83 49 -88 -5 -5 -41 10 -86 37 -66 39 -90 47
-159 56 -90 11 -132 22 -192 51 -72 35 -205 122 -205 134 0 17 145 27 207 14
64 -14 151 -66 219 -130 52 -49 162 -125 170 -117 12 12 -115 123 -206 180
-58 36 -124 85 -146 109 -52 54 -145 184 -137 192 8 7 -5 11 86 -23z m-2213
-248 c0 -3 -16 -51 -36 -105 -45 -123 -87 -188 -197 -305 -83 -89 -107 -124
-141 -208 l-16 -40 48 51 c26 28 78 96 115 152 72 107 125 159 199 192 47 20
194 47 205 37 9 -10 -147 -175 -208 -221 -31 -24 -94 -58 -140 -76 -72 -28
-95 -44 -161 -108 -43 -42 -80 -73 -84 -69 -4 4 8 46 26 94 18 49 37 113 42
143 20 116 42 183 78 238 45 68 84 107 182 177 72 53 88 61 88 48z m2675 -47
c115 -77 206 -189 237 -291 5 -16 12 -60 17 -96 5 -36 25 -107 46 -158 51
-129 41 -140 -44 -49 -63 67 -79 79 -161 112 -50 21 -116 57 -148 80 -62 46
-219 213 -209 223 11 10 158 -16 204 -37 62 -27 156 -121 210 -210 43 -69 132
-175 140 -166 3 2 -9 32 -25 67 -21 45 -60 97 -131 173 -99 108 -153 192 -181
281 -7 22 -21 56 -31 76 -18 36 -16 54 5 42 6 -4 38 -25 71 -47z m-3140 -553
c-9 -174 -25 -232 -120 -438 -31 -67 -38 -94 -42 -165 l-4 -85 34 80 c19 44
44 120 56 169 43 183 108 274 249 345 44 22 82 38 85 35 8 -8 -87 -216 -127
-278 -38 -59 -84 -109 -157 -169 -36 -28 -56 -57 -88 -126 -22 -49 -41 -92
-41 -95 0 -23 41 5 101 69 39 41 75 75 80 75 5 0 6 -34 2 -75 l-6 -75 107 0
106 0 0 50 c0 43 3 50 20 50 20 0 20 -7 20 -415 0 -408 0 -415 -20 -415 -18 0
-20 7 -20 65 l0 65 -110 0 -110 0 0 -27 c0 -16 5 -68 10 -118 5 -49 7 -91 4
-94 -8 -8 -141 129 -160 165 -10 19 -22 34 -26 34 -18 0 -6 -50 32 -134 36
-82 49 -98 144 -190 103 -100 105 -102 176 -249 39 -82 69 -152 65 -155 -3 -4
-44 13 -90 36 -138 71 -205 164 -246 341 -11 47 -34 122 -52 165 l-32 80 -3
-55 c-3 -68 13 -124 77 -269 27 -63 57 -142 65 -175 17 -71 31 -295 18 -295
-16 0 -124 153 -158 223 -46 97 -61 188 -44 280 19 104 25 332 9 369 -12 29
-13 27 -37 -64 -13 -51 -29 -115 -36 -142 -7 -28 -17 -51 -22 -53 -12 -4 -70
171 -85 260 l-11 67 -314 0 c-173 0 -314 3 -314 6 0 3 58 69 130 146 l129 141
-120 138 c-67 77 -125 142 -130 145 -33 20 18 24 311 24 248 0 321 3 324 13
29 103 72 217 83 217 7 0 13 -8 13 -17 0 -10 12 -62 27 -115 22 -76 32 -98 46
-98 15 0 17 12 17 118 -1 64 -7 146 -15 182 -26 120 -13 218 45 335 32 63 139
214 153 215 4 0 5 -53 2 -117z m3617 -7 c98 -142 128 -262 103 -407 -8 -49
-15 -141 -15 -205 0 -101 2 -115 16 -112 11 2 26 33 45 98 16 52 29 103 29
113 0 9 6 17 13 17 12 0 78 -185 77 -217 0 -10 69 -13 310 -13 283 0 334 -4
301 -24 -5 -3 -63 -68 -130 -145 l-120 -138 129 -141 c72 -77 130 -143 130
-146 0 -3 -136 -7 -302 -8 l-303 -3 -8 -63 c-14 -117 -97 -325 -97 -244 0 11
-9 51 -21 88 -12 38 -27 95 -34 129 -13 60 -13 60 -25 30 -14 -37 -9 -280 9
-378 23 -126 -22 -267 -136 -419 -32 -43 -62 -78 -67 -78 -14 0 1 249 19 310
9 30 44 117 76 192 53 121 60 147 65 220 l5 83 -31 -70 c-18 -38 -45 -120 -60
-182 -33 -133 -77 -220 -137 -273 -47 -41 -188 -119 -198 -109 -8 8 87 217
128 281 19 30 73 89 120 132 75 70 90 89 126 167 26 55 41 102 41 126 l0 38
-26 -45 c-26 -46 -141 -170 -157 -170 -5 0 -7 24 -3 53 3 28 8 82 12 120 l6
67 -126 0 -126 0 0 -65 c0 -58 -2 -65 -20 -65 -20 0 -20 7 -20 415 0 408 0
415 20 415 17 0 20 -7 20 -50 l0 -50 121 0 122 0 -7 75 c-4 46 -3 75 3 75 5 0
40 -34 78 -75 38 -41 77 -75 86 -75 9 0 17 2 17 5 0 2 -18 44 -41 93 -36 80
-48 96 -111 147 -39 32 -89 83 -112 114 -43 60 -163 307 -153 317 11 12 168
-79 211 -122 57 -58 98 -145 130 -276 14 -58 40 -135 56 -170 l30 -63 -5 83
c-5 72 -13 99 -59 205 -89 201 -106 272 -105 437 l0 85 30 -35 c17 -19 49 -61
71 -94z m-2216 -495 c181 -297 330 -538 333 -535 2 2 151 244 331 536 l326
533 262 3 262 2 0 -205 0 -205 -65 0 -65 0 2 -697 3 -698 63 -3 62 -3 0 -189
0 -190 -330 0 -330 0 0 190 0 190 65 0 65 0 0 487 0 487 -231 -379 c-127 -209
-237 -390 -245 -402 -14 -22 -19 -23 -177 -23 l-162 0 -244 400 c-134 220
-246 400 -248 400 -1 0 -3 -218 -3 -485 l0 -485 65 0 65 0 0 -190 0 -190 -330
0 -330 0 0 190 0 190 65 0 65 0 0 700 0 700 -65 0 -65 0 0 205 0 205 264 0
263 0 329 -539z m-1120 -1730 c51 -21 111 -52 135 -69 60 -42 238 -227 227
-237 -10 -10 -180 26 -220 46 -63 32 -127 97 -187 190 -31 47 -80 112 -109
145 l-53 59 21 -54 c32 -82 36 -88 136 -198 112 -122 151 -181 193 -293 55
-144 56 -142 -39 -76 -158 111 -239 228 -260 381 -7 44 -27 120 -47 168 -50
127 -38 140 45 49 60 -64 77 -77 158 -111z m3159 64 c-21 -54 -41 -129 -47
-167 -17 -127 -59 -208 -151 -295 -57 -54 -176 -138 -183 -130 -7 6 48 163 75
215 25 49 81 119 173 218 49 52 83 100 102 142 15 35 26 65 24 67 -8 8 -104
-111 -143 -175 -50 -83 -141 -175 -200 -201 -33 -15 -181 -49 -212 -49 -21 0
55 90 157 187 58 55 128 98 220 132 42 16 73 39 130 96 41 41 78 71 83 66 5
-5 -8 -52 -28 -106z m-432 78 c-7 -2 -14 -19 -14 -36 l-2 -32 -4 30 c-3 16
-10 33 -16 37 -7 4 2 7 18 7 17 0 24 -3 18 -6z m28 -38 c-9 -30 -9 -30 -10 10
-1 25 2 36 9 29 6 -6 6 -21 1 -39z m48 8 c0 -33 -1 -35 -9 -15 -8 20 -4 52 6
52 2 0 4 -17 3 -37z m-19 -23 c0 -5 -2 -10 -4 -10 -3 0 -8 5 -11 10 -3 6 -1
10 4 10 6 0 11 -4 11 -10z m-2410 -459 c64 -8 115 -21 157 -40 72 -34 223
-129 223 -141 0 -12 -124 -23 -186 -17 -69 7 -157 54 -237 127 -60 55 -177
137 -177 124 0 -3 18 -28 40 -54 25 -30 79 -72 143 -111 56 -35 127 -86 157
-115 59 -56 157 -190 147 -201 -10 -9 -149 45 -214 83 -79 47 -146 122 -179
203 -15 36 -51 98 -79 136 -65 89 -67 93 -60 104 3 5 42 -12 88 -38 73 -42 93
-49 177 -60z m2459 57 c-12 -18 -37 -51 -55 -73 -17 -22 -48 -75 -67 -118 -46
-100 -83 -146 -158 -196 -62 -41 -211 -104 -235 -99 -20 4 102 174 159 221 24
20 91 65 149 101 90 56 141 102 172 154 17 29 -79 -36 -157 -106 -100 -89
-187 -134 -268 -140 -67 -5 -169 6 -169 17 0 13 147 106 221 141 46 21 95 34
159 42 81 10 102 17 173 59 45 26 86 43 91 39 5 -5 -2 -23 -15 -42z m-2220
-289 c67 -19 85 -20 166 -11 54 6 112 7 145 1 62 -9 250 -70 250 -80 0 -11
-115 -51 -172 -59 -66 -9 -42 -12 147 -14 140 -1 156 -3 239 -32 l89 -31 86
30 c83 30 93 31 259 33 95 0 175 4 179 7 3 4 -11 7 -33 8 -45 0 -176 40 -181
54 -4 14 170 74 243 85 35 4 94 4 146 -3 80 -9 95 -8 164 12 48 14 80 19 86
13 6 -6 -19 -33 -66 -71 -41 -34 -90 -82 -108 -107 -39 -55 -106 -106 -173
-132 -76 -30 -256 -54 -255 -34 1 4 23 25 51 47 27 22 69 55 92 74 52 41 22
35 -62 -14 -118 -69 -210 -85 -332 -60 -100 21 -94 21 -194 0 -111 -25 -186
-12 -309 50 -97 50 -136 67 -136 60 0 -2 13 -11 30 -20 33 -17 153 -121 159
-137 6 -16 -137 -1 -212 22 -84 26 -151 72 -203 140 -24 30 -75 81 -114 113
-62 51 -84 77 -63 77 4 0 41 -10 82 -21z m74 -572 c13 -1 17 -10 17 -37 l-1
-35 -14 26 c-26 48 -95 46 -95 -3 0 -14 15 -26 54 -43 29 -13 56 -31 60 -40
24 -65 -19 -121 -87 -112 -44 6 -77 31 -77 59 0 26 15 22 28 -6 26 -58 128
-38 105 20 -3 8 -30 26 -59 39 -40 18 -55 30 -60 50 -13 54 32 101 86 89 14
-3 33 -6 43 -7z m953 -18 c64 -53 55 -177 -16 -214 -129 -67 -252 102 -149
204 40 41 122 46 165 10z m981 9 c7 -5 17 -7 23 -3 6 4 10 -8 10 -32 l0 -38
-26 33 c-42 53 -113 42 -134 -23 -14 -42 -6 -85 21 -120 27 -33 83 -35 116 -3
20 18 23 19 23 5 0 -24 -58 -57 -98 -57 -102 0 -158 124 -94 209 33 45 120 61
159 29z m636 0 c21 -8 27 -17 27 -42 -1 -28 -2 -29 -12 -11 -28 53 -93 62
-127 19 -25 -32 -28 -101 -6 -144 17 -33 59 -49 84 -33 23 15 26 54 5 70 -15
11 -11 13 35 13 48 0 51 -1 37 -16 -9 -8 -16 -28 -16 -44 0 -22 -6 -30 -31
-39 -101 -35 -179 18 -179 121 0 43 19 84 49 103 40 26 75 26 134 3z m222 -50
c35 -128 54 -168 79 -168 28 0 36 29 36 131 0 59 -3 70 -22 83 -22 16 -22 16
17 16 38 0 43 -4 105 -83 l65 -82 3 65 c3 57 0 67 -19 82 -21 18 -20 18 27 18
38 -1 45 -3 32 -11 -16 -9 -18 -26 -18 -124 0 -63 -4 -115 -8 -115 -5 0 -17
12 -29 28 -11 15 -45 58 -77 96 l-56 69 0 -82 c0 -75 2 -82 23 -90 18 -7 13
-9 -28 -12 -44 -4 -179 5 -147 9 6 1 12 13 12 27 0 23 -3 25 -50 25 -27 0 -50
-2 -50 -4 0 -2 -3 -11 -6 -20 -4 -11 2 -19 17 -25 19 -8 13 -10 -31 -9 -30 0
-47 2 -38 5 11 3 29 35 48 86 17 45 36 94 42 110 10 27 36 49 49 41 3 -2 14
-32 24 -66z m-4177 51 c-15 -8 -18 -24 -18 -93 0 -96 12 -119 59 -119 52 0 65
22 70 115 3 70 1 84 -15 95 -16 11 -12 13 31 13 41 0 46 -2 32 -12 -12 -10
-18 -36 -23 -97 -9 -110 -29 -136 -104 -136 -44 0 -55 4 -76 28 -21 25 -24 38
-24 112 0 69 -3 86 -17 94 -14 8 -4 10 42 10 46 0 56 -2 43 -10z m307 -61 c32
-40 62 -77 67 -82 4 -6 8 22 8 62 0 66 -2 73 -22 82 -18 7 -10 9 32 8 30 0 47
-2 38 -5 -16 -4 -24 -51 -31 -198 l-2 -49 -73 92 c-41 51 -78 92 -83 92 -5 0
-9 -29 -9 -65 0 -52 4 -69 20 -85 l20 -20 -47 0 c-38 1 -44 3 -30 11 14 8 17
25 17 109 0 84 -3 101 -17 109 -15 8 -11 10 18 11 34 0 42 -6 94 -72z m235 62
c-12 -7 -15 -31 -15 -110 0 -79 3 -103 15 -110 10 -7 -2 -10 -40 -10 -42 1
-51 3 -37 11 14 8 17 25 17 109 0 84 -3 101 -17 109 -14 8 -5 10 37 11 39 0
51 -3 40 -10z m126 -3 c-18 -13 -18 -16 4 -83 12 -38 26 -73 30 -77 4 -5 20
26 36 69 27 74 27 77 9 90 -16 12 -1 14 113 14 l132 0 0 -27 c0 -25 -1 -25
-18 -10 -10 10 -33 17 -50 17 -31 0 -32 -1 -32 -45 0 -41 2 -45 25 -45 13 0
29 8 34 18 8 13 10 7 10 -28 -1 -25 -3 -37 -6 -27 -3 11 -14 17 -34 17 -28 0
-29 -2 -29 -45 l0 -45 45 0 c38 0 47 4 55 23 8 20 9 19 9 -10 l1 -33 -92 0
c-51 0 -88 4 -82 8 16 10 27 114 19 173 -5 38 -11 49 -25 49 -25 0 -36 -17
-85 -132 -24 -57 -47 -103 -51 -103 -4 0 -13 18 -21 40 -34 101 -66 177 -80
190 -13 13 -8 15 43 15 51 0 56 -2 40 -13z m522 -3 c29 -20 29 -61 0 -91 l-22
-24 24 -45 c14 -25 34 -52 45 -60 19 -14 19 -14 -3 -14 -38 0 -61 18 -87 70
-33 64 -55 66 -55 5 0 -31 5 -47 18 -54 13 -8 4 -10 -38 -10 -42 0 -51 2 -37
10 14 8 17 25 17 109 0 84 -3 101 -17 109 -14 8 1 10 57 11 53 0 82 -5 98 -16z
m318 0 c-12 -12 -16 -37 -16 -104 0 -67 4 -92 16 -104 14 -15 11 -16 -38 -16
-41 1 -49 3 -35 11 14 8 17 25 17 109 0 84 -3 101 -17 109 -14 8 -6 10 35 11
49 0 52 -1 38 -16z m254 -16 c0 -32 0 -32 -16 -10 -10 14 -25 22 -45 22 l-29
0 0 -100 c0 -84 3 -101 18 -109 13 -8 4 -10 -38 -10 -42 0 -51 2 -37 10 14 8
17 25 17 110 l0 100 -32 -3 c-23 -2 -36 -11 -45 -28 -12 -24 -13 -24 -13 13
l0 37 110 0 110 0 0 -32z m122 22 c-21 -9 -22 -11 -8 -37 35 -67 39 -68 63
-19 21 42 21 46 5 55 -13 8 -5 10 33 10 37 0 46 -2 33 -9 -9 -6 -30 -33 -47
-60 -25 -40 -31 -61 -31 -104 0 -44 4 -55 18 -59 9 -3 -12 -5 -48 -5 -48 -1
-59 2 -42 8 38 16 30 77 -18 155 -23 35 -49 66 -58 68 -9 3 15 5 53 5 52 1 64
-2 47 -8z m684 -15 c8 -33 -1 -43 -16 -16 -8 16 -20 21 -50 21 l-40 0 0 -45
c0 -43 1 -45 30 -45 17 0 33 7 39 18 8 13 10 7 10 -28 0 -35 -2 -41 -10 -27
-6 10 -22 17 -39 17 -29 0 -30 -1 -30 -49 0 -30 5 -51 13 -54 6 -3 -10 -6 -38
-6 -29 0 -45 3 -37 7 21 14 28 163 9 201 l-15 31 84 0 c81 0 84 -1 90 -25z
m234 -67 c19 -48 37 -88 40 -88 3 0 23 41 45 90 l39 90 41 0 c32 -1 36 -3 23
-11 -15 -8 -18 -25 -18 -109 0 -84 3 -101 18 -109 13 -8 2 -10 -43 -10 -33 1
-52 3 -42 6 14 4 17 17 17 86 l-1 82 -41 -93 c-23 -51 -47 -91 -53 -89 -5 2
-26 43 -46 90 -19 48 -39 84 -42 80 -4 -3 -7 -37 -7 -74 0 -54 4 -70 18 -78
13 -8 7 -10 -28 -10 -35 0 -41 2 -27 10 14 8 17 25 17 114 0 73 -4 105 -12
109 -7 3 5 4 27 3 l40 -2 35 -87z m312 80 c-17 -17 -17 -214 1 -221 6 -3 -10
-5 -38 -5 -27 0 -44 2 -37 5 17 7 17 204 0 221 -9 9 -1 12 37 12 38 0 46 -3
37 -12z m356 1 c-13 -7 -18 -23 -18 -54 l0 -45 55 0 55 0 0 45 c0 31 -5 47
-17 54 -14 8 -5 10 37 11 42 0 51 -3 42 -12 -17 -17 -17 -214 1 -221 6 -3 -13
-5 -43 -5 -30 0 -47 2 -37 5 13 3 17 15 17 54 l0 49 -55 0 -55 0 0 -49 c0 -39
4 -51 18 -54 9 -3 -8 -5 -38 -5 -30 0 -49 2 -42 5 17 7 17 204 0 221 -9 9 0
12 43 12 41 -1 50 -3 37 -11z m280 0 c-15 -8 -18 -25 -18 -114 0 -90 2 -104
18 -108 9 -3 -7 -5 -36 -6 -49 -1 -52 0 -38 15 23 23 23 180 -1 206 -15 17
-14 18 38 18 42 -1 50 -3 37 -11z m247 -501 c72 -230 83 -258 111 -268 50 -20
23 -30 -76 -30 -96 0 -131 12 -75 26 26 6 31 26 19 72 -6 21 -12 22 -90 22
l-83 0 -7 -37 c-5 -29 -3 -39 11 -50 11 -7 25 -13 32 -13 7 0 13 -4 13 -10 0
-6 -37 -10 -90 -10 -87 0 -118 12 -65 26 14 3 30 15 36 25 15 28 129 344 129
357 0 11 52 39 76 41 6 1 32 -68 59 -151z m-3761 113 c19 -18 26 -35 26 -63 0
-53 -15 -77 -60 -97 l-39 -17 45 -12 c72 -19 101 -83 70 -156 -23 -55 -61 -66
-230 -66 -80 0 -146 4 -146 8 0 5 11 14 25 20 l25 12 -2 182 c-3 179 -4 183
-25 193 -48 21 -17 26 131 23 148 -3 156 -4 180 -27z m246 21 c0 -4 -10 -12
-22 -17 -22 -10 -23 -14 -26 -193 l-2 -182 25 -12 c45 -20 27 -28 -65 -28 -85
0 -115 11 -72 27 9 4 20 11 24 17 4 6 8 86 8 178 0 138 -3 169 -16 182 -8 9
-20 16 -25 16 -5 0 -9 5 -9 10 0 6 37 10 90 10 50 0 90 -3 90 -8z m337 -16
c24 -14 45 -20 48 -15 4 5 10 9 16 9 10 0 13 -113 3 -123 -4 -4 -19 13 -34 36
-35 56 -69 77 -124 77 -82 0 -136 -69 -136 -175 0 -128 76 -208 181 -190 27 5
51 18 74 42 30 31 35 33 41 18 10 -25 -61 -90 -112 -104 -181 -50 -324 105
-270 292 30 104 100 156 211 157 45 0 70 -6 102 -24z m403 -26 c0 -27 -4 -50
-10 -50 -5 0 -10 5 -10 10 0 6 -9 19 -20 30 -16 16 -33 20 -85 20 l-65 0 0
-76 0 -75 53 3 c43 2 54 7 62 26 17 39 25 24 25 -53 0 -43 -4 -75 -10 -75 -5
0 -10 9 -10 20 0 25 -29 40 -79 40 l-41 0 0 -66 c0 -95 7 -104 86 -104 54 0
69 4 88 23 13 13 25 30 28 38 10 28 16 3 11 -48 l-6 -53 -168 0 c-158 0 -203
8 -146 26 12 4 25 12 29 18 4 6 8 86 8 178 0 138 -3 169 -16 182 -8 9 -22 16
-30 16 -8 0 -14 5 -14 10 0 6 60 10 160 10 l160 0 0 -50z m253 -54 c43 -56 96
-122 117 -146 l39 -45 1 122 c0 129 -8 153 -51 153 -10 0 -19 5 -19 10 0 6 35
10 85 10 86 0 104 -7 63 -25 -31 -14 -35 -42 -37 -248 -1 -138 -4 -178 -13
-175 -7 3 -74 79 -148 169 l-135 166 -3 -126 c-3 -155 -1 -167 38 -174 62 -13
30 -27 -60 -27 -53 0 -90 4 -90 10 0 6 8 10 19 10 10 0 23 6 29 13 5 6 11 91
13 187 l4 175 -32 15 c-18 8 -33 18 -33 23 0 4 30 7 68 6 l67 0 78 -103z m675
42 c3 -63 -10 -76 -27 -28 -12 35 -48 52 -100 48 l-36 -3 -3 -160 c-1 -88 0
-170 3 -183 3 -12 18 -28 33 -35 26 -11 26 -12 -20 -15 -26 -2 -71 -2 -100 0
-51 3 -52 4 -26 15 15 7 30 23 33 35 3 13 4 95 3 183 l-3 160 -36 3 c-52 4
-88 -13 -100 -48 -6 -16 -15 -30 -20 -30 -10 0 -12 103 -2 114 4 3 95 5 202 4
l196 -3 3 -57z m332 12 c0 -27 -4 -50 -10 -50 -5 0 -10 5 -10 10 0 6 -9 19
-20 30 -16 16 -33 20 -85 20 l-65 0 0 -76 0 -75 53 3 c43 2 54 7 62 26 17 39
25 24 25 -53 0 -43 -4 -75 -10 -75 -5 0 -10 9 -10 20 0 25 -29 40 -79 40 l-41
0 0 -73 c0 -43 5 -78 12 -85 12 -12 114 -17 143 -6 8 4 22 19 31 35 22 43 29
35 26 -26 l-4 -55 -169 0 c-93 0 -169 4 -169 8 0 5 11 14 24 20 30 13 36 45
36 197 0 155 -5 183 -36 191 -60 15 -11 24 136 24 l160 0 0 -50z m189 28 c26
-43 206 -267 215 -268 4 0 6 56 5 125 -4 134 -8 145 -56 145 -13 0 -23 5 -23
10 0 6 37 10 90 10 53 0 90 -4 90 -10 0 -5 -6 -10 -12 -10 -40 -1 -43 -13 -48
-221 -3 -128 -9 -204 -15 -206 -6 -2 -71 72 -145 164 l-135 168 -3 -134 c-1
-74 -1 -140 2 -147 3 -7 18 -15 35 -19 59 -13 30 -25 -59 -25 -53 0 -90 4 -90
10 0 6 6 10 14 10 8 0 22 7 30 16 13 13 16 44 16 189 l0 173 -30 12 c-48 20
-35 30 38 30 59 0 69 -3 81 -22z m540 -80 c44 -57 95 -122 113 -145 18 -23 37
-42 42 -43 5 0 7 54 4 119 -4 128 -13 151 -54 151 -13 0 -24 5 -24 10 0 6 35
10 85 10 50 0 85 -4 85 -10 0 -5 -3 -10 -7 -10 -35 -1 -38 -19 -43 -222 -4
-150 -8 -203 -17 -203 -7 0 -74 77 -150 170 l-138 170 -3 -110 c-4 -151 5
-187 46 -199 57 -16 34 -26 -58 -26 -53 0 -90 4 -90 10 0 6 6 10 14 10 8 0 22
7 30 16 13 13 16 44 16 189 l0 173 -30 12 c-47 20 -35 30 34 30 l64 0 81 -102z
m451 94 c0 -4 -10 -12 -22 -17 -22 -10 -23 -14 -26 -193 l-2 -182 25 -12 c45
-20 27 -28 -65 -28 -91 0 -115 11 -65 30 l25 10 0 180 0 180 -25 12 c-45 20
-27 28 65 28 50 0 90 -3 90 -8z m680 -1 c0 -5 -11 -12 -24 -15 -32 -8 -39 -53
-35 -226 5 -150 4 -150 90 -150 59 0 109 26 109 56 0 8 5 14 10 14 11 0 13
-52 4 -87 -6 -23 -9 -23 -175 -23 -93 0 -169 4 -169 8 0 5 11 14 25 20 l25 12
0 174 c0 145 -3 177 -16 190 -8 9 -20 16 -25 16 -5 0 -9 5 -9 10 0 6 38 10 95
10 52 0 95 -4 95 -9z"/>
<path d="M3510 5545 c14 -8 30 -14 35 -14 6 0 -1 6 -15 14 -14 8 -29 14 -35
14 -5 0 1 -6 15 -14z"/>
<path d="M3560 5525 c0 -2 23 -16 50 -30 28 -14 50 -23 50 -20 0 2 -22 16 -50
30 -27 14 -50 23 -50 20z"/>
<path d="M2848 5513 c12 -2 32 -2 45 0 12 2 2 4 -23 4 -25 0 -35 -2 -22 -4z"/>
<path d="M3138 5513 c12 -2 32 -2 45 0 12 2 2 4 -23 4 -25 0 -35 -2 -22 -4z"/>
<path d="M2763 5503 c9 -2 23 -2 30 0 6 3 -1 5 -18 5 -16 0 -22 -2 -12 -5z"/>
<path d="M3233 5503 c9 -2 23 -2 30 0 6 3 -1 5 -18 5 -16 0 -22 -2 -12 -5z"/>
<path d="M2378 5484 c-38 -20 -36 -28 2 -9 17 9 30 18 30 20 0 7 -1 6 -32 -11z"/>
<path d="M2698 5493 c6 -2 18 -2 25 0 6 3 1 5 -13 5 -14 0 -19 -2 -12 -5z"/>
<path d="M3308 5493 c7 -3 16 -2 19 1 4 3 -2 6 -13 5 -11 0 -14 -3 -6 -6z"/>
<path d="M3358 5483 c7 -3 16 -2 19 1 4 3 -2 6 -13 5 -11 0 -14 -3 -6 -6z"/>
<path d="M2254 5376 c-55 -20 -140 -74 -131 -82 10 -10 211 77 236 101 12 13
-51 1 -105 -19z"/>
<path d="M3735 5358 c64 -33 166 -71 172 -64 8 7 -86 66 -128 81 -23 8 -56 15
-73 15 -29 -1 -27 -3 29 -32z"/>
<path d="M2548 5363 c12 -2 30 -2 40 0 9 3 -1 5 -23 4 -22 0 -30 -2 -17 -4z"/>
<path d="M3448 5363 c12 -2 30 -2 40 0 9 3 -1 5 -23 4 -22 0 -30 -2 -17 -4z"/>
<path d="M2443 5353 c9 -2 25 -2 35 0 9 3 1 5 -18 5 -19 0 -27 -2 -17 -5z"/>
<path d="M3543 5353 c9 -2 25 -2 35 0 9 3 1 5 -18 5 -19 0 -27 -2 -17 -5z"/>
<path d="M2378 5343 c6 -2 18 -2 25 0 6 3 1 5 -13 5 -14 0 -19 -2 -12 -5z"/>
<path d="M3628 5343 c7 -3 16 -2 19 1 4 3 -2 6 -13 5 -11 0 -14 -3 -6 -6z"/>
<path d="M2069 5393 c-13 -16 -12 -17 4 -4 9 7 17 15 17 17 0 8 -8 3 -21 -13z"/>
<path d="M1969 5309 l-74 -71 78 68 c42 38 77 70 77 71 0 8 -12 -2 -81 -68z"/>
<path d="M2050 5160 c-8 -5 -10 -10 -5 -10 6 0 17 5 25 10 8 5 11 10 5 10 -5
0 -17 -5 -25 -10z"/>
<path d="M2000 5140 c-8 -5 -10 -10 -5 -10 6 0 17 5 25 10 8 5 11 10 5 10 -5
0 -17 -5 -25 -10z"/>
<path d="M1940 5115 c-14 -8 -20 -14 -15 -14 6 0 21 6 35 14 14 8 21 14 15 14
-5 0 -21 -6 -35 -14z"/>
<path d="M3950 5396 c0 -2 8 -10 18 -17 15 -13 16 -12 3 4 -13 16 -21 21 -21
13z"/>
<path d="M4010 5349 c62 -63 171 -159 135 -120 -22 23 -67 66 -100 94 -33 28
-49 39 -35 26z"/>
<path d="M3929 5169 c30 -10 56 -17 58 -15 5 5 -86 36 -101 35 -6 0 13 -9 43
-20z"/>
<path d="M4010 5140 c8 -5 20 -10 25 -10 6 0 3 5 -5 10 -8 5 -19 10 -25 10 -5
0 -3 -5 5 -10z"/>
<path d="M4071 5116 c2 -2 15 -9 29 -15 24 -11 24 -11 6 3 -16 13 -49 24 -35
12z"/>
<path d="M1629 5103 c-13 -16 -12 -17 4 -4 9 7 17 15 17 17 0 8 -8 3 -21 -13z"/>
<path d="M1560 5008 c-49 -70 -109 -168 -97 -158 10 9 156 230 151 230 -2 0
-26 -33 -54 -72z"/>
<path d="M1652 4831 c-44 -33 -83 -64 -86 -70 -4 -6 33 19 81 56 101 75 98 73
91 73 -4 0 -42 -27 -86 -59z"/>
<path d="M1524 4728 l-19 -23 23 19 c21 18 27 26 19 26 -2 0 -12 -10 -23 -22z"/>
<path d="M4400 5086 c0 -2 8 -10 18 -17 15 -13 16 -12 3 4 -13 16 -21 21 -21
13z"/>
<path d="M4491 4958 c64 -98 80 -119 59 -78 -18 35 -110 170 -115 170 -3 0 23
-42 56 -92z"/>
<path d="M4290 4883 c14 -10 63 -46 110 -81 47 -34 67 -46 45 -26 -22 20 -65
53 -95 73 -58 40 -102 64 -60 34z"/>
<path d="M4570 4830 c6 -11 13 -20 16 -20 2 0 0 9 -6 20 -6 11 -13 20 -16 20
-2 0 0 -9 6 -20z"/>
<path d="M1151 4434 c-7 -25 -10 -48 -8 -51 3 -2 10 17 16 43 7 25 10 48 8 51
-3 2 -10 -17 -16 -43z"/>
<path d="M1377 4398 c-53 -63 -144 -198 -134 -198 2 0 25 31 50 68 25 38 66
94 91 125 25 32 44 57 42 57 -2 0 -24 -24 -49 -52z"/>
<path d="M1131 4354 c0 -11 3 -14 6 -6 3 7 2 16 -1 19 -3 4 -6 -2 -5 -13z"/>
<path d="M1122 4310 c0 -14 2 -19 5 -12 2 6 2 18 0 25 -3 6 -5 1 -5 -13z"/>
<path d="M1111 4264 c0 -11 3 -14 6 -6 3 7 2 16 -1 19 -3 4 -6 -2 -5 -13z"/>
<path d="M1101 4214 c0 -11 3 -14 6 -6 3 7 2 16 -1 19 -3 4 -6 -2 -5 -13z"/>
<path d="M953 3930 c0 -36 2 -50 4 -32 2 17 2 47 0 65 -2 17 -4 3 -4 -33z"/>
<path d="M816 3699 c-32 -25 -35 -68 -6 -94 20 -18 20 -18 -5 -43 -50 -50 -15
-124 60 -124 50 0 85 33 85 82 0 24 -7 43 -20 55 -17 16 -18 20 -6 34 26 30
27 57 5 84 -26 34 -75 36 -113 6z m78 -15 c20 -20 20 -38 0 -59 -13 -12 -19
-13 -31 -4 -28 23 -34 47 -17 63 19 20 29 20 48 0z m-1 -142 c38 -33 10 -90
-38 -78 -33 8 -43 48 -21 81 17 26 25 25 59 -3z"/>
<path d="M650 3700 c0 -5 9 -10 20 -10 19 0 20 -7 20 -111 0 -102 -2 -111 -20
-116 -41 -11 -18 -23 45 -23 37 0 65 4 65 10 0 6 -7 10 -15 10 -13 0 -15 21
-15 125 l0 125 -50 0 c-27 0 -50 -4 -50 -10z"/>
<path d="M960 3701 c0 -5 9 -11 20 -14 18 -5 20 -14 20 -112 0 -98 -2 -107
-20 -112 -41 -11 -18 -23 45 -23 37 0 65 4 65 10 0 6 -6 10 -14 10 -22 0 -26
23 -26 141 l0 109 -45 0 c-25 0 -45 -4 -45 -9z"/>
<path d="M1103 3675 c-12 -38 -8 -42 21 -20 11 8 37 15 57 15 l38 0 -50 -105
c-27 -57 -49 -109 -49 -115 0 -5 16 -10 35 -10 33 0 35 2 35 33 0 38 27 122
59 185 11 22 21 44 21 47 0 3 -35 5 -78 5 l-79 0 -10 -35z"/>
<path d="M954 3160 c0 -63 1 -89 3 -57 2 31 2 83 0 115 -2 31 -3 5 -3 -58z"/>
<path d="M1060 3261 c0 -6 5 -13 10 -16 6 -3 10 1 10 9 0 9 -4 16 -10 16 -5 0
-10 -4 -10 -9z"/>
<path d="M1196 3220 c3 -14 11 -32 16 -40 6 -10 7 -7 2 10 -3 14 -11 32 -16
40 -6 10 -7 7 -2 -10z"/>
<path d="M1230 2860 c6 -11 13 -20 16 -20 2 0 0 9 -6 20 -6 11 -13 20 -16 20
-2 0 0 -9 6 -20z"/>
<path d="M1101 2834 c0 -11 3 -14 6 -6 3 7 2 16 -1 19 -3 4 -6 -2 -5 -13z"/>
<path d="M1266 2805 c28 -49 101 -150 120 -166 9 -7 -9 22 -42 66 -32 44 -67
92 -77 105 -18 25 -18 25 -1 -5z"/>
<path d="M1112 2780 c0 -14 2 -19 5 -12 2 6 2 18 0 25 -3 6 -5 1 -5 -13z"/>
<path d="M1121 2742 c-1 -19 32 -148 36 -137 1 6 -6 42 -16 80 -11 39 -20 64
-20 57z"/>
<path d="M1420 2595 c13 -14 26 -25 28 -25 3 0 -5 11 -18 25 -13 14 -26 25
-28 25 -3 0 5 -11 18 -25z"/>
<path d="M1162 2580 c0 -8 8 -37 18 -65 10 -27 18 -43 18 -35 0 8 -8 38 -18
65 -10 28 -18 43 -18 35z"/>
<path d="M4832 4555 c0 -5 6 -26 13 -45 7 -19 14 -28 14 -20 0 8 -6 29 -14 45
-7 17 -13 26 -13 20z"/>
<path d="M4861 4460 c0 -8 4 -24 9 -35 5 -13 9 -14 9 -5 0 8 -4 24 -9 35 -5
13 -9 14 -9 5z"/>
<path d="M4632 4409 c25 -31 60 -77 77 -103 18 -25 34 -46 37 -46 12 0 -103
155 -137 185 -12 11 -2 -5 23 -36z"/>
<path d="M4881 4384 c0 -11 3 -14 6 -6 3 7 2 16 -1 19 -3 4 -6 -2 -5 -13z"/>
<path d="M4891 4344 c0 -11 3 -14 6 -6 3 7 2 16 -1 19 -3 4 -6 -2 -5 -13z"/>
<path d="M4902 4300 c0 -14 2 -19 5 -12 2 6 2 18 0 25 -3 6 -5 1 -5 -13z"/>
<path d="M4912 4250 c0 -14 2 -19 5 -12 2 6 2 18 0 25 -3 6 -5 1 -5 -13z"/>
<path d="M4759 4235 c5 -11 17 -29 26 -40 l16 -20 -10 20 c-5 11 -17 29 -26
40 l-16 20 10 -20z"/>
<path d="M5073 3910 c0 -25 2 -35 4 -22 2 12 2 32 0 45 -2 12 -4 2 -4 -23z"/>
<path d="M4758 3706 c-21 -15 -36 -55 -30 -78 6 -27 19 -21 25 11 7 33 30 45
58 31 47 -26 7 -134 -70 -191 -17 -12 -28 -26 -25 -31 3 -4 39 -8 79 -8 73 0
75 1 90 31 18 33 14 48 -7 32 -7 -6 -30 -13 -51 -15 l-37 -4 39 40 c68 69 77
121 32 167 -32 31 -74 38 -103 15z"/>
<path d="M4950 3700 c-30 -30 -40 -63 -40 -129 0 -129 102 -182 152 -81 20 38
24 124 8 164 -14 37 -47 66 -75 66 -14 0 -34 -9 -45 -20z m73 -60 c16 -91 -15
-215 -43 -169 -22 34 -23 132 -3 202 9 34 37 14 46 -33z"/>
<path d="M5080 3701 c0 -5 9 -11 20 -14 18 -5 20 -14 20 -112 0 -98 -2 -107
-20 -112 -41 -11 -18 -23 45 -23 37 0 65 4 65 10 0 6 -6 10 -14 10 -22 0 -26
23 -26 141 l0 109 -45 0 c-25 0 -45 -4 -45 -9z"/>
<path d="M5223 3675 c-12 -38 -8 -42 21 -20 11 8 37 15 57 15 l38 0 -50 -105
c-27 -57 -49 -109 -49 -115 0 -5 16 -10 35 -10 33 0 35 2 35 33 0 38 27 122
59 185 11 22 21 44 21 47 0 3 -35 5 -78 5 l-79 0 -10 -35z"/>
<path d="M4836 3255 c-9 -26 -7 -32 5 -12 6 10 9 21 6 23 -2 3 -7 -2 -11 -11z"/>
<path d="M4950 3248 c0 -19 2 -20 10 -8 13 19 13 30 0 30 -5 0 -10 -10 -10
-22z"/>
<path d="M5068 3197 c5 -108 9 -122 10 -32 1 44 -2 85 -6 92 -4 7 -6 -20 -4
-60z"/>
<path d="M4816 3205 c-9 -26 -7 -32 5 -12 6 10 9 21 6 23 -2 3 -7 -2 -11 -11z"/>
<path d="M4796 3155 c-9 -26 -7 -32 5 -12 6 10 9 21 6 23 -2 3 -7 -2 -11 -11z"/>
<path d="M4735 2778 c-26 -40 -66 -95 -89 -123 -22 -27 -32 -43 -22 -35 21 16
109 133 145 193 39 64 16 40 -34 -35z"/>
<path d="M4912 2790 c0 -14 2 -19 5 -12 2 6 2 18 0 25 -3 6 -5 1 -5 -13z"/>
<path d="M4880 2663 c-14 -54 -27 -105 -29 -113 -2 -8 -1 -13 3 -9 9 8 58 199
54 210 -2 6 -15 -33 -28 -88z"/>
<path d="M4584 2578 l-19 -23 23 19 c12 11 22 21 22 23 0 8 -8 2 -26 -19z"/>
<path d="M1555 2290 c10 -11 20 -20 23 -20 3 0 -3 9 -13 20 -10 11 -20 20 -23
20 -3 0 3 -9 13 -20z"/>
<path d="M1595 2260 c7 -11 116 -89 160 -114 30 -17 30 -17 5 1 -89 66 -170
121 -165 113z"/>
<path d="M1450 2210 c6 -11 13 -20 16 -20 2 0 0 9 -6 20 -6 11 -13 20 -16 20
-2 0 0 -9 6 -20z"/>
<path d="M1480 2160 c6 -11 13 -20 16 -20 2 0 0 9 -6 20 -6 11 -13 20 -16 20
-2 0 0 -9 6 -20z"/>
<path d="M1517 2100 c9 -17 28 -43 41 -58 13 -15 6 -1 -14 31 -38 59 -58 79
-27 27z"/>
<path d="M1580 2006 c0 -2 8 -10 18 -17 15 -13 16 -12 3 4 -13 16 -21 21 -21
13z"/>
<path d="M4474 2298 l-19 -23 23 19 c12 11 22 21 22 23 0 8 -8 2 -26 -19z"/>
<path d="M4380 2229 c-69 -53 -84 -67 -60 -54 23 13 130 96 130 101 0 7 -1 6
-70 -47z"/>
<path d="M4550 2180 c-6 -11 -8 -20 -6 -20 3 0 10 9 16 20 6 11 8 20 6 20 -3
0 -10 -9 -16 -20z"/>
<path d="M4244 2134 c-18 -14 -18 -15 4 -4 12 6 22 13 22 15 0 8 -5 6 -26 -11z"/>
<path d="M4486 2080 c-25 -38 -44 -70 -41 -70 2 0 22 26 43 58 47 70 54 82 49
82 -2 0 -25 -31 -51 -70z"/>
<path d="M4419 1983 c-13 -16 -12 -17 4 -4 9 7 17 15 17 17 0 8 -8 3 -21 -13z"/>
<path d="M1940 1930 c8 -5 20 -10 25 -10 6 0 3 5 -5 10 -8 5 -19 10 -25 10 -5
0 -3 -5 5 -10z"/>
<path d="M2010 1900 c8 -5 20 -10 25 -10 6 0 3 5 -5 10 -8 5 -19 10 -25 10 -5
0 -3 -5 5 -10z"/>
<path d="M1865 1831 c22 -23 67 -66 100 -94 69 -58 44 -32 -65 69 -41 38 -57
49 -35 25z"/>
<path d="M2045 1670 c10 -11 20 -20 23 -20 3 0 -3 9 -13 20 -10 11 -20 20 -23
20 -3 0 3 -9 13 -20z"/>
<path d="M4090 1940 c-8 -5 -10 -10 -5 -10 6 0 17 5 25 10 8 5 11 10 5 10 -5
0 -17 -5 -25 -10z"/>
<path d="M4020 1910 c-8 -5 -10 -10 -5 -10 6 0 17 5 25 10 8 5 11 10 5 10 -5
0 -17 -5 -25 -10z"/>
<path d="M3970 1890 c-8 -5 -10 -10 -5 -10 6 0 17 5 25 10 8 5 11 10 5 10 -5
0 -17 -5 -25 -10z"/>
<path d="M4100 1778 l-85 -80 83 72 c73 64 100 91 90 90 -2 -1 -41 -37 -88
-82z"/>
<path d="M3984 1678 l-19 -23 23 19 c12 11 22 21 22 23 0 8 -8 2 -26 -19z"/>
<path d="M2110 1755 c0 -1 24 -19 53 -39 50 -34 183 -83 195 -72 7 8 8 7 -68
46 -56 29 -180 74 -180 65z"/>
<path d="M3860 1743 c-45 -15 -190 -88 -190 -95 0 -12 8 -10 90 17 41 14 91
39 110 55 32 27 28 36 -10 23z"/>
<path d="M2358 1703 c7 -3 16 -2 19 1 4 3 -2 6 -13 5 -11 0 -14 -3 -6 -6z"/>
<path d="M3658 1703 c7 -3 16 -2 19 1 4 3 -2 6 -13 5 -11 0 -14 -3 -6 -6z"/>
<path d="M2413 1693 c9 -2 23 -2 30 0 6 3 -1 5 -18 5 -16 0 -22 -2 -12 -5z"/>
<path d="M3583 1693 c9 -2 23 -2 30 0 6 3 -1 5 -18 5 -16 0 -22 -2 -12 -5z"/>
<path d="M2498 1683 c12 -2 30 -2 40 0 9 3 -1 5 -23 4 -22 0 -30 -2 -17 -4z"/>
<path d="M3488 1683 c12 -2 32 -2 45 0 12 2 2 4 -23 4 -25 0 -35 -2 -22 -4z"/>
<path d="M2360 1576 c0 -3 14 -12 30 -21 17 -9 30 -13 30 -11 0 3 -13 12 -30
21 -16 9 -30 13 -30 11z"/>
<path d="M3570 1530 c-41 -21 -72 -39 -67 -40 10 0 147 69 147 75 0 7 3 8 -80
-35z"/>
<path d="M2678 1553 c7 -3 16 -2 19 1 4 3 -2 6 -13 5 -11 0 -14 -3 -6 -6z"/>
<path d="M3328 1553 c6 -2 18 -2 25 0 6 3 1 5 -13 5 -14 0 -19 -2 -12 -5z"/>
<path d="M2733 1543 c9 -2 23 -2 30 0 6 3 -1 5 -18 5 -16 0 -22 -2 -12 -5z"/>
<path d="M3268 1543 c6 -2 18 -2 25 0 6 3 1 5 -13 5 -14 0 -19 -2 -12 -5z"/>
<path d="M2803 1533 c9 -2 25 -2 35 0 9 3 1 5 -18 5 -19 0 -27 -2 -17 -5z"/>
<path d="M3188 1533 c12 -2 30 -2 40 0 9 3 -1 5 -23 4 -22 0 -30 -2 -17 -4z"/>
<path d="M3064 1172 c-20 -13 -34 -50 -34 -92 0 -104 84 -149 124 -66 34 72 4
166 -51 166 -16 0 -33 -4 -39 -8z"/>
<path d="M4942 1101 c-16 -52 -16 -51 18 -51 17 0 30 5 30 12 0 18 -23 78 -30
78 -4 0 -12 -17 -18 -39z"/>
<path d="M1930 1135 c0 -44 5 -50 40 -45 17 2 40 28 40 46 0 21 -30 44 -56 44
-22 0 -24 -4 -24 -45z"/>
<path d="M4693 650 l-32 -90 65 0 c49 0 65 3 62 13 -3 6 -15 44 -28 82 -12 39
-25 73 -29 77 -4 4 -21 -33 -38 -82z"/>
<path d="M880 715 c0 -84 -1 -83 75 -65 45 10 65 32 65 72 0 44 -31 68 -90 68
l-50 0 0 -75z"/>
<path d="M880 527 c0 -84 8 -97 63 -97 81 0 126 91 72 145 -20 21 -34 25 -80
25 l-55 0 0 -73z"/>
</g>
</svg>
