<svg xmlns="http://www.w3.org/2000/svg" viewBox="0 0 152.5 144.25"><path d="M132.223 50.976h1.965c-.051-1.842-.414-3.551-.844-4.984-.561-1.879-1.221-3.305-1.4-4.188.118.758.557 4.729.279 9.172zM130.543 60.976a35.653 35.653 0 0 1-.797 3.12c-.414 1.391-.871 2.625-.871 2.625s.471-1.195.912-2.543c.422-1.257.803-2.637.943-3.202h-.187z" fill="#fff"/><path d="M131.926 50.976c.142-2.202.182-4.426.143-6.134-.035-1.812-.129-3.039-.125-3.039-.189 1.668-.662 2.9-1.064 4.196-.412 1.297-.758 2.655-.854 4.591-.006.127-.002.258-.006.386h1.906zM124.105 25.332c.334.663 1.984 4.284 3.068 8.496 1.248 4.707 1.445 8.555 1.457 8.547-.012.002-.492-3.877-1.744-8.553a77.012 77.012 0 0 0-1.787-5.834c-.562-1.593-.996-2.656-.994-2.656.312 1.533.252 2.766.275 4.033.016 1.272.111 2.581.605 4.326.516 1.824 1.375 3.69 2.107 5.289.736 1.592 1.348 2.909 1.459 3.468.094.458.24 1.938.295 3.295.059 1.358.035 2.591.035 2.591s.047-1.203.027-2.533a46.666 46.666 0 0 0-.156-3.235c-.055-.571.32-1.585.592-2.995.272-1.404.43-3.217-.074-5.259-.559-2.268-1.656-4.194-2.703-5.684-1.048-1.496-2.048-2.566-2.462-3.296zM111.621 12.169c.486.489 2.971 3.218 5.176 6.604 2.494 3.775 3.854 7.093 3.863 7.083-.012.005-1.631-3.254-4.117-7.004a78.118 78.118 0 0 0-3.283-4.623c-.955-1.244-1.643-2.059-1.639-2.06.711 1.268 1.016 2.37 1.4 3.488.383 1.12.85 2.249 1.803 3.646.994 1.459 2.314 2.848 3.445 4.033 1.131 1.182 2.072 2.15 2.344 2.608.225.373.811 1.63 1.281 2.804.475 1.175.844 2.264.844 2.264s-.338-1.071-.77-2.231a45.995 45.995 0 0 0-1.143-2.795c-.223-.486-.205-1.492-.395-2.814-.188-1.316-.59-2.958-1.641-4.602-1.164-1.826-2.691-3.197-4.045-4.205-1.357-1.013-2.549-1.67-3.123-2.196zM99.1 4.908c.547.326 3.396 2.195 6.176 4.695 3.129 2.78 5.17 5.398 5.176 5.389-.008.006-2.266-2.496-5.383-5.256a80.403 80.403 0 0 0-4.025-3.363c-1.148-.891-1.946-1.465-1.944-1.465.928.972 1.455 1.891 2.062 2.801.604.915 1.287 1.819 2.475 2.843 1.238 1.071 2.76 1.993 4.059 2.779 1.299.781 2.383 1.409 2.734 1.752.293.278 1.129 1.253 1.848 2.182.719.929 1.326 1.804 1.326 1.804s-.576-.866-1.254-1.793a46.71 46.71 0 0 0-1.717-2.21c-.322-.377-.555-1.282-1.047-2.415-.49-1.131-1.246-2.497-2.574-3.711-1.475-1.352-3.16-2.215-4.609-2.796-1.45-.587-2.669-.898-3.303-1.236zM86.105 1.188c.561.175 3.506 1.223 6.547 2.826 3.416 1.774 5.848 3.625 5.85 3.617-.004.006-2.604-1.691-6.006-3.451a80.74 80.74 0 0 0-6.391-2.992c1.039.668 1.709 1.375 2.453 2.056.742.684 1.553 1.341 2.844 1.989 1.348.678 2.914 1.157 4.256 1.557 1.34.397 2.453.704 2.848.926.326.18 1.299.852 2.158 1.51.863.655 1.613 1.29 1.613 1.29s-.721-.635-1.545-1.299a44.62 44.62 0 0 0-2.05-1.565c-.375-.263-.793-1.012-1.492-1.909-.697-.895-1.684-1.937-3.141-2.719-1.617-.869-3.309-1.26-4.727-1.459-1.422-.2-2.574-.215-3.217-.377zM126.342 50.976h2.011c-.017-.057-.024-.117-.042-.173-.568-1.793-1.375-2.885-2.236-3.813-.873-.925-1.799-1.693-2.756-2.794-.002.002.531.9 1.215 2.322a40.105 40.105 0 0 1 1.808 4.458z" fill="#fff"/><path d="M124.147 50.976h1.899c-1.146-3.498-2.477-6.221-2.729-6.78.264.718.336 2.055.465 3.683.08.946.187 1.994.365 3.097zM128.42 60.976h-.176c.084.63.245 1.874.34 3.056.121 1.385.162 2.668.162 2.668s-.016-1.314-.102-2.734c-.06-1.126-.173-2.306-.224-2.99zM117.121 29.977c.428.474 2.807 2.918 5.092 6.131 2.578 3.57 4.238 6.895 4.244 6.886-.002.013-1.455-3.506-4.057-7.097a38.723 38.723 0 0 0-3.51-4.196c-1.033-1.07-1.771-1.722-1.769-1.724 1.176.709 2.229 1.121 3.277 1.691 1.043.572 2.086 1.305 3.131 2.727 1.094 1.488 1.807 3.41 2.234 5.062.436 1.656.604 3.043.797 3.555.16.42.766 1.72 1.272 2.954.51 1.231.93 2.389.93 2.389s-.435-1.122-.963-2.312a63.427 63.427 0 0 0-1.352-2.832c-.244-.494-1.09-1.118-2.111-1.972-1.023-.857-2.223-1.929-3.232-3.396-1.119-1.632-1.867-3.284-2.475-4.706-.604-1.418-1.061-2.594-1.508-3.16zM106.758 18.299c.52.299 3.344 1.797 6.332 3.967 3.354 2.399 5.842 4.814 5.844 4.805.002.012-2.361-2.638-5.742-5.047a38.06 38.06 0 0 0-4.357-2.699c-1.232-.653-2.077-1.024-2.077-1.026 1.252.296 2.311.358 3.408.559 1.092.206 2.23.552 3.578 1.5 1.408.994 2.617 2.477 3.496 3.805.889 1.33 1.465 2.502 1.793 2.894.271.319 1.205 1.278 2.037 2.205.834.923 1.566 1.808 1.566 1.806 0 .002-.732-.848-1.572-1.727-.834-.884-1.777-1.791-2.07-2.075-.365-.36-1.307-.649-2.469-1.094-1.168-.445-2.553-1.035-3.893-2.038-1.486-1.115-2.646-2.367-3.605-3.455-.957-1.087-1.707-2.003-2.269-2.38zM96.148 11.543c.537.148 3.434.848 6.641 2.08 3.594 1.356 6.42 2.894 6.422 2.885.002.01-2.773-1.768-6.389-3.125a37.901 37.901 0 0 0-4.562-1.4c-1.262-.299-2.112-.439-2.112-.44 1.197-.023 2.164-.213 3.199-.289 1.031-.07 2.135-.027 3.572.502 1.5.557 2.941 1.59 4.057 2.566 1.119.975 1.928 1.877 2.316 2.148.322.219 1.398.844 2.375 1.461.976.615 1.859 1.215 1.859 1.215s-.873-.568-1.844-1.143c-.969-.579-2.039-1.153-2.371-1.337-.42-.229-1.33-.259-2.484-.37-1.156-.113-2.545-.307-3.994-.887-1.611-.646-2.955-1.5-4.08-2.254-1.118-.753-2.011-1.401-2.605-1.612zM84.902 7.777c.52.019 3.281.016 6.438.395 3.525.402 6.412 1.109 6.41 1.102.004.008-2.889-.927-6.436-1.325-3.209-.392-6.416-.176-6.412-.172 1.076-.279 1.902-.662 2.814-.957.91-.293 1.908-.498 3.314-.348 1.469.16 2.99.758 4.213 1.369 1.227.613 2.16 1.229 2.572 1.379.34.119 1.447.424 2.465.744 1.018.316 1.947.639 1.947.639s-.914-.297-1.916-.578c-1.002-.287-2.092-.55-2.434-.633-.871-.214-3.242.75-6.094.369-1.592-.215-2.998-.679-4.178-1.108-1.173-.426-2.121-.818-2.703-.876z" fill="#fff"/><path d="M75.775 3.603c.562.025 3.602.061 7.002.516 3.805.488 6.854 1.295 6.854 1.288.002.009-2.969-.999-6.793-1.493-3.455-.48-7.069-.314-7.063-.311 2.58-.49 4.314-1.435 7.35-1.047 1.58.213 3.053.834 4.199 1.445 1.15.61 1.984 1.207 2.4 1.363.344.126 1.498.463 2.555.814 1.059.345 2.014.702 2.016.701 0 0-.949-.332-2.002-.648-1.051-.32-2.201-.619-2.561-.715-.447-.121-1.457-.009-2.721.09-1.268.1-2.777.188-4.324-.018-1.717-.232-3.115-.687-4.264-1.11-1.144-.419-2.03-.808-2.648-.875zM21.271 50.976h1.905c-.004-.128.001-.259-.005-.386-.096-1.936-.44-3.294-.853-4.591-.403-1.296-.877-2.528-1.066-4.196.004 0-.089 1.228-.124 3.039a75.158 75.158 0 0 0 .143 6.134zM22.654 60.976h-.188c.141.565.521 1.945.942 3.202.442 1.348.913 2.543.913 2.543s-.458-1.234-.871-2.625a35.587 35.587 0 0 1-.796-3.12z" fill="#fff"/><path d="M20.975 50.976c-.279-4.442.16-8.414.278-9.173-.18.884-.84 2.31-1.398 4.188-.43 1.434-.794 3.143-.846 4.984h1.966zM29.091 25.332c-.334.663-1.984 4.284-3.068 8.496-1.248 4.707-1.444 8.555-1.458 8.547.013.002.493-3.877 1.745-8.553a76.557 76.557 0 0 1 1.787-5.834c.563-1.593.997-2.656.994-2.656-.312 1.533-.252 2.766-.275 4.033-.016 1.272-.112 2.581-.606 4.326-.517 1.824-1.376 3.69-2.108 5.289-.735 1.592-1.347 2.909-1.458 3.468-.094.458-.241 1.938-.296 3.295-.058 1.358-.035 2.591-.035 2.591s-.047-1.203-.027-2.533c.018-1.326.108-2.78.157-3.235.055-.571-.319-1.585-.592-2.995-.272-1.404-.43-3.217.074-5.259.558-2.268 1.656-4.194 2.702-5.684 1.049-1.496 2.05-2.566 2.464-3.296zM41.577 12.169c-.487.489-2.973 3.218-5.177 6.604-2.494 3.775-3.852 7.093-3.863 7.083.012.005 1.631-3.254 4.117-7.004a77.656 77.656 0 0 1 3.283-4.623c.956-1.244 1.642-2.059 1.64-2.06-.713 1.268-1.017 2.37-1.402 3.488-.383 1.12-.849 2.249-1.803 3.646-.994 1.459-2.313 2.848-3.445 4.033-1.131 1.182-2.072 2.15-2.342 2.608-.225.373-.812 1.63-1.282 2.804-.475 1.175-.844 2.264-.844 2.264s.338-1.071.77-2.231a45.335 45.335 0 0 1 1.143-2.795c.222-.486.206-1.492.394-2.814.188-1.316.59-2.958 1.64-4.602 1.164-1.826 2.691-3.197 4.046-4.205 1.359-1.013 2.548-1.67 3.125-2.196zM54.097 4.908c-.547.326-3.397 2.195-6.177 4.696-3.129 2.78-5.169 5.398-5.175 5.389.007.006 2.266-2.496 5.383-5.256a80.403 80.403 0 0 1 4.025-3.363c1.147-.892 1.946-1.466 1.944-1.466-.928.972-1.455 1.891-2.062 2.801-.604.915-1.288 1.819-2.475 2.843-1.238 1.071-2.76 1.993-4.058 2.779-1.3.781-2.384 1.409-2.736 1.752-.292.278-1.129 1.253-1.846 2.182a45.302 45.302 0 0 0-1.327 1.805c-.001-.001.575-.867 1.254-1.794a46.036 46.036 0 0 1 1.717-2.21c.321-.377.555-1.282 1.046-2.415.49-1.131 1.247-2.497 2.575-3.711 1.475-1.352 3.16-2.215 4.608-2.796 1.451-.587 2.669-.898 3.304-1.236zM67.091 1.188c-.56.175-3.506 1.223-6.547 2.826-3.415 1.774-5.848 3.625-5.85 3.617.004.006 2.604-1.691 6.006-3.451a80.74 80.74 0 0 1 6.391-2.992c-1.04.668-1.71 1.375-2.453 2.056-.741.684-1.553 1.341-2.844 1.989-1.347.677-2.914 1.157-4.255 1.556-1.34.397-2.453.704-2.848.926-.326.18-1.3.852-2.158 1.51-.863.655-1.614 1.29-1.614 1.29s.721-.635 1.546-1.299a44.086 44.086 0 0 1 2.051-1.564c.374-.263.793-1.012 1.492-1.909.697-.895 1.684-1.937 3.14-2.719 1.618-.869 3.31-1.26 4.728-1.459 1.421-.2 2.574-.215 3.215-.377zM29.049 50.976c.179-1.103.286-2.15.364-3.098.13-1.628.201-2.965.466-3.683-.251.56-1.583 3.282-2.729 6.78h1.899z" fill="#fff"/><path d="M26.855 50.976a39.722 39.722 0 0 1 1.808-4.458c.684-1.422 1.218-2.32 1.215-2.322-.957 1.101-1.884 1.869-2.755 2.794-.862.929-1.669 2.021-2.238 3.813-.018.056-.025.116-.042.173h2.012zM24.778 60.976c-.052.685-.164 1.864-.226 2.989-.086 1.42-.101 2.734-.101 2.734s.041-1.283.162-2.668c.095-1.182.256-2.426.339-3.056h-.174zM36.076 29.977c-.428.474-2.808 2.918-5.092 6.131-2.578 3.57-4.238 6.895-4.244 6.886.002.013 1.455-3.506 4.057-7.097a38.722 38.722 0 0 1 3.511-4.196c1.03-1.07 1.77-1.722 1.768-1.724-1.176.709-2.229 1.121-3.279 1.691-1.042.572-2.084 1.305-3.13 2.727-1.093 1.488-1.806 3.41-2.234 5.062-.436 1.656-.604 3.043-.796 3.555-.162.42-.766 1.72-1.271 2.954-.51 1.231-.93 2.389-.93 2.389s.434-1.122.963-2.312a63.427 63.427 0 0 1 1.352-2.832c.244-.494 1.089-1.118 2.11-1.972 1.024-.857 2.223-1.929 3.232-3.396 1.121-1.632 1.868-3.284 2.476-4.706.602-1.418 1.059-2.594 1.507-3.16zM46.439 18.299c-.519.299-3.345 1.797-6.333 3.967-3.354 2.399-5.841 4.814-5.844 4.805-.001.012 2.362-2.638 5.741-5.047a38.15 38.15 0 0 1 4.358-2.699c1.232-.653 2.079-1.024 2.078-1.026-1.252.296-2.312.358-3.408.559-1.093.206-2.23.552-3.578 1.5-1.409.994-2.615 2.477-3.497 3.805-.888 1.33-1.464 2.502-1.792 2.894-.272.319-1.205 1.278-2.036 2.205-.834.923-1.567 1.808-1.567 1.806 0 .002.733-.848 1.571-1.727.834-.884 1.777-1.791 2.071-2.075.365-.36 1.307-.649 2.469-1.094 1.168-.445 2.552-1.035 3.893-2.038 1.486-1.115 2.646-2.367 3.605-3.455.956-1.087 1.706-2.003 2.269-2.38zM57.049 11.543c-.538.148-3.437.848-6.643 2.08-3.591 1.356-6.419 2.894-6.42 2.885-.002.01 2.774-1.768 6.388-3.125a37.911 37.911 0 0 1 4.563-1.4c1.262-.299 2.112-.439 2.112-.44-1.198-.023-2.166-.213-3.2-.289-1.032-.07-2.136-.027-3.572.502-1.5.557-2.942 1.59-4.057 2.566-1.118.975-1.928 1.877-2.316 2.148-.323.219-1.399.844-2.376 1.461-.977.615-1.859 1.215-1.859 1.215s.874-.568 1.844-1.143c.969-.579 2.04-1.153 2.373-1.337.418-.229 1.33-.259 2.483-.37 1.155-.113 2.545-.307 3.994-.887 1.611-.646 2.956-1.5 4.08-2.254 1.119-.753 2.013-1.401 2.606-1.612zM68.295 7.777c-.52.019-3.282.016-6.438.395-3.527.402-6.413 1.109-6.411 1.102-.005.008 2.89-.927 6.437-1.325 3.209-.392 6.416-.176 6.412-.172-1.077-.279-1.904-.662-2.815-.957-.911-.293-1.909-.498-3.314-.348-1.47.16-2.991.758-4.215 1.369-1.226.613-2.16 1.229-2.571 1.379-.34.119-1.447.424-2.465.744-1.018.316-1.946.639-1.946.639s.913-.297 1.915-.578c1.002-.287 2.092-.55 2.434-.633.87-.214 3.242.75 6.093.369 1.593-.215 2.999-.679 4.178-1.108 1.176-.426 2.122-.818 2.706-.876z" fill="#fff"/><path d="M77.422 3.603c-.564.025-3.602.061-7.004.516-3.804.488-6.851 1.295-6.851 1.288-.003.009 2.968-.999 6.792-1.493 3.455-.48 7.067-.314 7.063-.311-2.582-.49-4.316-1.435-7.35-1.047-1.582.213-3.053.834-4.201 1.445-1.149.61-1.984 1.207-2.4 1.363-.344.126-1.498.463-2.554.814-1.059.345-2.015.702-2.017.701.001.001.95-.332 2.002-.648 1.051-.32 2.201-.619 2.562-.715.447-.121 1.457-.009 2.72.09 1.268.1 2.779.188 4.326-.018 1.715-.232 3.115-.687 4.262-1.11 1.146-.419 2.033-.808 2.65-.875zM131.902 63.533a71.582 71.582 0 0 0-.217-2.558h-1.594c-.078 1.112-.123 2.249-.066 3.343.096 1.936.441 3.293.854 4.59.402 1.297.875 2.529 1.064 4.197-.004 0 .09-1.229.125-3.039a74.018 74.018 0 0 0-.166-6.533z" fill="#fff"/><path d="M133.951 60.976h-1.994c.093.777.174 1.597.232 2.454.348 4.643-.123 8.889-.246 9.676.18-.885.84-2.311 1.4-4.189.561-1.871 1.014-4.207.799-6.701-.037-.437-.113-.84-.191-1.24zM124.105 89.576c.334-.664 1.984-4.285 3.068-8.496 1.248-4.707 1.445-8.555 1.457-8.547-.012-.002-.492 3.877-1.744 8.553a77.012 77.012 0 0 1-1.787 5.834c-.562 1.594-.996 2.656-.994 2.656.312-1.533.252-2.766.275-4.033.016-1.273.111-2.582.605-4.326.516-1.824 1.375-3.689 2.107-5.289.736-1.592 1.348-2.91 1.459-3.469.094-.457.24-1.938.295-3.295.059-1.357.035-2.59.035-2.59s.047 1.203.027 2.533a46.627 46.627 0 0 1-.156 3.234c-.055.572.32 1.586.592 2.996.272 1.404.43 3.217-.074 5.258-.559 2.268-1.656 4.195-2.703 5.684-1.048 1.496-2.048 2.567-2.462 3.297zM111.621 102.738c.486-.488 2.971-3.217 5.176-6.603 2.494-3.775 3.854-7.092 3.863-7.082-.012-.006-1.631 3.254-4.117 7.004a78.118 78.118 0 0 1-3.283 4.623c-.955 1.242-1.643 2.058-1.639 2.058.711-1.268 1.016-2.369 1.4-3.488.383-1.119.85-2.248 1.803-3.645.994-1.459 2.314-2.848 3.445-4.033 1.131-1.182 2.072-2.15 2.344-2.608.225-.373.811-1.631 1.281-2.805.475-1.174.844-2.264.844-2.264s-.338 1.072-.77 2.232a46.275 46.275 0 0 1-1.143 2.795c-.223.486-.205 1.492-.395 2.814-.188 1.316-.59 2.957-1.641 4.602-1.164 1.826-2.691 3.197-4.045 4.205-1.357 1.014-2.549 1.67-3.123 2.195zM99.1 110c.547-.326 3.396-2.195 6.176-4.695 3.129-2.781 5.17-5.398 5.176-5.389-.008-.006-2.266 2.496-5.383 5.256a80.403 80.403 0 0 1-4.025 3.363c-1.148.891-1.946 1.465-1.944 1.465.928-.973 1.455-1.891 2.062-2.801.604-.916 1.287-1.82 2.475-2.844 1.238-1.07 2.76-1.992 4.059-2.779 1.299-.781 2.383-1.408 2.734-1.752.293-.277 1.129-1.252 1.848-2.182a45.321 45.321 0 0 0 1.326-1.805c0 .002-.576.867-1.254 1.795a46.01 46.01 0 0 1-1.717 2.209c-.322.377-.555 1.283-1.047 2.416-.49 1.131-1.246 2.496-2.574 3.711-1.475 1.351-3.16 2.215-4.609 2.795-1.45.589-2.669.899-3.303 1.237zM86.105 113.721c.561-.176 3.506-1.223 6.547-2.826 3.416-1.775 5.848-3.625 5.85-3.617-.004-.006-2.604 1.692-6.006 3.451a81.156 81.156 0 0 1-6.391 2.992c1.039-.668 1.709-1.375 2.453-2.057.742-.684 1.553-1.34 2.844-1.988 1.348-.678 2.914-1.158 4.256-1.557 1.34-.398 2.453-.705 2.848-.926.326-.18 1.299-.852 2.158-1.51.863-.656 1.613-1.291 1.613-1.291s-.721.635-1.545 1.299a44.459 44.459 0 0 1-2.051 1.564c-.375.262-.793 1.012-1.492 1.908-.697.896-1.684 1.938-3.141 2.719-1.617.869-3.309 1.26-4.727 1.459-1.421.202-2.573.218-3.216.38zM127.211 60.976a37.692 37.692 0 0 1-.555 2.001 39.025 39.025 0 0 1-2.123 5.414c-.684 1.422-1.217 2.32-1.215 2.322.957-1.102 1.883-1.869 2.756-2.795.861-.928 1.668-2.02 2.236-3.812.316-.991.475-2.066.539-3.13h-1.638z" fill="#fff"/><path d="M126.928 60.976h-2.085c-.054.163-.115.314-.163.483-.572 2.023-.76 3.938-.896 5.57-.129 1.629-.201 2.965-.465 3.684.277-.617 1.869-3.865 3.078-7.887.194-.632.37-1.25.531-1.85zM117.121 84.932c.428-.475 2.807-2.918 5.092-6.131 2.578-3.57 4.238-6.894 4.244-6.887-.002-.012-1.455 3.506-4.057 7.098a38.703 38.703 0 0 1-3.51 4.195c-1.033 1.07-1.771 1.723-1.769 1.725 1.176-.709 2.229-1.121 3.277-1.691 1.043-.572 2.086-1.305 3.131-2.726 1.094-1.488 1.807-3.41 2.234-5.062.436-1.656.604-3.043.797-3.555.16-.42.766-1.721 1.272-2.955.51-1.23.93-2.389.93-2.389s-.435 1.123-.963 2.312a63.427 63.427 0 0 1-1.352 2.832c-.244.494-1.09 1.117-2.111 1.971-1.023.857-2.223 1.93-3.232 3.396-1.119 1.633-1.867 3.285-2.475 4.707-.604 1.417-1.061 2.593-1.508 3.16zM106.758 96.609c.52-.299 3.344-1.797 6.332-3.967 3.354-2.4 5.842-4.814 5.844-4.805.002-.012-2.361 2.637-5.742 5.047a38.344 38.344 0 0 1-4.357 2.699c-1.232.653-2.077 1.024-2.077 1.026 1.252-.297 2.311-.357 3.408-.559 1.092-.207 2.23-.553 3.578-1.5 1.408-.994 2.617-2.477 3.496-3.805.889-1.33 1.465-2.502 1.793-2.895.271-.318 1.205-1.277 2.037-2.205.834-.922 1.566-1.807 1.566-1.805 0-.002-.732.848-1.572 1.727-.834.883-1.777 1.791-2.07 2.074-.365.361-1.307.65-2.469 1.094-1.168.445-2.553 1.035-3.893 2.039-1.486 1.115-2.646 2.367-3.605 3.455-.957 1.087-1.707 2.003-2.269 2.38zM96.148 103.365c.537-.148 3.434-.848 6.641-2.08 3.594-1.355 6.42-2.895 6.422-2.885.002-.01-2.773 1.768-6.389 3.125a37.901 37.901 0 0 1-4.562 1.4c-1.262.3-2.112.438-2.112.44 1.197.022 2.164.213 3.199.289 1.031.07 2.135.027 3.572-.502 1.5-.557 2.941-1.59 4.057-2.566 1.119-.975 1.928-1.877 2.316-2.148.322-.219 1.398-.844 2.375-1.461.976-.615 1.859-1.215 1.859-1.215s-.873.568-1.844 1.143c-.969.578-2.039 1.152-2.371 1.336-.42.231-1.33.26-2.484.371-1.156.113-2.545.307-3.994.887-1.611.645-2.955 1.5-4.08 2.254-1.118.753-2.011 1.401-2.605 1.612zM84.902 107.131c.52-.02 3.281-.016 6.438-.395 3.525-.402 6.412-1.109 6.41-1.104.004-.008-2.889.928-6.436 1.326-3.209.394-6.416.177-6.412.173 1.076.279 1.902.662 2.814.957.91.293 1.908.498 3.314.348 1.469-.16 2.99-.758 4.213-1.369 1.227-.613 2.16-1.23 2.572-1.379.34-.119 1.447-.424 2.465-.744 1.018-.316 1.947-.639 1.947-.639s-.914.297-1.916.578c-1.002.287-2.092.549-2.434.633-.871.213-3.242-.75-6.094-.369-1.592.215-2.998.678-4.178 1.107-1.173.428-2.121.818-2.703.877z" fill="#fff"/><path d="M75.775 111.305c.562-.025 3.602-.061 7.002-.516 3.805-.488 6.854-1.295 6.854-1.289.002-.008-2.969 1-6.793 1.494-3.455.481-7.069.315-7.063.311 2.58.49 4.314 1.435 7.35 1.047 1.58-.213 3.053-.834 4.199-1.445 1.15-.611 1.984-1.207 2.4-1.363.344-.127 1.498-.463 2.555-.814 1.059-.346 2.014-.703 2.016-.701 0-.002-.949.332-2.002.648-1.051.32-2.201.619-2.561.715-.447.121-1.457.008-2.721-.09-1.268-.1-2.777-.189-4.324.018-1.717.232-3.115.688-4.264 1.111-1.144.419-2.03.807-2.648.874zM21.007 63.43c.058-.857.14-1.677.233-2.454h-1.996c-.078.4-.154.804-.191 1.239-.215 2.494.239 4.83.801 6.701.559 1.879 1.219 3.305 1.398 4.189-.122-.787-.592-5.033-.245-9.675z" fill="#fff"/><path d="M21.512 60.976a69.33 69.33 0 0 0-.217 2.558 74.406 74.406 0 0 0-.166 6.533c.035 1.811.128 3.039.124 3.039.19-1.668.663-2.9 1.066-4.197.412-1.297.757-2.654.853-4.59.056-1.094.012-2.23-.067-3.343h-1.593zM29.091 89.576c-.334-.664-1.984-4.285-3.068-8.496-1.248-4.707-1.444-8.555-1.458-8.547.013-.002.493 3.877 1.745 8.553a76.557 76.557 0 0 0 1.787 5.834c.563 1.594.997 2.656.994 2.656-.312-1.533-.252-2.766-.275-4.033-.016-1.273-.112-2.582-.606-4.326-.517-1.824-1.376-3.689-2.108-5.289-.735-1.592-1.347-2.91-1.458-3.469-.094-.457-.241-1.938-.296-3.295-.058-1.357-.035-2.59-.035-2.59s-.047 1.203-.027 2.533c.018 1.326.108 2.779.157 3.234.055.572-.319 1.586-.592 2.996-.272 1.404-.43 3.217.074 5.258.558 2.268 1.656 4.195 2.702 5.684 1.049 1.496 2.05 2.567 2.464 3.297zM41.577 102.738c-.487-.488-2.973-3.217-5.177-6.603-2.494-3.775-3.852-7.092-3.863-7.082.012-.006 1.631 3.254 4.117 7.004a77.656 77.656 0 0 0 3.283 4.623c.956 1.242 1.642 2.058 1.64 2.058-.713-1.268-1.017-2.369-1.402-3.488-.383-1.119-.849-2.248-1.803-3.645-.994-1.459-2.313-2.848-3.445-4.033-1.131-1.182-2.072-2.15-2.342-2.608-.225-.373-.812-1.631-1.282-2.805-.475-1.174-.844-2.264-.844-2.264s.338 1.072.77 2.232c.429 1.16.961 2.408 1.143 2.795.222.486.206 1.492.394 2.814.188 1.316.59 2.957 1.64 4.602 1.164 1.826 2.691 3.197 4.046 4.205 1.359 1.014 2.548 1.67 3.125 2.195zM54.097 110c-.547-.326-3.397-2.195-6.177-4.695-3.129-2.781-5.169-5.398-5.175-5.389.007-.006 2.266 2.496 5.383 5.256a80.403 80.403 0 0 0 4.025 3.363c1.147.891 1.946 1.465 1.944 1.465-.928-.973-1.455-1.891-2.062-2.801-.604-.916-1.288-1.82-2.475-2.844-1.238-1.07-2.76-1.992-4.058-2.779-1.3-.781-2.384-1.408-2.736-1.752-.292-.277-1.129-1.252-1.846-2.182a43.669 43.669 0 0 1-1.327-1.805 49.806 49.806 0 0 0 2.971 4.004c.321.377.555 1.283 1.046 2.416.49 1.131 1.247 2.496 2.575 3.711 1.475 1.351 3.16 2.215 4.608 2.795 1.451.589 2.669.899 3.304 1.237zM67.091 113.721c-.56-.176-3.506-1.223-6.547-2.826-3.415-1.775-5.848-3.625-5.85-3.617.004-.006 2.604 1.692 6.006 3.451a81.156 81.156 0 0 0 6.391 2.992c-1.04-.668-1.71-1.375-2.453-2.057-.741-.684-1.553-1.34-2.844-1.988-1.348-.678-2.914-1.158-4.256-1.557-1.34-.398-2.453-.705-2.848-.926-.326-.18-1.3-.852-2.158-1.51-.863-.656-1.614-1.291-1.614-1.291s.721.635 1.546 1.299a43.369 43.369 0 0 0 2.051 1.564c.374.262.793 1.012 1.492 1.908.697.896 1.684 1.938 3.14 2.719 1.618.869 3.31 1.26 4.728 1.459 1.422.202 2.575.218 3.216.38zM28.517 61.459c-.048-.169-.11-.32-.163-.483H26.27c.161.601.337 1.219.531 1.851 1.208 4.022 2.801 7.27 3.078 7.887-.265-.719-.336-2.055-.466-3.684-.135-1.634-.325-3.548-.896-5.571z" fill="#fff"/><path d="M26.541 62.977a37.692 37.692 0 0 1-.555-2.001h-1.64c.065 1.063.224 2.139.539 3.13.569 1.793 1.376 2.885 2.238 3.812.871.926 1.798 1.693 2.755 2.795.003-.002-.531-.9-1.215-2.322a39.158 39.158 0 0 1-2.122-5.414zM36.076 84.932c-.428-.475-2.808-2.918-5.092-6.131-2.578-3.57-4.238-6.894-4.244-6.887.002-.012 1.455 3.506 4.057 7.098a38.702 38.702 0 0 0 3.511 4.195c1.03 1.07 1.77 1.723 1.768 1.725-1.176-.709-2.229-1.121-3.279-1.691-1.042-.572-2.084-1.305-3.13-2.726-1.093-1.488-1.806-3.41-2.234-5.062-.436-1.656-.604-3.043-.796-3.555-.162-.42-.766-1.721-1.271-2.955-.51-1.23-.93-2.389-.93-2.389s.434 1.123.963 2.312a63.427 63.427 0 0 0 1.352 2.832c.244.494 1.089 1.117 2.11 1.971 1.024.857 2.223 1.93 3.232 3.396 1.121 1.633 1.868 3.285 2.476 4.707.602 1.417 1.059 2.593 1.507 3.16zM46.439 96.609c-.519-.299-3.345-1.797-6.333-3.967-3.354-2.4-5.841-4.814-5.844-4.805-.001-.012 2.362 2.637 5.741 5.047a38.437 38.437 0 0 0 4.358 2.699c1.232.653 2.079 1.024 2.078 1.026-1.252-.297-2.312-.357-3.408-.559-1.093-.207-2.23-.553-3.578-1.5-1.409-.994-2.615-2.477-3.497-3.805-.888-1.33-1.464-2.502-1.792-2.895-.272-.318-1.205-1.277-2.036-2.205-.834-.922-1.567-1.807-1.567-1.805 0-.002.733.848 1.571 1.727a65.531 65.531 0 0 0 2.071 2.074c.365.361 1.307.65 2.469 1.094 1.168.445 2.552 1.035 3.893 2.039 1.486 1.115 2.646 2.367 3.605 3.455.956 1.087 1.706 2.003 2.269 2.38zM57.049 103.365c-.538-.148-3.437-.848-6.643-2.08-3.591-1.355-6.419-2.895-6.42-2.885-.002-.01 2.774 1.768 6.388 3.125 1.627.621 3.302 1.1 4.563 1.4 1.262.3 2.112.438 2.112.44-1.198.022-2.166.213-3.2.289-1.032.07-2.136.027-3.572-.502-1.5-.557-2.942-1.59-4.057-2.566-1.118-.975-1.928-1.877-2.316-2.148-.323-.219-1.399-.844-2.376-1.461-.977-.615-1.859-1.215-1.859-1.215s.874.568 1.844 1.143c.969.578 2.04 1.152 2.373 1.336.418.231 1.33.26 2.483.371 1.155.113 2.545.307 3.994.887 1.611.645 2.956 1.5 4.08 2.254 1.119.753 2.013 1.401 2.606 1.612zM68.295 107.131c-.52-.02-3.282-.016-6.438-.395-3.527-.402-6.413-1.109-6.411-1.104-.005-.008 2.89.928 6.437 1.326 3.209.394 6.416.177 6.412.173-1.077.279-1.904.662-2.815.957-.911.293-1.909.498-3.314.348-1.47-.16-2.991-.758-4.215-1.369-1.226-.613-2.16-1.23-2.571-1.379-.34-.119-1.447-.424-2.465-.744-1.018-.316-1.946-.639-1.946-.639s.913.297 1.915.578c1.002.287 2.092.549 2.434.633.87.213 3.242-.75 6.093-.369 1.593.215 2.999.678 4.178 1.107 1.176.428 2.122.818 2.706.877z" fill="#fff"/><path d="M77.422 111.305c-.564-.025-3.602-.061-7.004-.516-3.804-.488-6.851-1.295-6.851-1.289-.003-.008 2.968 1 6.792 1.494 3.455.481 7.067.315 7.063.311-2.582.49-4.316 1.435-7.35 1.047-1.582-.213-3.053-.834-4.201-1.445-1.149-.611-1.984-1.207-2.4-1.363-.344-.127-1.498-.463-2.554-.814-1.059-.346-2.015-.703-2.017-.701.001-.002.95.332 2.002.648 1.051.32 2.201.619 2.562.715.447.121 1.457.008 2.72-.09 1.268-.1 2.779-.189 4.326.018 1.715.232 3.115.688 4.262 1.111 1.146.419 2.033.807 2.65.874z" fill="#fff"/><g><path d="M134.139 50.05c-.252-2.922-1.469-5.456-2.195-8.247M130.472 61.321a43.02 43.02 0 0 1-1.597 5.399 52.37 52.37 0 0 0 1.721-5.232M131.943 41.803c-.354 3.013-1.775 5.718-1.918 8.787M124.105 25.332c.312 1.533.252 2.766.275 4.033.016 1.272.111 2.581.605 4.326.516 1.824 1.375 3.69 2.107 5.289.736 1.592 1.348 2.909 1.459 3.468.094.458.24 1.938.295 3.295.059 1.358.035 2.591.035 2.591s.047-1.203.027-2.533a46.666 46.666 0 0 0-.156-3.235c-.055-.571.32-1.585.592-2.995.272-1.404.43-3.217-.074-5.259-.559-2.268-1.656-4.194-2.703-5.684-1.048-1.496-2.048-2.566-2.462-3.296M111.621 12.169c.711 1.268 1.016 2.37 1.4 3.488.383 1.12.85 2.249 1.803 3.646.994 1.459 2.314 2.848 3.445 4.033 1.131 1.182 2.072 2.15 2.344 2.608.225.373.811 1.63 1.281 2.804.475 1.175.844 2.264.844 2.264s-.338-1.071-.77-2.231a45.995 45.995 0 0 0-1.143-2.795c-.223-.486-.205-1.492-.395-2.814-.188-1.316-.59-2.958-1.641-4.602-1.164-1.826-2.691-3.197-4.045-4.205-1.357-1.013-2.549-1.67-3.123-2.196M99.1 4.908c.928.972 1.455 1.891 2.062 2.801.604.915 1.287 1.819 2.475 2.843 1.238 1.071 2.76 1.993 4.059 2.779 1.299.781 2.383 1.409 2.734 1.752.293.278 1.129 1.253 1.848 2.182.719.929 1.326 1.804 1.326 1.804s-.576-.866-1.254-1.793a46.71 46.71 0 0 0-1.717-2.21c-.322-.377-.555-1.282-1.047-2.415-.49-1.131-1.246-2.497-2.574-3.711-1.475-1.352-3.16-2.215-4.609-2.796-1.45-.587-2.669-.898-3.303-1.236M86.105 1.188c1.039.668 1.709 1.375 2.453 2.056.742.684 1.553 1.341 2.844 1.989 1.348.678 2.914 1.157 4.256 1.557 1.34.397 2.453.704 2.848.926.326.18 1.299.852 2.158 1.51.863.655 1.613 1.29 1.613 1.29s-.721-.635-1.545-1.299a44.62 44.62 0 0 0-2.05-1.565c-.375-.263-.793-1.012-1.492-1.909-.697-.895-1.684-1.937-3.141-2.719-1.617-.869-3.309-1.26-4.727-1.459-1.422-.2-2.574-.215-3.217-.377M124.068 50.517c-.294-2.078-.171-4.299-.75-6.321M128.474 61.645c.149 1.681.246 3.367.272 5.055a57.537 57.537 0 0 0-.455-5.375M123.318 44.195c1.744 1.967 3.846 3.485 4.794 6.035M117.121 29.977c1.176.709 2.229 1.121 3.277 1.691 1.043.572 2.086 1.305 3.131 2.727 1.094 1.488 1.807 3.41 2.234 5.062.436 1.656.604 3.043.797 3.555.16.42.766 1.72 1.272 2.954.51 1.231.93 2.389.93 2.389s-.435-1.122-.963-2.312a63.427 63.427 0 0 0-1.352-2.832c-.244-.494-1.09-1.118-2.111-1.972-1.023-.857-2.223-1.929-3.232-3.396-1.119-1.632-1.867-3.284-2.475-4.706-.604-1.418-1.061-2.594-1.508-3.16M106.758 18.299c1.252.296 2.311.358 3.408.559 1.092.206 2.23.552 3.578 1.5 1.408.994 2.617 2.477 3.496 3.805.889 1.33 1.465 2.502 1.793 2.894.271.319 1.205 1.278 2.037 2.205.834.923 1.566 1.808 1.566 1.806 0 .002-.732-.848-1.572-1.727-.834-.884-1.777-1.791-2.07-2.075-.365-.36-1.307-.649-2.469-1.094-1.168-.445-2.553-1.035-3.893-2.038-1.486-1.115-2.646-2.367-3.605-3.455-.957-1.087-1.707-2.003-2.269-2.38M96.148 11.543c1.197-.023 2.164-.213 3.199-.289 1.031-.07 2.135-.027 3.572.502 1.5.557 2.941 1.59 4.057 2.566 1.119.975 1.928 1.877 2.316 2.148.322.219 1.398.844 2.375 1.461.976.615 1.859 1.215 1.859 1.215s-.873-.568-1.844-1.143c-.969-.579-2.039-1.153-2.371-1.337-.42-.229-1.33-.259-2.484-.37-1.156-.113-2.545-.307-3.994-.887-1.611-.646-2.955-1.5-4.08-2.254-1.118-.753-2.011-1.401-2.605-1.612M84.902 7.777c1.076-.279 1.902-.662 2.814-.957.91-.293 1.908-.498 3.314-.348 1.469.16 2.99.758 4.213 1.369 1.227.613 2.16 1.229 2.572 1.379.34.119 1.447.424 2.465.744 1.018.316 1.947.639 1.947.639s-.914-.297-1.916-.578c-1.002-.287-2.092-.55-2.434-.633-.871-.214-3.242.75-6.094.369-1.592-.215-2.998-.679-4.178-1.108-1.173-.426-2.121-.818-2.703-.876" fill="none" stroke="#fff" stroke-width=".5" stroke-miterlimit="10"/><path d="M75.775 3.603c2.581-.49 4.315-1.435 7.35-1.047 1.58.213 3.053.834 4.199 1.445 1.15.61 1.984 1.207 2.4 1.363.344.126 1.498.463 2.555.814 1.059.345 2.014.702 2.016.701 0 0-.949-.332-2.002-.648-1.051-.32-2.201-.619-2.561-.715-.447-.121-1.457-.009-2.721.09-1.268.1-2.777.188-4.324-.018-1.717-.232-3.115-.687-4.264-1.11-1.144-.419-2.031-.808-2.648-.875M19.057 50.05c.253-2.921 1.469-5.457 2.195-8.247M22.725 61.321a42.805 42.805 0 0 0 1.597 5.399 52.375 52.375 0 0 1-1.722-5.232M21.252 41.803c.353 3.013 1.777 5.717 1.919 8.787M29.091 25.332c-.312 1.533-.252 2.766-.275 4.033-.016 1.272-.112 2.581-.606 4.326-.517 1.824-1.376 3.69-2.108 5.289-.735 1.592-1.347 2.909-1.458 3.468-.094.458-.241 1.938-.296 3.295-.058 1.358-.035 2.591-.035 2.591s-.047-1.203-.027-2.533c.018-1.326.108-2.78.157-3.235.055-.571-.319-1.585-.592-2.995-.272-1.404-.43-3.217.074-5.259.558-2.268 1.656-4.194 2.702-5.684 1.049-1.496 2.05-2.566 2.464-3.296M41.577 12.169c-.713 1.268-1.017 2.37-1.402 3.488-.383 1.12-.849 2.249-1.803 3.646-.994 1.459-2.313 2.848-3.445 4.033-1.131 1.182-2.072 2.15-2.342 2.608-.225.373-.812 1.63-1.282 2.804-.475 1.175-.844 2.264-.844 2.264s.338-1.071.77-2.231a45.335 45.335 0 0 1 1.143-2.795c.222-.486.206-1.492.394-2.814.188-1.316.59-2.958 1.64-4.602 1.164-1.826 2.691-3.197 4.046-4.205 1.359-1.013 2.548-1.67 3.125-2.196M54.097 4.908c-.928.972-1.455 1.891-2.062 2.801-.604.915-1.288 1.819-2.475 2.843-1.238 1.071-2.76 1.993-4.058 2.779-1.3.781-2.384 1.409-2.736 1.752-.292.278-1.129 1.253-1.846 2.182a45.302 45.302 0 0 0-1.327 1.805c-.001-.001.575-.867 1.254-1.794a46.036 46.036 0 0 1 1.717-2.21c.321-.377.555-1.282 1.046-2.415.49-1.131 1.247-2.497 2.575-3.711 1.475-1.352 3.16-2.215 4.608-2.796 1.451-.587 2.669-.898 3.304-1.236M67.091 1.188c-1.04.668-1.71 1.375-2.453 2.056-.741.684-1.553 1.341-2.844 1.989-1.347.677-2.914 1.157-4.255 1.556-1.34.397-2.453.704-2.848.926-.326.18-1.3.852-2.158 1.51-.863.655-1.614 1.29-1.614 1.29s.721-.635 1.546-1.299a44.086 44.086 0 0 1 2.051-1.564c.374-.263.793-1.012 1.492-1.909.697-.895 1.684-1.937 3.14-2.719 1.618-.869 3.31-1.26 4.728-1.459 1.421-.2 2.574-.215 3.215-.377M29.128 50.517c.294-2.078.169-4.299.75-6.321M24.723 61.645a69.958 69.958 0 0 0-.272 5.055c.065-1.798.223-3.592.456-5.375M29.878 44.195c-1.744 1.967-3.846 3.486-4.795 6.035M36.076 29.977c-1.176.709-2.229 1.121-3.279 1.691-1.042.572-2.084 1.305-3.13 2.727-1.093 1.488-1.806 3.41-2.234 5.062-.436 1.656-.604 3.043-.796 3.555-.162.42-.766 1.72-1.271 2.954-.51 1.231-.93 2.389-.93 2.389s.434-1.122.963-2.312a63.427 63.427 0 0 1 1.352-2.832c.244-.494 1.089-1.118 2.11-1.972 1.024-.857 2.223-1.929 3.232-3.396 1.121-1.632 1.868-3.284 2.476-4.706.602-1.418 1.059-2.594 1.507-3.16M46.439 18.299c-1.252.296-2.312.358-3.408.559-1.093.206-2.23.552-3.578 1.5-1.409.994-2.615 2.477-3.497 3.805-.888 1.33-1.464 2.502-1.792 2.894-.272.319-1.205 1.278-2.036 2.205-.834.923-1.567 1.808-1.567 1.806 0 .002.733-.848 1.571-1.727.834-.884 1.777-1.791 2.071-2.075.365-.36 1.307-.649 2.469-1.094 1.168-.445 2.552-1.035 3.893-2.038 1.486-1.115 2.646-2.367 3.605-3.455.956-1.087 1.706-2.003 2.269-2.38M57.049 11.543c-1.198-.023-2.166-.213-3.2-.289-1.032-.07-2.136-.027-3.572.502-1.5.557-2.942 1.59-4.057 2.566-1.118.975-1.928 1.877-2.316 2.148-.323.219-1.399.844-2.376 1.461-.977.615-1.859 1.215-1.859 1.215s.874-.568 1.844-1.143c.969-.579 2.04-1.153 2.373-1.337.418-.229 1.33-.259 2.483-.37 1.155-.113 2.545-.307 3.994-.887 1.611-.646 2.956-1.5 4.08-2.254 1.119-.753 2.013-1.401 2.606-1.612M68.294 7.777c-1.076-.279-1.903-.662-2.814-.957-.911-.293-1.909-.498-3.314-.348-1.47.16-2.991.758-4.215 1.369-1.226.613-2.16 1.229-2.571 1.379-.34.119-1.447.424-2.465.744-1.018.316-1.946.639-1.946.639s.913-.297 1.915-.578c1.002-.287 2.092-.55 2.434-.633.87-.214 3.242.75 6.093.369 1.593-.215 2.999-.679 4.178-1.108 1.176-.426 2.122-.818 2.705-.876" fill="none" stroke="#fff" stroke-width=".5" stroke-miterlimit="10"/><path d="M77.421 3.603c-2.582-.49-4.315-1.435-7.35-1.047-1.581.213-3.053.834-4.2 1.445-1.149.61-1.984 1.207-2.4 1.363-.344.126-1.498.463-2.554.814-1.059.345-2.015.702-2.017.701.001.001.95-.332 2.002-.648 1.051-.32 2.201-.619 2.562-.715.447-.121 1.457-.009 2.72.09 1.268.1 2.778.188 4.325-.018 1.716-.232 3.116-.687 4.263-1.11 1.145-.419 2.032-.808 2.649-.875M134.076 61.614c.542 4.183-1.115 7.581-2.133 11.491M129.567 50.229a49.007 49.007 0 0 0-.692-2.042c.254.654.494 1.313.723 1.978M131.943 73.105c-.459-3.92-2.128-7.184-1.907-11.26M124.105 89.576c.312-1.533.252-2.766.275-4.033.016-1.273.111-2.582.605-4.326.516-1.824 1.375-3.689 2.107-5.289.736-1.592 1.348-2.91 1.459-3.469.094-.457.24-1.938.295-3.295.059-1.357.035-2.59.035-2.59s.047 1.203.027 2.533a46.627 46.627 0 0 1-.156 3.234c-.055.572.32 1.586.592 2.996.272 1.404.43 3.217-.074 5.258-.559 2.268-1.656 4.195-2.703 5.684-1.048 1.496-2.048 2.567-2.462 3.297M111.621 102.738c.711-1.268 1.016-2.369 1.4-3.488.383-1.119.85-2.248 1.803-3.645.994-1.459 2.314-2.848 3.445-4.033 1.131-1.182 2.072-2.15 2.344-2.608.225-.373.811-1.631 1.281-2.805.475-1.174.844-2.264.844-2.264s-.338 1.072-.77 2.232a46.275 46.275 0 0 1-1.143 2.795c-.223.486-.205 1.492-.395 2.814-.188 1.316-.59 2.957-1.641 4.602-1.164 1.826-2.691 3.197-4.045 4.205-1.357 1.014-2.549 1.67-3.123 2.195M99.1 110c.928-.973 1.455-1.891 2.062-2.801.604-.916 1.287-1.82 2.475-2.844 1.238-1.07 2.76-1.992 4.059-2.779 1.299-.781 2.383-1.408 2.734-1.752.293-.277 1.129-1.252 1.848-2.182a45.321 45.321 0 0 0 1.326-1.805c0 .002-.576.867-1.254 1.795a46.01 46.01 0 0 1-1.717 2.209c-.322.377-.555 1.283-1.047 2.416-.49 1.131-1.246 2.496-2.574 3.711-1.475 1.351-3.16 2.215-4.609 2.795-1.45.589-2.669.899-3.303 1.237M86.105 113.721c1.039-.668 1.709-1.375 2.453-2.057.742-.684 1.553-1.34 2.844-1.988 1.348-.678 2.914-1.158 4.256-1.557 1.34-.398 2.453-.705 2.848-.926.326-.18 1.299-.852 2.158-1.51.863-.656 1.613-1.291 1.613-1.291s-.721.635-1.545 1.299a44.459 44.459 0 0 1-2.051 1.564c-.375.262-.793 1.012-1.492 1.908-.697.896-1.684 1.938-3.141 2.719-1.617.869-3.309 1.26-4.727 1.459-1.421.202-2.573.218-3.216.38M124.68 61.459c-.85 3.03-.506 6.266-1.361 9.254M128.678 50.345c.034-.712.057-1.424.068-2.136a66.048 66.048 0 0 1-.107 1.989M123.318 70.713c2.559-2.889 5.049-4.84 5.473-8.965M117.121 84.932c1.176-.709 2.229-1.121 3.277-1.691 1.043-.572 2.086-1.305 3.131-2.726 1.094-1.488 1.807-3.41 2.234-5.062.436-1.656.604-3.043.797-3.555.16-.42.766-1.721 1.272-2.955.51-1.23.93-2.389.93-2.389s-.435 1.123-.963 2.312a63.427 63.427 0 0 1-1.352 2.832c-.244.494-1.09 1.117-2.111 1.971-1.023.857-2.223 1.93-3.232 3.396-1.119 1.633-1.867 3.285-2.475 4.707-.604 1.417-1.061 2.593-1.508 3.16M106.758 96.609c1.252-.297 2.311-.357 3.408-.559 1.092-.207 2.23-.553 3.578-1.5 1.408-.994 2.617-2.477 3.496-3.805.889-1.33 1.465-2.502 1.793-2.895.271-.318 1.205-1.277 2.037-2.205.834-.922 1.566-1.807 1.566-1.805 0-.002-.732.848-1.572 1.727-.834.883-1.777 1.791-2.07 2.074-.365.361-1.307.65-2.469 1.094-1.168.445-2.553 1.035-3.893 2.039-1.486 1.115-2.646 2.367-3.605 3.455-.957 1.087-1.707 2.003-2.269 2.38M96.148 103.365c1.197.022 2.164.213 3.199.289 1.031.07 2.135.027 3.572-.502 1.5-.557 2.941-1.59 4.057-2.566 1.119-.975 1.928-1.877 2.316-2.148.322-.219 1.398-.844 2.375-1.461.976-.615 1.859-1.215 1.859-1.215s-.873.568-1.844 1.143c-.969.578-2.039 1.152-2.371 1.336-.42.231-1.33.26-2.484.371-1.156.113-2.545.307-3.994.887-1.611.645-2.955 1.5-4.08 2.254-1.118.753-2.011 1.401-2.605 1.612M84.902 107.131c1.076.279 1.902.662 2.814.957.91.293 1.908.498 3.314.348 1.469-.16 2.99-.758 4.213-1.369 1.227-.613 2.16-1.23 2.572-1.379.34-.119 1.447-.424 2.465-.744 1.018-.316 1.947-.639 1.947-.639s-.914.297-1.916.578c-1.002.287-2.092.549-2.434.633-.871.213-3.242-.75-6.094-.369-1.592.215-2.998.678-4.178 1.107-1.173.428-2.121.818-2.703.877" fill="none" stroke="#fff" stroke-width=".5" stroke-miterlimit="10"/><path d="M75.775 111.305c2.581.49 4.315 1.435 7.35 1.047 1.58-.213 3.053-.834 4.199-1.445 1.15-.611 1.984-1.207 2.4-1.363.344-.127 1.498-.463 2.555-.814 1.059-.346 2.014-.703 2.016-.701 0-.002-.949.332-2.002.648-1.051.32-2.201.619-2.561.715-.447.121-1.457.008-2.721-.09-1.268-.1-2.777-.189-4.324.018-1.717.232-3.115.688-4.264 1.111-1.144.419-2.031.807-2.648.874M19.12 61.614c-.542 4.181 1.115 7.582 2.132 11.491M23.629 50.229c.216-.686.446-1.367.693-2.042a52.438 52.438 0 0 0-.723 1.978M21.252 73.105c.46-3.92 2.128-7.182 1.908-11.26M29.091 89.576c-.312-1.533-.252-2.766-.275-4.033-.016-1.273-.112-2.582-.606-4.326-.517-1.824-1.376-3.689-2.108-5.289-.735-1.592-1.347-2.91-1.458-3.469-.094-.457-.241-1.938-.296-3.295-.058-1.357-.035-2.59-.035-2.59s-.047 1.203-.027 2.533c.018 1.326.108 2.779.157 3.234.055.572-.319 1.586-.592 2.996-.272 1.404-.43 3.217.074 5.258.558 2.268 1.656 4.195 2.702 5.684 1.049 1.496 2.05 2.567 2.464 3.297M41.577 102.738c-.713-1.268-1.017-2.369-1.402-3.488-.383-1.119-.849-2.248-1.803-3.645-.994-1.459-2.313-2.848-3.445-4.033-1.131-1.182-2.072-2.15-2.342-2.608-.225-.373-.812-1.631-1.282-2.805-.475-1.174-.844-2.264-.844-2.264s.338 1.072.77 2.232c.429 1.16.961 2.408 1.143 2.795.222.486.206 1.492.394 2.814.188 1.316.59 2.957 1.64 4.602 1.164 1.826 2.691 3.197 4.046 4.205 1.359 1.014 2.548 1.67 3.125 2.195M54.097 110c-.928-.973-1.455-1.891-2.062-2.801-.604-.916-1.288-1.82-2.475-2.844-1.238-1.07-2.76-1.992-4.058-2.779-1.3-.781-2.384-1.408-2.736-1.752-.292-.277-1.129-1.252-1.846-2.182a43.669 43.669 0 0 1-1.327-1.805 49.806 49.806 0 0 0 2.971 4.004c.321.377.555 1.283 1.046 2.416.49 1.131 1.247 2.496 2.575 3.711 1.475 1.351 3.16 2.215 4.608 2.795 1.451.589 2.669.899 3.304 1.237M67.091 113.721c-1.04-.668-1.71-1.375-2.453-2.057-.741-.684-1.553-1.34-2.844-1.988-1.348-.678-2.914-1.158-4.256-1.557-1.34-.398-2.453-.705-2.848-.926-.326-.18-1.3-.852-2.158-1.51-.863-.656-1.614-1.291-1.614-1.291s.721.635 1.546 1.299a43.369 43.369 0 0 0 2.051 1.564c.374.262.793 1.012 1.492 1.908.697.896 1.684 1.938 3.14 2.719 1.618.869 3.31 1.26 4.728 1.459 1.422.202 2.575.218 3.216.38M28.517 61.459c.848 3.03.504 6.268 1.361 9.254M24.52 50.345a63.472 63.472 0 0 1-.069-2.136c.024.664.064 1.326.108 1.989M29.878 70.713c-2.559-2.888-5.05-4.84-5.473-8.965M36.076 84.932c-1.176-.709-2.229-1.121-3.279-1.691-1.042-.572-2.084-1.305-3.13-2.726-1.093-1.488-1.806-3.41-2.234-5.062-.436-1.656-.604-3.043-.796-3.555-.162-.42-.766-1.721-1.271-2.955-.51-1.23-.93-2.389-.93-2.389s.434 1.123.963 2.312a63.427 63.427 0 0 0 1.352 2.832c.244.494 1.089 1.117 2.11 1.971 1.024.857 2.223 1.93 3.232 3.396 1.121 1.633 1.868 3.285 2.476 4.707.602 1.417 1.059 2.593 1.507 3.16M46.439 96.609c-1.252-.297-2.312-.357-3.408-.559-1.093-.207-2.23-.553-3.578-1.5-1.409-.994-2.615-2.477-3.497-3.805-.888-1.33-1.464-2.502-1.792-2.895-.272-.318-1.205-1.277-2.036-2.205-.834-.922-1.567-1.807-1.567-1.805 0-.002.733.848 1.571 1.727a65.531 65.531 0 0 0 2.071 2.074c.365.361 1.307.65 2.469 1.094 1.168.445 2.552 1.035 3.893 2.039 1.486 1.115 2.646 2.367 3.605 3.455.956 1.087 1.706 2.003 2.269 2.38M57.049 103.365c-1.198.022-2.166.213-3.2.289-1.032.07-2.136.027-3.572-.502-1.5-.557-2.942-1.59-4.057-2.566-1.118-.975-1.928-1.877-2.316-2.148-.323-.219-1.399-.844-2.376-1.461-.977-.615-1.859-1.215-1.859-1.215s.874.568 1.844 1.143c.969.578 2.04 1.152 2.373 1.336.418.231 1.33.26 2.483.371 1.155.113 2.545.307 3.994.887 1.611.645 2.956 1.5 4.08 2.254 1.119.753 2.013 1.401 2.606 1.612M68.294 107.131c-1.076.279-1.903.662-2.814.957-.911.293-1.909.498-3.314.348-1.47-.16-2.991-.758-4.215-1.369-1.226-.613-2.16-1.23-2.571-1.379-.34-.119-1.447-.424-2.465-.744-1.018-.316-1.946-.639-1.946-.639s.913.297 1.915.578c1.002.287 2.092.549 2.434.633.87.213 3.242-.75 6.093-.369 1.593.215 2.999.678 4.178 1.107 1.176.428 2.122.818 2.705.877" fill="none" stroke="#fff" stroke-width=".5" stroke-miterlimit="10"/><path d="M77.421 111.305c-2.582.49-4.315 1.435-7.35 1.047-1.581-.213-3.053-.834-4.2-1.445-1.149-.611-1.984-1.207-2.4-1.363-.344-.127-1.498-.463-2.554-.814-1.059-.346-2.015-.703-2.017-.701.001-.002.95.332 2.002.648 1.051.32 2.201.619 2.562.715.447.121 1.457.008 2.72-.09 1.268-.1 2.778-.189 4.325.018 1.716.232 3.116.688 4.263 1.111 1.145.419 2.032.807 2.649.874" fill="none" stroke="#fff" stroke-width=".5" stroke-miterlimit="10"/></g><g fill="#fff"><path d="M21.653 141.879h-6.459v-.639c.386-.033.667-.073.846-.125a.761.761 0 0 0 .406-.274c.093-.13.15-.343.172-.634.01-.281.017-1.276.017-2.988v-3.565c0-1.073-.023-1.788-.063-2.142-.042-.355-.151-.588-.329-.697-.177-.109-.526-.191-1.048-.242v-.627h6.131c.573.012 1.065.05 1.471.119a3.16 3.16 0 0 1 1.11.398c.376.219.668.523.876.915.209.391.315.816.315 1.275 0 1.512-1.008 2.48-3.021 2.908.595.073 1.074.151 1.438.235.365.083.715.248 1.049.5.781.542 1.174 1.33 1.174 2.361 0 1.063-.397 1.91-1.188 2.535-.356.28-.751.465-1.188.554-.442.09-1.01.133-1.709.133zm-2.705-10.854v4.004c1.095.023 1.998-.101 2.705-.367.711-.266 1.065-.811 1.065-1.636 0-.792-.239-1.329-.721-1.61-.478-.28-1.162-.423-2.049-.423-.208 0-.541.012-1 .032zm1.109 5.116h-1.109v2.785c0 .521.022.9.071 1.141.046.24.177.428.391.562.213.136.565.204 1.055.204.407 0 .825-.078 1.251-.234a2.442 2.442 0 0 0 1.08-.782c.292-.364.438-.829.438-1.393 0-.627-.119-1.104-.359-1.439-.24-.334-.586-.557-1.041-.672-.454-.116-1.046-.172-1.777-.172zM30.819 141.879h-4.927v-.656c.417-.053.716-.115.899-.194a.685.685 0 0 0 .383-.407c.074-.192.114-.502.126-.932v-6.35c-.012-.928-.037-1.545-.079-1.852-.041-.308-.147-.517-.312-.626-.167-.109-.507-.201-1.018-.273v-.643h4.927v.643c-.511.052-.85.129-1.016.234-.168.105-.271.313-.313.627-.042.311-.062.942-.062 1.891v4.817c0 1.043.017 1.747.047 2.112.042.354.155.594.344.72.188.126.521.204 1.001.233v.656zM41.44 138.894l.703.532a8.826 8.826 0 0 1-.97 1.321c-.365.412-.892.79-1.579 1.132-.688.346-1.533.518-2.534.518-1.179 0-2.216-.266-3.113-.798a5.462 5.462 0 0 1-2.079-2.196c-.491-.934-.736-1.98-.736-3.137a7.33 7.33 0 0 1 .682-3.137 5.606 5.606 0 0 1 2.04-2.359c.907-.602 2.003-.9 3.285-.9.646 0 1.22.074 1.72.225.502.153.907.323 1.221.51a9.91 9.91 0 0 1 1.002.703l.812-.75.063 3.611-.531.111a4.487 4.487 0 0 0-.439-1.011c-.187-.316-.469-.679-.844-1.085a4.444 4.444 0 0 0-1.041-.806c-.422-.244-.908-.366-1.461-.366-.721 0-1.373.19-1.955.578-.586.385-1.047.941-1.385 1.672-.34.73-.508 1.596-.508 2.598 0 .906.158 1.748.477 2.525.316.775.79 1.4 1.416 1.869.625.469 1.381.705 2.268.705.635 0 1.176-.104 1.618-.307.444-.202.791-.441 1.041-.711.247-.271.523-.62.827-1.047zM51.387 141.879H42.3v-.656c.438-.041.748-.098.931-.172a.63.63 0 0 0 .374-.391c.067-.188.107-.511.118-.971.02-.373.031-1.057.031-2.048v-4.192c0-1.135-.031-1.855-.094-2.158-.062-.26-.183-.43-.36-.508-.178-.078-.511-.139-1-.18v-.642h8.509l.062 2.831h-.549c-.082-.531-.232-.923-.445-1.173s-.509-.411-.884-.484c-.376-.073-.938-.11-1.688-.11h-1.471v4.191h1.298c.511 0 .892-.041 1.144-.125.248-.084.424-.221.521-.415.1-.192.17-.482.213-.867h.578v3.942h-.578c0-.449-.055-.775-.165-.979-.109-.203-.292-.336-.547-.397-.256-.064-.649-.096-1.181-.096h-1.283v3.349c0 .418.131.719.391.906.261.188.767.283 1.518.283.781 0 1.356-.027 1.722-.08a1.74 1.74 0 0 0 .983-.508c.293-.287.502-.764.627-1.432h.577c-.177 1.316-.265 2.344-.265 3.082zM56.831 141.879h-4.865v-.639c.396-.021.682-.046.852-.072a.737.737 0 0 0 .416-.187c.104-.099.178-.259.218-.477.095-.438.167-2.924.22-7.461l.031-1.643c-.334-.302-.608-.502-.82-.603-.215-.099-.52-.163-.916-.194v-.642h3.582c.542.773.965 1.357 1.266 1.76.305.401.872 1.119 1.707 2.151l3.331 4.129v-5.334c-.011-.699-.048-1.17-.109-1.416a.667.667 0 0 0-.462-.492c-.244-.083-.706-.136-1.384-.156v-.642h4.692v.642c-.448.011-.767.065-.954.166-.188.098-.313.289-.375.576-.063.287-.099.779-.11 1.479l-.156 9.212h-.719l-1.064-1.329-1.611-2.018-4.725-5.802v6.177c0 .679.041 1.146.119 1.408.078.26.236.436.476.525.24.088.693.169 1.361.242v.64zM75.319 133.293c-.032-.645-.134-1.115-.306-1.408-.172-.291-.396-.475-.672-.547-.277-.072-.672-.109-1.182-.109h-1.674v8.775c0 .49.099.839.297 1.047.198.209.568.318 1.11.33v.498H67.95v-.498c.532-.012.899-.121 1.103-.33.203-.208.306-.557.306-1.047v-8.775h-1.673c-.512 0-.906.037-1.182.109-.276.072-.501.256-.674.547-.171.293-.272.763-.304 1.408h-.625l.093-3.331H75.85l.093 3.331h-.624zM85.344 141.879h-9.088v-.656c.439-.041.75-.098.932-.172a.63.63 0 0 0 .375-.391c.068-.188.107-.511.117-.971.021-.373.031-1.057.031-2.048v-4.192c0-1.135-.031-1.855-.094-2.158-.062-.26-.182-.43-.358-.508-.178-.078-.512-.139-1.003-.18v-.642h8.51l.062 2.831h-.547c-.084-.531-.232-.923-.445-1.173-.215-.25-.51-.411-.885-.484-.375-.073-.939-.11-1.689-.11h-1.471v4.191h1.299c.51 0 .891-.041 1.143-.125.248-.084.424-.221.523-.415.098-.192.168-.482.211-.867h.578v3.942h-.578c0-.449-.055-.775-.164-.979-.109-.203-.291-.336-.549-.397-.254-.064-.646-.096-1.18-.096h-1.283v3.349c0 .418.131.719.391.906.262.188.768.283 1.518.283.781 0 1.355-.027 1.721-.08.365-.053.693-.222.986-.508.291-.287.5-.764.625-1.432h.578c-.178 1.316-.266 2.344-.266 3.082zM90.787 141.879h-4.863v-.639a9.95 9.95 0 0 0 .852-.072.74.74 0 0 0 .414-.187c.104-.099.176-.259.219-.477.094-.438.168-2.924.219-7.461l.031-1.643c-.334-.302-.607-.502-.82-.603-.213-.099-.52-.163-.914-.194v-.642h3.58c.543.773.965 1.357 1.268 1.76a90.88 90.88 0 0 0 1.703 2.151l3.334 4.129v-5.334c-.012-.699-.049-1.17-.109-1.416a.674.674 0 0 0-.463-.492c-.246-.083-.707-.136-1.385-.156v-.642h4.693v.642c-.449.011-.766.065-.953.166-.188.098-.312.289-.377.576-.062.287-.1.779-.107 1.479l-.158 9.212h-.721l-1.062-1.329-1.611-2.018-4.723-5.802v6.177c0 .679.039 1.146.117 1.408a.76.76 0 0 0 .477.525c.24.088.693.169 1.361.242v.64zM103.723 141.879h-4.865v-.639c.396-.021.682-.046.852-.072a.737.737 0 0 0 .416-.187c.103-.099.178-.259.219-.477.094-.438.166-2.924.219-7.461l.033-1.643c-.336-.302-.609-.502-.824-.603-.213-.099-.518-.163-.914-.194v-.642h3.582c.543.773.965 1.357 1.268 1.76.301.401.869 1.119 1.705 2.151l3.33 4.129v-5.334c-.01-.699-.045-1.17-.107-1.416a.67.67 0 0 0-.463-.492c-.246-.083-.705-.136-1.383-.156v-.642h4.689v.642c-.445.011-.764.065-.953.166-.188.098-.312.289-.375.576-.062.287-.098.779-.109 1.479l-.156 9.212h-.719l-1.064-1.329-1.611-2.018-4.723-5.802v6.177c0 .679.039 1.146.117 1.408.078.26.236.436.477.525.238.088.693.169 1.361.242v.64zM116.721 141.879h-4.928v-.656c.416-.053.717-.115.898-.194a.688.688 0 0 0 .385-.407c.072-.192.113-.502.123-.932v-6.35c-.01-.928-.035-1.545-.076-1.852-.043-.308-.146-.517-.314-.626-.166-.109-.504-.201-1.016-.273v-.643h4.928v.643c-.512.052-.852.129-1.018.234-.166.105-.271.313-.314.627-.039.311-.061.942-.061 1.891v4.817c0 1.043.016 1.747.047 2.112.043.354.156.594.344.72.188.126.521.204 1.002.233v.656zM129.529 141.879h-5.582v-.639c.498-.043.863-.11 1.094-.205.23-.094.344-.285.344-.578 0-.178-.041-.41-.125-.703l-.359-1.221h-4.207l-.377 1.033c-.092.301-.141.547-.141.734 0 .375.141.619.422.728.283.109.68.179 1.188.212v.639h-4.91v-.639c.437-.021.781-.076 1.025-.165a1.33 1.33 0 0 0 .611-.446c.16-.208.318-.527.477-.954l3.221-8.853-.186-.281c.676-.22 1.164-.398 1.461-.541.297-.141.602-.324.914-.554.146.499.324 1.084.533 1.751l2.645 8.102c.166.523.316.904.453 1.151.135.245.312.425.529.539.221.114.545.198.971.251v.639zm-4.972-4.629l-1.674-4.957-1.754 4.957h3.428zM138.945 138.799h.578l-.281 3.08h-9.4v-.639c.521-.043.877-.121 1.064-.236.188-.113.297-.338.328-.672.051-.573.078-1.184.078-1.83v-5.053c0-.906-.023-1.527-.07-1.859-.047-.336-.164-.566-.354-.696-.186-.131-.535-.228-1.047-.29v-.642h5.303v.642c-.574.041-.951.113-1.135.219-.18.105-.297.331-.342.68-.047.35-.07 1.055-.07 2.119v4.833c.008.72.047 1.224.109 1.511.061.287.197.488.406.604.207.112.572.176 1.094.186h.752c.676 0 1.199-.04 1.57-.116.369-.079.676-.258.916-.533s.408-.714.501-1.308z"/><g><path d="M129.775 126.65v-.355c.451-.028.799-.066.799-.434 0-.133-.037-.273-.074-.396l-.201-.679h-2.342l-.207.575a1.297 1.297 0 0 0-.086.413c0 .472.5.5.904.52v.355h-2.74v-.355c.697-.028.922-.172 1.176-.868l1.799-4.935-.104-.16c.774-.254.99-.366 1.32-.611.131.451.148.51.301.979l1.469 4.521c.264.801.387.998 1.092 1.074v.355h-3.106zm-.597-5.336l-.976 2.756h1.91l-.934-2.756zM108.541 125.174c-.295.48-1.002 1.656-2.836 1.656-2.004 0-3.301-1.479-3.301-3.418 0-1.798 1.1-3.569 3.344-3.569 1.184 0 1.809.499 2.193.801l.455-.413.037 2.016-.295.055c-.115-.385-.285-.696-.715-1.168-.207-.215-.699-.648-1.395-.648-1.199 0-2.15.979-2.15 2.703 0 1.46.779 2.834 2.316 2.834 1.164 0 1.602-.649 1.949-1.148l.398.299zM109.031 126.65v-.355c.754-.066.764-.227.764-.868.01-.235.01-.47.01-.704v-2.789c0-.434 0-.865-.027-1.073-.039-.396-.227-.452-.746-.499v-.357h2.85v.357c-.557.057-.764.076-.83.442-.047.217-.057.706-.057 1.103v.918c.574.029.973.047 1.529.047.564 0 1.012-.018 1.58-.047v-1.115c-.012-1.217-.021-1.262-.924-1.348v-.357h2.883v.357c-.773.094-.773.104-.773 1.365v2.806c0 .264.01 1.102.037 1.302.049.348.246.413.736.461v.355h-2.883v-.355c.668-.076.848-.095.902-.557.021-.188.021-.443.021-.923v-1.22c-.529-.018-.967-.047-1.514-.047-.574 0-1.021.018-1.596.047v1.22c.01 1.385.027 1.385.887 1.479v.355h-2.849zM116.611 126.65v-.355c.648-.085.781-.162.789-.858v-3.54c-.008-1.385-.008-1.422-.789-1.535v-.357h2.762v.357c-.781.076-.781.113-.781 1.535v2.684c0 .235.01.979.027 1.177.047.406.236.499.754.538v.355h-2.762zM99.553 126.65v-.355c.648-.085.781-.162.791-.858v-3.54c-.01-1.385-.01-1.422-.791-1.535v-.357h2.76v.357c-.781.076-.781.113-.781 1.535v2.684c0 .235.008.979.029 1.177.047.406.234.499.752.538v.355h-2.76zM95.99 126.65v-.355c.838-.057.838-.095.848-1.33v-3.343l-2.326 5.114h-.584l-2.135-5.18-.049 3.909c0 .649.074.772.781.829v.355h-2.309v-.355c.539-.028.744-.104.781-.557.02-.179.049-.736.059-1.103l.094-2.787c.008-.217.008-.536.008-.772 0-.658-.131-.705-.723-.715v-.357h2.09l2.072 5.045 2.277-5.045H98.9v.396c-.791.047-.801.131-.791 1.167v2.739c0 .453.01 1.018.037 1.356.039.489.227.584.754.632v.355h-2.91z"/><path d="M132.688 126.65v-.355c.547-.028.752-.039.826-.416.096-.442.123-4.387.133-5.075-.365-.339-.518-.403-.959-.442v-.357h1.996c.555.791.678.97 1.656 2.184l1.855 2.299v-2.976c-.01-1.055-.037-1.109-1.09-1.149v-.357h2.615v.357c-.723.01-.791.16-.799 1.243l-.094 5.132h-.396l-.592-.742c-.305-.378-.605-.754-.906-1.121l-2.627-3.242v3.449c0 1.072.074 1.111 1.092 1.215v.355h-2.71zM82.234 123.318c0 2.298-1.564 3.502-3.328 3.502-1.932 0-3.444-1.393-3.444-3.512 0-1.816 1.216-3.456 3.356-3.447 2.012.011 3.416 1.442 3.416 3.457zm-3.318 2.892c.373-.011.902-.198 1.314-.823.469-.721.566-1.383.539-2.25-.025-.855-.264-1.594-.754-2.115-.215-.227-.635-.563-1.189-.547-.555 0-.965.349-1.172.584-.473.535-.688 1.279-.688 2.137 0 .867.118 1.527.609 2.232.427.611.964.782 1.341.782zM83.064 125.427c.01-.159.02-.961.02-1.138l.002-2.336c0-.265-.012-.998-.057-1.205-.066-.311-.273-.34-.752-.387v-.357h4.877l.104 1.628h-.33c-.174-1.04-.594-1.035-1.893-1.035-.426 0-.555.01-.791.037l-.002 2.302h.877c.809 0 1.006-.068 1.045-.785h.32v2.195h-.32c-.049-.745-.443-.816-1.188-.816h-.734l-.004 1.898c.018.725.104.792.791.856v.367h-2.756v-.367c.688-.065.774-.132.791-.857zM30.115 126.605v-.358c.649-.084.781-.159.79-.857v-3.541c-.009-1.384-.009-1.421-.79-1.534v-.357h2.762v.357c-.78.074-.78.113-.78 1.534v2.684c0 .236.008.981.027 1.179.047.404.236.499.753.536v.358h-2.762zM56.274 126.605v-.358c.65-.084.781-.159.791-.857v-3.541c-.01-1.384-.01-1.421-.791-1.534v-.357h2.76v.357c-.781.074-.781.113-.781 1.534v2.684c0 .236.009.981.028 1.179.048.404.235.499.753.536v.358h-2.76zM22.646 126.605v-.358c.546-.028.755-.037.831-.413.093-.444.121-4.389.131-5.076-.367-.34-.518-.406-.962-.443v-.357h1.997c.556.791.678.971 1.657 2.184l1.854 2.3v-2.978c-.009-1.055-.036-1.111-1.091-1.148v-.357h2.618v.357c-.726.01-.791.16-.801 1.243l-.094 5.132h-.396l-.592-.744c-.303-.376-.602-.754-.904-1.121l-2.629-3.239v3.446c0 1.074.076 1.113 1.093 1.216v.358h-2.712zM51.403 124.532l.338-.036c.367 1.083.981 1.667 1.979 1.667.706 0 1.327-.302 1.327-1.017 0-.754-.726-1.057-1.046-1.188-.264-.104-.546-.188-.811-.293-.545-.197-1.571-.621-1.571-1.911 0-1.243.979-1.94 2.118-1.94.443 0 .963.096 1.526.453l.405-.293.216 1.979-.329.066c-.113-.434-.197-.637-.461-.984-.32-.414-.773-.608-1.301-.608-.705 0-1.121.339-1.121.865 0 .791.782 1.057 1.525 1.3.379.123.688.226.961.386.529.311.962.896.962 1.694 0 1.149-.943 2.101-2.345 2.101-.904 0-1.461-.357-1.725-.526l-.554-.403-.093-1.312zM61.089 126.605v-.283c.612-.009.781-.234.781-.763v-4.897h-.83c-.752 0-1.251-.029-1.308 1.157h-.35l.059-1.865h6.046l.056 1.865h-.35c-.056-1.187-.554-1.157-1.308-1.157h-.829v4.897c0 .528.17.754.782.763v.283h-2.749zM18.189 119.957v.357c-.886.066-.886.094-.895 1.507v1.564c0 .809.017 1.505.442 2.129.341.496.918.558 1.211.558.951 0 1.474-.492 1.7-1.275.188-.62.197-1.79.197-2.56 0-.246 0-1.039-.01-1.254-.037-.602-.348-.621-.941-.668v-.357h2.533v.357c-.621-.01-.754.133-.791.791-.008.16-.084 2.006-.094 2.288-.02.509-.047 1.008-.161 1.489-.452 1.788-2.194 1.881-2.655 1.881-.366 0-1.119-.055-1.742-.469-.988-.67-.998-1.668-.998-2.74v-1.509c-.008-.716-.008-1.035-.027-1.203-.059-.415-.265-.501-.764-.528v-.357h2.995zM39.875 119.957v.357c-.64.094-.725.273-1.271 1.592l-2.024 4.83h-.358l-1.818-4.906c-.451-1.262-.508-1.412-1.176-1.516v-.357h3.154v.357c-.537.018-.886.037-.886.424 0 .189.047.348.226.903l1.16 3.382 1.355-3.494c.084-.236.197-.537.197-.707 0-.481-.471-.498-.886-.508v-.357h2.327zM67.656 126.605v-.358c.517-.056.716-.075.847-.208.151-.15.151-.319.16-1.045v-1.168l-1.771-2.74c-.479-.715-.487-.734-1.128-.771v-.367h3.465v.367c-.697.018-1.008.037-1.008.357 0 .18.123.387.293.668l1.017 1.666.94-1.656c.169-.329.265-.527.265-.678 0-.32-.274-.33-.734-.357v-.367h2.599v.367c-.667.018-.866.217-1.629 1.46l-1.036 1.733v1.383c0 1.205.01 1.301.998 1.356v.358h-3.278zM39.877 126.605v-.367c.688-.066.771-.133.791-.857.008-.16.018-.961.018-1.139v-2.338c0-.264-.01-.998-.057-1.205-.064-.311-.273-.34-.752-.387v-.358h4.735l.037 1.583h-.3c-.15-.904-.555-.988-1.687-.988h-.819v2.342h.726c.856 0 .979-.194 1.045-.787h.32v2.195h-.32c0-.744-.235-.814-1.055-.814h-.716v1.857c0 .434.18.67 1.065.67.96 0 1.629.057 1.855-1.129h.319c-.057.451-.141 1.24-.141 1.723h-5.064zM126.123 123.712v.358c-.602.039-.602.209-.617 1.471v.498c-.518.32-1.256.781-2.562.781-2.285 0-3.381-1.73-3.381-3.475 0-2.129 1.441-3.512 3.248-3.512 1.135 0 1.787.422 2.332.752l.346-.395.051 2.08-.27.047a3.312 3.312 0 0 0-.84-1.35c-.219-.217-.646-.494-1.316-.494-1.16 0-2.127.979-2.127 2.891 0 1.525.754 2.834 2.051 2.834.736 0 1.119-.519 1.154-.556.119-.179.145-.338.135-.632-.031-.846-.145-.865-.881-.941v-.358h2.677z"/><path d="M47.405 123.04c.178.037.434.065.621.065.757.002 1.328-.592 1.355-1.123.042-.771-.347-1.439-1.571-1.439-.169 0-.275.01-.405.038v2.459zm0 1.447c.008 1.524.008 1.732.81 1.751v.366h-2.776v-.366c.715-.057.791-.17.801-.887.01-.271.01-.582.01-.855v-2.405c0-.801-.01-1.082-.038-1.298-.047-.367-.228-.434-.772-.48v-.358l3.012.012c1.639 0 2.156.781 2.156 1.704 0 .641-.396 1.474-1.309 1.756l1.178 2.048c.424.782.649.961 1.185 1.036v.226c-.141.01-.281.02-.432.02-1.253 0-1.771-.435-2.299-1.555l-.367-.783c-.395-.837-.527-.785-1.158-.795v.863z"/></g></g><g fill="#fff"><path d="M107.93 75.982h-3.467l-.008-37.643 3.475-.002.021-11.03-14.178-.03-17.922 29.164-17.794-29.136-14.269-.027v11.061l3.527.002.006 37.672-3.614-.029.034 10.461 17.943.02v-10.44l-3.488-.04.016-26.122 13.351 21.831h8.643L93.553 49.86v26.151l-3.535-.029v10.441l17.949.02-.037-10.461zM109.148 84.746h.565v1.713h.205v-1.713h.601v-.207h-1.371zM112.107 84.539l-.494 1.564-.49-1.564h-.33v1.92h.203V84.83l.516 1.629h.207l.513-1.629v1.629h.203v-1.92z"/></g><g fill="#fff"><path d="M151.021 48.086h-34.568v16.126h34.568l-7.23-7.837 7.23-8.289zm-24.273 11.529h-4.066l-.166-.321a35.868 35.868 0 0 0 1.623-1.462 7.902 7.902 0 0 0 1.162-1.449c.352-.555.527-1.113.527-1.673 0-.429-.115-.774-.344-1.036a1.124 1.124 0 0 0-.887-.394c-.363 0-.637.111-.824.333a1.224 1.224 0 0 0-.283.818c0 .111.025.271.078.479l-.365.188a2.679 2.679 0 0 1-.277-.472 1.3 1.3 0 0 1-.088-.526c0-.324.088-.635.266-.929.178-.296.424-.536.74-.721a2.103 2.103 0 0 1 1.076-.276c.42 0 .803.098 1.145.293.344.195.613.459.809.786.197.329.295.69.295 1.081 0 .804-.266 1.543-.799 2.213-.531.672-1.211 1.33-2.037 1.973h.467c.635 0 1.068-.012 1.307-.033.236-.022.422-.078.559-.167.137-.088.289-.257.461-.509h.408l-.787 1.804zm4.578-.376c-.357.37-.774.554-1.246.554-.449 0-.854-.17-1.207-.51-.354-.338-.631-.799-.826-1.378a5.998 5.998 0 0 1-.291-1.921c0-.674.096-1.301.291-1.885.195-.582.475-1.05.83-1.4.359-.351.77-.525 1.236-.525.48 0 .896.18 1.246.537.35.358.617.828.799 1.406.178.58.27 1.187.27 1.821 0 .644-.094 1.262-.281 1.856-.19.595-.463 1.075-.821 1.445zm4.481.4h-3.379v-.399c.354-.022.605-.058.752-.11a.484.484 0 0 0 .307-.295c.055-.143.086-.389.094-.736v-4.594c0-.215-.051-.36-.15-.434-.1-.074-.254-.109-.459-.109-.103 0-.273.015-.51.043v-.487c.229-.007.648-.035 1.262-.082.613-.05 1-.087 1.164-.116v5.549c-.008.42.012.718.059.896.051.178.133.296.25.355.119.059.324.099.611.121v.398zm4.164-5.539a24.664 24.664 0 0 0-.998 2.465c-.295.861-.441 1.574-.441 2.143 0 .223.016.398.049.525.033.131.09.266.172.406h-2.148a126.667 126.667 0 0 1 1.605-3.66c.406-.875.854-1.727 1.34-2.555h-1.328c-.377 0-.674.027-.889.08a1.183 1.183 0 0 0-.535.275c-.145.133-.289.34-.436.62l-.334-.132.576-1.94h4.076l.143.122c-.2.319-.483.869-.852 1.651z"/><path d="M130.102 52.805c-.361.008-.605.367-.73 1.08s-.188 1.431-.188 2.154c0 .855.08 1.609.242 2.259.156.583.373.874.654.874.266 0 .473-.236.619-.708.201-.694.301-1.506.301-2.437a13.6 13.6 0 0 0-.172-2.191c-.115-.695-.357-1.038-.726-1.031z"/></g><path fill="none" stroke="#fff" d="M116.453 45.3v22.522M35.999 45.3v22.522"/><g fill="#fff"><path d="M19.118 56.676a10.024 10.024 0 0 0-.797-.537 2.33 2.33 0 0 0-.709.703 1.65 1.65 0 0 0-.277.914c0 .458.129.812.389 1.062.258.252.59.377.996.377.229 0 .43-.06.604-.178.174-.117.307-.268.399-.448.091-.181.138-.355.138-.526 0-.303-.074-.568-.222-.796a2.24 2.24 0 0 0-.521-.571zM18.292 54.654c.167.127.398.281.693.466.037-.03.117-.091.238-.183.121-.094.246-.227.371-.398.127-.175.188-.406.188-.693 0-.361-.11-.637-.326-.826a1.19 1.19 0 0 0-.804-.281c-.303 0-.539.072-.709.215-.17.147-.255.35-.255.615 0 .237.059.445.178.626.119.182.261.334.426.459z"/><path d="M1.429 48.086l7.231 8.289-7.231 7.837h34.569V48.086H1.429zm14.787 11.553h-3.378v-.399c.355-.022.605-.058.753-.11a.48.48 0 0 0 .306-.295c.055-.143.086-.389.094-.736v-4.594c0-.215-.051-.36-.149-.434-.101-.074-.253-.109-.46-.109a5.02 5.02 0 0 0-.51.043v-.487c.228-.007.649-.035 1.262-.082.614-.05 1.002-.087 1.164-.116v5.549c-.008.42.012.718.06.896.049.178.131.296.248.355.119.059.322.099.61.121v.398zm4.431-.993a2.28 2.28 0 0 1-2.027 1.135 2.54 2.54 0 0 1-1.146-.26 2.12 2.12 0 0 1-.836-.713 1.75 1.75 0 0 1-.31-1.008c0-.246.053-.492.155-.743a2.406 2.406 0 0 1 1.251-1.263 6.052 6.052 0 0 1-.619-.476 1.775 1.775 0 0 1-.389-.515 1.574 1.574 0 0 1-.153-.726c0-.361.096-.688.287-.978.192-.292.454-.523.787-.693.331-.17.7-.254 1.106-.254.414 0 .768.077 1.064.232.296.154.519.354.67.598.151.242.227.502.227.774 0 .724-.396 1.288-1.185 1.695a4.36 4.36 0 0 1 1.02.853c.266.311.398.724.398 1.24a2.175 2.175 0 0 1-.3 1.102zm3.898.993h-3.379v-.399c.354-.022.605-.058.754-.11a.483.483 0 0 0 .305-.295c.056-.143.086-.389.093-.736v-4.594c0-.215-.05-.36-.149-.434-.099-.074-.253-.109-.46-.109-.103 0-.273.015-.51.043v-.487c.229-.007.65-.035 1.263-.082.612-.05 1.001-.087 1.163-.116v5.549c-.008.42.013.718.062.896.047.178.131.296.249.355.117.059.321.099.609.121v.398zm4.164-5.539c-.37.784-.703 1.604-.998 2.465-.295.861-.442 1.574-.442 2.143 0 .223.016.398.05.525.032.131.091.266.172.406h-2.148a123.917 123.917 0 0 1 1.605-3.66c.406-.875.853-1.727 1.34-2.555h-1.329c-.376 0-.672.027-.886.08a1.18 1.18 0 0 0-.537.275c-.145.133-.29.34-.438.62l-.332-.132.576-1.94h4.074l.145.122c-.199.319-.482.869-.852 1.651z"/></g></svg>