<?xml version="1.0" encoding="iso-8859-1"?>
<!-- Generator: Adobe Illustrator 20.0.0, SVG Export Plug-In . SVG Version: 6.00 Build 0)  -->
<svg version="1.1" id="Layer_1" xmlns="http://www.w3.org/2000/svg" xmlns:xlink="http://www.w3.org/1999/xlink" x="0px" y="0px"
	 viewBox="0 0 152.5 144.25" style="enable-background:new 0 0 152.5 144.25;" xml:space="preserve">
<g>
	<g>
		<path style="fill:#FFFFFF;" d="M132.223,50.976h1.965c-0.051-1.842-0.414-3.551-0.844-4.984c-0.561-1.879-1.221-3.305-1.4-4.188
			C132.062,42.562,132.501,46.533,132.223,50.976z"/>
		<path style="fill:#FFFFFF;" d="M130.543,60.976c-0.129,0.669-0.441,1.948-0.797,3.12c-0.414,1.391-0.871,2.625-0.871,2.625
			s0.471-1.195,0.912-2.543c0.422-1.257,0.803-2.637,0.943-3.202H130.543z"/>
		<path style="fill:#FFFFFF;" d="M131.926,50.976c0.142-2.202,0.182-4.426,0.143-6.134c-0.035-1.812-0.129-3.039-0.125-3.039
			c-0.189,1.668-0.662,2.9-1.064,4.196c-0.412,1.297-0.758,2.655-0.854,4.591c-0.006,0.127-0.002,0.258-0.006,0.386H131.926z"/>
		<path style="fill:#FFFFFF;" d="M124.105,25.332c0.334,0.663,1.984,4.284,3.068,8.496c1.248,4.707,1.445,8.555,1.457,8.547
			c-0.012,0.002-0.492-3.877-1.744-8.553c-0.553-2.113-1.225-4.24-1.787-5.834C124.537,26.395,124.103,25.332,124.105,25.332
			c0.312,1.533,0.252,2.766,0.275,4.033c0.016,1.272,0.111,2.581,0.605,4.326c0.516,1.824,1.375,3.69,2.107,5.289
			c0.736,1.592,1.348,2.909,1.459,3.468c0.094,0.458,0.24,1.938,0.295,3.295c0.059,1.358,0.035,2.591,0.035,2.591
			s0.047-1.203,0.027-2.533c-0.018-1.326-0.108-2.78-0.156-3.235c-0.055-0.571,0.32-1.585,0.592-2.995
			c0.272-1.404,0.43-3.217-0.074-5.259c-0.559-2.268-1.656-4.194-2.703-5.684C125.519,27.132,124.519,26.062,124.105,25.332z"/>
		<path style="fill:#FFFFFF;" d="M111.621,12.169c0.486,0.489,2.971,3.218,5.176,6.604c2.494,3.775,3.854,7.093,3.863,7.083
			c-0.012,0.005-1.631-3.254-4.117-7.004c-1.113-1.697-2.324-3.379-3.283-4.623C112.305,12.985,111.617,12.17,111.621,12.169
			c0.711,1.268,1.016,2.37,1.4,3.488c0.383,1.12,0.85,2.249,1.803,3.646c0.994,1.459,2.314,2.848,3.445,4.033
			c1.131,1.182,2.072,2.15,2.344,2.608c0.225,0.373,0.811,1.63,1.281,2.804c0.475,1.175,0.844,2.264,0.844,2.264
			s-0.338-1.071-0.77-2.231c-0.43-1.161-0.961-2.408-1.143-2.795c-0.223-0.486-0.205-1.492-0.395-2.814
			c-0.188-1.316-0.59-2.958-1.641-4.602c-1.164-1.826-2.691-3.197-4.045-4.205C113.387,13.352,112.195,12.695,111.621,12.169z"/>
		<path style="fill:#FFFFFF;" d="M99.1,4.908c0.547,0.326,3.396,2.195,6.176,4.695c3.129,2.78,5.17,5.398,5.176,5.389
			c-0.008,0.006-2.266-2.496-5.383-5.256c-1.402-1.252-2.879-2.473-4.025-3.363C99.896,5.482,99.098,4.908,99.1,4.908
			c0.928,0.972,1.455,1.891,2.062,2.801c0.604,0.915,1.287,1.819,2.475,2.843c1.238,1.071,2.76,1.993,4.059,2.779
			c1.299,0.781,2.383,1.409,2.734,1.752c0.293,0.278,1.129,1.253,1.848,2.182c0.719,0.929,1.326,1.804,1.326,1.804
			s-0.576-0.866-1.254-1.793c-0.674-0.93-1.463-1.908-1.717-2.21c-0.322-0.377-0.555-1.282-1.047-2.415
			c-0.49-1.131-1.246-2.497-2.574-3.711c-1.475-1.352-3.16-2.215-4.609-2.796C100.953,5.557,99.734,5.246,99.1,4.908z"/>
		<g>
			<path style="fill:#FFFFFF;" d="M86.105,1.188c0.561,0.175,3.506,1.223,6.547,2.826c3.416,1.774,5.848,3.625,5.85,3.617
				c-0.004,0.006-2.604-1.691-6.006-3.451C89.443,2.562,86.109,1.182,86.105,1.188c1.039,0.668,1.709,1.375,2.453,2.056
				c0.742,0.684,1.553,1.341,2.844,1.989c1.348,0.678,2.914,1.157,4.256,1.557c1.34,0.397,2.453,0.704,2.848,0.926
				c0.326,0.18,1.299,0.852,2.158,1.51c0.863,0.655,1.613,1.29,1.613,1.29s-0.721-0.635-1.545-1.299
				C99.91,8.549,98.98,7.86,98.682,7.652c-0.375-0.263-0.793-1.012-1.492-1.909c-0.697-0.895-1.684-1.937-3.141-2.719
				c-1.617-0.869-3.309-1.26-4.727-1.459C87.9,1.365,86.748,1.35,86.105,1.188z"/>
		</g>
		<path style="fill:#FFFFFF;" d="M126.342,50.976h2.011c-0.017-0.057-0.024-0.117-0.042-0.173c-0.568-1.793-1.375-2.885-2.236-3.813
			c-0.873-0.925-1.799-1.693-2.756-2.794c-0.002,0.002,0.531,0.9,1.215,2.322C125.109,47.711,125.775,49.293,126.342,50.976z"/>
		<path style="fill:#FFFFFF;" d="M124.147,50.976h1.899c-1.146-3.498-2.477-6.221-2.729-6.78c0.264,0.718,0.336,2.055,0.465,3.683
			C123.862,48.825,123.969,49.873,124.147,50.976z"/>
		<path style="fill:#FFFFFF;" d="M128.42,60.976h-0.176c0.084,0.63,0.245,1.874,0.34,3.056c0.121,1.385,0.162,2.668,0.162,2.668
			s-0.016-1.314-0.102-2.734C128.584,62.84,128.471,61.66,128.42,60.976z"/>
		<path style="fill:#FFFFFF;" d="M117.121,29.977c0.428,0.474,2.807,2.918,5.092,6.131c2.578,3.57,4.238,6.895,4.244,6.886
			c-0.002,0.013-1.455-3.506-4.057-7.097c-1.164-1.626-2.479-3.129-3.51-4.196C117.857,30.631,117.119,29.979,117.121,29.977
			c1.176,0.709,2.229,1.121,3.277,1.691c1.043,0.572,2.086,1.305,3.131,2.727c1.094,1.488,1.807,3.41,2.234,5.062
			c0.436,1.656,0.604,3.043,0.797,3.555c0.16,0.42,0.766,1.72,1.272,2.954c0.51,1.231,0.93,2.389,0.93,2.389
			s-0.435-1.122-0.963-2.312c-0.527-1.191-1.152-2.441-1.352-2.832c-0.244-0.494-1.09-1.118-2.111-1.972
			c-1.023-0.857-2.223-1.929-3.232-3.396c-1.119-1.632-1.867-3.284-2.475-4.706C118.025,31.719,117.568,30.543,117.121,29.977z"/>
		<path style="fill:#FFFFFF;" d="M106.758,18.299c0.52,0.299,3.344,1.797,6.332,3.967c3.354,2.399,5.842,4.814,5.844,4.805
			c0.002,0.012-2.361-2.638-5.742-5.047c-1.518-1.097-3.127-2.05-4.357-2.699C107.603,18.672,106.758,18.301,106.758,18.299
			c1.252,0.296,2.311,0.358,3.408,0.559c1.092,0.206,2.23,0.552,3.578,1.5c1.408,0.994,2.617,2.477,3.496,3.805
			c0.889,1.33,1.465,2.502,1.793,2.894c0.271,0.319,1.205,1.278,2.037,2.205c0.834,0.923,1.566,1.808,1.566,1.806
			c0,0.002-0.732-0.848-1.572-1.727c-0.834-0.884-1.777-1.791-2.07-2.075c-0.365-0.36-1.307-0.649-2.469-1.094
			c-1.168-0.445-2.553-1.035-3.893-2.038c-1.486-1.115-2.646-2.367-3.605-3.455C108.07,19.592,107.32,18.676,106.758,18.299z"/>
		<path style="fill:#FFFFFF;" d="M96.148,11.543c0.537,0.148,3.434,0.848,6.641,2.08c3.594,1.356,6.42,2.894,6.422,2.885
			c0.002,0.01-2.773-1.768-6.389-3.125c-1.627-0.621-3.301-1.1-4.562-1.4C96.998,11.684,96.148,11.544,96.148,11.543
			c1.197-0.023,2.164-0.213,3.199-0.289c1.031-0.07,2.135-0.027,3.572,0.502c1.5,0.557,2.941,1.59,4.057,2.566
			c1.119,0.975,1.928,1.877,2.316,2.148c0.322,0.219,1.398,0.844,2.375,1.461c0.976,0.615,1.859,1.215,1.859,1.215
			s-0.873-0.568-1.844-1.143c-0.969-0.579-2.039-1.153-2.371-1.337c-0.42-0.229-1.33-0.259-2.484-0.37
			c-1.156-0.113-2.545-0.307-3.994-0.887c-1.611-0.646-2.955-1.5-4.08-2.254C97.635,12.402,96.742,11.754,96.148,11.543z"/>
		<g>
			<path style="fill:#FFFFFF;" d="M84.902,7.777c0.52,0.019,3.281,0.016,6.438,0.395c3.525,0.402,6.412,1.109,6.41,1.102
				c0.004,0.008-2.889-0.927-6.436-1.325C88.105,7.557,84.898,7.773,84.902,7.777c1.076-0.279,1.902-0.662,2.814-0.957
				c0.91-0.293,1.908-0.498,3.314-0.348c1.469,0.16,2.99,0.758,4.213,1.369c1.227,0.613,2.16,1.229,2.572,1.379
				c0.34,0.119,1.447,0.424,2.465,0.744c1.018,0.316,1.947,0.639,1.947,0.639s-0.914-0.297-1.916-0.578
				c-1.002-0.287-2.092-0.55-2.434-0.633c-0.871-0.214-3.242,0.75-6.094,0.369c-1.592-0.215-2.998-0.679-4.178-1.108
				C86.432,8.227,85.484,7.835,84.902,7.777z"/>
		</g>
		<g>
			<path style="fill:#FFFFFF;" d="M75.775,3.603c0.562,0.025,3.602,0.061,7.002,0.516c3.805,0.488,6.854,1.295,6.854,1.288
				c0.002,0.009-2.969-0.999-6.793-1.493C79.383,3.434,75.769,3.6,75.775,3.603c2.58-0.49,4.314-1.435,7.35-1.047
				c1.58,0.213,3.053,0.834,4.199,1.445c1.15,0.61,1.984,1.207,2.4,1.363c0.344,0.126,1.498,0.463,2.555,0.814
				c1.059,0.345,2.014,0.702,2.016,0.701c0,0-0.949-0.332-2.002-0.648c-1.051-0.32-2.201-0.619-2.561-0.715
				c-0.447-0.121-1.457-0.009-2.721,0.09c-1.268,0.1-2.777,0.188-4.324-0.018c-1.717-0.232-3.115-0.687-4.264-1.11
				C77.279,4.059,76.393,3.67,75.775,3.603z"/>
		</g>
		<path style="fill:#FFFFFF;" d="M21.271,50.976h1.905c-0.004-0.128,0.001-0.259-0.005-0.386c-0.096-1.936-0.44-3.294-0.853-4.591
			c-0.403-1.296-0.877-2.528-1.066-4.196c0.004,0-0.089,1.228-0.124,3.039C21.091,46.55,21.13,48.773,21.271,50.976z"/>
		<path style="fill:#FFFFFF;" d="M22.654,60.976h-0.188c0.141,0.565,0.521,1.945,0.942,3.202c0.442,1.348,0.913,2.543,0.913,2.543
			s-0.458-1.234-0.871-2.625C23.095,62.924,22.782,61.645,22.654,60.976z"/>
		<path style="fill:#FFFFFF;" d="M20.975,50.976c-0.279-4.442,0.16-8.414,0.278-9.173c-0.18,0.884-0.84,2.31-1.398,4.188
			c-0.43,1.434-0.794,3.143-0.846,4.984H20.975z"/>
		<path style="fill:#FFFFFF;" d="M29.091,25.332c-0.334,0.663-1.984,4.284-3.068,8.496c-1.248,4.707-1.444,8.555-1.458,8.547
			c0.013,0.002,0.493-3.877,1.745-8.553c0.553-2.113,1.224-4.24,1.787-5.834C28.66,26.395,29.094,25.332,29.091,25.332
			c-0.312,1.533-0.252,2.766-0.275,4.033c-0.016,1.272-0.112,2.581-0.606,4.326c-0.517,1.824-1.376,3.69-2.108,5.289
			c-0.735,1.592-1.347,2.909-1.458,3.468c-0.094,0.458-0.241,1.938-0.296,3.295c-0.058,1.358-0.035,2.591-0.035,2.591
			s-0.047-1.203-0.027-2.533c0.018-1.326,0.108-2.78,0.157-3.235c0.055-0.571-0.319-1.585-0.592-2.995
			c-0.272-1.404-0.43-3.217,0.074-5.259c0.558-2.268,1.656-4.194,2.702-5.684C27.676,27.132,28.677,26.062,29.091,25.332z"/>
		<path style="fill:#FFFFFF;" d="M41.577,12.169c-0.487,0.489-2.973,3.218-5.177,6.604c-2.494,3.775-3.852,7.093-3.863,7.083
			c0.012,0.005,1.631-3.254,4.117-7.004c1.113-1.697,2.323-3.379,3.283-4.623C40.893,12.985,41.579,12.17,41.577,12.169
			c-0.713,1.268-1.017,2.37-1.402,3.488c-0.383,1.12-0.849,2.249-1.803,3.646c-0.994,1.459-2.313,2.848-3.445,4.033
			c-1.131,1.182-2.072,2.15-2.342,2.608c-0.225,0.373-0.812,1.63-1.282,2.804c-0.475,1.175-0.844,2.264-0.844,2.264
			s0.338-1.071,0.77-2.231c0.429-1.161,0.961-2.408,1.143-2.795c0.222-0.486,0.206-1.492,0.394-2.814
			c0.188-1.316,0.59-2.958,1.64-4.602c1.164-1.826,2.691-3.197,4.046-4.205C39.811,13.352,41,12.695,41.577,12.169z"/>
		<path style="fill:#FFFFFF;" d="M54.097,4.908C53.55,5.234,50.7,7.103,47.92,9.604c-3.129,2.78-5.169,5.398-5.175,5.389
			c0.007,0.006,2.266-2.496,5.383-5.256c1.402-1.252,2.879-2.473,4.025-3.363C53.3,5.482,54.099,4.908,54.097,4.908
			c-0.928,0.972-1.455,1.891-2.062,2.801c-0.604,0.915-1.288,1.819-2.475,2.843c-1.238,1.071-2.76,1.993-4.058,2.779
			c-1.3,0.781-2.384,1.409-2.736,1.752c-0.292,0.278-1.129,1.253-1.846,2.182c-0.72,0.929-1.328,1.804-1.327,1.805
			c-0.001-0.001,0.575-0.867,1.254-1.794c0.674-0.93,1.462-1.908,1.717-2.21c0.321-0.377,0.555-1.282,1.046-2.415
			c0.49-1.131,1.247-2.497,2.575-3.711c1.475-1.352,3.16-2.215,4.608-2.796C52.244,5.557,53.462,5.246,54.097,4.908z"/>
		<g>
			<path style="fill:#FFFFFF;" d="M67.091,1.188c-0.56,0.175-3.506,1.223-6.547,2.826c-3.415,1.774-5.848,3.625-5.85,3.617
				c0.004,0.006,2.604-1.691,6.006-3.451C63.753,2.562,67.087,1.182,67.091,1.188c-1.04,0.668-1.71,1.375-2.453,2.056
				c-0.741,0.684-1.553,1.341-2.844,1.989C60.447,5.91,58.88,6.39,57.539,6.789c-1.34,0.397-2.453,0.704-2.848,0.926
				c-0.326,0.18-1.3,0.852-2.158,1.51c-0.863,0.655-1.614,1.29-1.614,1.29s0.721-0.635,1.546-1.299
				c0.821-0.667,1.751-1.355,2.051-1.564c0.374-0.263,0.793-1.012,1.492-1.909c0.697-0.895,1.684-1.937,3.14-2.719
				c1.618-0.869,3.31-1.26,4.728-1.459C65.297,1.365,66.45,1.35,67.091,1.188z"/>
		</g>
		<path style="fill:#FFFFFF;" d="M29.049,50.976c0.179-1.103,0.286-2.15,0.364-3.098c0.13-1.628,0.201-2.965,0.466-3.683
			c-0.251,0.56-1.583,3.282-2.729,6.78H29.049z"/>
		<path style="fill:#FFFFFF;" d="M26.855,50.976c0.567-1.683,1.231-3.265,1.808-4.458c0.684-1.422,1.218-2.32,1.215-2.322
			c-0.957,1.101-1.884,1.869-2.755,2.794c-0.862,0.929-1.669,2.021-2.238,3.813c-0.018,0.056-0.025,0.116-0.042,0.173H26.855z"/>
		<path style="fill:#FFFFFF;" d="M24.778,60.976c-0.052,0.685-0.164,1.864-0.226,2.989c-0.086,1.42-0.101,2.734-0.101,2.734
			s0.041-1.283,0.162-2.668c0.095-1.182,0.256-2.426,0.339-3.056H24.778z"/>
		<path style="fill:#FFFFFF;" d="M36.076,29.977c-0.428,0.474-2.808,2.918-5.092,6.131c-2.578,3.57-4.238,6.895-4.244,6.886
			c0.002,0.013,1.455-3.506,4.057-7.097c1.164-1.626,2.48-3.129,3.511-4.196C35.338,30.631,36.078,29.979,36.076,29.977
			c-1.176,0.709-2.229,1.121-3.279,1.691c-1.042,0.572-2.084,1.305-3.13,2.727c-1.093,1.488-1.806,3.41-2.234,5.062
			c-0.436,1.656-0.604,3.043-0.796,3.555c-0.162,0.42-0.766,1.72-1.271,2.954c-0.51,1.231-0.93,2.389-0.93,2.389
			s0.434-1.122,0.963-2.312c0.527-1.191,1.152-2.441,1.352-2.832c0.244-0.494,1.089-1.118,2.11-1.972
			c1.024-0.857,2.223-1.929,3.232-3.396c1.121-1.632,1.868-3.284,2.476-4.706C35.171,31.719,35.628,30.543,36.076,29.977z"/>
		<path style="fill:#FFFFFF;" d="M46.439,18.299c-0.519,0.299-3.345,1.797-6.333,3.967c-3.354,2.399-5.841,4.814-5.844,4.805
			c-0.001,0.012,2.362-2.638,5.741-5.047c1.519-1.097,3.128-2.05,4.358-2.699C45.593,18.672,46.44,18.301,46.439,18.299
			c-1.252,0.296-2.312,0.358-3.408,0.559c-1.093,0.206-2.23,0.552-3.578,1.5c-1.409,0.994-2.615,2.477-3.497,3.805
			c-0.888,1.33-1.464,2.502-1.792,2.894c-0.272,0.319-1.205,1.278-2.036,2.205c-0.834,0.923-1.567,1.808-1.567,1.806
			c0,0.002,0.733-0.848,1.571-1.727c0.834-0.884,1.777-1.791,2.071-2.075c0.365-0.36,1.307-0.649,2.469-1.094
			c1.168-0.445,2.552-1.035,3.893-2.038c1.486-1.115,2.646-2.367,3.605-3.455C45.126,19.592,45.876,18.676,46.439,18.299z"/>
		<path style="fill:#FFFFFF;" d="M57.049,11.543c-0.538,0.148-3.437,0.848-6.643,2.08c-3.591,1.356-6.419,2.894-6.42,2.885
			c-0.002,0.01,2.774-1.768,6.388-3.125c1.627-0.621,3.302-1.1,4.563-1.4C56.199,11.684,57.049,11.544,57.049,11.543
			c-1.198-0.023-2.166-0.213-3.2-0.289c-1.032-0.07-2.136-0.027-3.572,0.502c-1.5,0.557-2.942,1.59-4.057,2.566
			c-1.118,0.975-1.928,1.877-2.316,2.148c-0.323,0.219-1.399,0.844-2.376,1.461c-0.977,0.615-1.859,1.215-1.859,1.215
			s0.874-0.568,1.844-1.143c0.969-0.579,2.04-1.153,2.373-1.337c0.418-0.229,1.33-0.259,2.483-0.37
			c1.155-0.113,2.545-0.307,3.994-0.887c1.611-0.646,2.956-1.5,4.08-2.254C55.562,12.402,56.456,11.754,57.049,11.543z"/>
		<g>
			<path style="fill:#FFFFFF;" d="M68.295,7.777c-0.52,0.019-3.282,0.016-6.438,0.395c-3.527,0.402-6.413,1.109-6.411,1.102
				c-0.005,0.008,2.89-0.927,6.437-1.325C65.092,7.557,68.299,7.773,68.295,7.777c-1.077-0.279-1.904-0.662-2.815-0.957
				c-0.911-0.293-1.909-0.498-3.314-0.348c-1.47,0.16-2.991,0.758-4.215,1.369c-1.226,0.613-2.16,1.229-2.571,1.379
				c-0.34,0.119-1.447,0.424-2.465,0.744c-1.018,0.316-1.946,0.639-1.946,0.639s0.913-0.297,1.915-0.578
				c1.002-0.287,2.092-0.55,2.434-0.633c0.87-0.214,3.242,0.75,6.093,0.369c1.593-0.215,2.999-0.679,4.178-1.108
				C66.765,8.227,67.711,7.835,68.295,7.777z"/>
		</g>
		<g>
			<path style="fill:#FFFFFF;" d="M77.422,3.603c-0.564,0.025-3.602,0.061-7.004,0.516c-3.804,0.488-6.851,1.295-6.851,1.288
				c-0.003,0.009,2.968-0.999,6.792-1.493C73.814,3.434,77.426,3.6,77.422,3.603c-2.582-0.49-4.316-1.435-7.35-1.047
				c-1.582,0.213-3.053,0.834-4.201,1.445c-1.149,0.61-1.984,1.207-2.4,1.363c-0.344,0.126-1.498,0.463-2.554,0.814
				c-1.059,0.345-2.015,0.702-2.017,0.701c0.001,0.001,0.95-0.332,2.002-0.648c1.051-0.32,2.201-0.619,2.562-0.715
				c0.447-0.121,1.457-0.009,2.72,0.09c1.268,0.1,2.779,0.188,4.326-0.018c1.715-0.232,3.115-0.687,4.262-1.11
				C75.918,4.059,76.805,3.67,77.422,3.603z"/>
		</g>
		<path style="fill:#FFFFFF;" d="M131.902,63.533c-0.059-0.892-0.134-1.746-0.217-2.558h-1.594
			c-0.078,1.112-0.123,2.249-0.066,3.343c0.096,1.936,0.441,3.293,0.854,4.59c0.402,1.297,0.875,2.529,1.064,4.197
			c-0.004,0,0.09-1.229,0.125-3.039C132.109,68.254,132.066,65.865,131.902,63.533z"/>
		<path style="fill:#FFFFFF;" d="M133.951,60.976h-1.994c0.093,0.777,0.174,1.597,0.232,2.454c0.348,4.643-0.123,8.889-0.246,9.676
			c0.18-0.885,0.84-2.311,1.4-4.189c0.561-1.871,1.014-4.207,0.799-6.701C134.105,61.779,134.029,61.376,133.951,60.976z"/>
		<path style="fill:#FFFFFF;" d="M124.105,89.576c0.334-0.664,1.984-4.285,3.068-8.496c1.248-4.707,1.445-8.555,1.457-8.547
			c-0.012-0.002-0.492,3.877-1.744,8.553c-0.553,2.113-1.225,4.24-1.787,5.834C124.537,88.514,124.103,89.576,124.105,89.576
			c0.312-1.533,0.252-2.766,0.275-4.033c0.016-1.273,0.111-2.582,0.605-4.326c0.516-1.824,1.375-3.689,2.107-5.289
			c0.736-1.592,1.348-2.91,1.459-3.469c0.094-0.457,0.24-1.938,0.295-3.295c0.059-1.357,0.035-2.59,0.035-2.59
			s0.047,1.203,0.027,2.533c-0.018,1.326-0.108,2.779-0.156,3.234c-0.055,0.572,0.32,1.586,0.592,2.996
			c0.272,1.404,0.43,3.217-0.074,5.258c-0.559,2.268-1.656,4.195-2.703,5.684C125.519,87.775,124.519,88.846,124.105,89.576z"/>
		<path style="fill:#FFFFFF;" d="M111.621,102.738c0.486-0.488,2.971-3.217,5.176-6.603c2.494-3.775,3.854-7.092,3.863-7.082
			c-0.012-0.006-1.631,3.254-4.117,7.004c-1.113,1.697-2.324,3.379-3.283,4.623C112.305,101.922,111.617,102.738,111.621,102.738
			c0.711-1.268,1.016-2.369,1.4-3.488c0.383-1.119,0.85-2.248,1.803-3.645c0.994-1.459,2.314-2.848,3.445-4.033
			c1.131-1.182,2.072-2.15,2.344-2.608c0.225-0.373,0.811-1.631,1.281-2.805c0.475-1.174,0.844-2.264,0.844-2.264
			s-0.338,1.072-0.77,2.232c-0.43,1.16-0.961,2.408-1.143,2.795c-0.223,0.486-0.205,1.492-0.395,2.814
			c-0.188,1.316-0.59,2.957-1.641,4.602c-1.164,1.826-2.691,3.197-4.045,4.205C113.387,101.557,112.195,102.213,111.621,102.738z"/>
		<path style="fill:#FFFFFF;" d="M99.1,110c0.547-0.326,3.396-2.195,6.176-4.695c3.129-2.781,5.17-5.398,5.176-5.389
			c-0.008-0.006-2.266,2.496-5.383,5.256c-1.402,1.252-2.879,2.473-4.025,3.363C99.896,109.426,99.098,110,99.1,110
			c0.928-0.973,1.455-1.891,2.062-2.801c0.604-0.916,1.287-1.82,2.475-2.844c1.238-1.07,2.76-1.992,4.059-2.779
			c1.299-0.781,2.383-1.408,2.734-1.752c0.293-0.277,1.129-1.252,1.848-2.182c0.719-0.928,1.326-1.803,1.326-1.805
			c0,0.002-0.576,0.867-1.254,1.795c-0.674,0.93-1.463,1.908-1.717,2.209c-0.322,0.377-0.555,1.283-1.047,2.416
			c-0.49,1.131-1.246,2.496-2.574,3.711c-1.475,1.351-3.16,2.215-4.609,2.795C100.953,109.352,99.734,109.662,99.1,110z"/>
		<g>
			<path style="fill:#FFFFFF;" d="M86.105,113.721c0.561-0.176,3.506-1.223,6.547-2.826c3.416-1.775,5.848-3.625,5.85-3.617
				c-0.004-0.006-2.604,1.692-6.006,3.451C89.443,112.346,86.109,113.727,86.105,113.721c1.039-0.668,1.709-1.375,2.453-2.057
				c0.742-0.684,1.553-1.34,2.844-1.988c1.348-0.678,2.914-1.158,4.256-1.557c1.34-0.398,2.453-0.705,2.848-0.926
				c0.326-0.18,1.299-0.852,2.158-1.51c0.863-0.656,1.613-1.291,1.613-1.291s-0.721,0.635-1.545,1.299
				c-0.822,0.668-1.752,1.355-2.051,1.564c-0.375,0.262-0.793,1.012-1.492,1.908c-0.697,0.896-1.684,1.938-3.141,2.719
				c-1.617,0.869-3.309,1.26-4.727,1.459C87.9,113.543,86.748,113.559,86.105,113.721z"/>
		</g>
		<path style="fill:#FFFFFF;" d="M127.211,60.976c-0.162,0.649-0.344,1.318-0.555,2.001c-0.617,2.035-1.438,3.994-2.123,5.414
			c-0.684,1.422-1.217,2.32-1.215,2.322c0.957-1.102,1.883-1.869,2.756-2.795c0.861-0.928,1.668-2.02,2.236-3.812
			c0.316-0.991,0.475-2.066,0.539-3.13H127.211z"/>
		<path style="fill:#FFFFFF;" d="M126.928,60.976h-2.085c-0.054,0.163-0.115,0.314-0.163,0.483c-0.572,2.023-0.76,3.938-0.896,5.57
			c-0.129,1.629-0.201,2.965-0.465,3.684c0.277-0.617,1.869-3.865,3.078-7.887C126.591,62.194,126.767,61.576,126.928,60.976z"/>
		<path style="fill:#FFFFFF;" d="M117.121,84.932c0.428-0.475,2.807-2.918,5.092-6.131c2.578-3.57,4.238-6.894,4.244-6.887
			c-0.002-0.012-1.455,3.506-4.057,7.098c-1.164,1.625-2.479,3.129-3.51,4.195C117.857,84.277,117.119,84.93,117.121,84.932
			c1.176-0.709,2.229-1.121,3.277-1.691c1.043-0.572,2.086-1.305,3.131-2.726c1.094-1.488,1.807-3.41,2.234-5.062
			c0.436-1.656,0.604-3.043,0.797-3.555c0.16-0.42,0.766-1.721,1.272-2.955c0.51-1.23,0.93-2.389,0.93-2.389
			s-0.435,1.123-0.963,2.312c-0.527,1.191-1.152,2.441-1.352,2.832c-0.244,0.494-1.09,1.117-2.111,1.971
			c-1.023,0.857-2.223,1.93-3.232,3.396c-1.119,1.633-1.867,3.285-2.475,4.707C118.025,83.189,117.568,84.365,117.121,84.932z"/>
		<path style="fill:#FFFFFF;" d="M106.758,96.609c0.52-0.299,3.344-1.797,6.332-3.967c3.354-2.4,5.842-4.814,5.844-4.805
			c0.002-0.012-2.361,2.637-5.742,5.047c-1.518,1.096-3.127,2.049-4.357,2.699C107.603,96.236,106.758,96.607,106.758,96.609
			c1.252-0.297,2.311-0.357,3.408-0.559c1.092-0.207,2.23-0.553,3.578-1.5c1.408-0.994,2.617-2.477,3.496-3.805
			c0.889-1.33,1.465-2.502,1.793-2.895c0.271-0.318,1.205-1.277,2.037-2.205c0.834-0.922,1.566-1.807,1.566-1.805
			c0-0.002-0.732,0.848-1.572,1.727c-0.834,0.883-1.777,1.791-2.07,2.074c-0.365,0.361-1.307,0.65-2.469,1.094
			c-1.168,0.445-2.553,1.035-3.893,2.039c-1.486,1.115-2.646,2.367-3.605,3.455C108.07,95.316,107.32,96.232,106.758,96.609z"/>
		<path style="fill:#FFFFFF;" d="M96.148,103.365c0.537-0.148,3.434-0.848,6.641-2.08c3.594-1.355,6.42-2.895,6.422-2.885
			c0.002-0.01-2.773,1.768-6.389,3.125c-1.627,0.621-3.301,1.1-4.562,1.4C96.998,103.225,96.148,103.363,96.148,103.365
			c1.197,0.022,2.164,0.213,3.199,0.289c1.031,0.07,2.135,0.027,3.572-0.502c1.5-0.557,2.941-1.59,4.057-2.566
			c1.119-0.975,1.928-1.877,2.316-2.148c0.322-0.219,1.398-0.844,2.375-1.461c0.976-0.615,1.859-1.215,1.859-1.215
			s-0.873,0.568-1.844,1.143c-0.969,0.578-2.039,1.152-2.371,1.336c-0.42,0.231-1.33,0.26-2.484,0.371
			c-1.156,0.113-2.545,0.307-3.994,0.887c-1.611,0.645-2.955,1.5-4.08,2.254C97.635,102.506,96.742,103.154,96.148,103.365z"/>
		<g>
			<path style="fill:#FFFFFF;" d="M84.902,107.131c0.52-0.02,3.281-0.016,6.438-0.395c3.525-0.402,6.412-1.109,6.41-1.104
				c0.004-0.008-2.889,0.928-6.436,1.326C88.105,107.352,84.898,107.135,84.902,107.131c1.076,0.279,1.902,0.662,2.814,0.957
				c0.91,0.293,1.908,0.498,3.314,0.348c1.469-0.16,2.99-0.758,4.213-1.369c1.227-0.613,2.16-1.23,2.572-1.379
				c0.34-0.119,1.447-0.424,2.465-0.744c1.018-0.316,1.947-0.639,1.947-0.639s-0.914,0.297-1.916,0.578
				c-1.002,0.287-2.092,0.549-2.434,0.633c-0.871,0.213-3.242-0.75-6.094-0.369c-1.592,0.215-2.998,0.678-4.178,1.107
				C86.432,106.682,85.484,107.072,84.902,107.131z"/>
		</g>
		<g>
			<path style="fill:#FFFFFF;" d="M75.775,111.305c0.562-0.025,3.602-0.061,7.002-0.516c3.805-0.488,6.854-1.295,6.854-1.289
				c0.002-0.008-2.969,1-6.793,1.494C79.383,111.475,75.769,111.309,75.775,111.305c2.58,0.49,4.314,1.435,7.35,1.047
				c1.58-0.213,3.053-0.834,4.199-1.445c1.15-0.611,1.984-1.207,2.4-1.363c0.344-0.127,1.498-0.463,2.555-0.814
				c1.059-0.346,2.014-0.703,2.016-0.701c0-0.002-0.949,0.332-2.002,0.648c-1.051,0.32-2.201,0.619-2.561,0.715
				c-0.447,0.121-1.457,0.008-2.721-0.09c-1.268-0.1-2.777-0.189-4.324,0.018c-1.717,0.232-3.115,0.688-4.264,1.111
				C77.279,110.85,76.393,111.238,75.775,111.305z"/>
		</g>
		<path style="fill:#FFFFFF;" d="M21.007,63.43c0.058-0.857,0.14-1.677,0.233-2.454h-1.996c-0.078,0.4-0.154,0.804-0.191,1.239
			c-0.215,2.494,0.239,4.83,0.801,6.701c0.559,1.879,1.219,3.305,1.398,4.189C21.13,72.318,20.66,68.072,21.007,63.43z"/>
		<path style="fill:#FFFFFF;" d="M21.512,60.976c-0.083,0.812-0.159,1.666-0.217,2.558c-0.164,2.332-0.206,4.721-0.166,6.533
			c0.035,1.811,0.128,3.039,0.124,3.039c0.19-1.668,0.663-2.9,1.066-4.197c0.412-1.297,0.757-2.654,0.853-4.59
			c0.056-1.094,0.012-2.23-0.067-3.343H21.512z"/>
		<path style="fill:#FFFFFF;" d="M29.091,89.576c-0.334-0.664-1.984-4.285-3.068-8.496c-1.248-4.707-1.444-8.555-1.458-8.547
			c0.013-0.002,0.493,3.877,1.745,8.553c0.553,2.113,1.224,4.24,1.787,5.834C28.66,88.514,29.094,89.576,29.091,89.576
			c-0.312-1.533-0.252-2.766-0.275-4.033c-0.016-1.273-0.112-2.582-0.606-4.326c-0.517-1.824-1.376-3.689-2.108-5.289
			c-0.735-1.592-1.347-2.91-1.458-3.469c-0.094-0.457-0.241-1.938-0.296-3.295c-0.058-1.357-0.035-2.59-0.035-2.59
			s-0.047,1.203-0.027,2.533c0.018,1.326,0.108,2.779,0.157,3.234c0.055,0.572-0.319,1.586-0.592,2.996
			c-0.272,1.404-0.43,3.217,0.074,5.258c0.558,2.268,1.656,4.195,2.702,5.684C27.676,87.775,28.677,88.846,29.091,89.576z"/>
		<path style="fill:#FFFFFF;" d="M41.577,102.738c-0.487-0.488-2.973-3.217-5.177-6.603c-2.494-3.775-3.852-7.092-3.863-7.082
			c0.012-0.006,1.631,3.254,4.117,7.004c1.113,1.697,2.323,3.379,3.283,4.623C40.893,101.922,41.579,102.738,41.577,102.738
			c-0.713-1.268-1.017-2.369-1.402-3.488c-0.383-1.119-0.849-2.248-1.803-3.645c-0.994-1.459-2.313-2.848-3.445-4.033
			c-1.131-1.182-2.072-2.15-2.342-2.608c-0.225-0.373-0.812-1.631-1.282-2.805c-0.475-1.174-0.844-2.264-0.844-2.264
			s0.338,1.072,0.77,2.232c0.429,1.16,0.961,2.408,1.143,2.795c0.222,0.486,0.206,1.492,0.394,2.814
			c0.188,1.316,0.59,2.957,1.64,4.602c1.164,1.826,2.691,3.197,4.046,4.205C39.811,101.557,41,102.213,41.577,102.738z"/>
		<path style="fill:#FFFFFF;" d="M54.097,110c-0.547-0.326-3.397-2.195-6.177-4.695c-3.129-2.781-5.169-5.398-5.175-5.389
			c0.007-0.006,2.266,2.496,5.383,5.256c1.402,1.252,2.879,2.473,4.025,3.363C53.3,109.426,54.099,110,54.097,110
			c-0.928-0.973-1.455-1.891-2.062-2.801c-0.604-0.916-1.288-1.82-2.475-2.844c-1.238-1.07-2.76-1.992-4.058-2.779
			c-1.3-0.781-2.384-1.408-2.736-1.752c-0.292-0.277-1.129-1.252-1.846-2.182c-0.72-0.928-1.328-1.803-1.327-1.805
			c-0.001,0.002,0.575,0.867,1.254,1.795c0.674,0.93,1.462,1.908,1.717,2.209c0.321,0.377,0.555,1.283,1.046,2.416
			c0.49,1.131,1.247,2.496,2.575,3.711c1.475,1.351,3.16,2.215,4.608,2.795C52.244,109.352,53.462,109.662,54.097,110z"/>
		<g>
			<path style="fill:#FFFFFF;" d="M67.091,113.721c-0.56-0.176-3.506-1.223-6.547-2.826c-3.415-1.775-5.848-3.625-5.85-3.617
				c0.004-0.006,2.604,1.692,6.006,3.451C63.753,112.346,67.087,113.727,67.091,113.721c-1.04-0.668-1.71-1.375-2.453-2.057
				c-0.741-0.684-1.553-1.34-2.844-1.988c-1.348-0.678-2.914-1.158-4.256-1.557c-1.34-0.398-2.453-0.705-2.848-0.926
				c-0.326-0.18-1.3-0.852-2.158-1.51c-0.863-0.656-1.614-1.291-1.614-1.291s0.721,0.635,1.546,1.299
				c0.821,0.668,1.751,1.355,2.051,1.564c0.374,0.262,0.793,1.012,1.492,1.908c0.697,0.896,1.684,1.938,3.14,2.719
				c1.618,0.869,3.31,1.26,4.728,1.459C65.297,113.543,66.45,113.559,67.091,113.721z"/>
		</g>
		<path style="fill:#FFFFFF;" d="M28.517,61.459c-0.048-0.169-0.11-0.32-0.163-0.483H26.27c0.161,0.601,0.337,1.219,0.531,1.851
			c1.208,4.022,2.801,7.27,3.078,7.887c-0.265-0.719-0.336-2.055-0.466-3.684C29.278,65.396,29.088,63.482,28.517,61.459z"/>
		<path style="fill:#FFFFFF;" d="M26.541,62.977c-0.211-0.683-0.393-1.352-0.555-2.001h-1.64c0.065,1.063,0.224,2.139,0.539,3.13
			c0.569,1.793,1.376,2.885,2.238,3.812c0.871,0.926,1.798,1.693,2.755,2.795c0.003-0.002-0.531-0.9-1.215-2.322
			C27.978,66.971,27.159,65.012,26.541,62.977z"/>
		<path style="fill:#FFFFFF;" d="M36.076,84.932c-0.428-0.475-2.808-2.918-5.092-6.131c-2.578-3.57-4.238-6.894-4.244-6.887
			c0.002-0.012,1.455,3.506,4.057,7.098c1.164,1.625,2.48,3.129,3.511,4.195C35.338,84.277,36.078,84.93,36.076,84.932
			c-1.176-0.709-2.229-1.121-3.279-1.691c-1.042-0.572-2.084-1.305-3.13-2.726c-1.093-1.488-1.806-3.41-2.234-5.062
			c-0.436-1.656-0.604-3.043-0.796-3.555c-0.162-0.42-0.766-1.721-1.271-2.955c-0.51-1.23-0.93-2.389-0.93-2.389
			s0.434,1.123,0.963,2.312c0.527,1.191,1.152,2.441,1.352,2.832c0.244,0.494,1.089,1.117,2.11,1.971
			c1.024,0.857,2.223,1.93,3.232,3.396c1.121,1.633,1.868,3.285,2.476,4.707C35.171,83.189,35.628,84.365,36.076,84.932z"/>
		<path style="fill:#FFFFFF;" d="M46.439,96.609c-0.519-0.299-3.345-1.797-6.333-3.967c-3.354-2.4-5.841-4.814-5.844-4.805
			c-0.001-0.012,2.362,2.637,5.741,5.047c1.519,1.096,3.128,2.049,4.358,2.699C45.593,96.236,46.44,96.607,46.439,96.609
			c-1.252-0.297-2.312-0.357-3.408-0.559c-1.093-0.207-2.23-0.553-3.578-1.5c-1.409-0.994-2.615-2.477-3.497-3.805
			c-0.888-1.33-1.464-2.502-1.792-2.895c-0.272-0.318-1.205-1.277-2.036-2.205c-0.834-0.922-1.567-1.807-1.567-1.805
			c0-0.002,0.733,0.848,1.571,1.727c0.834,0.883,1.777,1.791,2.071,2.074c0.365,0.361,1.307,0.65,2.469,1.094
			c1.168,0.445,2.552,1.035,3.893,2.039c1.486,1.115,2.646,2.367,3.605,3.455C45.126,95.316,45.876,96.232,46.439,96.609z"/>
		<path style="fill:#FFFFFF;" d="M57.049,103.365c-0.538-0.148-3.437-0.848-6.643-2.08c-3.591-1.355-6.419-2.895-6.42-2.885
			c-0.002-0.01,2.774,1.768,6.388,3.125c1.627,0.621,3.302,1.1,4.563,1.4C56.199,103.225,57.049,103.363,57.049,103.365
			c-1.198,0.022-2.166,0.213-3.2,0.289c-1.032,0.07-2.136,0.027-3.572-0.502c-1.5-0.557-2.942-1.59-4.057-2.566
			c-1.118-0.975-1.928-1.877-2.316-2.148c-0.323-0.219-1.399-0.844-2.376-1.461c-0.977-0.615-1.859-1.215-1.859-1.215
			s0.874,0.568,1.844,1.143c0.969,0.578,2.04,1.152,2.373,1.336c0.418,0.231,1.33,0.26,2.483,0.371
			c1.155,0.113,2.545,0.307,3.994,0.887c1.611,0.645,2.956,1.5,4.08,2.254C55.562,102.506,56.456,103.154,57.049,103.365z"/>
		<g>
			<path style="fill:#FFFFFF;" d="M68.295,107.131c-0.52-0.02-3.282-0.016-6.438-0.395c-3.527-0.402-6.413-1.109-6.411-1.104
				c-0.005-0.008,2.89,0.928,6.437,1.326C65.092,107.352,68.299,107.135,68.295,107.131c-1.077,0.279-1.904,0.662-2.815,0.957
				c-0.911,0.293-1.909,0.498-3.314,0.348c-1.47-0.16-2.991-0.758-4.215-1.369c-1.226-0.613-2.16-1.23-2.571-1.379
				c-0.34-0.119-1.447-0.424-2.465-0.744c-1.018-0.316-1.946-0.639-1.946-0.639s0.913,0.297,1.915,0.578
				c1.002,0.287,2.092,0.549,2.434,0.633c0.87,0.213,3.242-0.75,6.093-0.369c1.593,0.215,2.999,0.678,4.178,1.107
				C66.765,106.682,67.711,107.072,68.295,107.131z"/>
		</g>
		<g>
			<path style="fill:#FFFFFF;" d="M77.422,111.305c-0.564-0.025-3.602-0.061-7.004-0.516c-3.804-0.488-6.851-1.295-6.851-1.289
				c-0.003-0.008,2.968,1,6.792,1.494C73.814,111.475,77.426,111.309,77.422,111.305c-2.582,0.49-4.316,1.435-7.35,1.047
				c-1.582-0.213-3.053-0.834-4.201-1.445c-1.149-0.611-1.984-1.207-2.4-1.363c-0.344-0.127-1.498-0.463-2.554-0.814
				c-1.059-0.346-2.015-0.703-2.017-0.701c0.001-0.002,0.95,0.332,2.002,0.648c1.051,0.32,2.201,0.619,2.562,0.715
				c0.447,0.121,1.457,0.008,2.72-0.09c1.268-0.1,2.779-0.189,4.326,0.018c1.715,0.232,3.115,0.688,4.262,1.111
				C75.918,110.85,76.805,111.238,77.422,111.305z"/>
		</g>
	</g>
	<g>
		<path style="fill:none;stroke:#FFFFFF;stroke-width:0.5;stroke-miterlimit:10;" d="M134.139,50.05
			c-0.252-2.922-1.469-5.456-2.195-8.247"/>
		<path style="fill:none;stroke:#FFFFFF;stroke-width:0.5;stroke-miterlimit:10;" d="M130.472,61.321
			c-0.407,1.833-0.954,3.635-1.597,5.399c0.665-1.713,1.24-3.46,1.721-5.232"/>
		<path style="fill:none;stroke:#FFFFFF;stroke-width:0.5;stroke-miterlimit:10;" d="M131.943,41.803
			c-0.354,3.013-1.775,5.718-1.918,8.787"/>
		<path style="fill:none;stroke:#FFFFFF;stroke-width:0.5;stroke-miterlimit:10;" d="M132.068,44.842"/>
		<path style="fill:none;stroke:#FFFFFF;stroke-width:0.5;stroke-miterlimit:10;" d="M128.631,42.375"/>
		<path style="fill:none;stroke:#FFFFFF;stroke-width:0.5;stroke-miterlimit:10;" d="M124.105,25.332
			c0.312,1.533,0.252,2.766,0.275,4.033c0.016,1.272,0.111,2.581,0.605,4.326c0.516,1.824,1.375,3.69,2.107,5.289
			c0.736,1.592,1.348,2.909,1.459,3.468c0.094,0.458,0.24,1.938,0.295,3.295c0.059,1.358,0.035,2.591,0.035,2.591
			s0.047-1.203,0.027-2.533c-0.018-1.326-0.108-2.78-0.156-3.235c-0.055-0.571,0.32-1.585,0.592-2.995
			c0.272-1.404,0.43-3.217-0.074-5.259c-0.559-2.268-1.656-4.194-2.703-5.684C125.519,27.132,124.519,26.062,124.105,25.332"/>
		<path style="fill:none;stroke:#FFFFFF;stroke-width:0.5;stroke-miterlimit:10;" d="M120.66,25.855"/>
		<path style="fill:none;stroke:#FFFFFF;stroke-width:0.5;stroke-miterlimit:10;" d="M111.621,12.169
			c0.711,1.268,1.016,2.37,1.4,3.488c0.383,1.12,0.85,2.249,1.803,3.646c0.994,1.459,2.314,2.848,3.445,4.033
			c1.131,1.182,2.072,2.15,2.344,2.608c0.225,0.373,0.811,1.63,1.281,2.804c0.475,1.175,0.844,2.264,0.844,2.264
			s-0.338-1.071-0.77-2.231c-0.43-1.161-0.961-2.408-1.143-2.795c-0.223-0.486-0.205-1.492-0.395-2.814
			c-0.188-1.316-0.59-2.958-1.641-4.602c-1.164-1.826-2.691-3.197-4.045-4.205C113.387,13.352,112.195,12.695,111.621,12.169"/>
		<path style="fill:none;stroke:#FFFFFF;stroke-width:0.5;stroke-miterlimit:10;" d="M110.451,14.992"/>
		<path style="fill:none;stroke:#FFFFFF;stroke-width:0.5;stroke-miterlimit:10;" d="M99.1,4.908
			c0.928,0.972,1.455,1.891,2.062,2.801c0.604,0.915,1.287,1.819,2.475,2.843c1.238,1.071,2.76,1.993,4.059,2.779
			c1.299,0.781,2.383,1.409,2.734,1.752c0.293,0.278,1.129,1.253,1.848,2.182c0.719,0.929,1.326,1.804,1.326,1.804
			s-0.576-0.866-1.254-1.793c-0.674-0.93-1.463-1.908-1.717-2.21c-0.322-0.377-0.555-1.282-1.047-2.415
			c-0.49-1.131-1.246-2.497-2.574-3.711c-1.475-1.352-3.16-2.215-4.609-2.796C100.953,5.557,99.734,5.246,99.1,4.908"/>
		<path style="fill:none;stroke:#FFFFFF;stroke-width:0.5;stroke-miterlimit:10;" d="M101.043,6.373"/>
		<g>
			<path style="fill:none;stroke:#FFFFFF;stroke-width:0.5;stroke-miterlimit:10;" d="M98.502,7.631"/>
			<path style="fill:none;stroke:#FFFFFF;stroke-width:0.5;stroke-miterlimit:10;" d="M86.105,1.188
				c1.039,0.668,1.709,1.375,2.453,2.056c0.742,0.684,1.553,1.341,2.844,1.989c1.348,0.678,2.914,1.157,4.256,1.557
				c1.34,0.397,2.453,0.704,2.848,0.926c0.326,0.18,1.299,0.852,2.158,1.51c0.863,0.655,1.613,1.29,1.613,1.29
				s-0.721-0.635-1.545-1.299C99.91,8.549,98.98,7.86,98.682,7.652c-0.375-0.263-0.793-1.012-1.492-1.909
				c-0.697-0.895-1.684-1.937-3.141-2.719c-1.617-0.869-3.309-1.26-4.727-1.459C87.9,1.365,86.748,1.35,86.105,1.188"/>
		</g>
		<path style="fill:none;stroke:#FFFFFF;stroke-width:0.5;stroke-miterlimit:10;" d="M124.068,50.517
			c-0.294-2.078-0.171-4.299-0.75-6.321"/>
		<path style="fill:none;stroke:#FFFFFF;stroke-width:0.5;stroke-miterlimit:10;" d="M128.474,61.645
			c0.149,1.681,0.246,3.367,0.272,5.055c-0.064-1.798-0.223-3.592-0.455-5.375"/>
		<path style="fill:none;stroke:#FFFFFF;stroke-width:0.5;stroke-miterlimit:10;" d="M123.318,44.195
			c1.744,1.967,3.846,3.485,4.794,6.035"/>
		<path style="fill:none;stroke:#FFFFFF;stroke-width:0.5;stroke-miterlimit:10;" d="M126.457,42.993"/>
		<path style="fill:none;stroke:#FFFFFF;stroke-width:0.5;stroke-miterlimit:10;" d="M117.121,29.977
			c1.176,0.709,2.229,1.121,3.277,1.691c1.043,0.572,2.086,1.305,3.131,2.727c1.094,1.488,1.807,3.41,2.234,5.062
			c0.436,1.656,0.604,3.043,0.797,3.555c0.16,0.42,0.766,1.72,1.272,2.954c0.51,1.231,0.93,2.389,0.93,2.389
			s-0.435-1.122-0.963-2.312c-0.527-1.191-1.152-2.441-1.352-2.832c-0.244-0.494-1.09-1.118-2.111-1.972
			c-1.023-0.857-2.223-1.929-3.232-3.396c-1.119-1.632-1.867-3.284-2.475-4.706C118.025,31.719,117.568,30.543,117.121,29.977"/>
		<path style="fill:none;stroke:#FFFFFF;stroke-width:0.5;stroke-miterlimit:10;" d="M118.555,31.342"/>
		<path style="fill:none;stroke:#FFFFFF;stroke-width:0.5;stroke-miterlimit:10;" d="M106.758,18.299
			c1.252,0.296,2.311,0.358,3.408,0.559c1.092,0.206,2.23,0.552,3.578,1.5c1.408,0.994,2.617,2.477,3.496,3.805
			c0.889,1.33,1.465,2.502,1.793,2.894c0.271,0.319,1.205,1.278,2.037,2.205c0.834,0.923,1.566,1.808,1.566,1.806
			c0,0.002-0.732-0.848-1.572-1.727c-0.834-0.884-1.777-1.791-2.07-2.075c-0.365-0.36-1.307-0.649-2.469-1.094
			c-1.168-0.445-2.553-1.035-3.893-2.038c-1.486-1.115-2.646-2.367-3.605-3.455C108.07,19.592,107.32,18.676,106.758,18.299"/>
		<path style="fill:none;stroke:#FFFFFF;stroke-width:0.5;stroke-miterlimit:10;" d="M118.934,27.07"/>
		<path style="fill:none;stroke:#FFFFFF;stroke-width:0.5;stroke-miterlimit:10;" d="M96.148,11.543
			c1.197-0.023,2.164-0.213,3.199-0.289c1.031-0.07,2.135-0.027,3.572,0.502c1.5,0.557,2.941,1.59,4.057,2.566
			c1.119,0.975,1.928,1.877,2.316,2.148c0.322,0.219,1.398,0.844,2.375,1.461c0.976,0.615,1.859,1.215,1.859,1.215
			s-0.873-0.568-1.844-1.143c-0.969-0.579-2.039-1.153-2.371-1.337c-0.42-0.229-1.33-0.259-2.484-0.37
			c-1.156-0.113-2.545-0.307-3.994-0.887c-1.611-0.646-2.955-1.5-4.08-2.254C97.635,12.402,96.742,11.754,96.148,11.543"/>
		<path style="fill:none;stroke:#FFFFFF;stroke-width:0.5;stroke-miterlimit:10;" d="M109.211,16.508"/>
		<g>
			<path style="fill:none;stroke:#FFFFFF;stroke-width:0.5;stroke-miterlimit:10;" d="M84.902,7.777
				c1.076-0.279,1.902-0.662,2.814-0.957c0.91-0.293,1.908-0.498,3.314-0.348c1.469,0.16,2.99,0.758,4.213,1.369
				c1.227,0.613,2.16,1.229,2.572,1.379c0.34,0.119,1.447,0.424,2.465,0.744c1.018,0.316,1.947,0.639,1.947,0.639
				s-0.914-0.297-1.916-0.578c-1.002-0.287-2.092-0.55-2.434-0.633c-0.871-0.214-3.242,0.75-6.094,0.369
				c-1.592-0.215-2.998-0.679-4.178-1.108C86.432,8.227,85.484,7.835,84.902,7.777"/>
			<path style="fill:none;stroke:#FFFFFF;stroke-width:0.5;stroke-miterlimit:10;" d="M97.75,9.274"/>
		</g>
		<g>
			<path style="fill:none;stroke:#FFFFFF;stroke-width:0.5;stroke-miterlimit:10;" d="M75.775,3.603
				c2.581-0.49,4.315-1.435,7.35-1.047c1.58,0.213,3.053,0.834,4.199,1.445c1.15,0.61,1.984,1.207,2.4,1.363
				c0.344,0.126,1.498,0.463,2.555,0.814c1.059,0.345,2.014,0.702,2.016,0.701c0,0-0.949-0.332-2.002-0.648
				c-1.051-0.32-2.201-0.619-2.561-0.715c-0.447-0.121-1.457-0.009-2.721,0.09c-1.268,0.1-2.777,0.188-4.324-0.018
				c-1.717-0.232-3.115-0.687-4.264-1.11C77.279,4.059,76.392,3.67,75.775,3.603"/>
		</g>
		<path style="fill:none;stroke:#FFFFFF;stroke-width:0.5;stroke-miterlimit:10;" d="M19.057,50.05
			c0.253-2.921,1.469-5.457,2.195-8.247"/>
		<path style="fill:none;stroke:#FFFFFF;stroke-width:0.5;stroke-miterlimit:10;" d="M22.725,61.321
			c0.406,1.833,0.954,3.636,1.597,5.399c-0.665-1.713-1.241-3.46-1.722-5.232"/>
		<path style="fill:none;stroke:#FFFFFF;stroke-width:0.5;stroke-miterlimit:10;" d="M21.252,41.803
			c0.353,3.013,1.777,5.717,1.919,8.787"/>
		<path style="fill:none;stroke:#FFFFFF;stroke-width:0.5;stroke-miterlimit:10;" d="M29.091,25.332
			c-0.312,1.533-0.252,2.766-0.275,4.033c-0.016,1.272-0.112,2.581-0.606,4.326c-0.517,1.824-1.376,3.69-2.108,5.289
			c-0.735,1.592-1.347,2.909-1.458,3.468c-0.094,0.458-0.241,1.938-0.296,3.295c-0.058,1.358-0.035,2.591-0.035,2.591
			s-0.047-1.203-0.027-2.533c0.018-1.326,0.108-2.78,0.157-3.235c0.055-0.571-0.319-1.585-0.592-2.995
			c-0.272-1.404-0.43-3.217,0.074-5.259c0.558-2.268,1.656-4.194,2.702-5.684C27.676,27.132,28.677,26.062,29.091,25.332"/>
		<path style="fill:none;stroke:#FFFFFF;stroke-width:0.5;stroke-miterlimit:10;" d="M28.097,27.988"/>
		<path style="fill:none;stroke:#FFFFFF;stroke-width:0.5;stroke-miterlimit:10;" d="M24.565,42.375"/>
		<path style="fill:none;stroke:#FFFFFF;stroke-width:0.5;stroke-miterlimit:10;" d="M32.537,25.855"/>
		<path style="fill:none;stroke:#FFFFFF;stroke-width:0.5;stroke-miterlimit:10;" d="M41.577,12.169
			c-0.713,1.268-1.017,2.37-1.402,3.488c-0.383,1.12-0.849,2.249-1.803,3.646c-0.994,1.459-2.313,2.848-3.445,4.033
			c-1.131,1.182-2.072,2.15-2.342,2.608c-0.225,0.373-0.812,1.63-1.282,2.804c-0.475,1.175-0.844,2.264-0.844,2.264
			s0.338-1.071,0.77-2.231c0.429-1.161,0.961-2.408,1.143-2.795c0.222-0.486,0.206-1.492,0.394-2.814
			c0.188-1.316,0.59-2.958,1.64-4.602c1.164-1.826,2.691-3.197,4.046-4.205C39.811,13.352,41,12.695,41.577,12.169"/>
		<path style="fill:none;stroke:#FFFFFF;stroke-width:0.5;stroke-miterlimit:10;" d="M39.937,14.229"/>
		<path style="fill:none;stroke:#FFFFFF;stroke-width:0.5;stroke-miterlimit:10;" d="M42.746,14.992"/>
		<path style="fill:none;stroke:#FFFFFF;stroke-width:0.5;stroke-miterlimit:10;" d="M54.097,4.908
			c-0.928,0.972-1.455,1.891-2.062,2.801c-0.604,0.915-1.288,1.819-2.475,2.843c-1.238,1.071-2.76,1.993-4.058,2.779
			c-1.3,0.781-2.384,1.409-2.736,1.752c-0.292,0.278-1.129,1.253-1.846,2.182c-0.72,0.929-1.328,1.804-1.327,1.805
			c-0.001-0.001,0.575-0.867,1.254-1.794c0.674-0.93,1.462-1.908,1.717-2.21c0.321-0.377,0.555-1.282,1.046-2.415
			c0.49-1.131,1.247-2.497,2.575-3.711c1.475-1.352,3.16-2.215,4.608-2.796C52.244,5.557,53.462,5.246,54.097,4.908"/>
		<path style="fill:none;stroke:#FFFFFF;stroke-width:0.5;stroke-miterlimit:10;" d="M52.154,6.373"/>
		<g>
			<path style="fill:none;stroke:#FFFFFF;stroke-width:0.5;stroke-miterlimit:10;" d="M67.091,1.188
				c-1.04,0.668-1.71,1.375-2.453,2.056c-0.741,0.684-1.553,1.341-2.844,1.989C60.447,5.91,58.88,6.39,57.539,6.789
				c-1.34,0.397-2.453,0.704-2.848,0.926c-0.326,0.18-1.3,0.852-2.158,1.51c-0.863,0.655-1.614,1.29-1.614,1.29
				s0.721-0.635,1.546-1.299c0.821-0.667,1.751-1.355,2.051-1.564c0.374-0.263,0.793-1.012,1.492-1.909
				c0.697-0.895,1.684-1.937,3.14-2.719c1.618-0.869,3.31-1.26,4.728-1.459C65.297,1.365,66.45,1.35,67.091,1.188"/>
		</g>
		<path style="fill:none;stroke:#FFFFFF;stroke-width:0.5;stroke-miterlimit:10;" d="M29.128,50.517
			c0.294-2.078,0.169-4.299,0.75-6.321"/>
		<path style="fill:none;stroke:#FFFFFF;stroke-width:0.5;stroke-miterlimit:10;" d="M24.723,61.645
			c-0.148,1.682-0.246,3.367-0.272,5.055c0.065-1.798,0.223-3.592,0.456-5.375"/>
		<path style="fill:none;stroke:#FFFFFF;stroke-width:0.5;stroke-miterlimit:10;" d="M29.878,44.195
			c-1.744,1.967-3.846,3.486-4.795,6.035"/>
		<path style="fill:none;stroke:#FFFFFF;stroke-width:0.5;stroke-miterlimit:10;" d="M36.076,29.977
			c-1.176,0.709-2.229,1.121-3.279,1.691c-1.042,0.572-2.084,1.305-3.13,2.727c-1.093,1.488-1.806,3.41-2.234,5.062
			c-0.436,1.656-0.604,3.043-0.796,3.555c-0.162,0.42-0.766,1.72-1.271,2.954c-0.51,1.231-0.93,2.389-0.93,2.389
			s0.434-1.122,0.963-2.312c0.527-1.191,1.152-2.441,1.352-2.832c0.244-0.494,1.089-1.118,2.11-1.972
			c1.024-0.857,2.223-1.929,3.232-3.396c1.121-1.632,1.868-3.284,2.476-4.706C35.171,31.719,35.628,30.543,36.076,29.977"/>
		<path style="fill:none;stroke:#FFFFFF;stroke-width:0.5;stroke-miterlimit:10;" d="M34.307,31.7"/>
		<path style="fill:none;stroke:#FFFFFF;stroke-width:0.5;stroke-miterlimit:10;" d="M46.439,18.299
			c-1.252,0.296-2.312,0.358-3.408,0.559c-1.093,0.206-2.23,0.552-3.578,1.5c-1.409,0.994-2.615,2.477-3.497,3.805
			c-0.888,1.33-1.464,2.502-1.792,2.894c-0.272,0.319-1.205,1.278-2.036,2.205c-0.834,0.923-1.567,1.808-1.567,1.806
			c0,0.002,0.733-0.848,1.571-1.727c0.834-0.884,1.777-1.791,2.071-2.075c0.365-0.36,1.307-0.649,2.469-1.094
			c1.168-0.445,2.552-1.035,3.893-2.038c1.486-1.115,2.646-2.367,3.605-3.455C45.126,19.592,45.876,18.676,46.439,18.299"/>
		<path style="fill:none;stroke:#FFFFFF;stroke-width:0.5;stroke-miterlimit:10;" d="M44.362,19.324"/>
		<path style="fill:none;stroke:#FFFFFF;stroke-width:0.5;stroke-miterlimit:10;" d="M40.003,22.023"/>
		<path style="fill:none;stroke:#FFFFFF;stroke-width:0.5;stroke-miterlimit:10;" d="M34.262,27.07"/>
		<path style="fill:none;stroke:#FFFFFF;stroke-width:0.5;stroke-miterlimit:10;" d="M57.049,11.543
			c-1.198-0.023-2.166-0.213-3.2-0.289c-1.032-0.07-2.136-0.027-3.572,0.502c-1.5,0.557-2.942,1.59-4.057,2.566
			c-1.118,0.975-1.928,1.877-2.316,2.148c-0.323,0.219-1.399,0.844-2.376,1.461c-0.977,0.615-1.859,1.215-1.859,1.215
			s0.874-0.568,1.844-1.143c0.969-0.579,2.04-1.153,2.373-1.337c0.418-0.229,1.33-0.259,2.483-0.37
			c1.155-0.113,2.545-0.307,3.994-0.887c1.611-0.646,2.956-1.5,4.08-2.254C55.562,12.402,56.456,11.754,57.049,11.543"/>
		<path style="fill:none;stroke:#FFFFFF;stroke-width:0.5;stroke-miterlimit:10;" d="M54.937,11.982"/>
		<path style="fill:none;stroke:#FFFFFF;stroke-width:0.5;stroke-miterlimit:10;" d="M50.374,13.383"/>
		<g>
			<path style="fill:none;stroke:#FFFFFF;stroke-width:0.5;stroke-miterlimit:10;" d="M68.294,7.777
				c-1.076-0.279-1.903-0.662-2.814-0.957c-0.911-0.293-1.909-0.498-3.314-0.348c-1.47,0.16-2.991,0.758-4.215,1.369
				c-1.226,0.613-2.16,1.229-2.571,1.379c-0.34,0.119-1.447,0.424-2.465,0.744c-1.018,0.316-1.946,0.639-1.946,0.639
				s0.913-0.297,1.915-0.578c1.002-0.287,2.092-0.55,2.434-0.633c0.87-0.214,3.242,0.75,6.093,0.369
				c1.593-0.215,2.999-0.679,4.178-1.108C66.765,8.227,67.711,7.835,68.294,7.777"/>
		</g>
		<g>
			<path style="fill:none;stroke:#FFFFFF;stroke-width:0.5;stroke-miterlimit:10;" d="M77.421,3.603
				c-2.582-0.49-4.315-1.435-7.35-1.047c-1.581,0.213-3.053,0.834-4.2,1.445c-1.149,0.61-1.984,1.207-2.4,1.363
				c-0.344,0.126-1.498,0.463-2.554,0.814c-1.059,0.345-2.015,0.702-2.017,0.701c0.001,0.001,0.95-0.332,2.002-0.648
				c1.051-0.32,2.201-0.619,2.562-0.715c0.447-0.121,1.457-0.009,2.72,0.09c1.268,0.1,2.778,0.188,4.325-0.018
				c1.716-0.232,3.116-0.687,4.263-1.11C75.917,4.059,76.804,3.67,77.421,3.603"/>
			<path style="fill:none;stroke:#FFFFFF;stroke-width:0.5;stroke-miterlimit:10;" d="M63.567,5.407"/>
		</g>
		<path style="fill:none;stroke:#FFFFFF;stroke-width:0.5;stroke-miterlimit:10;" d="M134.076,61.614
			c0.542,4.183-1.115,7.581-2.133,11.491"/>
		<path style="fill:none;stroke:#FFFFFF;stroke-width:0.5;stroke-miterlimit:10;" d="M129.567,50.229
			c-0.216-0.686-0.446-1.366-0.692-2.042c0.254,0.654,0.494,1.313,0.723,1.978"/>
		<path style="fill:none;stroke:#FFFFFF;stroke-width:0.5;stroke-miterlimit:10;" d="M131.943,73.105
			c-0.459-3.92-2.128-7.184-1.907-11.26"/>
		<path style="fill:none;stroke:#FFFFFF;stroke-width:0.5;stroke-miterlimit:10;" d="M124.105,89.576
			c0.312-1.533,0.252-2.766,0.275-4.033c0.016-1.273,0.111-2.582,0.605-4.326c0.516-1.824,1.375-3.689,2.107-5.289
			c0.736-1.592,1.348-2.91,1.459-3.469c0.094-0.457,0.24-1.938,0.295-3.295c0.059-1.357,0.035-2.59,0.035-2.59
			s0.047,1.203,0.027,2.533c-0.018,1.326-0.108,2.779-0.156,3.234c-0.055,0.572,0.32,1.586,0.592,2.996
			c0.272,1.404,0.43,3.217-0.074,5.258c-0.559,2.268-1.656,4.195-2.703,5.684C125.519,87.775,124.519,88.846,124.105,89.576"/>
		<path style="fill:none;stroke:#FFFFFF;stroke-width:0.5;stroke-miterlimit:10;" d="M128.631,72.533"/>
		<path style="fill:none;stroke:#FFFFFF;stroke-width:0.5;stroke-miterlimit:10;" d="M111.621,102.738
			c0.711-1.268,1.016-2.369,1.4-3.488c0.383-1.119,0.85-2.248,1.803-3.645c0.994-1.459,2.314-2.848,3.445-4.033
			c1.131-1.182,2.072-2.15,2.344-2.608c0.225-0.373,0.811-1.631,1.281-2.805c0.475-1.174,0.844-2.264,0.844-2.264
			s-0.338,1.072-0.77,2.232c-0.43,1.16-0.961,2.408-1.143,2.795c-0.223,0.486-0.205,1.492-0.395,2.814
			c-0.188,1.316-0.59,2.957-1.641,4.602c-1.164,1.826-2.691,3.197-4.045,4.205C113.387,101.557,112.195,102.213,111.621,102.738"/>
		<path style="fill:none;stroke:#FFFFFF;stroke-width:0.5;stroke-miterlimit:10;" d="M120.66,89.053"/>
		<path style="fill:none;stroke:#FFFFFF;stroke-width:0.5;stroke-miterlimit:10;" d="M99.1,110c0.928-0.973,1.455-1.891,2.062-2.801
			c0.604-0.916,1.287-1.82,2.475-2.844c1.238-1.07,2.76-1.992,4.059-2.779c1.299-0.781,2.383-1.408,2.734-1.752
			c0.293-0.277,1.129-1.252,1.848-2.182c0.719-0.928,1.326-1.803,1.326-1.805c0,0.002-0.576,0.867-1.254,1.795
			c-0.674,0.93-1.463,1.908-1.717,2.209c-0.322,0.377-0.555,1.283-1.047,2.416c-0.49,1.131-1.246,2.496-2.574,3.711
			c-1.475,1.351-3.16,2.215-4.609,2.795C100.953,109.352,99.734,109.662,99.1,110"/>
		<path style="fill:none;stroke:#FFFFFF;stroke-width:0.5;stroke-miterlimit:10;" d="M110.451,99.916"/>
		<g>
			<path style="fill:none;stroke:#FFFFFF;stroke-width:0.5;stroke-miterlimit:10;" d="M86.105,113.721
				c1.039-0.668,1.709-1.375,2.453-2.057c0.742-0.684,1.553-1.34,2.844-1.988c1.348-0.678,2.914-1.158,4.256-1.557
				c1.34-0.398,2.453-0.705,2.848-0.926c0.326-0.18,1.299-0.852,2.158-1.51c0.863-0.656,1.613-1.291,1.613-1.291
				s-0.721,0.635-1.545,1.299c-0.822,0.668-1.752,1.355-2.051,1.564c-0.375,0.262-0.793,1.012-1.492,1.908
				c-0.697,0.896-1.684,1.938-3.141,2.719c-1.617,0.869-3.309,1.26-4.727,1.459C87.9,113.543,86.748,113.559,86.105,113.721"/>
			<path style="fill:none;stroke:#FFFFFF;stroke-width:0.5;stroke-miterlimit:10;" d="M98.502,107.277"/>
		</g>
		<path style="fill:none;stroke:#FFFFFF;stroke-width:0.5;stroke-miterlimit:10;" d="M124.68,61.459
			c-0.85,3.03-0.506,6.266-1.361,9.254"/>
		<path style="fill:none;stroke:#FFFFFF;stroke-width:0.5;stroke-miterlimit:10;" d="M128.678,50.345
			c0.034-0.712,0.057-1.424,0.068-2.136c-0.023,0.664-0.064,1.326-0.107,1.989"/>
		<path style="fill:none;stroke:#FFFFFF;stroke-width:0.5;stroke-miterlimit:10;" d="M123.318,70.713
			c2.559-2.889,5.049-4.84,5.473-8.965"/>
		<path style="fill:none;stroke:#FFFFFF;stroke-width:0.5;stroke-miterlimit:10;" d="M117.121,84.932
			c1.176-0.709,2.229-1.121,3.277-1.691c1.043-0.572,2.086-1.305,3.131-2.726c1.094-1.488,1.807-3.41,2.234-5.062
			c0.436-1.656,0.604-3.043,0.797-3.555c0.16-0.42,0.766-1.721,1.272-2.955c0.51-1.23,0.93-2.389,0.93-2.389
			s-0.435,1.123-0.963,2.312c-0.527,1.191-1.152,2.441-1.352,2.832c-0.244,0.494-1.09,1.117-2.111,1.971
			c-1.023,0.857-2.223,1.93-3.232,3.396c-1.119,1.633-1.867,3.285-2.475,4.707C118.025,83.189,117.568,84.365,117.121,84.932"/>
		<path style="fill:none;stroke:#FFFFFF;stroke-width:0.5;stroke-miterlimit:10;" d="M126.457,71.914"/>
		<path style="fill:none;stroke:#FFFFFF;stroke-width:0.5;stroke-miterlimit:10;" d="M106.758,96.609
			c1.252-0.297,2.311-0.357,3.408-0.559c1.092-0.207,2.23-0.553,3.578-1.5c1.408-0.994,2.617-2.477,3.496-3.805
			c0.889-1.33,1.465-2.502,1.793-2.895c0.271-0.318,1.205-1.277,2.037-2.205c0.834-0.922,1.566-1.807,1.566-1.805
			c0-0.002-0.732,0.848-1.572,1.727c-0.834,0.883-1.777,1.791-2.07,2.074c-0.365,0.361-1.307,0.65-2.469,1.094
			c-1.168,0.445-2.553,1.035-3.893,2.039c-1.486,1.115-2.646,2.367-3.605,3.455C108.07,95.316,107.32,96.232,106.758,96.609"/>
		<path style="fill:none;stroke:#FFFFFF;stroke-width:0.5;stroke-miterlimit:10;" d="M96.148,103.365
			c1.197,0.022,2.164,0.213,3.199,0.289c1.031,0.07,2.135,0.027,3.572-0.502c1.5-0.557,2.941-1.59,4.057-2.566
			c1.119-0.975,1.928-1.877,2.316-2.148c0.322-0.219,1.398-0.844,2.375-1.461c0.976-0.615,1.859-1.215,1.859-1.215
			s-0.873,0.568-1.844,1.143c-0.969,0.578-2.039,1.152-2.371,1.336c-0.42,0.231-1.33,0.26-2.484,0.371
			c-1.156,0.113-2.545,0.307-3.994,0.887c-1.611,0.645-2.955,1.5-4.08,2.254C97.635,102.506,96.742,103.154,96.148,103.365"/>
		<path style="fill:none;stroke:#FFFFFF;stroke-width:0.5;stroke-miterlimit:10;" d="M109.211,98.4"/>
		<g>
			<path style="fill:none;stroke:#FFFFFF;stroke-width:0.5;stroke-miterlimit:10;" d="M84.902,107.131
				c1.076,0.279,1.902,0.662,2.814,0.957c0.91,0.293,1.908,0.498,3.314,0.348c1.469-0.16,2.99-0.758,4.213-1.369
				c1.227-0.613,2.16-1.23,2.572-1.379c0.34-0.119,1.447-0.424,2.465-0.744c1.018-0.316,1.947-0.639,1.947-0.639
				s-0.914,0.297-1.916,0.578c-1.002,0.287-2.092,0.549-2.434,0.633c-0.871,0.213-3.242-0.75-6.094-0.369
				c-1.592,0.215-2.998,0.678-4.178,1.107C86.432,106.682,85.484,107.072,84.902,107.131"/>
			<path style="fill:none;stroke:#FFFFFF;stroke-width:0.5;stroke-miterlimit:10;" d="M97.75,105.633"/>
		</g>
		<g>
			<path style="fill:none;stroke:#FFFFFF;stroke-width:0.5;stroke-miterlimit:10;" d="M75.775,111.305
				c2.581,0.49,4.315,1.435,7.35,1.047c1.58-0.213,3.053-0.834,4.199-1.445c1.15-0.611,1.984-1.207,2.4-1.363
				c0.344-0.127,1.498-0.463,2.555-0.814c1.059-0.346,2.014-0.703,2.016-0.701c0-0.002-0.949,0.332-2.002,0.648
				c-1.051,0.32-2.201,0.619-2.561,0.715c-0.447,0.121-1.457,0.008-2.721-0.09c-1.268-0.1-2.777-0.189-4.324,0.018
				c-1.717,0.232-3.115,0.688-4.264,1.111C77.279,110.85,76.392,111.238,75.775,111.305"/>
			<path style="fill:none;stroke:#FFFFFF;stroke-width:0.5;stroke-miterlimit:10;" d="M89.631,109.5"/>
		</g>
		<path style="fill:none;stroke:#FFFFFF;stroke-width:0.5;stroke-miterlimit:10;" d="M19.12,61.614
			c-0.542,4.181,1.115,7.582,2.132,11.491"/>
		<path style="fill:none;stroke:#FFFFFF;stroke-width:0.5;stroke-miterlimit:10;" d="M23.629,50.229
			c0.216-0.686,0.446-1.367,0.693-2.042c-0.254,0.654-0.495,1.313-0.723,1.978"/>
		<path style="fill:none;stroke:#FFFFFF;stroke-width:0.5;stroke-miterlimit:10;" d="M21.252,73.105
			c0.46-3.92,2.128-7.182,1.908-11.26"/>
		<path style="fill:none;stroke:#FFFFFF;stroke-width:0.5;stroke-miterlimit:10;" d="M29.091,89.576
			c-0.312-1.533-0.252-2.766-0.275-4.033c-0.016-1.273-0.112-2.582-0.606-4.326c-0.517-1.824-1.376-3.689-2.108-5.289
			c-0.735-1.592-1.347-2.91-1.458-3.469c-0.094-0.457-0.241-1.938-0.296-3.295c-0.058-1.357-0.035-2.59-0.035-2.59
			s-0.047,1.203-0.027,2.533c0.018,1.326,0.108,2.779,0.157,3.234c0.055,0.572-0.319,1.586-0.592,2.996
			c-0.272,1.404-0.43,3.217,0.074,5.258c0.558,2.268,1.656,4.195,2.702,5.684C27.676,87.775,28.677,88.846,29.091,89.576"/>
		<path style="fill:none;stroke:#FFFFFF;stroke-width:0.5;stroke-miterlimit:10;" d="M24.565,72.533"/>
		<path style="fill:none;stroke:#FFFFFF;stroke-width:0.5;stroke-miterlimit:10;" d="M41.577,102.738
			c-0.713-1.268-1.017-2.369-1.402-3.488c-0.383-1.119-0.849-2.248-1.803-3.645c-0.994-1.459-2.313-2.848-3.445-4.033
			c-1.131-1.182-2.072-2.15-2.342-2.608c-0.225-0.373-0.812-1.631-1.282-2.805c-0.475-1.174-0.844-2.264-0.844-2.264
			s0.338,1.072,0.77,2.232c0.429,1.16,0.961,2.408,1.143,2.795c0.222,0.486,0.206,1.492,0.394,2.814
			c0.188,1.316,0.59,2.957,1.64,4.602c1.164,1.826,2.691,3.197,4.046,4.205C39.811,101.557,41,102.213,41.577,102.738"/>
		<path style="fill:none;stroke:#FFFFFF;stroke-width:0.5;stroke-miterlimit:10;" d="M39.937,100.68"/>
		<path style="fill:none;stroke:#FFFFFF;stroke-width:0.5;stroke-miterlimit:10;" d="M32.537,89.053"/>
		<path style="fill:none;stroke:#FFFFFF;stroke-width:0.5;stroke-miterlimit:10;" d="M54.097,110
			c-0.928-0.973-1.455-1.891-2.062-2.801c-0.604-0.916-1.288-1.82-2.475-2.844c-1.238-1.07-2.76-1.992-4.058-2.779
			c-1.3-0.781-2.384-1.408-2.736-1.752c-0.292-0.277-1.129-1.252-1.846-2.182c-0.72-0.928-1.328-1.803-1.327-1.805
			c-0.001,0.002,0.575,0.867,1.254,1.795c0.674,0.93,1.462,1.908,1.717,2.209c0.321,0.377,0.555,1.283,1.046,2.416
			c0.49,1.131,1.247,2.496,2.575,3.711c1.475,1.351,3.16,2.215,4.608,2.795C52.244,109.352,53.462,109.662,54.097,110"/>
		<path style="fill:none;stroke:#FFFFFF;stroke-width:0.5;stroke-miterlimit:10;" d="M42.746,99.916"/>
		<g>
			<path style="fill:none;stroke:#FFFFFF;stroke-width:0.5;stroke-miterlimit:10;" d="M67.091,113.721
				c-1.04-0.668-1.71-1.375-2.453-2.057c-0.741-0.684-1.553-1.34-2.844-1.988c-1.348-0.678-2.914-1.158-4.256-1.557
				c-1.34-0.398-2.453-0.705-2.848-0.926c-0.326-0.18-1.3-0.852-2.158-1.51c-0.863-0.656-1.614-1.291-1.614-1.291
				s0.721,0.635,1.546,1.299c0.821,0.668,1.751,1.355,2.051,1.564c0.374,0.262,0.793,1.012,1.492,1.908
				c0.697,0.896,1.684,1.938,3.14,2.719c1.618,0.869,3.31,1.26,4.728,1.459C65.297,113.543,66.45,113.559,67.091,113.721"/>
			<path style="fill:none;stroke:#FFFFFF;stroke-width:0.5;stroke-miterlimit:10;" d="M54.695,107.277"/>
		</g>
		<path style="fill:none;stroke:#FFFFFF;stroke-width:0.5;stroke-miterlimit:10;" d="M28.517,61.459
			c0.848,3.03,0.504,6.268,1.361,9.254"/>
		<path style="fill:none;stroke:#FFFFFF;stroke-width:0.5;stroke-miterlimit:10;" d="M24.52,50.345
			c-0.035-0.712-0.058-1.424-0.069-2.136c0.024,0.664,0.064,1.326,0.108,1.989"/>
		<path style="fill:none;stroke:#FFFFFF;stroke-width:0.5;stroke-miterlimit:10;" d="M29.878,70.713
			c-2.559-2.888-5.05-4.84-5.473-8.965"/>
		<path style="fill:none;stroke:#FFFFFF;stroke-width:0.5;stroke-miterlimit:10;" d="M36.076,84.932
			c-1.176-0.709-2.229-1.121-3.279-1.691c-1.042-0.572-2.084-1.305-3.13-2.726c-1.093-1.488-1.806-3.41-2.234-5.062
			c-0.436-1.656-0.604-3.043-0.796-3.555c-0.162-0.42-0.766-1.721-1.271-2.955c-0.51-1.23-0.93-2.389-0.93-2.389
			s0.434,1.123,0.963,2.312c0.527,1.191,1.152,2.441,1.352,2.832c0.244,0.494,1.089,1.117,2.11,1.971
			c1.024,0.857,2.223,1.93,3.232,3.396c1.121,1.633,1.868,3.285,2.476,4.707C35.171,83.189,35.628,84.365,36.076,84.932"/>
		<path style="fill:none;stroke:#FFFFFF;stroke-width:0.5;stroke-miterlimit:10;" d="M26.74,71.914"/>
		<path style="fill:none;stroke:#FFFFFF;stroke-width:0.5;stroke-miterlimit:10;" d="M46.439,96.609
			c-1.252-0.297-2.312-0.357-3.408-0.559c-1.093-0.207-2.23-0.553-3.578-1.5c-1.409-0.994-2.615-2.477-3.497-3.805
			c-0.888-1.33-1.464-2.502-1.792-2.895c-0.272-0.318-1.205-1.277-2.036-2.205c-0.834-0.922-1.567-1.807-1.567-1.805
			c0-0.002,0.733,0.848,1.571,1.727c0.834,0.883,1.777,1.791,2.071,2.074c0.365,0.361,1.307,0.65,2.469,1.094
			c1.168,0.445,2.552,1.035,3.893,2.039c1.486,1.115,2.646,2.367,3.605,3.455C45.126,95.316,45.876,96.232,46.439,96.609"/>
		<path style="fill:none;stroke:#FFFFFF;stroke-width:0.5;stroke-miterlimit:10;" d="M34.262,87.838"/>
		<path style="fill:none;stroke:#FFFFFF;stroke-width:0.5;stroke-miterlimit:10;" d="M57.049,103.365
			c-1.198,0.022-2.166,0.213-3.2,0.289c-1.032,0.07-2.136,0.027-3.572-0.502c-1.5-0.557-2.942-1.59-4.057-2.566
			c-1.118-0.975-1.928-1.877-2.316-2.148c-0.323-0.219-1.399-0.844-2.376-1.461c-0.977-0.615-1.859-1.215-1.859-1.215
			s0.874,0.568,1.844,1.143c0.969,0.578,2.04,1.152,2.373,1.336c0.418,0.231,1.33,0.26,2.483,0.371
			c1.155,0.113,2.545,0.307,3.994,0.887c1.611,0.645,2.956,1.5,4.08,2.254C55.562,102.506,56.456,103.154,57.049,103.365"/>
		<path style="fill:none;stroke:#FFFFFF;stroke-width:0.5;stroke-miterlimit:10;" d="M43.986,98.4"/>
		<g>
			<path style="fill:none;stroke:#FFFFFF;stroke-width:0.5;stroke-miterlimit:10;" d="M68.294,107.131
				c-1.076,0.279-1.903,0.662-2.814,0.957c-0.911,0.293-1.909,0.498-3.314,0.348c-1.47-0.16-2.991-0.758-4.215-1.369
				c-1.226-0.613-2.16-1.23-2.571-1.379c-0.34-0.119-1.447-0.424-2.465-0.744c-1.018-0.316-1.946-0.639-1.946-0.639
				s0.913,0.297,1.915,0.578c1.002,0.287,2.092,0.549,2.434,0.633c0.87,0.213,3.242-0.75,6.093-0.369
				c1.593,0.215,2.999,0.678,4.178,1.107C66.765,106.682,67.711,107.072,68.294,107.131"/>
			<path style="fill:none;stroke:#FFFFFF;stroke-width:0.5;stroke-miterlimit:10;" d="M55.446,105.633"/>
		</g>
		<g>
			<path style="fill:none;stroke:#FFFFFF;stroke-width:0.5;stroke-miterlimit:10;" d="M77.421,111.305
				c-2.582,0.49-4.315,1.435-7.35,1.047c-1.581-0.213-3.053-0.834-4.2-1.445c-1.149-0.611-1.984-1.207-2.4-1.363
				c-0.344-0.127-1.498-0.463-2.554-0.814c-1.059-0.346-2.015-0.703-2.017-0.701c0.001-0.002,0.95,0.332,2.002,0.648
				c1.051,0.32,2.201,0.619,2.562,0.715c0.447,0.121,1.457,0.008,2.72-0.09c1.268-0.1,2.778-0.189,4.325,0.018
				c1.716,0.232,3.116,0.688,4.263,1.111C75.917,110.85,76.804,111.238,77.421,111.305"/>
			<path style="fill:none;stroke:#FFFFFF;stroke-width:0.5;stroke-miterlimit:10;" d="M63.567,109.5"/>
		</g>
	</g>
	<g>
		<g>
			<path style="fill:#FFFFFF;" d="M21.653,141.879h-6.459v-0.639c0.386-0.033,0.667-0.073,0.846-0.125
				c0.176-0.053,0.31-0.145,0.406-0.274c0.093-0.13,0.15-0.343,0.172-0.634c0.01-0.281,0.017-1.276,0.017-2.988v-3.565
				c0-1.073-0.023-1.788-0.063-2.142c-0.042-0.355-0.151-0.588-0.329-0.697c-0.177-0.109-0.526-0.191-1.048-0.242v-0.627h6.131
				c0.573,0.012,1.065,0.05,1.471,0.119c0.406,0.066,0.777,0.201,1.11,0.398c0.376,0.219,0.668,0.523,0.876,0.915
				c0.209,0.391,0.315,0.816,0.315,1.275c0,1.512-1.008,2.48-3.021,2.908c0.595,0.073,1.074,0.151,1.438,0.235
				c0.365,0.083,0.715,0.248,1.049,0.5c0.781,0.542,1.174,1.33,1.174,2.361c0,1.063-0.397,1.91-1.188,2.535
				c-0.356,0.28-0.751,0.465-1.188,0.554C22.92,141.836,22.352,141.879,21.653,141.879z M18.948,131.025v4.004
				c1.095,0.023,1.998-0.101,2.705-0.367c0.711-0.266,1.065-0.811,1.065-1.636c0-0.792-0.239-1.329-0.721-1.61
				c-0.478-0.28-1.162-0.423-2.049-0.423C19.74,130.993,19.407,131.005,18.948,131.025z M20.057,136.141h-1.109v2.785
				c0,0.521,0.022,0.9,0.071,1.141c0.046,0.24,0.177,0.428,0.391,0.562c0.213,0.136,0.565,0.204,1.055,0.204
				c0.407,0,0.825-0.078,1.251-0.234c0.429-0.157,0.787-0.418,1.08-0.782c0.292-0.364,0.438-0.829,0.438-1.393
				c0-0.627-0.119-1.104-0.359-1.439c-0.24-0.334-0.586-0.557-1.041-0.672C21.38,136.197,20.788,136.141,20.057,136.141z"/>
			<path style="fill:#FFFFFF;" d="M30.819,141.879h-4.927v-0.656c0.417-0.053,0.716-0.115,0.899-0.194
				c0.183-0.079,0.31-0.213,0.383-0.407c0.074-0.192,0.114-0.502,0.126-0.932v-6.35c-0.012-0.928-0.037-1.545-0.079-1.852
				c-0.041-0.308-0.147-0.517-0.312-0.626c-0.167-0.109-0.507-0.201-1.018-0.273v-0.643h4.927v0.643
				c-0.511,0.052-0.85,0.129-1.016,0.234c-0.168,0.105-0.271,0.313-0.313,0.627c-0.042,0.311-0.062,0.942-0.062,1.891v4.817
				c0,1.043,0.017,1.747,0.047,2.112c0.042,0.354,0.155,0.594,0.344,0.72c0.188,0.126,0.521,0.204,1.001,0.233V141.879z"/>
			<path style="fill:#FFFFFF;" d="M41.44,138.894l0.703,0.532c-0.281,0.469-0.604,0.908-0.97,1.321
				c-0.365,0.412-0.892,0.79-1.579,1.132c-0.688,0.346-1.533,0.518-2.534,0.518c-1.179,0-2.216-0.266-3.113-0.798
				c-0.896-0.532-1.589-1.265-2.079-2.196c-0.491-0.934-0.736-1.98-0.736-3.137c0-1.115,0.227-2.162,0.682-3.137
				c0.453-0.975,1.133-1.761,2.04-2.359c0.907-0.602,2.003-0.9,3.285-0.9c0.646,0,1.22,0.074,1.72,0.225
				c0.502,0.153,0.907,0.323,1.221,0.51c0.312,0.188,0.645,0.422,1.002,0.703l0.812-0.75l0.063,3.611l-0.531,0.111
				c-0.104-0.354-0.251-0.691-0.439-1.011c-0.187-0.316-0.469-0.679-0.844-1.085c-0.272-0.293-0.618-0.561-1.041-0.806
				c-0.422-0.244-0.908-0.366-1.461-0.366c-0.721,0-1.373,0.19-1.955,0.578c-0.586,0.385-1.047,0.941-1.385,1.672
				c-0.34,0.73-0.508,1.596-0.508,2.598c0,0.906,0.158,1.748,0.477,2.525c0.316,0.775,0.79,1.4,1.416,1.869
				c0.625,0.469,1.381,0.705,2.268,0.705c0.635,0,1.176-0.104,1.618-0.307c0.444-0.202,0.791-0.441,1.041-0.711
				C40.86,139.67,41.136,139.321,41.44,138.894z"/>
			<path style="fill:#FFFFFF;" d="M51.387,141.879H42.3v-0.656c0.438-0.041,0.748-0.098,0.931-0.172
				c0.181-0.072,0.307-0.203,0.374-0.391c0.067-0.188,0.107-0.511,0.118-0.971c0.02-0.373,0.031-1.057,0.031-2.048v-4.192
				c0-1.135-0.031-1.855-0.094-2.158c-0.062-0.26-0.183-0.43-0.36-0.508c-0.178-0.078-0.511-0.139-1-0.18v-0.642h8.509l0.062,2.831
				h-0.549c-0.082-0.531-0.232-0.923-0.445-1.173c-0.213-0.25-0.509-0.411-0.884-0.484c-0.376-0.073-0.938-0.11-1.688-0.11h-1.471
				v4.191h1.298c0.511,0,0.892-0.041,1.144-0.125c0.248-0.084,0.424-0.221,0.521-0.415c0.1-0.192,0.17-0.482,0.213-0.867h0.578
				v3.942H49.01c0-0.449-0.055-0.775-0.165-0.979c-0.109-0.203-0.292-0.336-0.547-0.397c-0.256-0.064-0.649-0.096-1.181-0.096
				h-1.283v3.349c0,0.418,0.131,0.719,0.391,0.906c0.261,0.188,0.767,0.283,1.518,0.283c0.781,0,1.356-0.027,1.722-0.08
				c0.364-0.053,0.692-0.222,0.983-0.508c0.293-0.287,0.502-0.764,0.627-1.432h0.577C51.475,140.113,51.387,141.141,51.387,141.879z
				"/>
			<path style="fill:#FFFFFF;" d="M56.831,141.879h-4.865v-0.639c0.396-0.021,0.682-0.046,0.852-0.072
				c0.174-0.025,0.312-0.088,0.416-0.187c0.104-0.099,0.178-0.259,0.218-0.477c0.095-0.438,0.167-2.924,0.22-7.461l0.031-1.643
				c-0.334-0.302-0.608-0.502-0.82-0.603c-0.215-0.099-0.52-0.163-0.916-0.194v-0.642h3.582c0.542,0.773,0.965,1.357,1.266,1.76
				c0.305,0.401,0.872,1.119,1.707,2.151l3.331,4.129v-5.334c-0.011-0.699-0.048-1.17-0.109-1.416
				c-0.062-0.244-0.217-0.41-0.462-0.492c-0.244-0.083-0.706-0.136-1.384-0.156v-0.642h4.692v0.642
				c-0.448,0.011-0.767,0.065-0.954,0.166c-0.188,0.098-0.313,0.289-0.375,0.576c-0.063,0.287-0.099,0.779-0.11,1.479l-0.156,9.212
				h-0.719l-1.064-1.329l-1.611-2.018l-4.725-5.802v6.177c0,0.679,0.041,1.146,0.119,1.408c0.078,0.26,0.236,0.436,0.476,0.525
				c0.24,0.088,0.693,0.169,1.361,0.242V141.879z"/>
			<path style="fill:#FFFFFF;" d="M75.319,133.293c-0.032-0.645-0.134-1.115-0.306-1.408c-0.172-0.291-0.396-0.475-0.672-0.547
				c-0.277-0.072-0.672-0.109-1.182-0.109h-0.188h-1.486v8.775c0,0.49,0.099,0.839,0.297,1.047c0.198,0.209,0.568,0.318,1.11,0.33
				v0.498h-4.942v-0.498c0.532-0.012,0.899-0.121,1.103-0.33c0.203-0.208,0.306-0.557,0.306-1.047v-8.775h-1.485h-0.188
				c-0.512,0-0.906,0.037-1.182,0.109c-0.276,0.072-0.501,0.256-0.674,0.547c-0.171,0.293-0.272,0.763-0.304,1.408h-0.625
				l0.093-3.331H75.85l0.093,3.331H75.319z"/>
			<path style="fill:#FFFFFF;" d="M85.344,141.879h-9.088v-0.656c0.439-0.041,0.75-0.098,0.932-0.172
				c0.183-0.072,0.307-0.203,0.375-0.391c0.068-0.188,0.107-0.511,0.117-0.971c0.021-0.373,0.031-1.057,0.031-2.048v-4.192
				c0-1.135-0.031-1.855-0.094-2.158c-0.062-0.26-0.182-0.43-0.358-0.508c-0.178-0.078-0.512-0.139-1.003-0.18v-0.642h8.51
				l0.062,2.831h-0.547c-0.084-0.531-0.232-0.923-0.445-1.173c-0.215-0.25-0.51-0.411-0.885-0.484
				c-0.375-0.073-0.939-0.11-1.689-0.11h-1.471v4.191h1.299c0.51,0,0.891-0.041,1.143-0.125c0.248-0.084,0.424-0.221,0.523-0.415
				c0.098-0.192,0.168-0.482,0.211-0.867h0.578v3.942h-0.578c0-0.449-0.055-0.775-0.164-0.979c-0.109-0.203-0.291-0.336-0.549-0.397
				c-0.254-0.064-0.646-0.096-1.18-0.096h-1.283v3.349c0,0.418,0.131,0.719,0.391,0.906c0.262,0.188,0.768,0.283,1.518,0.283
				c0.781,0,1.355-0.027,1.721-0.08c0.365-0.053,0.693-0.222,0.986-0.508c0.291-0.287,0.5-0.764,0.625-1.432h0.578
				C85.432,140.113,85.344,141.141,85.344,141.879z"/>
			<path style="fill:#FFFFFF;" d="M90.787,141.879h-4.863v-0.639c0.395-0.021,0.678-0.046,0.852-0.072
				c0.172-0.025,0.309-0.088,0.414-0.187c0.104-0.099,0.176-0.259,0.219-0.477c0.094-0.438,0.168-2.924,0.219-7.461l0.031-1.643
				c-0.334-0.302-0.607-0.502-0.82-0.603c-0.213-0.099-0.52-0.163-0.914-0.194v-0.642h3.58c0.543,0.773,0.965,1.357,1.268,1.76
				c0.301,0.401,0.869,1.119,1.703,2.151l3.334,4.129v-5.334c-0.012-0.699-0.049-1.17-0.109-1.416
				c-0.064-0.244-0.219-0.41-0.463-0.492c-0.246-0.083-0.707-0.136-1.385-0.156v-0.642h4.693v0.642
				c-0.449,0.011-0.766,0.065-0.953,0.166c-0.188,0.098-0.312,0.289-0.377,0.576c-0.062,0.287-0.1,0.779-0.107,1.479l-0.158,9.212
				h-0.721l-1.062-1.329l-1.611-2.018l-4.723-5.802v6.177c0,0.679,0.039,1.146,0.117,1.408c0.078,0.26,0.238,0.436,0.477,0.525
				c0.24,0.088,0.693,0.169,1.361,0.242V141.879z"/>
			<path style="fill:#FFFFFF;" d="M103.723,141.879h-4.865v-0.639c0.396-0.021,0.682-0.046,0.852-0.072
				c0.174-0.025,0.312-0.088,0.416-0.187c0.103-0.099,0.178-0.259,0.219-0.477c0.094-0.438,0.166-2.924,0.219-7.461l0.033-1.643
				c-0.336-0.302-0.609-0.502-0.824-0.603c-0.213-0.099-0.518-0.163-0.914-0.194v-0.642h3.582c0.543,0.773,0.965,1.357,1.268,1.76
				c0.301,0.401,0.869,1.119,1.705,2.151l3.33,4.129v-5.334c-0.01-0.699-0.045-1.17-0.107-1.416
				c-0.064-0.244-0.217-0.41-0.463-0.492c-0.246-0.083-0.705-0.136-1.383-0.156v-0.642h4.689v0.642
				c-0.445,0.011-0.764,0.065-0.953,0.166c-0.188,0.098-0.312,0.289-0.375,0.576c-0.062,0.287-0.098,0.779-0.109,1.479l-0.156,9.212
				h-0.719l-1.064-1.329l-1.611-2.018l-4.723-5.802v6.177c0,0.679,0.039,1.146,0.117,1.408c0.078,0.26,0.236,0.436,0.477,0.525
				c0.238,0.088,0.693,0.169,1.361,0.242V141.879z"/>
			<path style="fill:#FFFFFF;" d="M116.721,141.879h-4.928v-0.656c0.416-0.053,0.717-0.115,0.898-0.194
				c0.184-0.079,0.311-0.213,0.385-0.407c0.072-0.192,0.113-0.502,0.123-0.932v-6.35c-0.01-0.928-0.035-1.545-0.076-1.852
				c-0.043-0.308-0.146-0.517-0.314-0.626c-0.166-0.109-0.504-0.201-1.016-0.273v-0.643h4.928v0.643
				c-0.512,0.052-0.852,0.129-1.018,0.234c-0.166,0.105-0.271,0.313-0.314,0.627c-0.039,0.311-0.061,0.942-0.061,1.891v4.817
				c0,1.043,0.016,1.747,0.047,2.112c0.043,0.354,0.156,0.594,0.344,0.72c0.188,0.126,0.521,0.204,1.002,0.233V141.879z"/>
			<path style="fill:#FFFFFF;" d="M129.529,141.879h-5.582v-0.639c0.498-0.043,0.863-0.11,1.094-0.205
				c0.23-0.094,0.344-0.285,0.344-0.578c0-0.178-0.041-0.41-0.125-0.703l-0.359-1.221h-4.207l-0.377,1.033
				c-0.092,0.301-0.141,0.547-0.141,0.734c0,0.375,0.141,0.619,0.422,0.728c0.283,0.109,0.68,0.179,1.188,0.212v0.639h-4.91v-0.639
				c0.437-0.021,0.781-0.076,1.025-0.165c0.246-0.089,0.449-0.237,0.611-0.446c0.16-0.208,0.318-0.527,0.477-0.954l3.221-8.853
				l-0.186-0.281c0.676-0.22,1.164-0.398,1.461-0.541c0.297-0.141,0.602-0.324,0.914-0.554c0.146,0.499,0.324,1.084,0.533,1.751
				l2.645,8.102c0.166,0.523,0.316,0.904,0.453,1.151c0.135,0.245,0.312,0.425,0.529,0.539c0.221,0.114,0.545,0.198,0.971,0.251
				V141.879z M124.557,137.25l-1.674-4.957l-1.754,4.957H124.557z"/>
			<path style="fill:#FFFFFF;" d="M138.945,138.799h0.578l-0.281,3.08h-9.4v-0.639c0.521-0.043,0.877-0.121,1.064-0.236
				c0.188-0.113,0.297-0.338,0.328-0.672c0.051-0.573,0.078-1.184,0.078-1.83v-5.053c0-0.906-0.023-1.527-0.07-1.859
				c-0.047-0.336-0.164-0.566-0.354-0.696c-0.186-0.131-0.535-0.228-1.047-0.29v-0.642h5.303v0.642
				c-0.574,0.041-0.951,0.113-1.135,0.219c-0.18,0.105-0.297,0.331-0.342,0.68c-0.047,0.35-0.07,1.055-0.07,2.119v4.833
				c0.008,0.72,0.047,1.224,0.109,1.511c0.061,0.287,0.197,0.488,0.406,0.604c0.207,0.112,0.572,0.176,1.094,0.186h0.752
				c0.676,0,1.199-0.04,1.57-0.116c0.369-0.079,0.676-0.258,0.916-0.533S138.852,139.393,138.945,138.799z"/>
		</g>
		<g>
			<path style="fill:#FFFFFF;" d="M129.775,126.65v-0.355c0.451-0.028,0.799-0.066,0.799-0.434c0-0.133-0.037-0.273-0.074-0.396
				l-0.201-0.679h-2.342l-0.207,0.575c-0.047,0.142-0.086,0.271-0.086,0.413c0,0.472,0.5,0.5,0.904,0.52v0.355h-2.74v-0.355
				c0.697-0.028,0.922-0.172,1.176-0.868l1.799-4.935l-0.104-0.16c0.774-0.254,0.99-0.366,1.32-0.611
				c0.131,0.451,0.148,0.51,0.301,0.979l1.469,4.521c0.264,0.801,0.387,0.998,1.092,1.074v0.355H129.775z M129.178,121.314
				l-0.976,2.756h1.91L129.178,121.314z"/>
			<path style="fill:#FFFFFF;" d="M108.541,125.174c-0.295,0.48-1.002,1.656-2.836,1.656c-2.004,0-3.301-1.479-3.301-3.418
				c0-1.798,1.1-3.569,3.344-3.569c1.184,0,1.809,0.499,2.193,0.801l0.455-0.413l0.037,2.016l-0.295,0.055
				c-0.115-0.385-0.285-0.696-0.715-1.168c-0.207-0.215-0.699-0.648-1.395-0.648c-1.199,0-2.15,0.979-2.15,2.703
				c0,1.46,0.779,2.834,2.316,2.834c1.164,0,1.602-0.649,1.949-1.148L108.541,125.174z"/>
			<path style="fill:#FFFFFF;" d="M109.031,126.65v-0.355c0.754-0.066,0.764-0.227,0.764-0.868c0.01-0.235,0.01-0.47,0.01-0.704
				v-2.789c0-0.434,0-0.865-0.027-1.073c-0.039-0.396-0.227-0.452-0.746-0.499v-0.357h2.85v0.357
				c-0.557,0.057-0.764,0.076-0.83,0.442c-0.047,0.217-0.057,0.706-0.057,1.103v0.918c0.574,0.029,0.973,0.047,1.529,0.047
				c0.564,0,1.012-0.018,1.58-0.047v-1.115c-0.012-1.217-0.021-1.262-0.924-1.348v-0.357h2.883v0.357
				c-0.773,0.094-0.773,0.104-0.773,1.365v2.806c0,0.264,0.01,1.102,0.037,1.302c0.049,0.348,0.246,0.413,0.736,0.461v0.355h-2.883
				v-0.355c0.668-0.076,0.848-0.095,0.902-0.557c0.021-0.188,0.021-0.443,0.021-0.923v-1.22c-0.529-0.018-0.967-0.047-1.514-0.047
				c-0.574,0-1.021,0.018-1.596,0.047v1.22c0.01,1.385,0.027,1.385,0.887,1.479v0.355H109.031z"/>
			<path style="fill:#FFFFFF;" d="M116.611,126.65v-0.355c0.648-0.085,0.781-0.162,0.789-0.858v-0.847v-2.693
				c-0.008-1.385-0.008-1.422-0.789-1.535v-0.357h2.762v0.357c-0.781,0.076-0.781,0.113-0.781,1.535v2.684
				c0,0.235,0.01,0.979,0.027,1.177c0.047,0.406,0.236,0.499,0.754,0.538v0.355H116.611z"/>
			<path style="fill:#FFFFFF;" d="M99.553,126.65v-0.355c0.648-0.085,0.781-0.162,0.791-0.858v-0.847v-2.693
				c-0.01-1.385-0.01-1.422-0.791-1.535v-0.357h2.76v0.357c-0.781,0.076-0.781,0.113-0.781,1.535v2.684
				c0,0.235,0.008,0.979,0.029,1.177c0.047,0.406,0.234,0.499,0.752,0.538v0.355H99.553z"/>
			<path style="fill:#FFFFFF;" d="M95.99,126.65v-0.355c0.838-0.057,0.838-0.095,0.848-1.33v-3.343l-2.326,5.114h-0.584l-2.135-5.18
				l-0.049,3.909c0,0.649,0.074,0.772,0.781,0.829v0.355h-2.309v-0.355c0.539-0.028,0.744-0.104,0.781-0.557
				c0.02-0.179,0.049-0.736,0.059-1.103l0.094-2.787c0.008-0.217,0.008-0.536,0.008-0.772c0-0.658-0.131-0.705-0.723-0.715v-0.357
				h2.09l2.072,5.045l2.277-5.045H98.9v0.396c-0.791,0.047-0.801,0.131-0.791,1.167v2.739c0,0.453,0.01,1.018,0.037,1.356
				c0.039,0.489,0.227,0.584,0.754,0.632v0.355H95.99z"/>
			<path style="fill:#FFFFFF;" d="M132.688,126.65v-0.355c0.547-0.028,0.752-0.039,0.826-0.416c0.096-0.442,0.123-4.387,0.133-5.075
				c-0.365-0.339-0.518-0.403-0.959-0.442v-0.357h1.996c0.555,0.791,0.678,0.97,1.656,2.184l1.855,2.299v-2.976
				c-0.01-1.055-0.037-1.109-1.09-1.149v-0.357h2.615v0.357c-0.723,0.01-0.791,0.16-0.799,1.243l-0.094,5.132h-0.396l-0.592-0.742
				c-0.305-0.378-0.605-0.754-0.906-1.121l-2.627-3.242v3.449c0,1.072,0.074,1.111,1.092,1.215v0.355H132.688z"/>
			<path style="fill:#FFFFFF;" d="M82.234,123.318c0,2.298-1.564,3.502-3.328,3.502c-1.932,0-3.444-1.393-3.444-3.512
				c0-1.816,1.216-3.456,3.356-3.447C80.83,119.872,82.234,121.303,82.234,123.318z M78.916,126.21
				c0.373-0.011,0.902-0.198,1.314-0.823c0.469-0.721,0.566-1.383,0.539-2.25c-0.025-0.855-0.264-1.594-0.754-2.115
				c-0.215-0.227-0.635-0.563-1.189-0.547c-0.555,0-0.965,0.349-1.172,0.584c-0.473,0.535-0.688,1.279-0.688,2.137
				c0,0.867,0.118,1.527,0.609,2.232C78.002,126.039,78.539,126.21,78.916,126.21z"/>
			<path style="fill:#FFFFFF;" d="M83.064,125.427c0.01-0.159,0.02-0.961,0.02-1.138l0.002-2.336c0-0.265-0.012-0.998-0.057-1.205
				c-0.066-0.311-0.273-0.34-0.752-0.387v-0.357h4.877l0.104,1.628h-0.33c-0.174-1.04-0.594-1.035-1.893-1.035
				c-0.426,0-0.555,0.01-0.791,0.037l-0.002,2.302h0.877c0.809,0,1.006-0.068,1.045-0.785h0.32v2.195h-0.32
				c-0.049-0.745-0.443-0.816-1.188-0.816h-0.734l-0.004,1.898c0.018,0.725,0.104,0.792,0.791,0.856v0.367h-2.756v-0.367
				C82.961,126.219,83.047,126.152,83.064,125.427z"/>
			<path style="fill:#FFFFFF;" d="M30.115,126.605v-0.358c0.649-0.084,0.781-0.159,0.79-0.857v-0.847v-2.694
				c-0.009-1.384-0.009-1.421-0.79-1.534v-0.357h2.762v0.357c-0.78,0.074-0.78,0.113-0.78,1.534v2.684
				c0,0.236,0.008,0.981,0.027,1.179c0.047,0.404,0.236,0.499,0.753,0.536v0.358H30.115z"/>
			<path style="fill:#FFFFFF;" d="M56.274,126.605v-0.358c0.65-0.084,0.781-0.159,0.791-0.857v-0.847v-2.694
				c-0.01-1.384-0.01-1.421-0.791-1.534v-0.357h2.76v0.357c-0.781,0.074-0.781,0.113-0.781,1.534v2.684
				c0,0.236,0.009,0.981,0.028,1.179c0.048,0.404,0.235,0.499,0.753,0.536v0.358H56.274z"/>
			<path style="fill:#FFFFFF;" d="M22.646,126.605v-0.358c0.546-0.028,0.755-0.037,0.831-0.413c0.093-0.444,0.121-4.389,0.131-5.076
				c-0.367-0.34-0.518-0.406-0.962-0.443v-0.357h1.997c0.556,0.791,0.678,0.971,1.657,2.184l1.854,2.3v-2.978
				c-0.009-1.055-0.036-1.111-1.091-1.148v-0.357h2.618v0.357c-0.726,0.01-0.791,0.16-0.801,1.243l-0.094,5.132h-0.396l-0.592-0.744
				c-0.303-0.376-0.602-0.754-0.904-1.121l-2.629-3.239v3.446c0,1.074,0.076,1.113,1.093,1.216v0.358H22.646z"/>
			<path style="fill:#FFFFFF;" d="M51.403,124.532l0.338-0.036c0.367,1.083,0.981,1.667,1.979,1.667
				c0.706,0,1.327-0.302,1.327-1.017c0-0.754-0.726-1.057-1.046-1.188c-0.264-0.104-0.546-0.188-0.811-0.293
				c-0.545-0.197-1.571-0.621-1.571-1.911c0-1.243,0.979-1.94,2.118-1.94c0.443,0,0.963,0.096,1.526,0.453l0.405-0.293l0.216,1.979
				l-0.329,0.066c-0.113-0.434-0.197-0.637-0.461-0.984c-0.32-0.414-0.773-0.608-1.301-0.608c-0.705,0-1.121,0.339-1.121,0.865
				c0,0.791,0.782,1.057,1.525,1.3c0.379,0.123,0.688,0.226,0.961,0.386c0.529,0.311,0.962,0.896,0.962,1.694
				c0,1.149-0.943,2.101-2.345,2.101c-0.904,0-1.461-0.357-1.725-0.526l-0.554-0.403L51.403,124.532z"/>
			<path style="fill:#FFFFFF;" d="M61.089,126.605v-0.283c0.612-0.009,0.781-0.234,0.781-0.763v-4.897h-0.83
				c-0.752,0-1.251-0.029-1.308,1.157h-0.35l0.059-1.865h6.046l0.056,1.865h-0.35c-0.056-1.187-0.554-1.157-1.308-1.157h-0.829
				v4.897c0,0.528,0.17,0.754,0.782,0.763v0.283H61.089z"/>
			<path style="fill:#FFFFFF;" d="M18.189,119.957v0.357c-0.886,0.066-0.886,0.094-0.895,1.507v1.564
				c0,0.809,0.017,1.505,0.442,2.129c0.341,0.496,0.918,0.558,1.211,0.558c0.951,0,1.474-0.492,1.7-1.275
				c0.188-0.62,0.197-1.79,0.197-2.56c0-0.246,0-1.039-0.01-1.254c-0.037-0.602-0.348-0.621-0.941-0.668v-0.357h2.533v0.357
				c-0.621-0.01-0.754,0.133-0.791,0.791c-0.008,0.16-0.084,2.006-0.094,2.288c-0.02,0.509-0.047,1.008-0.161,1.489
				c-0.452,1.788-2.194,1.881-2.655,1.881c-0.366,0-1.119-0.055-1.742-0.469c-0.988-0.67-0.998-1.668-0.998-2.74v-1.509
				c-0.008-0.716-0.008-1.035-0.027-1.203c-0.059-0.415-0.265-0.501-0.764-0.528v-0.357H18.189z"/>
			<path style="fill:#FFFFFF;" d="M39.875,119.957v0.357c-0.64,0.094-0.725,0.273-1.271,1.592l-2.024,4.83h-0.358l-1.818-4.906
				c-0.451-1.262-0.508-1.412-1.176-1.516v-0.357h3.154v0.357c-0.537,0.018-0.886,0.037-0.886,0.424
				c0,0.189,0.047,0.348,0.226,0.903l1.16,3.382l1.355-3.494c0.084-0.236,0.197-0.537,0.197-0.707c0-0.481-0.471-0.498-0.886-0.508
				v-0.357H39.875z"/>
			<path style="fill:#FFFFFF;" d="M67.656,126.605v-0.358c0.517-0.056,0.716-0.075,0.847-0.208c0.151-0.15,0.151-0.319,0.16-1.045
				v-1.168l-1.771-2.74c-0.479-0.715-0.487-0.734-1.128-0.771v-0.367h3.465v0.367c-0.697,0.018-1.008,0.037-1.008,0.357
				c0,0.18,0.123,0.387,0.293,0.668l1.017,1.666l0.94-1.656c0.169-0.329,0.265-0.527,0.265-0.678c0-0.32-0.274-0.33-0.734-0.357
				v-0.367h2.599v0.367c-0.667,0.018-0.866,0.217-1.629,1.46l-1.036,1.733v1.383c0,1.205,0.01,1.301,0.998,1.356v0.358H67.656z"/>
			<path style="fill:#FFFFFF;" d="M39.877,126.605v-0.367c0.688-0.066,0.771-0.133,0.791-0.857c0.008-0.16,0.018-0.961,0.018-1.139
				v-2.338c0-0.264-0.01-0.998-0.057-1.205c-0.064-0.311-0.273-0.34-0.752-0.387v-0.358h4.735l0.037,1.583h-0.3
				c-0.15-0.904-0.555-0.988-1.687-0.988h-0.819v2.342h0.726c0.856,0,0.979-0.194,1.045-0.787h0.32v2.195h-0.32
				c0-0.744-0.235-0.814-1.055-0.814h-0.716v1.857c0,0.434,0.18,0.67,1.065,0.67c0.96,0,1.629,0.057,1.855-1.129h0.319
				c-0.057,0.451-0.141,1.24-0.141,1.723H39.877z"/>
			<path style="fill:#FFFFFF;" d="M126.123,123.712v0.358c-0.602,0.039-0.602,0.209-0.617,1.471v0.498
				c-0.518,0.32-1.256,0.781-2.562,0.781c-2.285,0-3.381-1.73-3.381-3.475c0-2.129,1.441-3.512,3.248-3.512
				c1.135,0,1.787,0.422,2.332,0.752l0.346-0.395l0.051,2.08l-0.27,0.047c-0.137-0.395-0.34-0.852-0.84-1.35
				c-0.219-0.217-0.646-0.494-1.316-0.494c-1.16,0-2.127,0.979-2.127,2.891c0,1.525,0.754,2.834,2.051,2.834
				c0.736,0,1.119-0.519,1.154-0.556c0.119-0.179,0.145-0.338,0.135-0.632c-0.031-0.846-0.145-0.865-0.881-0.941v-0.358H126.123z"/>
			<path style="fill:#FFFFFF;" d="M47.405,123.04c0.178,0.037,0.434,0.065,0.621,0.065c0.757,0.002,1.328-0.592,1.355-1.123
				c0.042-0.771-0.347-1.439-1.571-1.439c-0.169,0-0.275,0.01-0.405,0.038V123.04z M47.405,124.487
				c0.008,1.524,0.008,1.732,0.81,1.751v0.366h-2.776v-0.366c0.715-0.057,0.791-0.17,0.801-0.887c0.01-0.271,0.01-0.582,0.01-0.855
				v-2.405c0-0.801-0.01-1.082-0.038-1.298c-0.047-0.367-0.228-0.434-0.772-0.48v-0.358l3.012,0.012
				c1.639,0,2.156,0.781,2.156,1.704c0,0.641-0.396,1.474-1.309,1.756l1.178,2.048c0.424,0.782,0.649,0.961,1.185,1.036v0.226
				c-0.141,0.01-0.281,0.02-0.432,0.02c-1.253,0-1.771-0.435-2.299-1.555l-0.367-0.783c-0.395-0.837-0.527-0.785-1.158-0.795
				V124.487z"/>
		</g>
	</g>
	<g>
		<path style="fill:#FFFFFF;" d="M107.93,75.982h-3.467l-0.008-37.643l3.475-0.002l0.021-11.03l-14.178-0.03L75.851,56.441
			L58.057,27.305l-14.269-0.027v11.061l3.527,0.002l0.006,37.672l-3.614-0.029l0.034,10.461l17.943,0.02v-10.44l-3.488-0.04
			l0.016-26.122l13.351,21.831h8.643L93.553,49.86v26.151l-3.535-0.029v10.441l17.949,0.02L107.93,75.982z"/>
		<g>
			<polygon style="fill:#FFFFFF;" points="109.148,84.746 109.713,84.746 109.713,86.459 109.918,86.459 109.918,84.746 
				110.519,84.746 110.519,84.539 109.148,84.539 			"/>
			<polygon style="fill:#FFFFFF;" points="112.107,84.539 111.613,86.103 111.123,84.539 110.793,84.539 110.793,86.459 
				110.996,86.459 110.996,84.83 111.512,86.459 111.719,86.459 112.232,84.83 112.232,86.459 112.435,86.459 112.435,84.539 			"/>
		</g>
	</g>
	<g>
		<path style="fill:#FFFFFF;" d="M151.021,48.086h-34.568v16.126h34.568l-7.23-7.837L151.021,48.086z M126.748,59.615h-4.066
			l-0.166-0.321c0.656-0.562,1.197-1.048,1.623-1.462c0.424-0.412,0.812-0.896,1.162-1.449c0.352-0.555,0.527-1.113,0.527-1.673
			c0-0.429-0.115-0.774-0.344-1.036c-0.23-0.262-0.523-0.394-0.887-0.394c-0.363,0-0.637,0.111-0.824,0.333
			c-0.188,0.223-0.283,0.494-0.283,0.818c0,0.111,0.025,0.271,0.078,0.479l-0.365,0.188c-0.125-0.178-0.219-0.335-0.277-0.472
			c-0.061-0.136-0.088-0.312-0.088-0.526c0-0.324,0.088-0.635,0.266-0.929c0.178-0.296,0.424-0.536,0.74-0.721
			c0.318-0.185,0.678-0.276,1.076-0.276c0.42,0,0.803,0.098,1.145,0.293c0.344,0.195,0.613,0.459,0.809,0.786
			c0.197,0.329,0.295,0.69,0.295,1.081c0,0.804-0.266,1.543-0.799,2.213c-0.531,0.672-1.211,1.33-2.037,1.973h0.467
			c0.635,0,1.068-0.012,1.307-0.033c0.236-0.022,0.422-0.078,0.559-0.167c0.137-0.088,0.289-0.257,0.461-0.509h0.408L126.748,59.615
			z M131.326,59.239c-0.357,0.37-0.774,0.554-1.246,0.554c-0.449,0-0.854-0.17-1.207-0.51c-0.354-0.338-0.631-0.799-0.826-1.378
			c-0.195-0.579-0.291-1.221-0.291-1.921c0-0.674,0.096-1.301,0.291-1.885c0.195-0.582,0.475-1.05,0.83-1.4
			c0.359-0.351,0.77-0.525,1.236-0.525c0.48,0,0.896,0.18,1.246,0.537c0.35,0.358,0.617,0.828,0.799,1.406
			c0.178,0.58,0.27,1.187,0.27,1.821c0,0.644-0.094,1.262-0.281,1.856C131.957,58.389,131.684,58.869,131.326,59.239z
			 M135.807,59.639h-3.379v-0.399c0.354-0.022,0.605-0.058,0.752-0.11c0.148-0.051,0.25-0.149,0.307-0.295
			c0.055-0.143,0.086-0.389,0.094-0.736v-4.594c0-0.215-0.051-0.36-0.15-0.434c-0.1-0.074-0.254-0.109-0.459-0.109
			c-0.103,0-0.273,0.015-0.51,0.043v-0.487c0.229-0.007,0.648-0.035,1.262-0.082c0.613-0.05,1-0.087,1.164-0.116v5.549
			c-0.008,0.42,0.012,0.718,0.059,0.896c0.051,0.178,0.133,0.296,0.25,0.355c0.119,0.059,0.324,0.099,0.611,0.121V59.639z
			 M139.971,54.1c-0.369,0.784-0.701,1.604-0.998,2.465c-0.295,0.861-0.441,1.574-0.441,2.143c0,0.223,0.016,0.398,0.049,0.525
			c0.033,0.131,0.09,0.266,0.172,0.406h-2.148c0.664-1.566,1.199-2.785,1.605-3.66c0.406-0.875,0.854-1.727,1.34-2.555h-1.328
			c-0.377,0-0.674,0.027-0.889,0.08c-0.213,0.051-0.391,0.143-0.535,0.275c-0.145,0.133-0.289,0.34-0.436,0.62l-0.334-0.132
			l0.576-1.94h4.076l0.143,0.122C140.623,52.768,140.34,53.318,139.971,54.1z"/>
		<path style="fill:#FFFFFF;" d="M130.102,52.805c-0.361,0.008-0.605,0.367-0.73,1.08s-0.188,1.431-0.188,2.154
			c0,0.855,0.08,1.609,0.242,2.259c0.156,0.583,0.373,0.874,0.654,0.874c0.266,0,0.473-0.236,0.619-0.708
			C130.9,57.77,131,56.958,131,56.027c0-0.768-0.059-1.498-0.172-2.191C130.713,53.141,130.471,52.798,130.102,52.805z"/>
	</g>
	<line style="fill:none;stroke:#FFFFFF;" x1="116.453" y1="45.3" x2="116.453" y2="67.822"/>
	<line style="fill:none;stroke:#FFFFFF;" x1="35.999" y1="45.3" x2="35.999" y2="67.822"/>
	<g>
		<path style="fill:#FFFFFF;" d="M19.118,56.676c-0.199-0.152-0.465-0.332-0.797-0.537c-0.289,0.185-0.524,0.418-0.709,0.703
			c-0.184,0.283-0.277,0.589-0.277,0.914c0,0.458,0.129,0.812,0.389,1.062c0.258,0.252,0.59,0.377,0.996,0.377
			c0.229,0,0.43-0.06,0.604-0.178c0.174-0.117,0.307-0.268,0.399-0.448c0.091-0.181,0.138-0.355,0.138-0.526
			c0-0.303-0.074-0.568-0.222-0.796C19.491,57.018,19.317,56.828,19.118,56.676z"/>
		<path style="fill:#FFFFFF;" d="M18.292,54.654c0.167,0.127,0.398,0.281,0.693,0.466c0.037-0.03,0.117-0.091,0.238-0.183
			c0.121-0.094,0.246-0.227,0.371-0.398c0.127-0.175,0.188-0.406,0.188-0.693c0-0.361-0.11-0.637-0.326-0.826
			c-0.219-0.188-0.486-0.281-0.804-0.281c-0.303,0-0.539,0.072-0.709,0.215c-0.17,0.147-0.255,0.35-0.255,0.615
			c0,0.237,0.059,0.445,0.178,0.626C17.985,54.377,18.127,54.529,18.292,54.654z"/>
		<path style="fill:#FFFFFF;" d="M1.429,48.086l7.231,8.289l-7.231,7.837h34.569V48.086H1.429z M16.216,59.639h-3.378v-0.399
			c0.355-0.022,0.605-0.058,0.753-0.11c0.148-0.051,0.25-0.149,0.306-0.295c0.055-0.143,0.086-0.389,0.094-0.736v-4.594
			c0-0.215-0.051-0.36-0.149-0.434c-0.101-0.074-0.253-0.109-0.46-0.109c-0.104,0-0.273,0.015-0.51,0.043v-0.487
			c0.228-0.007,0.649-0.035,1.262-0.082c0.614-0.05,1.002-0.087,1.164-0.116v5.549c-0.008,0.42,0.012,0.718,0.06,0.896
			c0.049,0.178,0.131,0.296,0.248,0.355c0.119,0.059,0.322,0.099,0.61,0.121V59.639z M20.647,58.646
			c-0.199,0.343-0.476,0.619-0.826,0.826c-0.35,0.206-0.751,0.309-1.201,0.309c-0.414,0-0.795-0.086-1.146-0.26
			c-0.352-0.172-0.629-0.411-0.836-0.713c-0.207-0.303-0.31-0.64-0.31-1.008c0-0.246,0.053-0.492,0.155-0.743
			c0.259-0.583,0.675-1.005,1.251-1.263c-0.258-0.178-0.465-0.336-0.619-0.476c-0.156-0.141-0.285-0.312-0.389-0.515
			c-0.104-0.204-0.153-0.444-0.153-0.726c0-0.361,0.096-0.688,0.287-0.978c0.192-0.292,0.454-0.523,0.787-0.693
			c0.331-0.17,0.7-0.254,1.106-0.254c0.414,0,0.768,0.077,1.064,0.232c0.296,0.154,0.519,0.354,0.67,0.598
			c0.151,0.242,0.227,0.502,0.227,0.774c0,0.724-0.396,1.288-1.185,1.695c0.414,0.257,0.753,0.542,1.02,0.853
			c0.266,0.311,0.398,0.724,0.398,1.24C20.946,57.938,20.845,58.303,20.647,58.646z M24.545,59.639h-3.379v-0.399
			c0.354-0.022,0.605-0.058,0.754-0.11c0.146-0.051,0.249-0.149,0.305-0.295c0.056-0.143,0.086-0.389,0.093-0.736v-4.594
			c0-0.215-0.05-0.36-0.149-0.434c-0.099-0.074-0.253-0.109-0.46-0.109c-0.103,0-0.273,0.015-0.51,0.043v-0.487
			c0.229-0.007,0.65-0.035,1.263-0.082c0.612-0.05,1.001-0.087,1.163-0.116v5.549c-0.008,0.42,0.013,0.718,0.062,0.896
			c0.047,0.178,0.131,0.296,0.249,0.355c0.117,0.059,0.321,0.099,0.609,0.121V59.639z M28.709,54.1
			c-0.37,0.784-0.703,1.604-0.998,2.465c-0.295,0.861-0.442,1.574-0.442,2.143c0,0.223,0.016,0.398,0.05,0.525
			c0.032,0.131,0.091,0.266,0.172,0.406h-2.148c0.663-1.566,1.199-2.785,1.605-3.66c0.406-0.875,0.853-1.727,1.34-2.555h-1.329
			c-0.376,0-0.672,0.027-0.886,0.08c-0.214,0.051-0.394,0.143-0.537,0.275c-0.145,0.133-0.29,0.34-0.438,0.62l-0.332-0.132
			l0.576-1.94h4.074l0.145,0.122C29.362,52.768,29.079,53.318,28.709,54.1z"/>
	</g>
</g>
</svg>
