<svg xmlns="http://www.w3.org/2000/svg" viewBox="0 0 68.9 59.6"><path fill="#FFCF01" d="M34.4 26.9l-9.3-12.8v9.3h3.7v9.1H11.6v-9.1h3.5V9.1h-3.5V0h13.5l9.3 12.8L43.7 0h13.4v9.1h-3.5v14.3h3.5v9.1H40v-9.1h3.7v-9.3l-9.3 12.8z"/><path fill="#FFF" d="M63.6 59.6v-.2c.2 0 .4 0 .4-.2V59l-.1-.3h-1.2l-.1.3v.2c0 .2.3.3.5.3v.2h-1.4v-.2c.4 0 .5-.1.6-.4l.9-2.5-.2-.2c.4-.1.5-.2.7-.3.1.2.1.3.1.5l.8 2.3c.1.4.2.5.6.5v.2h-1.6zm-.4-2.7l-.5 1.4h1l-.5-1.4zm-11.8 2c-.2.2-.5.8-1.4.8-1 0-1.7-.8-1.7-1.7 0-.9.6-1.8 1.7-1.8.6 0 .9.3 1.1.4l.2-.2v1h-.2c-.1-.2-.1-.4-.4-.6-.1-.1-.4-.3-.7-.3-.6 0-1.1.5-1.1 1.4 0 .7.4 1.4 1.2 1.4.6 0 .8-.3 1-.6l.3.2zm.6.7v-.2c.4 0 .4-.1.4-.4V57.2v-.5c0-.2-.1-.2-.4-.3v-.2h1.5v.2c-.3 0-.4 0-.4.2v1.1h1.6v-.6c0-.6 0-.6-.5-.7v-.2h1.5v.2c-.4 0-.4.1-.4.7V59.2c0 .2.1.2.4.2v.2h-1.5v-.2c.3 0 .4 0 .5-.3V58h-1.6v.6c0 .7 0 .7.5.8v.2H52zm4.2 0v-.2c.3 0 .4-.1.4-.4V57.2c0-.7 0-.7-.4-.8v-.2h1.4v.2c-.4 0-.4.1-.4.8v2c0 .2.1.3.4.3v.2h-1.4v-.1zm-9.7 0v-.2c.3 0 .4-.1.4-.4V57.2c0-.7 0-.7-.4-.8v-.2h1.4v.2c-.4 0-.4.1-.4.8v2c0 .2.1.3.4.3v.2h-1.4v-.1zm-2.1 0v-.2c.4 0 .4 0 .4-.7V57l-1.2 2.6h-.3l-1-2.6v2c0 .3 0 .4.4.4v.2h-1.2v-.2c.3 0 .4-.1.4-.3v-2-.4c0-.3-.1-.4-.4-.4v-.2h1.1l1.1 2.6 1.2-2.6h1v.2c-.4 0-.4.1-.4.6V59c0 .2.1.3.4.3v.2h-1.5v.1zm21 0v-.2c.3 0 .4 0 .4-.2s.1-2.2.1-2.6c-.2-.2-.3-.2-.5-.2v-.2h1c.3.4.3.5.8 1.1l.9 1.2V57c0-.5 0-.6-.6-.6v-.2h1.3v.2c-.4 0-.4.1-.4.6v2.6h-.2l-.2-.3c-.2-.2-.3-.4-.5-.6L66.2 57v1.8c0 .5 0 .6.6.6v.2h-1.4zm-28.3-1.7c0 1.2-.8 1.8-1.7 1.8-1 0-1.8-.7-1.8-1.8 0-.9.6-1.8 1.7-1.8 1 .1 1.8.8 1.8 1.8zm-1.7 1.5c.2 0 .5-.1.7-.4.2-.4.3-.7.3-1.1 0-.4-.1-.8-.4-1.1-.1-.1-.3-.3-.6-.3s-.5.2-.6.3c-.2.3-.4.7-.4 1.1 0 .4.1.8.3 1.1.2.3.5.4.7.4zm2 0v.2h1.4v-.2c-.4 0-.4-.1-.4-.4v-1h.4c.4 0 .6 0 .6.4h.2v-1.1h-.2c0 .4-.1.4-.5.4h-.4v-1.2h.4c.7 0 .9 0 1 .5h.2l-.1-.8h-2.5v.2c.2 0 .4 0 .4.2V59c-.1.4-.1.4-.5.4zm-29.2.2v-.2c.3 0 .4-.1.4-.4V57.2c0-.7 0-.7-.4-.8v-.2h1.4v.2c-.4 0-.4.1-.4.8v2c0 .2.1.2.4.3v.2H8.2v-.1zm15 0v-.2c.3 0 .4-.1.4-.4V57.2c0-.7 0-.7-.4-.8v-.2h1.4v.2c-.4 0-.4.1-.4.8v2c0 .2.1.2.4.3v.2h-1.4v-.1zm-19.1 0v-.2c.3 0 .4 0 .4-.2s.1-2.2.1-2.6c-.2-.2-.3-.2-.5-.2v-.2h1c.3.4.3.5.8 1.1l.9 1.2V57c0-.5 0-.6-.6-.6v-.2h1.3v.2c-.4 0-.4.1-.4.6L7 59.6h.1l-.3-.4c-.2-.2-.3-.4-.5-.6L4.9 57v1.8c0 .5 0 .6.6.6v.2H4.1zm16.3-1.1h.2c.2.6.5.9 1 .9.4 0 .7-.2.7-.5 0-.4-.4-.5-.5-.6-.1 0-.3-.1-.4-.1-.3-.1-.8-.3-.8-1 0-.6.5-1 1.1-1 .2 0 .5 0 .8.2l.2-.2.1 1h-.2c-.1-.2-.1-.3-.2-.5-.2-.2-.4-.3-.7-.3-.4 0-.6.2-.6.4 0 .4.4.5.8.7.2.1.4.1.5.2.3.2.5.5.5.9 0 .6-.5 1.1-1.2 1.1-.5 0-.7-.2-.9-.3l-.3-.2-.1-.7zm5.6 1.1v-.1c.3 0 .4-.1.4-.4v-2.5H26c-.4 0-.6 0-.7.6h-.2v-1h3.1v1H28c0-.6-.3-.6-.7-.6H27v2.5c0 .3.1.4.4.4v.1H26zM1.5 56.2v.2c-.4 0-.4.1-.5.8v.8c0 .4 0 .8.2 1.1.2.3.5.3.6.3.5 0 .8-.2.9-.7.1-.3.1-.9.1-1.3v-.6c0-.3-.2-.3-.5-.3v-.2h1.3v.2c-.3 0-.4.1-.4.4v1.2c0 .3 0 .5-.1.8-.2.9-1.1 1-1.4 1-.2 0-.6 0-.9-.2-.5-.3-.5-.9-.5-1.4v-.8-.6c0-.2-.1-.3-.4-.3v-.2h1.6v-.2zm12.1 0v.2c-.3.1-.4.1-.6.8l-1 2.5h-.2l-.9-2.5c-.2-.6-.3-.7-.6-.8v-.2h1.6v.2c-.3 0-.4 0-.4.2 0 .1 0 .2.1.5l.6 1.7.7-1.8c0-.1.1-.3.1-.4 0-.2-.2-.3-.5-.3v-.2h1.1v.1zm16 3.4v-.2c.3 0 .4 0 .4-.1.1-.1.1-.2.1-.5v-.6l-.9-1.4c-.2-.4-.3-.4-.6-.4v-.2h1.8v.2c-.4 0-.5 0-.5.2 0 .1.1.2.1.3l.5.8.5-.8c.1-.2.1-.3.1-.3 0-.2-.1-.2-.4-.2v-.2H32v.2c-.3 0-.4.1-.8.7l-.4.9v.7c0 .6 0 .7.5.7v.2h-1.7zm-13.1 0c0-.2 0-.6.1-.9h-.2c-.1.6-.5.6-.9.6-.5 0-.5-.1-.5-.3v-1h.4c.4 0 .5 0 .5.4h.2v-1.1h-.2c0 .3-.1.4-.5.4H15v-1.2h.4c.6 0 .8 0 .9.5h.2v-.8h-2.4v.2c.2 0 .4 0 .4.2V59c0 .4-.1.4-.4.4v.2h2.4zm44.9-1.5v.2c-.3 0-.3.1-.3.8v.3c-.3.2-.6.4-1.3.4-1.2 0-1.7-.9-1.7-1.8 0-1.1.7-1.8 1.7-1.8.6 0 .9.2 1.2.4l.2-.2v1.1h-.1c-.1-.2-.2-.4-.4-.7-.1-.1-.3-.2-.7-.2-.6 0-1.1.5-1.1 1.5 0 .8.4 1.4 1 1.4.4 0 .6-.3.6-.3.1-.1.1-.2.1-.3 0-.4-.1-.4-.4-.5v-.2h1.2v-.1zM18 57.8h.3c.4 0 .7-.3.7-.6 0-.4-.2-.7-.8-.7H18v1.3zm0 .7c0 .8 0 .9.4.9v.2H17v-.2c.4 0 .4-.1.4-.5v-1.6-.7c0-.2-.1-.2-.4-.2v-.2h1.5c.8 0 1.1.4 1.1.9 0 .3-.2.8-.7.9l.6 1c.2.4.3.5.6.5v.1h-.2c-.6 0-.9-.2-1.2-.8l-.2-.4c-.2-.4-.3-.4-.6-.4l.1.5zm41.8-5.9"/><g><g fill="#FFF"><path d="M14.7 43.6v-6.5h2.2l1 4.4 1.1-4.4h2.1v6.5h-1.3v-5l-1.3 5h-1.3l-1.2-5v5h-1.3zM22.3 43.6v-6.5h1.4v6.5h-1.4zM24.7 40.3c0-1.7 0-3.4 2.2-3.4 1.4 0 1.9.8 1.9 2.2h-1.3c0-.9-.2-1.2-.6-1.2-.8 0-.9.7-.9 2.4s.1 2.4.9 2.4c.6 0 .6-.8.6-1.3h1.3c0 1.7-.7 2.3-2 2.3-2.1 0-2.1-1.7-2.1-3.4zM32.7 39.7v-2.6h1.4v6.5h-1.4v-2.9h-1.6v2.9h-1.4v-6.5h1.4v2.6h1.6zM35.3 43.6v-6.5h1.4v6.5h-1.4zM40.7 39.1c0-.6-.1-1.1-.8-1.1-.8 0-.8 1.1-.8 2.4 0 2 .2 2.4 1 2.4.2 0 .5-.1.7-.1v-1.4H40v-1h2.1v3.3c-.4.1-1.3.2-1.8.2-2.3 0-2.5-.9-2.5-3.4 0-1.6.1-3.3 2.3-3.3 1.3 0 2.2.7 2.1 2.1h-1.5zM42.8 43.6l1.8-6.5h1.8l1.8 6.5h-1.4l-.4-1.4h-1.9l-.4 1.4h-1.3zm2.6-5.3l-.6 2.8h1.3l-.7-2.8zM48.8 43.6v-6.5h1.8l1.7 4.5v-4.5h1.3v6.5h-1.8L50 38.8v4.8h-1.2zM8.5 52.6v-6.5H12v1H9.9v1.6h2v1h-2v1.9h2.3v1H8.5zM13 52.6v-6.5h1.8l1.7 4.5v-4.5h1.3v6.5H16l-1.8-4.8v4.8H13zM22 48.1c0-.6-.1-1.1-.8-1.1-.8 0-.8 1.1-.8 2.4 0 2 .2 2.4 1 2.4.2 0 .5-.1.7-.1v-1.4h-.7v-1h2.1v3.3c-.4.1-1.3.2-1.8.2-2.3 0-2.5-.9-2.5-3.4 0-1.6.1-3.3 2.3-3.3 1.3 0 2.2.7 2.1 2.1H22zM24.5 52.6v-6.5h1.4v6.5h-1.4zM27 52.6v-6.5h1.8l1.7 4.5v-4.5h1.3v6.5H30l-1.8-4.8v4.8H27zM33 52.6v-6.5h3.5v1h-2.2v1.6h2v1h-2v1.9h2.3v1H33zM37.5 52.6v-6.5H41v1h-2.2v1.6h2v1h-2v1.9h2.3v1h-3.6zM43.4 52.6H42v-6.5h2.5c.9 0 1.5.6 1.5 1.7 0 .8-.3 1.4-1.2 1.6.3 0 1.2.1 1.2 1.3 0 .4 0 1.6.2 1.9h-1.3c-.2-.4-.1-.8-.1-1.3 0-.8.1-1.4-1-1.4h-.4v2.7zm0-3.7h.6c.5 0 .7-.5.7-1 0-.6-.3-.9-.7-.9h-.6v1.9zM47 52.6v-6.5h1.4v6.5H47zM49.5 52.6v-6.5h1.8l1.7 4.5v-4.5h1.3v6.5h-1.8l-1.8-4.8v4.8h-1.2zM58.5 48.1c0-.6-.1-1.1-.8-1.1-.8 0-.8 1.1-.8 2.4 0 2 .2 2.4 1 2.4.2 0 .5-.1.7-.1v-1.4h-.7v-1H60v3.3c-.4.1-1.3.2-1.8.2-2.3 0-2.5-.9-2.5-3.4 0-1.6.1-3.3 2.3-3.3 1.3 0 2.2.7 2.1 2.1h-1.6z"/></g></g></svg>