<?xml version="1.0" encoding="utf-8"?>
<!-- Generator: Adobe Illustrator 20.0.0, SVG Export Plug-In . SVG Version: 6.00 Build 0)  -->
<svg version="1.1" xmlns="http://www.w3.org/2000/svg" xmlns:xlink="http://www.w3.org/1999/xlink" x="0px" y="0px"
	 viewBox="0 0 68.9 59.6" enable-background="new 0 0 68.9 59.6" xml:space="preserve">
<g id="Master_M_and_U-M_line">
	<polygon fill="#FFCF01" points="34.4,26.9 25.1,14.1 25.1,23.4 28.8,23.4 28.8,32.5 11.6,32.5 11.6,23.4 15.1,23.4 15.1,9.1 
		11.6,9.1 11.6,0 25.1,0 34.4,12.8 43.7,0 57.1,0 57.1,9.1 53.6,9.1 53.6,23.4 57.1,23.4 57.1,32.5 40,32.5 40,23.4 43.7,23.4 
		43.7,14.1 34.4,26.9 	"/>
	<path fill="#FFFFFF" d="M45.7,38.5 M63.6,59.6v-0.2c0.2,0,0.4,0,0.4-0.2c0-0.1,0-0.1,0-0.2l-0.1-0.3h-1.2l-0.1,0.3
		c0,0.1,0,0.1,0,0.2c0,0.2,0.3,0.3,0.5,0.3v0.2h-1.4v-0.2c0.4,0,0.5-0.1,0.6-0.4l0.9-2.5L63,56.4c0.4-0.1,0.5-0.2,0.7-0.3
		c0.1,0.2,0.1,0.3,0.1,0.5l0.8,2.3c0.1,0.4,0.2,0.5,0.6,0.5v0.2H63.6L63.6,59.6z M63.2,56.9l-0.5,1.4h1L63.2,56.9L63.2,56.9z
		 M51.4,58.9c-0.2,0.2-0.5,0.8-1.4,0.8c-1,0-1.7-0.8-1.7-1.7c0-0.9,0.6-1.8,1.7-1.8c0.6,0,0.9,0.3,1.1,0.4l0.2-0.2l0,1l-0.2,0
		c-0.1-0.2-0.1-0.4-0.4-0.6c-0.1-0.1-0.4-0.3-0.7-0.3c-0.6,0-1.1,0.5-1.1,1.4c0,0.7,0.4,1.4,1.2,1.4c0.6,0,0.8-0.3,1-0.6L51.4,58.9
		L51.4,58.9z M52,59.6v-0.2c0.4,0,0.4-0.1,0.4-0.4c0-0.1,0-0.2,0-0.4v-1.4c0-0.2,0-0.4,0-0.5c0-0.2-0.1-0.2-0.4-0.3v-0.2h1.5v0.2
		c-0.3,0-0.4,0-0.4,0.2c0,0.1,0,0.4,0,0.6v0.5c0.3,0,0.5,0,0.8,0c0.3,0,0.5,0,0.8,0v-0.6c0-0.6,0-0.6-0.5-0.7v-0.2h1.5v0.2
		c-0.4,0-0.4,0.1-0.4,0.7v1.4c0,0.1,0,0.6,0,0.7c0,0.2,0.1,0.2,0.4,0.2v0.2h-1.5v-0.2c0.3,0,0.4,0,0.5-0.3c0-0.1,0-0.2,0-0.5V58
		c-0.3,0-0.5,0-0.8,0c-0.3,0-0.5,0-0.8,0v0.6c0,0.7,0,0.7,0.5,0.8v0.2H52L52,59.6z M56.2,59.6v-0.2c0.3,0,0.4-0.1,0.4-0.4v-0.4v-1.4
		c0-0.7,0-0.7-0.4-0.8v-0.2h1.4v0.2c-0.4,0-0.4,0.1-0.4,0.8v1.4c0,0.1,0,0.5,0,0.6c0,0.2,0.1,0.3,0.4,0.3v0.2H56.2L56.2,59.6z
		 M46.5,59.6v-0.2c0.3,0,0.4-0.1,0.4-0.4v-0.4v-1.4c0-0.7,0-0.7-0.4-0.8v-0.2h1.4v0.2c-0.4,0-0.4,0.1-0.4,0.8v1.4c0,0.1,0,0.5,0,0.6
		c0,0.2,0.1,0.3,0.4,0.3v0.2H46.5L46.5,59.6z M44.4,59.6v-0.2c0.4,0,0.4,0,0.4-0.7V57l-1.2,2.6h-0.3L42.3,57l0,2
		c0,0.3,0,0.4,0.4,0.4v0.2h-1.2v-0.2c0.3,0,0.4-0.1,0.4-0.3c0-0.1,0-0.4,0-0.6l0-1.4c0-0.1,0-0.3,0-0.4c0-0.3-0.1-0.4-0.4-0.4v-0.2
		h1.1l1.1,2.6l1.2-2.6h1v0.2c-0.4,0-0.4,0.1-0.4,0.6v1.4c0,0.2,0,0.5,0,0.7c0,0.2,0.1,0.3,0.4,0.3v0.2H44.4L44.4,59.6z M65.4,59.6
		v-0.2c0.3,0,0.4,0,0.4-0.2c0-0.2,0.1-2.2,0.1-2.6c-0.2-0.2-0.3-0.2-0.5-0.2v-0.2h1c0.3,0.4,0.3,0.5,0.8,1.1l0.9,1.2V57
		c0-0.5,0-0.6-0.6-0.6v-0.2h1.3v0.2c-0.4,0-0.4,0.1-0.4,0.6l0,2.6h-0.2L68,59.3c-0.2-0.2-0.3-0.4-0.5-0.6L66.2,57v1.8
		c0,0.5,0,0.6,0.6,0.6v0.2H65.4L65.4,59.6z M37.1,57.9c0,1.2-0.8,1.8-1.7,1.8c-1,0-1.8-0.7-1.8-1.8c0-0.9,0.6-1.8,1.7-1.8
		C36.3,56.2,37.1,56.9,37.1,57.9L37.1,57.9z M35.4,59.4c0.2,0,0.5-0.1,0.7-0.4c0.2-0.4,0.3-0.7,0.3-1.1c0-0.4-0.1-0.8-0.4-1.1
		c-0.1-0.1-0.3-0.3-0.6-0.3c-0.3,0-0.5,0.2-0.6,0.3c-0.2,0.3-0.4,0.7-0.4,1.1c0,0.4,0.1,0.8,0.3,1.1C34.9,59.3,35.2,59.4,35.4,59.4
		L35.4,59.4z M37.4,59.4v0.2h1.4v-0.2c-0.4,0-0.4-0.1-0.4-0.4l0-1h0.4c0.4,0,0.6,0,0.6,0.4h0.2v-1.1h-0.2c0,0.4-0.1,0.4-0.5,0.4
		h-0.4v-1.2c0.1,0,0.2,0,0.4,0c0.7,0,0.9,0,1,0.5h0.2l-0.1-0.8h-2.5v0.2c0.2,0,0.4,0,0.4,0.2c0,0.1,0,0.5,0,0.6v1.2
		c0,0.1,0,0.5,0,0.6C37.8,59.4,37.8,59.4,37.4,59.4L37.4,59.4z M8.2,59.6v-0.2c0.3,0,0.4-0.1,0.4-0.4v-0.4v-1.4c0-0.7,0-0.7-0.4-0.8
		v-0.2h1.4v0.2c-0.4,0-0.4,0.1-0.4,0.8v1.4c0,0.1,0,0.5,0,0.6c0,0.2,0.1,0.2,0.4,0.3v0.2H8.2L8.2,59.6z M23.2,59.6v-0.2
		c0.3,0,0.4-0.1,0.4-0.4v-0.4v-1.4c0-0.7,0-0.7-0.4-0.8v-0.2h1.4v0.2c-0.4,0-0.4,0.1-0.4,0.8v1.4c0,0.1,0,0.5,0,0.6
		c0,0.2,0.1,0.2,0.4,0.3v0.2H23.2L23.2,59.6z M4.1,59.6v-0.2c0.3,0,0.4,0,0.4-0.2c0-0.2,0.1-2.2,0.1-2.6c-0.2-0.2-0.3-0.2-0.5-0.2
		v-0.2h1c0.3,0.4,0.3,0.5,0.8,1.1l0.9,1.2V57c0-0.5,0-0.6-0.6-0.6v-0.2h1.3v0.2c-0.4,0-0.4,0.1-0.4,0.6l-0.1,2.6H7.1l-0.3-0.4
		c-0.2-0.2-0.3-0.4-0.5-0.6L4.9,57v1.8c0,0.5,0,0.6,0.6,0.6v0.2H4.1L4.1,59.6z M20.4,58.5l0.2,0c0.2,0.6,0.5,0.9,1,0.9
		c0.4,0,0.7-0.2,0.7-0.5c0-0.4-0.4-0.5-0.5-0.6c-0.1,0-0.3-0.1-0.4-0.1c-0.3-0.1-0.8-0.3-0.8-1c0-0.6,0.5-1,1.1-1
		c0.2,0,0.5,0,0.8,0.2l0.2-0.2l0.1,1l-0.2,0c-0.1-0.2-0.1-0.3-0.2-0.5c-0.2-0.2-0.4-0.3-0.7-0.3c-0.4,0-0.6,0.2-0.6,0.4
		c0,0.4,0.4,0.5,0.8,0.7c0.2,0.1,0.4,0.1,0.5,0.2c0.3,0.2,0.5,0.5,0.5,0.9c0,0.6-0.5,1.1-1.2,1.1c-0.5,0-0.7-0.2-0.9-0.3l-0.3-0.2
		L20.4,58.5L20.4,58.5z M26,59.6v-0.1c0.3,0,0.4-0.1,0.4-0.4v-2.5h-0.4c-0.4,0-0.6,0-0.7,0.6h-0.2l0-1h3.1l0,1h-0.2
		c0-0.6-0.3-0.6-0.7-0.6H27v2.5c0,0.3,0.1,0.4,0.4,0.4v0.1H26L26,59.6z M1.5,56.2v0.2c-0.4,0-0.4,0.1-0.5,0.8v0.8
		c0,0.4,0,0.8,0.2,1.1c0.2,0.3,0.5,0.3,0.6,0.3c0.5,0,0.8-0.2,0.9-0.7c0.1-0.3,0.1-0.9,0.1-1.3c0-0.1,0-0.5,0-0.6
		c0-0.3-0.2-0.3-0.5-0.3v-0.2h1.3v0.2c-0.3,0-0.4,0.1-0.4,0.4c0,0.1,0,1,0,1.2c0,0.3,0,0.5-0.1,0.8c-0.2,0.9-1.1,1-1.4,1
		c-0.2,0-0.6,0-0.9-0.2c-0.5-0.3-0.5-0.9-0.5-1.4v-0.8c0-0.4,0-0.5,0-0.6c0-0.2-0.1-0.3-0.4-0.3v-0.2H1.5L1.5,56.2z M13.6,56.2v0.2
		c-0.3,0.1-0.4,0.1-0.6,0.8l-1,2.5h-0.2l-0.9-2.5c-0.2-0.6-0.3-0.7-0.6-0.8v-0.2h1.6v0.2c-0.3,0-0.4,0-0.4,0.2c0,0.1,0,0.2,0.1,0.5
		l0.6,1.7l0.7-1.8c0-0.1,0.1-0.3,0.1-0.4c0-0.2-0.2-0.3-0.5-0.3v-0.2H13.6L13.6,56.2z M29.6,59.6v-0.2c0.3,0,0.4,0,0.4-0.1
		c0.1-0.1,0.1-0.2,0.1-0.5v-0.6l-0.9-1.4c-0.2-0.4-0.3-0.4-0.6-0.4v-0.2h1.8v0.2c-0.4,0-0.5,0-0.5,0.2c0,0.1,0.1,0.2,0.1,0.3
		l0.5,0.8l0.5-0.8c0.1-0.2,0.1-0.3,0.1-0.3c0-0.2-0.1-0.2-0.4-0.2v-0.2h1.3v0.2c-0.3,0-0.4,0.1-0.8,0.7L30.8,58v0.7
		c0,0.6,0,0.7,0.5,0.7v0.2H29.6L29.6,59.6z M16.5,59.6c0-0.2,0-0.6,0.1-0.9h-0.2c-0.1,0.6-0.5,0.6-0.9,0.6c-0.5,0-0.5-0.1-0.5-0.3
		v-1h0.4c0.4,0,0.5,0,0.5,0.4h0.2v-1.1h-0.2c0,0.3-0.1,0.4-0.5,0.4h-0.4v-1.2h0.4c0.6,0,0.8,0,0.9,0.5h0.2l0-0.8h-2.4v0.2
		c0.2,0,0.4,0,0.4,0.2c0,0.1,0,0.5,0,0.6v1.2c0,0.1,0,0.5,0,0.6c0,0.4-0.1,0.4-0.4,0.4v0.2H16.5L16.5,59.6z M61.4,58.1v0.2
		c-0.3,0-0.3,0.1-0.3,0.8v0.3c-0.3,0.2-0.6,0.4-1.3,0.4c-1.2,0-1.7-0.9-1.7-1.8c0-1.1,0.7-1.8,1.7-1.8c0.6,0,0.9,0.2,1.2,0.4
		l0.2-0.2l0,1.1l-0.1,0c-0.1-0.2-0.2-0.4-0.4-0.7c-0.1-0.1-0.3-0.2-0.7-0.2c-0.6,0-1.1,0.5-1.1,1.5c0,0.8,0.4,1.4,1,1.4
		c0.4,0,0.6-0.3,0.6-0.3c0.1-0.1,0.1-0.2,0.1-0.3c0-0.4-0.1-0.4-0.4-0.5v-0.2H61.4L61.4,58.1z M18,57.8c0.1,0,0.2,0,0.3,0
		c0.4,0,0.7-0.3,0.7-0.6c0-0.4-0.2-0.7-0.8-0.7c-0.1,0-0.1,0-0.2,0V57.8L18,57.8z M18,58.5c0,0.8,0,0.9,0.4,0.9v0.2H17v-0.2
		c0.4,0,0.4-0.1,0.4-0.5c0-0.1,0-0.3,0-0.4v-1.2c0-0.4,0-0.5,0-0.7c0-0.2-0.1-0.2-0.4-0.2v-0.2l1.5,0c0.8,0,1.1,0.4,1.1,0.9
		c0,0.3-0.2,0.8-0.7,0.9l0.6,1c0.2,0.4,0.3,0.5,0.6,0.5v0.1c-0.1,0-0.1,0-0.2,0c-0.6,0-0.9-0.2-1.2-0.8l-0.2-0.4
		c-0.2-0.4-0.3-0.4-0.6-0.4L18,58.5L18,58.5z M18,58.5 M8.7,52.6 M16.3,52.6 M23.1,52.6 M24.8,52.6 M30.4,52.6 M33.3,52.6
		 M37.8,52.6 M47.4,52.6 M53,52.6 M59.8,52.6"/>
</g>
<g id="CoE">
	<g>
		<path fill="#FFFFFF" d="M14.7,43.6v-6.5h2.2l1,4.4h0l1.1-4.4h2.1v6.5h-1.3v-5h0l-1.3,5h-1.3l-1.2-5h0v5H14.7z"/>
		<path fill="#FFFFFF" d="M22.3,43.6v-6.5h1.4v6.5H22.3z"/>
		<path fill="#FFFFFF" d="M24.7,40.3c0-1.7,0-3.4,2.2-3.4c1.4,0,1.9,0.8,1.9,2.2h-1.3c0-0.9-0.2-1.2-0.6-1.2c-0.8,0-0.9,0.7-0.9,2.4
			c0,1.7,0.1,2.4,0.9,2.4c0.6,0,0.6-0.8,0.6-1.3h1.3c0,1.7-0.7,2.3-2,2.3C24.7,43.7,24.7,42,24.7,40.3z"/>
		<path fill="#FFFFFF" d="M32.7,39.7v-2.6h1.4v6.5h-1.4v-2.9h-1.6v2.9h-1.4v-6.5h1.4v2.6H32.7z"/>
		<path fill="#FFFFFF" d="M35.3,43.6v-6.5h1.4v6.5H35.3z"/>
		<path fill="#FFFFFF" d="M40.7,39.1c0-0.6-0.1-1.1-0.8-1.1c-0.8,0-0.8,1.1-0.8,2.4c0,2,0.2,2.4,1,2.4c0.2,0,0.5-0.1,0.7-0.1v-1.4
			H40v-1h2.1v3.3c-0.4,0.1-1.3,0.2-1.8,0.2c-2.3,0-2.5-0.9-2.5-3.4c0-1.6,0.1-3.3,2.3-3.3c1.3,0,2.2,0.7,2.1,2.1H40.7z"/>
		<path fill="#FFFFFF" d="M42.8,43.6l1.8-6.5h1.8l1.8,6.5h-1.4l-0.4-1.4h-1.9l-0.4,1.4H42.8z M45.4,38.3L45.4,38.3l-0.6,2.8h1.3
			L45.4,38.3z"/>
		<path fill="#FFFFFF" d="M48.8,43.6v-6.5h1.8l1.7,4.5h0v-4.5h1.3v6.5h-1.8l-1.8-4.8h0v4.8H48.8z"/>
		<path fill="#FFFFFF" d="M8.5,52.6v-6.5h3.5v1H9.9v1.6h2v1h-2v1.9h2.3v1H8.5z"/>
		<path fill="#FFFFFF" d="M13,52.6v-6.5h1.8l1.7,4.5h0v-4.5h1.3v6.5h-1.8l-1.8-4.8h0v4.8H13z"/>
		<path fill="#FFFFFF" d="M22,48.1c0-0.6-0.1-1.1-0.8-1.1c-0.8,0-0.8,1.1-0.8,2.4c0,2,0.2,2.4,1,2.4c0.2,0,0.5-0.1,0.7-0.1v-1.4
			h-0.7v-1h2.1v3.3c-0.4,0.1-1.3,0.2-1.8,0.2c-2.3,0-2.5-0.9-2.5-3.4c0-1.6,0.1-3.3,2.3-3.3c1.3,0,2.2,0.7,2.1,2.1H22z"/>
		<path fill="#FFFFFF" d="M24.5,52.6v-6.5h1.4v6.5H24.5z"/>
		<path fill="#FFFFFF" d="M27,52.6v-6.5h1.8l1.7,4.5h0v-4.5h1.3v6.5h-1.8l-1.8-4.8h0v4.8H27z"/>
		<path fill="#FFFFFF" d="M33,52.6v-6.5h3.5v1h-2.2v1.6h2v1h-2v1.9h2.3v1H33z"/>
		<path fill="#FFFFFF" d="M37.5,52.6v-6.5h3.5v1h-2.2v1.6h2v1h-2v1.9h2.3v1H37.5z"/>
		<path fill="#FFFFFF" d="M43.4,52.6H42v-6.5h2.5c0.9,0,1.5,0.6,1.5,1.7c0,0.8-0.3,1.4-1.2,1.6v0c0.3,0,1.2,0.1,1.2,1.3
			c0,0.4,0,1.6,0.2,1.9h-1.3c-0.2-0.4-0.1-0.8-0.1-1.3c0-0.8,0.1-1.4-1-1.4h-0.4V52.6z M43.4,48.9H44c0.5,0,0.7-0.5,0.7-1
			c0-0.6-0.3-0.9-0.7-0.9h-0.6V48.9z"/>
		<path fill="#FFFFFF" d="M47,52.6v-6.5h1.4v6.5H47z"/>
		<path fill="#FFFFFF" d="M49.5,52.6v-6.5h1.8l1.7,4.5h0v-4.5h1.3v6.5h-1.8l-1.8-4.8h0v4.8H49.5z"/>
		<path fill="#FFFFFF" d="M58.5,48.1c0-0.6-0.1-1.1-0.8-1.1c-0.8,0-0.8,1.1-0.8,2.4c0,2,0.2,2.4,1,2.4c0.2,0,0.5-0.1,0.7-0.1v-1.4
			h-0.7v-1h2.1v3.3c-0.4,0.1-1.3,0.2-1.8,0.2c-2.3,0-2.5-0.9-2.5-3.4c0-1.6,0.1-3.3,2.3-3.3c1.3,0,2.2,0.7,2.1,2.1H58.5z"/>
	</g>
</g>
</svg>
