<svg xmlns="http://www.w3.org/2000/svg" viewBox="0 0 444.752 39.046"><font horiz-adv-x="1000"><font-face font-family="Univers-CondensedLight" underline-position="-100" underline-thickness="50"/><glyph unicode="A" horiz-adv-x="556" d="M241 722L13 0h64l57 190h283L475 0h67L317 722M153 244l122 408h2l123-408z"/><glyph unicode="Æ" horiz-adv-x="778" d="M79 0l87 190h259L441 0h301v54H501l-25 290h243v54H471l-26 270h286v54H344L13 0m367 674h2l38-430H191z"/><glyph unicode="Á" horiz-adv-x="556" d="M241 722L13 0h64l57 190h283L475 0h67L317 722M153 244l122 408h2l123-408M214 777h50l143 137h-80z"/><glyph unicode="Â" horiz-adv-x="556" d="M241 722L13 0h64l57 190h283L475 0h67L317 722M153 244l122 408h2l123-408M278 877l83-102h64L312 914h-67L132 775h64z"/><glyph unicode="Ä" horiz-adv-x="556" d="M241 722L13 0h64l57 190h283L475 0h67L317 722M153 244l122 408h2l123-408M167 788h64v101h-64m158-101h64v101h-64z"/><glyph unicode="À" horiz-adv-x="556" d="M241 722L13 0h64l57 190h283L475 0h67L317 722M153 244l122 408h2l123-408m-58 533L229 914h-80l143-137z"/><glyph unicode="Å" horiz-adv-x="556" d="M241 722L13 0h64l57 190h283L475 0h67L317 722M153 244l122 408h2l123-408M278 953c-51 0-93-42-93-93s42-94 93-94 92 43 92 94-41 93-92 93m0-35c31 0 57-27 57-58 0-30-27-59-57-59-31 0-58 29-58 59 0 32 26 58 58 58z"/><glyph unicode="Ã" horiz-adv-x="556" d="M241 722L13 0h64l57 190h283L475 0h67L317 722M153 244l122 408h2l123-408M160 812c3 23 20 54 46 54 22 0 45-15 70-27 25-11 51-27 76-27 26 0 46 14 59 34 14 20 22 46 23 68h-38c-3-25-16-54-44-54-20 0-43 15-68 27-24 11-50 27-74 27-26 0-47-14-62-33-15-20-23-45-26-69z"/><glyph unicode="B" horiz-adv-x="500" d="M132 401v267h127c51 0 117-2 117-122 0-82-29-145-121-145M272 0c121 0 183 71 183 201 0 91-25 154-120 174v2c91 25 105 85 105 172 0 127-58 173-171 173H68V0m64 347h130c110 0 129-87 129-151 0-106-51-142-157-142H132z"/><glyph unicode="C" horiz-adv-x="500" d="M275-14c171 0 183 169 183 221h-68c-1-93-32-167-115-167-152 0-154 129-154 321s2 321 154 321c92 0 114-75 114-155h64c0 65-3 209-178 209C59 736 57 556 57 361S59-14 275-14z"/><glyph unicode="Ç" horiz-adv-x="500" d="M453 527c0 65-3 209-178 209C59 736 57 556 57 361c0-181 2-348 173-372l-53-71 20-15c9 6 23 10 38 10 24 0 49-12 49-39 0-34-36-46-64-46-22 0-43 7-64 14l-15-30c28-11 58-19 89-19 59 0 114 17 114 82 0 47-39 73-78 73-11 0-24-3-30-5l-2 2 31 42c3-1 6-1 10-1 171 0 183 169 183 221h-68c-1-93-32-167-115-167-152 0-154 129-154 321s2 321 154 321c92 0 114-75 114-155z"/><glyph unicode="D" horiz-adv-x="556" d="M139 668h84c178 0 206-60 206-267 0-295-19-347-212-347h-78M75 0h165c218 0 253 118 253 358 0 246-25 364-227 364H75z"/><glyph unicode="E" horiz-adv-x="444" d="M75 722V0h334v54H139v290h251v54H139v270h263v54z"/><glyph unicode="É" horiz-adv-x="444" d="M75 722V0h334v54H139v290h251v54H139v270h263v54m-244 55h50l143 137h-80z"/><glyph unicode="Ê" horiz-adv-x="444" d="M75 722V0h334v54H139v290h251v54H139v270h263v54M222 877l83-102h64L256 914h-67L76 775h64z"/><glyph unicode="Ë" horiz-adv-x="444" d="M75 722V0h334v54H139v290h251v54H139v270h263v54m-291 66h64v101h-64m158-101h64v101h-64z"/><glyph unicode="È" horiz-adv-x="444" d="M75 722V0h334v54H139v290h251v54H139v270h263v54m-116 55L173 914H93l143-137z"/><glyph unicode="Ð" horiz-adv-x="556" d="M75 0h165c218 0 253 118 253 358 0 246-25 364-227 364H75V424H14v-54h61m64 298h84c178 0 206-60 206-267 0-295-19-347-212-347h-78v316h152v54H139z"/><glyph unicode="F" horiz-adv-x="389" d="M68 0h64v344h224v54H132v270h241v54H68z"/><glyph unicode="G" horiz-adv-x="556" d="M413 61c-34-13-80-21-135-21-156 0-154 139-154 321s-2 321 154 321c101 0 142-50 142-145h64c3 140-68 199-206 199C43 736 60 501 60 361S43-14 278-14c68 0 135 10 199 30v361H267v-54h146z"/><glyph unicode="H" horiz-adv-x="556" d="M136 0v344h284V0h64v722h-64V398H136v324H72V0z"/><glyph unicode="I" horiz-adv-x="222" d="M79 722V0h64v722z"/><glyph unicode="Í" horiz-adv-x="222" d="M79 722V0h64v722m-96 55h50l143 137h-80z"/><glyph unicode="Î" horiz-adv-x="222" d="M79 722V0h64v722m-32 155l83-102h64L145 914H78L-35 775h64z"/><glyph unicode="Ï" horiz-adv-x="222" d="M79 722V0h64v722M0 788h64v101H0m158-101h64v101h-64z"/><glyph unicode="Ì" horiz-adv-x="222" d="M79 722V0h64v722m32 55L62 914h-80l143-137z"/><glyph unicode="J" horiz-adv-x="444" d="M22 204C22 100 36-14 194-14c22 0 176 0 176 170v566h-64V165c0-95-52-125-111-125C94 40 86 124 86 204z"/><glyph unicode="K" horiz-adv-x="500" d="M142 0v370h2L405 0h80L207 385l270 337h-77L144 391h-2v331H78V0z"/><glyph unicode="L" horiz-adv-x="389" d="M370 0v54H131v668H67V0z"/><glyph unicode="Ł" horiz-adv-x="389" d="M67 0h303v54H131v357l119 69-20 35-99-57v264H67V421l-97-56 20-35 77 44z"/><glyph unicode="M" horiz-adv-x="778" d="M135 0v660h2L355 0h74l212 660h2V0h64v722H605L395 70h-2L180 722H71V0z"/><glyph unicode="N" horiz-adv-x="611" d="M141 0v639l2 2L437 0h97v722h-64V90l-2-2-293 634H77V0z"/><glyph unicode="Ñ" horiz-adv-x="611" d="M141 0v639l2 2L437 0h97v722h-64V90l-2-2-293 634H77V0m111 812c3 23 20 54 46 54 22 0 45-15 70-27 25-11 51-27 76-27 26 0 46 14 59 34 14 20 22 46 23 68h-38c-3-25-16-54-44-54-20 0-43 15-68 27-24 11-50 27-74 27-26 0-47-14-62-33-15-20-23-45-26-69z"/><glyph unicode="O" horiz-adv-x="556" d="M124 361c0 192 2 321 154 321s154-129 154-321-2-321-154-321-154 129-154 321m-64 0c0-195 2-375 218-375s218 180 218 375-2 375-218 375S60 556 60 361z"/><glyph unicode="Œ" horiz-adv-x="778" d="M407 53c-26-1-51-3-77-3-196 0-203 106-203 308 0 214 9 314 173 314 42 0 85-6 107-8m64 4h260v54H407c-5 0-25 1-48 2s-49 2-65 2C46 726 63 514 63 361 63 132 64-4 312-4c21 0 37 1 52 2 14 1 28 2 43 2h331v54H471v290h249v54H471z"/><glyph unicode="Ó" horiz-adv-x="556" d="M124 361c0 192 2 321 154 321s154-129 154-321-2-321-154-321-154 129-154 321m-64 0c0-195 2-375 218-375s218 180 218 375-2 375-218 375S60 556 60 361m154 416h50l143 137h-80z"/><glyph unicode="Ô" horiz-adv-x="556" d="M124 361c0 192 2 321 154 321s154-129 154-321-2-321-154-321-154 129-154 321m-64 0c0-195 2-375 218-375s218 180 218 375-2 375-218 375S60 556 60 361m218 516l83-102h64L312 914h-67L132 775h64z"/><glyph unicode="Ö" horiz-adv-x="556" d="M124 361c0 192 2 321 154 321s154-129 154-321-2-321-154-321-154 129-154 321m-64 0c0-195 2-375 218-375s218 180 218 375-2 375-218 375S60 556 60 361m107 427h64v101h-64m158-101h64v101h-64z"/><glyph unicode="Ò" horiz-adv-x="556" d="M124 361c0 192 2 321 154 321s154-129 154-321-2-321-154-321-154 129-154 321m-64 0c0-195 2-375 218-375s218 180 218 375-2 375-218 375S60 556 60 361m282 416L229 914h-80l143-137z"/><glyph unicode="Ø" horiz-adv-x="556" d="M137 152c-14 55-13 128-13 209 0 182-2 321 154 321 63 0 101-23 122-63m18-49c14-55 14-128 14-209 0-182 2-321-154-321-64 0-101 23-122 63m-33-58c33-36 82-59 155-59 235 0 218 235 218 375 0 83 6 200-38 280l54 97-33 21-46-82c-34 36-82 59-155 59C43 736 60 501 60 361c0-83-6-199 38-279L44-13l37-18z"/><glyph unicode="Õ" horiz-adv-x="556" d="M124 361c0 192 2 321 154 321s154-129 154-321-2-321-154-321-154 129-154 321m-64 0c0-195 2-375 218-375s218 180 218 375-2 375-218 375S60 556 60 361m100 451c3 23 20 54 46 54 22 0 45-15 70-27 25-11 51-27 76-27 26 0 46 14 59 34 14 20 22 46 23 68h-38c-3-25-16-54-44-54-20 0-43 15-68 27-24 11-50 27-74 27-26 0-47-14-62-33-15-20-23-45-26-69z"/><glyph unicode="P" horiz-adv-x="444" d="M64 0h64v336h122c124 0 171 66 171 211 0 167-99 175-159 175H64m64-54h118c58 0 111-10 111-133 0-113-43-145-110-145H128z"/><glyph unicode="Q" horiz-adv-x="556" d="M278 50c-140 0-154 103-154 311 0 182-2 321 154 321s154-139 154-321c0-183-18-311-154-311M60 361C60 132 61-4 309-4c21 0 37 1 52 2 14 1 28 2 43 2h138v54H416l-2 2c67 44 82 116 82 305 0 140 17 375-218 375S60 501 60 361z"/><glyph unicode="R" horiz-adv-x="500" d="M253 350c139 0 118-139 119-170 1-39 4-159 10-180h61c-2 28-7 56-7 84 0 258-6 270-107 291v2c97 22 112 82 112 172 0 127-35 173-174 173H68V0h64v350m0 318h131c75 0 114-19 114-118 0-121-45-146-141-146H132z"/><glyph unicode="S" horiz-adv-x="500" d="M443 539c0 104-32 197-182 197-118 0-197-52-196-177 1-72 7-115 147-201 104-64 169-92 169-190 0-83-41-128-125-128-129 0-135 83-135 163H55C49 62 112-14 253-14c126 0 192 63 192 192 0 140-91 159-180 223-82 59-136 62-136 169 0 85 49 112 127 112 98 0 120-54 122-143z"/><glyph unicode="Š" horiz-adv-x="500" d="M443 539c0 104-32 197-182 197-118 0-197-52-196-177 1-72 7-115 147-201 104-64 169-92 169-190 0-83-41-128-125-128-129 0-135 83-135 163H55C49 62 112-14 253-14c126 0 192 63 192 192 0 140-91 159-180 223-82 59-136 62-136 169 0 85 49 112 127 112 98 0 120-54 122-143M251 812l-83 102h-64l113-139h67l113 139h-64z"/><glyph unicode="T" horiz-adv-x="444" d="M190 0h64v668h176v54H14v-54h176z"/><glyph unicode="Þ" horiz-adv-x="444" d="M64 0h64v172h122c124 0 171 66 171 211 0 167-99 175-159 175H128v164H64m64-218h118c58 0 111-10 111-133 0-113-43-145-110-145H128z"/><glyph unicode="U" horiz-adv-x="556" d="M131 722H67V221C67 35 165-14 278-14s211 49 211 235v501h-64V268c0-94 0-228-147-228S131 174 131 268z"/><glyph unicode="Ú" horiz-adv-x="556" d="M131 722H67V221C67 35 165-14 278-14s211 49 211 235v501h-64V268c0-94 0-228-147-228S131 174 131 268m83 509h50l143 137h-80z"/><glyph unicode="Û" horiz-adv-x="556" d="M131 722H67V221C67 35 165-14 278-14s211 49 211 235v501h-64V268c0-94 0-228-147-228S131 174 131 268m147 609l83-102h64L312 914h-67L132 775h64z"/><glyph unicode="Ü" horiz-adv-x="556" d="M131 722H67V221C67 35 165-14 278-14s211 49 211 235v501h-64V268c0-94 0-228-147-228S131 174 131 268m36 520h64v101h-64m158-101h64v101h-64z"/><glyph unicode="Ù" horiz-adv-x="556" d="M131 722H67V221C67 35 165-14 278-14s211 49 211 235v501h-64V268c0-94 0-228-147-228S131 174 131 268m211 509L229 914h-80l143-137z"/><glyph unicode="V" horiz-adv-x="500" d="M250 76h-2L77 722H9L210 0h80l200 722h-62z"/><glyph unicode="W" horiz-adv-x="833" d="M226 84h-2L78 722H10L184 0h80l149 642h2L560 0h84l179 722h-63L606 89h-2L459 722h-86z"/><glyph unicode="X" horiz-adv-x="500" d="M24 722l179-349L9 0h68l167 330L415 0h75L287 373l186 349h-68L247 421 94 722z"/><glyph unicode="Y" horiz-adv-x="500" d="M217 0h64v300l206 422h-64L250 363 85 722H13l204-422z"/><glyph unicode="Ý" horiz-adv-x="500" d="M217 0h64v300l206 422h-64L250 363 85 722H13l204-422m-31 477h50l143 137h-80z"/><glyph unicode="Ÿ" horiz-adv-x="500" d="M217 0h64v300l206 422h-64L250 363 85 722H13l204-422m-78 488h64v101h-64m158-101h64v101h-64z"/><glyph unicode="Z" horiz-adv-x="444" d="M44 722v-54h310L24 71V0h396v54H90l327 597v71z"/><glyph unicode="Ž" horiz-adv-x="444" d="M44 722v-54h310L24 71V0h396v54H90l327 597v71m-194 90l-83 102H76l113-139h67l113 139h-64z"/><glyph unicode="a" horiz-adv-x="444" d="M318 166c0-66-56-128-125-128-62 0-91 47-91 104 0 123 130 113 216 116m4-258h62c-6 59-6 91-6 127v254c0 129-106 134-157 134-88 0-163-38-168-135h64c0 60 44 87 99 87 80 0 102-45 102-119v-42c-102-8-280 10-280-167C38 51 87-10 177-10c62 0 111 24 143 72h2z"/><glyph unicode="á" horiz-adv-x="444" d="M318 166c0-66-56-128-125-128-62 0-91 47-91 104 0 123 130 113 216 116m4-258h62c-6 59-6 91-6 127v254c0 129-106 134-157 134-88 0-163-38-168-135h64c0 60 44 87 99 87 80 0 102-45 102-119v-42c-102-8-280 10-280-167C38 51 87-10 177-10c62 0 111 24 143 72h2M158 560h50l143 137h-80z"/><glyph unicode="â" horiz-adv-x="444" d="M318 166c0-66-56-128-125-128-62 0-91 47-91 104 0 123 130 113 216 116m4-258h62c-6 59-6 91-6 127v254c0 129-106 134-157 134-88 0-163-38-168-135h64c0 60 44 87 99 87 80 0 102-45 102-119v-42c-102-8-280 10-280-167C38 51 87-10 177-10c62 0 111 24 143 72h2M222 660l83-102h64L256 697h-67L76 558h64z"/><glyph unicode="´" horiz-adv-x="278" d="M75 560h50l143 137h-80z"/><glyph unicode="ä" horiz-adv-x="444" d="M318 166c0-66-56-128-125-128-62 0-91 47-91 104 0 123 130 113 216 116m4-258h62c-6 59-6 91-6 127v254c0 129-106 134-157 134-88 0-163-38-168-135h64c0 60 44 87 99 87 80 0 102-45 102-119v-42c-102-8-280 10-280-167C38 51 87-10 177-10c62 0 111 24 143 72h2M111 571h64v101h-64m158-101h64v101h-64z"/><glyph unicode="æ" horiz-adv-x="722" d="M102 136c0 123 123 109 220 114 5-78-4-212-111-212-66 0-109 30-109 98m276 162c0 102 43 169 114 169 96 0 114-67 114-169m60-48c-1 135 2 265-174 265-52 0-106-30-132-77-21 54-83 77-139 77-88 0-163-38-168-135h64c0 60 44 87 99 87 105 0 106-90 106-169-128 0-284 6-284-166 0-97 78-142 168-142 69 0 116 28 144 90 17-58 77-90 142-90 101 0 167 42 174 164h-63c1-68-36-116-111-116-95 0-114 93-114 163v49z"/><glyph unicode="à" horiz-adv-x="444" d="M318 166c0-66-56-128-125-128-62 0-91 47-91 104 0 123 130 113 216 116m4-258h62c-6 59-6 91-6 127v254c0 129-106 134-157 134-88 0-163-38-168-135h64c0 60 44 87 99 87 80 0 102-45 102-119v-42c-102-8-280 10-280-167C38 51 87-10 177-10c62 0 111 24 143 72h2m-36 498L173 697H93l143-137z"/><glyph unicode="&amp;" horiz-adv-x="611" d="M420 122c-27-52-87-82-144-82-98 0-154 48-154 150 0 86 39 116 106 164m13 77c-44 52-79 87-79 159 0 60 39 92 97 92 64 0 88-37 88-95 0-74-51-116-106-156M515 0h82L493 127c37 95 42 223 42 278h-60c0-55-9-169-26-223L279 388c67 56 132 99 132 195 0 117-57 153-147 153-111 0-166-48-166-159 0-83 43-120 92-180-84-63-132-96-132-208C58 34 154-14 249-14c88 0 153 15 212 86z"/><glyph unicode="å" horiz-adv-x="444" d="M318 166c0-66-56-128-125-128-62 0-91 47-91 104 0 123 130 113 216 116m4-258h62c-6 59-6 91-6 127v254c0 129-106 134-157 134-88 0-163-38-168-135h64c0 60 44 87 99 87 80 0 102-45 102-119v-42c-102-8-280 10-280-167C38 51 87-10 177-10c62 0 111 24 143 72h2M222 736c-51 0-93-42-93-93s42-94 93-94 92 43 92 94-41 93-92 93m0-35c31 0 57-27 57-58 0-30-27-59-57-59-31 0-58 29-58 59 0 32 26 58 58 58z"/><glyph unicode="^" horiz-adv-x="444" d="M201 708L66 298h47l107 334h2l109-334h47L243 708z"/><glyph unicode="~" horiz-adv-x="444" d="M54 185c18 29 39 67 81 67 24 0 47-12 68-20 27-10 78-32 108-32 53 0 89 42 113 81l-33 40c-16-32-44-67-80-67-20 0-50 13-82 26-31 13-65 26-94 26-56 0-89-45-115-86z"/><glyph unicode="*" horiz-adv-x="444" d="M222 610l-60 126-45-28 77-112-136 11v-53l136 14-79-114 48-29 59 127 59-127 48 29-79 114 136-14v53l-136-11 77 112-45 28z"/><glyph unicode="@" horiz-adv-x="800" d="M333 194c-51 0-80 42-80 118 0 95 73 250 178 250 49 0 79-38 79-73 0-33-35-145-64-210-20-44-51-85-113-85m206 347c-21 46-58 69-107 69-148 0-239-171-239-310 0-84 42-154 126-154 44 0 83 13 124 50 12-42 43-50 89-50 106 0 233 108 233 274 0 234-171 316-365 316-201 0-365-169-365-375C35 154 199-14 400-14c156 0 291 69 357 190h-53C638 86 527 34 400 34 223 34 83 179 83 361c0 183 140 327 317 327 94 0 317-18 317-283 0-61-55-211-174-211-31 0-53 7-53 23 0 17 8 42 14 59l105 314h-55z"/><glyph unicode="ã" horiz-adv-x="444" d="M318 166c0-66-56-128-125-128-62 0-91 47-91 104 0 123 130 113 216 116m4-258h62c-6 59-6 91-6 127v254c0 129-106 134-157 134-88 0-163-38-168-135h64c0 60 44 87 99 87 80 0 102-45 102-119v-42c-102-8-280 10-280-167C38 51 87-10 177-10c62 0 111 24 143 72h2M104 595c3 23 20 54 46 54 22 0 45-15 70-27 25-11 51-27 76-27 26 0 46 14 59 34 14 20 22 46 23 68h-38c-3-25-16-54-44-54-20 0-43 15-68 27-24 11-50 27-74 27-26 0-47-14-62-33-15-20-23-45-26-69z"/><glyph unicode="b" horiz-adv-x="444" d="M121 260c0 76 12 207 109 207 111 0 114-98 114-216S341 38 230 38c-109 0-109 142-109 222M119 0v61h2c25-47 68-71 127-71 147 0 156 152 156 263 0 90 13 262-151 262-57 0-97-21-128-69l-2 2v274H63V50c0-17-3-33-6-50z"/><glyph unicode="\" horiz-adv-x="222" d="M204 0h53L18 722h-53z"/><glyph unicode="|" horiz-adv-x="222" d="M85-250h52V750H85z"/><glyph unicode="{" horiz-adv-x="351" d="M143 435c0-39-18-99-82-99v-48c64 0 82-60 82-99V-18c0-101 68-114 147-114v48c-69 0-83 32-83 82v188c0 70-13 112-87 125v2c79 24 87 71 87 139v161c0 50 14 82 83 82v48c-79 0-147-13-147-114z"/><glyph unicode="}" horiz-adv-x="351" d="M208 629c0 101-68 114-147 114v-48c69 0 83-32 83-82V452c0-68 8-115 87-139v-2c-74-13-87-55-87-125V-2c0-50-14-82-83-82v-48c79 0 147 13 147 114v207c0 39 18 99 82 99v48c-64 0-82 60-82 99z"/><glyph unicode="[" horiz-adv-x="222" d="M50-132h139v48h-79v779h79v48H50z"/><glyph unicode="]" horiz-adv-x="222" d="M172 743H33v-48h79V-84H33v-48h139z"/><glyph unicode="˘" horiz-adv-x="278" d="M-5 697c7-79 60-129 139-129 81 0 140 46 149 129h-37c-15-55-50-81-107-81-54 0-95 26-105 81z"/><glyph unicode="¦" horiz-adv-x="222" d="M85-175h52v350H85m0 500V325h52v350z"/><glyph unicode="•" horiz-adv-x="606" d="M483 360c0 99-83 180-181 180-97 0-179-81-179-180 0-97 82-180 179-180 98 0 181 83 181 180z"/><glyph unicode="c" horiz-adv-x="389" d="M346 360c5 106-54 155-141 155-69 0-126-26-152-98-13-38-15-117-15-167 0-125 0-260 171-260 47 0 143 23 138 159h-60c-3-61-13-111-92-111-93 0-93 121-93 212 0 67 6 136 14 159 13 37 44 58 81 58 69 0 92-44 89-107z"/><glyph unicode="ˇ" horiz-adv-x="278" d="M140 595L57 697H-7l113-139h67l113 139h-64z"/><glyph unicode="ç" horiz-adv-x="389" d="M346 360c5 106-54 155-141 155-69 0-126-26-152-98-13-38-15-117-15-167C38 133 38 8 176-8l-54-74 20-15c9 6 23 10 38 10 24 0 49-12 49-39 0-34-36-46-64-46-22 0-43 7-64 14l-15-30c28-11 58-19 89-19 59 0 114 17 114 82 0 47-39 73-78 73-11 0-24-3-30-5l-2 2 34 45c48 1 139 26 134 159h-60c-3-61-13-111-92-111-93 0-93 121-93 212 0 67 6 136 14 159 13 37 44 58 81 58 69 0 92-44 89-107z"/><glyph unicode="¸" horiz-adv-x="278" d="M30-188c28-11 58-19 89-19 59 0 114 17 114 82 0 47-39 73-78 73-11 0-24-3-30-5l-2 2 41 55h-38L66-82l20-15c9 6 23 10 38 10 24 0 49-12 49-39 0-34-36-46-64-46-22 0-43 7-64 14z"/><glyph unicode="¢" horiz-adv-x="444" d="M154 67c-44 31-40 117-40 167 0 84-8 246 99 246 13 0 23-3 36-7M172-7c20-2 40-4 60-4 100 0 162 71 162 204h-60c0-93-34-150-101-150-15 0-29 2-44 6l95 412c38-24 46-65 46-108h60c4 71-22 136-92 167l29 128h-37l-27-118c-19 4-28 4-42 4C50 534 50 352 50 254 50 94 66 52 137 3L97-156h40z"/><glyph unicode="ˆ" horiz-adv-x="278" d="M139 660l83-102h64L173 697h-67L-7 558h64z"/><glyph unicode=":" horiz-adv-x="222" d="M74 0h74v76H74m0 353h74v76H74z"/><glyph unicode="," horiz-adv-x="222" d="M54-105h53l60 181H94z"/><glyph unicode="©" horiz-adv-x="800" d="M400-14c202 0 365 168 365 375 0 206-163 375-365 375-201 0-365-169-365-375C35 154 199-14 400-14m0 48C223 34 83 179 83 361c0 183 140 327 317 327 178 0 317-144 317-327 0-182-139-327-317-327m-2 512c57 0 70-29 68-77h60c0 24 6 125-116 125-163 0-160-141-160-225s-3-225 160-225c111 0 123 101 123 133h-60c-1-56-21-85-75-85-79 0-88 68-88 177s9 177 88 177z"/><glyph unicode="¤" horiz-adv-x="444" d="M88 107c39-28 81-45 134-45s95 17 134 45l40-39 47 48-39 38c29 42 43 82 43 133 0 53-12 93-43 136l39 39-47 47-40-38c-40 30-88 44-134 44s-94-14-134-44l-40 38-47-47 39-39C9 380-3 340-3 287c0-51 14-91 43-133L1 116l47-48m174 48c-99-1-162 93-161 171 1 104 57 172 161 174 104-2 160-70 161-174 1-78-62-172-161-171z"/><glyph unicode="d" horiz-adv-x="444" d="M212 38c-65 0-110 25-110 213 0 118 0 216 108 216 113 0 113-140 113-170v-90c0-123-54-169-111-169M329 0h58c-3 17-6 50-6 100v622h-60V454l-2 1c-31 39-76 60-122 60C42 515 42 350 42 253c0-118 8-263 154-263 59 0 97 25 128 73l2 1z"/><glyph unicode="†" horiz-adv-x="444" d="M252 501h141v48H252v173h-60V549H51v-48h141V0h60z"/><glyph unicode="‡" horiz-adv-x="444" d="M252 722h-60V559H51v-48h141V211H51v-48h141V0h60v163h141v48H252v300h141v48H252z"/><glyph unicode="°" horiz-adv-x="400" d="M350 558c0 82-68 150-150 150-83 0-151-68-150-150 0-83 67-150 150-150 82 0 150 67 150 150m-40 0c0-61-50-110-110-110-61 0-110 49-110 110-1 60 49 110 109 110 61 0 111-50 111-110z"/><glyph unicode="¨" horiz-adv-x="278" d="M28 571h64v101H28m158-101h64v101h-64z"/><glyph unicode="÷" horiz-adv-x="444" d="M20 279v-52h404v52M185 429h74v76h-74m0-504h74v76h-74z"/><glyph unicode="$" horiz-adv-x="444" d="M203 404c-52 32-93 70-93 143 0 71 37 100 93 107m40-344c55-34 100-75 100-154 0-77-33-108-100-113m0-54c105 7 164 63 164 184 0 124-86 166-164 209v272c79-6 96-55 96-137h64c4 124-44 187-160 191v63h-40v-63c-91-10-157-61-157-168 0-119 80-163 157-207V43c-83 8-101 56-101 149H38C38 58 88-4 203-11v-78h40z"/><glyph unicode="˙" horiz-adv-x="278" d="M107 571h64v101h-64z"/><glyph unicode="ı" horiz-adv-x="222" d="M141 0v505H81V0z"/><glyph unicode="e" horiz-adv-x="444" d="M396 240c0 150 0 275-174 275-113 0-174-67-174-213V178C48 25 135-10 222-10c101 0 167 42 174 164h-63c1-68-36-116-111-116-95 0-114 93-114 163v39m0 48c0 112 18 179 114 179s114-67 114-179z"/><glyph unicode="é" horiz-adv-x="444" d="M396 240c0 150 0 275-174 275-113 0-174-67-174-213V178C48 25 135-10 222-10c101 0 167 42 174 164h-63c1-68-36-116-111-116-95 0-114 93-114 163v39m0 48c0 112 18 179 114 179s114-67 114-179M158 560h50l143 137h-80z"/><glyph unicode="ê" horiz-adv-x="444" d="M396 240c0 150 0 275-174 275-113 0-174-67-174-213V178C48 25 135-10 222-10c101 0 167 42 174 164h-63c1-68-36-116-111-116-95 0-114 93-114 163v39m0 48c0 112 18 179 114 179s114-67 114-179M222 660l83-102h64L256 697h-67L76 558h64z"/><glyph unicode="ë" horiz-adv-x="444" d="M396 240c0 150 0 275-174 275-113 0-174-67-174-213V178C48 25 135-10 222-10c101 0 167 42 174 164h-63c1-68-36-116-111-116-95 0-114 93-114 163v39m0 48c0 112 18 179 114 179s114-67 114-179M111 571h64v101h-64m158-101h64v101h-64z"/><glyph unicode="è" horiz-adv-x="444" d="M396 240c0 150 0 275-174 275-113 0-174-67-174-213V178C48 25 135-10 222-10c101 0 167 42 174 164h-63c1-68-36-116-111-116-95 0-114 93-114 163v39m0 48c0 112 18 179 114 179s114-67 114-179m-50 272L173 697H93l143-137z"/><glyph unicode="8" horiz-adv-x="444" d="M222 388c-84 0-111 57-111 137 0 82 22 135 111 135s111-53 111-135c0-80-27-137-111-137m72-21c87 18 103 88 103 167 0 64-5 174-175 174S47 598 47 534c0-79 16-149 101-167l2-2C55 344 40 274 40 189 40 98 64-11 222-11S404 98 404 189c0 85-15 155-110 176M222 37c-90 0-118 63-118 144 0 75 8 159 118 159s118-84 118-159c0-81-28-144-118-144z"/><glyph unicode="…" horiz-adv-x="1000" d="M130 0h74v76h-74M463 0h74v76h-74M796 0h74v76h-74z"/><glyph unicode="—" horiz-adv-x="1000" d="M0 260h1000v48H0z"/><glyph unicode="–" horiz-adv-x="500" d="M500 260v48H0v-48z"/><glyph unicode="=" horiz-adv-x="444" d="M424 368H20v-52h404m0-126H20v-52h404z"/><glyph unicode="ð" horiz-adv-x="444" d="M112 618l32-30 94 52c30-21 85-98 88-167l-2-2c-14 27-39 44-102 44-118 0-174-77-174-208V198C48 67 104-10 222-10s174 77 174 208v101c0 237-43 309-105 371l84 47-31 30-89-50c-32 22-56 36-101 50l-43-37c53-20 46-16 92-42m19-201c99 0 114-83 114-214 0-132-15-215-114-215s-114 83-114 215c0 131 15 214 114 214z"/><glyph unicode="!" horiz-adv-x="333" d="M129 0h74v76h-74m63 94l9 552h-70l9-552z"/><glyph unicode="¡" horiz-adv-x="333" d="M129 439h74v76h-74m12-170l-9-536h70l-9 536z"/><glyph unicode="f" horiz-adv-x="278" d="M100 0h60v457h102v48H160v86c0 29 0 81 58 81h45v50c-15 2-25 4-34 4-122 0-129-88-129-136v-85H19v-48h81z"/><glyph unicode="ﬁ" horiz-adv-x="444" d="M369 0v505h-60V0m67 646v76h-74v-76M100 0h60v457h102v48H160v86c0 29 0 81 58 81h45v50c-15 2-25 4-34 4-122 0-129-88-129-136v-85H19v-48h81z"/><glyph unicode="5" horiz-adv-x="444" d="M243 446c-55 0-83-15-123-52v249h261v54H60V319h58c10 48 64 73 109 73 111 0 118-87 118-174 0-83-11-175-116-175-83 0-114 45-112 124H53C50 45 111-11 230-11c150 0 179 113 179 229 0 84 5 228-166 228z"/><glyph unicode="ﬂ" horiz-adv-x="444" d="M100 0h60v457h102v48H160v86c0 29 0 81 58 81h45v50c-15 2-25 4-34 4-122 0-129-88-129-136v-85H19v-48h81M368 0v722h-60V0z"/><glyph unicode="ƒ" horiz-adv-x="444" d="M380 697c-20 6-35 11-49 11-140 0-133-154-147-248h-82l-7-48h83L122-28c-11-84-32-117-95-111l-8-52c10-1 17-2 28-2 114 0 128 96 137 168l57 437h92l8 48h-94l14 101c6 43 14 93 72 93 11 0 23-1 38-6z"/><glyph unicode="4" horiz-adv-x="444" d="M82 228l194 409h2V228m60 469h-95L28 232v-58h250V0h60v174h82v54h-82z"/><glyph unicode="⁄" horiz-adv-x="167" d="M-163-29h56l436 751h-55z"/><glyph unicode="g" horiz-adv-x="444" d="M208 467c56 0 113-40 113-146 0-148-4-171-19-210-9-24-41-57-91-57-109 0-109 105-109 210 0 75 2 203 106 203m117-25l-2 2c-22 45-73 71-124 71-102 0-137-79-142-100-14-54-15-55-15-172C42 131 52 6 197 6c48 0 96 18 122 61h2c0-151 7-214-110-214-56 0-99 34-95 92H56c-4-51 21-140 147-140 144 0 178 66 178 177v425c0 26 1 51 3 99h-59z"/><glyph unicode="ß" horiz-adv-x="500" d="M457 134c0 120-171 175-171 251 0 64 108 128 108 221 0 84-75 130-150 130C94 736 67 632 67 568V0h60v548c0 116 57 140 110 140 44 0 97-26 97-78 0-85-108-138-108-239 0-95 171-143 171-246 0-50-27-87-81-87-60 0-81 30-82 87h-60c-2-86 42-135 130-135 93 0 153 47 153 144z"/><glyph unicode="`" horiz-adv-x="278" d="M203 560L90 697H10l143-137z"/><glyph unicode="&amp;gt;" horiz-adv-x="444" d="M426 275L19 509v-56l355-195v-5L19 52V-4l407 235z"/><glyph unicode="«" horiz-adv-x="389" d="M284 90h53l-76 194 78 194h-52l-90-194M137 90h53l-76 194 78 194h-52L50 284z"/><glyph unicode="»" horiz-adv-x="389" d="M105 90l87 194-90 194H50l78-194L52 90m200 0l87 194-90 194h-52l78-194-76-194z"/><glyph unicode="‹" horiz-adv-x="222" d="M127 90h53l-76 194 78 194h-52L40 284z"/><glyph unicode="›" horiz-adv-x="222" d="M95 90l87 194-90 194H40l78-194L42 90z"/><glyph unicode="h" horiz-adv-x="444" d="M121 0v317c0 113 55 150 109 150 70 0 93-55 93-114V0h60v356c0 66-13 159-138 159-54 0-93-30-122-72h-2v279H61V0z"/><glyph unicode="˝" horiz-adv-x="278" d="M0 560h50l143 137h-80m17-137h50l143 137h-80z"/><glyph unicode="-" horiz-adv-x="278" d="M240 238v57H38v-57z"/><glyph unicode="i" horiz-adv-x="222" d="M141 0v505H81V0m67 646v76H74v-76z"/><glyph unicode="í" horiz-adv-x="222" d="M141 0v505H81V0M47 560h50l143 137h-80z"/><glyph unicode="î" horiz-adv-x="222" d="M141 0v505H81V0m30 660l83-102h64L145 697H78L-35 558h64z"/><glyph unicode="ï" horiz-adv-x="222" d="M141 0v505H81V0M0 571h64v101H0m158-101h64v101h-64z"/><glyph unicode="ì" horiz-adv-x="222" d="M141 0v505H81V0m94 560L62 697h-80l143-137z"/><glyph unicode="j" horiz-adv-x="222" d="M85 505V-60c0-66-8-86-82-81v-50c5-2 22-4 44-4 86 0 98 65 98 102v598m7 141v76H78v-76z"/><glyph unicode="k" horiz-adv-x="389" d="M63 0h60v275h2L305 0h76L190 280l179 225h-70L125 282h-2v440H63z"/><glyph unicode="l" horiz-adv-x="222" d="M141 0v722H81V0z"/><glyph unicode="&amp;lt;" horiz-adv-x="444" d="M19 231L426-4v56L71 253v5l355 195v56L19 275z"/><glyph unicode="¬" horiz-adv-x="444" d="M20 368v-52h352V93h52v275z"/><glyph unicode="ł" horiz-adv-x="222" d="M81 0h60v429l98 57-18 29-80-46v253H81V434l-98-57 18-29 80 46z"/><glyph unicode="m" horiz-adv-x="667" d="M120 325c0 66 29 142 105 142 59 0 77-56 78-106V0h60v325c0 66 29 142 105 142 59 0 77-56 78-106V0h60v376c-3 81-47 139-131 139-56 0-99-29-124-79-17 50-63 79-115 79-56 0-96-31-120-72h-2v63H60V0h60z"/><glyph unicode="¯" horiz-adv-x="278" d="M9 648v-48h260v48z"/><glyph unicode="−" horiz-adv-x="444" d="M424 279H20v-52h404z"/><glyph unicode="µ" horiz-adv-x="444" d="M319 505V149c0-35-29-111-110-111-87 0-84 106-84 120v347H65v-696h60V8c8-6 33-18 73-18 56 0 92 23 127 66h2V0h52v505z"/><glyph unicode="×" horiz-adv-x="444" d="M222 216L387 51l37 37-165 165 165 165-37 37-165-165L57 455l-37-37 165-165L20 88l37-37z"/><glyph unicode="n" horiz-adv-x="444" d="M121 317c0 113 55 150 109 150 70 0 93-55 93-114V0h60v356c0 66-13 159-138 159-54 0-93-30-122-72h-2v62H61V0h60z"/><glyph unicode="9" horiz-adv-x="444" d="M216 329c-97 0-109 88-109 165 0 80 14 160 113 160 115 0 116-81 116-168 0-46-4-157-120-157m-6-54c50 0 98 18 128 61h2c-5-216 2-293-125-293-73 0-101 43-100 112H51C54 37 106-11 223-11c173 0 177 109 177 363v86c0 168-6 270-182 270-140 0-175-92-175-214 0-148 43-219 167-219z"/><glyph unicode="ñ" horiz-adv-x="444" d="M121 317c0 113 55 150 109 150 70 0 93-55 93-114V0h60v356c0 66-13 159-138 159-54 0-93-30-122-72h-2v62H61V0h60m-17 595c3 23 20 54 46 54 22 0 45-15 70-27 25-11 51-27 76-27 26 0 46 14 59 34 14 20 22 46 23 68h-38c-3-25-16-54-44-54-20 0-43 15-68 27-24 11-50 27-74 27-26 0-47-14-62-33-15-20-23-45-26-69z"/><glyph unicode="#" horiz-adv-x="444" d="M32 0h52l70 233h77L161 0h55l68 233h100l16 48H297l37 123h102l16 48H347l71 245h-52l-71-245h-77l72 245h-52l-72-245H61l-17-48h109l-37-123H9l-17-48h110m65 48l39 123h76l-38-123z"/><glyph unicode="o" horiz-adv-x="444" d="M222-10c118 0 174 77 174 208v109c0 131-56 208-174 208S48 438 48 307V198C48 67 104-10 222-10m0 477c99 0 114-83 114-214 0-132-15-215-114-215s-114 83-114 215c0 131 15 214 114 214z"/><glyph unicode="ó" horiz-adv-x="444" d="M222-10c118 0 174 77 174 208v109c0 131-56 208-174 208S48 438 48 307V198C48 67 104-10 222-10m0 477c99 0 114-83 114-214 0-132-15-215-114-215s-114 83-114 215c0 131 15 214 114 214m-64 93h50l143 137h-80z"/><glyph unicode="ô" horiz-adv-x="444" d="M222-10c118 0 174 77 174 208v109c0 131-56 208-174 208S48 438 48 307V198C48 67 104-10 222-10m0 477c99 0 114-83 114-214 0-132-15-215-114-215s-114 83-114 215c0 131 15 214 114 214m0 193l83-102h64L256 697h-67L76 558h64z"/><glyph unicode="ö" horiz-adv-x="444" d="M222-10c118 0 174 77 174 208v109c0 131-56 208-174 208S48 438 48 307V198C48 67 104-10 222-10m0 477c99 0 114-83 114-214 0-132-15-215-114-215s-114 83-114 215c0 131 15 214 114 214M111 571h64v101h-64m158-101h64v101h-64z"/><glyph unicode="œ" horiz-adv-x="722" d="M222-10c73 0 105 16 140 78 34-70 90-78 138-78 101 0 167 42 174 164h-63c1-68-36-116-111-116-95 0-114 93-114 163v39h288c0 150 0 275-174 275-63 0-110-27-135-88-27 61-70 88-143 88C49 515 48 382 48 318V198C48 67 93-10 222-10m0 48c-83 0-97 55-102 67-10 25-12 116-12 148 0 149 15 214 114 214s114-65 114-214c0-32-2-123-12-148-5-12-19-67-102-67m164 250c0 112 18 179 114 179s114-67 114-179z"/><glyph unicode="˛" horiz-adv-x="278" d="M143 0C79-22 40-62 40-109c0-73 53-82 114-82 31 0 61 11 74 19v33c-21-7-42-17-64-17-28 0-60 12-60 46 0 27 17 76 89 110v2z"/><glyph unicode="ò" horiz-adv-x="444" d="M222-10c118 0 174 77 174 208v109c0 131-56 208-174 208S48 438 48 307V198C48 67 104-10 222-10m0 477c99 0 114-83 114-214 0-132-15-215-114-215s-114 83-114 215c0 131 15 214 114 214m64 93L173 697H93l143-137z"/><glyph unicode="1" horiz-adv-x="444" d="M89 519c44 29 84 62 122 98V0h60v697h-56c-35-43-80-77-126-109z"/><glyph unicode="½" horiz-adv-x="666" d="M623 0v40H446c151 203 176 237 176 298 0 71-63 87-115 87-53 0-113-25-113-109h47c0 44 20 69 66 69 35 0 65-8 65-55 0-56-83-152-180-289V0M107-29l436 751h-55L51-29m-2 621c29 18 55 37 79 59V283h45v418h-42c-23-26-52-46-82-65z"/><glyph unicode="¼" horiz-adv-x="666" d="M558 418h-68L351 153v-49h162V0h45v104h53v40h-53m-166 0l119 238h2V144M116-29l436 751h-55L60-29M49 592c29 18 55 37 79 59V283h45v418h-42c-23-26-52-46-82-65z"/><glyph unicode="¹" horiz-adv-x="266" d="M49 592c29 18 55 37 79 59V283h45v418h-42c-23-26-52-46-82-65z"/><glyph unicode="ª" horiz-adv-x="266" d="M200 527c0-39-35-77-80-77-40 0-59 26-59 63 0 74 84 68 139 69m44-154c-4 35-4 54-4 76v152c0 78-69 80-102 80-57 0-106-22-109-80h42c0 36 28 50 64 50 52 0 65-25 65-70v-24c-65-4-181 5-181-101 0-56 32-91 91-91 40 0 72 16 93 47h2v-39z"/><glyph unicode="º" horiz-adv-x="266" d="M132 420c126 0 114 102 114 158 0 55 12 158-114 158C7 736 19 633 19 578c0-56-12-158 113-158m0 30c-72 0-73 57-73 128 0 70 1 128 73 128 73 0 74-58 74-128 0-71-1-128-74-128z"/><glyph unicode="ø" horiz-adv-x="444" d="M326 384c9-36 10-83 10-131 0-32-2-123-12-148-5-12-19-67-102-67-43 0-70 14-87 40m-17 41c-9 36-10 81-10 134 0 149 15 214 114 214 44 0 74-11 88-41M103 26c25-22 63-36 119-36 129 0 174 77 174 208v120c0 50 0 82-29 133l48 77-30 19-43-70c-25 23-64 38-120 38C49 515 48 382 48 318V198c0-12 0-98 30-143L29-24l30-20z"/><glyph unicode="õ" horiz-adv-x="444" d="M222-10c118 0 174 77 174 208v109c0 131-56 208-174 208S48 438 48 307V198C48 67 104-10 222-10m0 477c99 0 114-83 114-214 0-132-15-215-114-215s-114 83-114 215c0 131 15 214 114 214M104 595c3 23 20 54 46 54 22 0 45-15 70-27 25-11 51-27 76-27 26 0 46 14 59 34 14 20 22 46 23 68h-38c-3-25-16-54-44-54-20 0-43 15-68 27-24 11-50 27-74 27-26 0-47-14-62-33-15-20-23-45-26-69z"/><glyph unicode="p" horiz-adv-x="444" d="M123 298c0 125 68 169 107 169 99 0 114-83 114-214 0-132-15-215-114-215-55 0-107 55-107 170m-2 297H63v-696h60V57l2-1c31-48 68-66 105-66 129 0 174 77 174 208v113c0 66-1 204-159 204-40 0-90-21-122-70l-2-1z"/><glyph unicode="¶" horiz-adv-x="564" d="M233-96h52v764h85V-96h52v818H247c-110-2-176-54-176-185 0-97 66-181 162-180z"/><glyph unicode="(" horiz-adv-x="222" d="M117 743C67 598 31 448 31 294c0-146 38-288 82-426h49C121 11 95 160 95 309c0 147 31 292 67 434z"/><glyph unicode=")" horiz-adv-x="222" d="M60 743c36-142 67-287 67-434 0-149-26-298-67-441h49c44 138 82 280 82 426 0 154-36 304-86 449z"/><glyph unicode="%" horiz-adv-x="778" d="M205 344c115 0 130 104 130 194 0 88-30 170-130 170-113 0-130-98-130-188 0-91 22-176 130-176m0 48c-74 0-78 81-78 134 0 54 8 134 78 134s78-80 78-134c0-53-4-134-78-134M573-11c115 0 130 104 130 194 0 88-30 170-130 170-113 0-130-98-130-188 0-91 22-176 130-176m0 48c-74 0-78 81-78 134 0 54 8 134 78 134s78-80 78-134c0-53-4-134-78-134M256-39l304 761h-46L210-39z"/><glyph unicode="." horiz-adv-x="222" d="M74 0h74v76H74z"/><glyph unicode="·" horiz-adv-x="222" d="M74 215h74v76H74v-76z"/><glyph unicode="‰" horiz-adv-x="889" d="M759-11c102 0 120 83 120 170 0 86-12 171-120 171s-120-85-120-171c0-87 18-170 120-170m0 48c-66 0-68 76-68 120 0 46 3 125 68 125s68-79 68-125c0-44-2-120-68-120M452-11c102 0 120 83 120 170 0 86-12 171-120 171s-120-85-120-171c0-87 18-170 120-170m0 48c-66 0-68 76-68 120 0 46 3 125 68 125s68-79 68-125c0-44-2-120-68-120M130 366c102 0 120 83 120 170 0 86-12 171-120 171S10 622 10 536c0-87 18-170 120-170m0 48c-66 0-68 76-68 120 0 46 3 125 68 125s68-79 68-125c0-44-2-120-68-120m27-455l304 763h-41L114-41z"/><glyph unicode="+" horiz-adv-x="444" d="M196 227V0h52v227h176v52H248v226h-52V279H20v-52z"/><glyph unicode="±" horiz-adv-x="444" d="M196 279V105h52v174h176v52H248v174h-52V331H20v-52M424 52H20V0h404z"/><glyph unicode="q" horiz-adv-x="444" d="M209 38c-109 0-109 142-109 222 0 76 12 207 109 207 111 0 114-98 114-216S320 38 209 38m116 467v-65h-2c-25 51-68 75-127 75C49 515 40 363 40 252c0-90-13-262 151-262 57 0 97 21 128 69l2-2v-248h60v646c0 17 3 33 6 50z"/><glyph unicode="?" horiz-adv-x="389" d="M209 170v94c0 114 109 116 109 305 0 113-27 167-143 167-105 0-141-71-137-167h64c-2 55 6 113 74 113 75 0 78-47 78-112 0-184-105-148-105-313v-87M143 0h74v76h-74z"/><glyph unicode="¿" horiz-adv-x="389" d="M180 345v-94C180 137 71 135 71-54c0-113 27-167 143-167 105 0 141 71 137 167h-64c2-55-6-113-74-113-75 0-78 47-78 112 0 184 105 148 105 313v87m-67 94h74v76h-74z"/><glyph unicode="&amp;quot;" horiz-adv-x="309" d="M73 515h52v207H73m111-207h52v207h-52z"/><glyph unicode="„" horiz-adv-x="389" d="M64-105h53l60 181h-73m108-181h53l60 181h-73z"/><glyph unicode="“" horiz-adv-x="389" d="M177 722h-53L64 541h73m188 181h-53l-60-181h73z"/><glyph unicode="”" horiz-adv-x="389" d="M64 541h53l60 181h-73m108-181h53l60 181h-73z"/><glyph unicode="‘" horiz-adv-x="222" d="M167 722h-53L54 541h73z"/><glyph unicode="’" horiz-adv-x="222" d="M54 541h53l60 181H94z"/><glyph unicode="‚" horiz-adv-x="222" d="M54-105h53l60 181H94z"/><glyph unicode="'" horiz-adv-x="198" d="M73 515h52v207H73z"/><glyph unicode="r" horiz-adv-x="278" d="M125 505H65V0h60v325c0 85 56 136 141 129v61c-61 0-114-30-139-78h-2z"/><glyph unicode="®" horiz-adv-x="800" d="M400-14c202 0 365 168 365 375 0 206-163 375-365 375-201 0-365-169-365-375C35 154 199-14 400-14m0 48C223 34 83 179 83 361c0 183 140 327 317 327 178 0 317-144 317-327 0-182-139-327-317-327m0 309c90 0 76-72 77-90 1-24 3-96 7-108h51c-3 17-6 33-6 50 0 155-8 162-72 174v2c63 13 83 49 83 103 0 76-31 112-131 112H269V145h52v198m0 195h85c49 0 74-12 74-63 0-69-29-84-91-84h-68z"/><glyph unicode="˚" horiz-adv-x="278" d="M139 736c-51 0-93-42-93-93s42-94 93-94 92 43 92 94-41 93-92 93m0-35c31 0 57-27 57-58 0-30-27-59-57-59-31 0-58 29-58 59 0 32 26 58 58 58z"/><glyph unicode="s" horiz-adv-x="389" d="M344 133c0 169-227 135-227 261 0 45 34 73 77 73 68 0 85-34 88-98h59c0 77-32 146-132 146-88 0-152-33-152-126 0-167 227-133 227-265 0-56-28-89-86-89-77 0-93 46-93 115H44C43 43 86-10 195-10c94 0 149 48 149 143z"/><glyph unicode="š" horiz-adv-x="389" d="M344 133c0 169-227 135-227 261 0 45 34 73 77 73 68 0 85-34 88-98h59c0 77-32 146-132 146-88 0-152-33-152-126 0-167 227-133 227-265 0-56-28-89-86-89-77 0-93 46-93 115H44C43 43 86-10 195-10c94 0 149 48 149 143M196 595l-83 102H49l113-139h67l113 139h-64z"/><glyph unicode="§" horiz-adv-x="444" d="M77 5c21-5 68-19 138-19 100 0 164 52 164 133 0 71-48 109-107 136 41 28 104 67 104 123 0 132-234 132-234 242 0 49 49 68 90 68 39 0 78-16 115-32v56c-36 16-73 24-110 24-77 0-159-29-159-120 0-67 49-106 101-137-46-26-114-47-114-120 0-116 250-136 250-239 0-61-56-86-110-86-40 0-91 14-128 28m151 216c-36 19-99 44-99 91 0 39 69 71 94 86 33-16 89-37 89-81 0-42-55-72-84-96z"/><glyph unicode=";" horiz-adv-x="222" d="M40-105h53l60 181H80m-6 353h74v76H74z"/><glyph unicode="7" horiz-adv-x="444" d="M32 643h292L100 0h70l215 633v64H32z"/><glyph unicode="6" horiz-adv-x="444" d="M336 224c0-83-5-181-113-181-132 0-118 169-118 175 0 119 50 167 123 167 82 0 108-53 108-161m57 318c-2 109-54 166-162 166-154 0-186-84-186-253V227C45 88 61-11 231-11c153 0 169 117 169 253 0 21 11 197-156 197-61 0-111-25-137-76l-2-1v61c0 106 2 231 122 231 70 0 98-43 102-112z"/><glyph unicode="/" horiz-adv-x="333" d="M50-110l285 832h-54L-3-110z"/><glyph horiz-adv-x="222"/><glyph unicode="£" horiz-adv-x="444" d="M398 0v54H153v291h150v54H153v133c0 70 27 122 99 122 81 0 98-55 93-125h64c4 122-35 179-160 179-77 0-156-40-156-181V399H12v-54h81V54H19V0z"/><glyph unicode="t" horiz-adv-x="278" d="M97 457V96c0-62 24-98 105-98 19 0 39 1 57 3v52c-13-2-27-3-47-3-48 0-55 16-55 83v324h102v48H157v130l-60-26V505H16v-48z"/><glyph unicode="þ" horiz-adv-x="444" d="M123 298c0 125 68 169 107 169 111 0 114-98 114-216S341 38 230 38c-55 0-107 55-107 170M63-191h60V57l2-1c28-45 68-66 123-66 147 0 156 152 156 263 0 90 13 262-151 262-48 0-98-21-128-70l-2-1v278H63z"/><glyph unicode="3" horiz-adv-x="444" d="M171 334c127 10 159-38 159-158 0-74-26-133-119-133-79 0-115 52-113 128H34C30 46 99-11 220-11c114 0 174 73 174 201 0 82-19 160-116 170v2c88 21 109 95 109 176 0 124-65 170-182 170-109 0-168-78-161-181h64c-3 72 25 127 105 127 79 0 110-48 110-124 0-104-49-151-152-142z"/><glyph unicode="¾" horiz-adv-x="666" d="M558 418h-68L351 153v-49h162V0h45v104h53v40h-53m-166 0l119 238h2V144M143-29l436 751h-55L87-29m13 513c74 6 95-23 95-95 0-37-17-72-69-72-44 0-66 23-65 69H11c-3-75 42-109 121-109 74 0 113 43 113 120 0 49-13 96-76 105v2c58 9 71 53 71 102 0 74-42 102-118 102-71 0-109-47-105-109h50c-2 44 16 69 60 69 42 0 63-29 63-67 0-62-23-82-90-77z"/><glyph unicode="³" horiz-adv-x="266" d="M100 484c74 6 95-23 95-95 0-37-17-72-69-72-44 0-66 23-65 69H11c-3-75 42-109 121-109 74 0 113 43 113 120 0 49-13 96-76 105v2c58 9 71 53 71 102 0 74-42 102-118 102-71 0-109-47-105-109h50c-2 44 16 69 60 69 42 0 63-29 63-67 0-62-23-82-90-77z"/><glyph unicode="˜" horiz-adv-x="278" d="M21 595c3 23 20 54 46 54 22 0 45-15 70-27 25-11 51-27 76-27 26 0 46 14 59 34 14 20 22 46 23 68h-38c-3-25-16-54-44-54-20 0-43 15-68 27-24 11-50 27-74 27-26 0-47-14-62-33-15-20-23-45-26-69z"/><glyph unicode="™" horiz-adv-x="722" d="M114 289h52v393h109v40H5v-40h109m257 40h-73V289h52v326h2l131-326h48l127 326h2V289h52v433h-68L510 368h-2z"/><glyph unicode="2" horiz-adv-x="444" d="M394 54H109c233 350 284 407 284 509 0 119-97 145-178 145S41 666 41 527h60c0 72 38 127 114 127 55 0 114-12 114-105S194 296 39 56V0h355z"/><glyph unicode="²" horiz-adv-x="266" d="M241 323H64c151 203 176 237 176 298 0 71-63 87-115 87-53 0-113-25-113-109h47c0 44 20 69 66 69 35 0 65-8 65-55 0-56-83-152-180-289v-41h231z"/><glyph unicode="u" horiz-adv-x="444" d="M319 505V149c0-35-29-111-110-111-87 0-84 106-84 120v347H65V148C65 66 94-10 198-10c56 0 92 23 127 66h2V0h52v505z"/><glyph unicode="ú" horiz-adv-x="444" d="M319 505V149c0-35-29-111-110-111-87 0-84 106-84 120v347H65V148C65 66 94-10 198-10c56 0 92 23 127 66h2V0h52v505m-221 55h50l143 137h-80z"/><glyph unicode="û" horiz-adv-x="444" d="M319 505V149c0-35-29-111-110-111-87 0-84 106-84 120v347H65V148C65 66 94-10 198-10c56 0 92 23 127 66h2V0h52v505M222 660l83-102h64L256 697h-67L76 558h64z"/><glyph unicode="ü" horiz-adv-x="444" d="M319 505V149c0-35-29-111-110-111-87 0-84 106-84 120v347H65V148C65 66 94-10 198-10c56 0 92 23 127 66h2V0h52v505m-268 66h64v101h-64m158-101h64v101h-64z"/><glyph unicode="ù" horiz-adv-x="444" d="M319 505V149c0-35-29-111-110-111-87 0-84 106-84 120v347H65V148C65 66 94-10 198-10c56 0 92 23 127 66h2V0h52v505m-93 55L173 697H93l143-137z"/><glyph unicode="_" horiz-adv-x="500" d="M500-125v50H0v-50z"/><glyph unicode="v" horiz-adv-x="389" d="M75 505H10L160 0h69l150 505h-58L198 76h-2z"/><glyph unicode="w" horiz-adv-x="667" d="M149 0h75l106 432h2L443 0h75l139 505h-60L484 63h-2L370 505h-74L189 63h-2L74 505H10z"/><glyph unicode="x" horiz-adv-x="389" d="M11 0h67l116 219L305 0h73L232 272l132 233h-66L198 315l-92 190H34l125-236z"/><glyph unicode="y" horiz-adv-x="389" d="M111-191h59l209 696h-60L200 91h-2L75 505H10L170-1z"/><glyph unicode="ý" horiz-adv-x="389" d="M111-191h59l209 696h-60L200 91h-2L75 505H10L170-1m-39 561h50l143 137h-80z"/><glyph unicode="ÿ" horiz-adv-x="389" d="M111-191h59l209 696h-60L200 91h-2L75 505H10L170-1M84 571h64v101H84m158-101h64v101h-64z"/><glyph unicode="¥" horiz-adv-x="444" d="M191 211H44v-54h147V0h60v157h149v54H251v65h149v54H271l176 367h-69L222 363 73 697H-3l175-367H44v-54h147z"/><glyph unicode="z" horiz-adv-x="333" d="M28 0h276v48H94l205 407v50H40v-48h198L28 49z"/><glyph unicode="ž" horiz-adv-x="333" d="M28 0h276v48H94l205 407v50H40v-48h198L28 49m140 546L85 697H21l113-139h67l113 139h-64z"/><glyph unicode="0" horiz-adv-x="444" d="M108 485c0 157 69 169 114 169s114-12 114-169V212c0-157-69-169-114-169S108 55 108 212m114 496C44 708 44 555 44 424V273c0-131 0-284 178-284s178 153 178 284v151c0 131 0 284-178 284z"/></font><font horiz-adv-x="1000"><font-face font-family="Univers-Condensed" underline-position="-100" underline-thickness="50"/><glyph unicode="A" horiz-adv-x="611" d="M15 0h93l54 172h279L493 0h103L361 722H244m172-470H185l113 385h2z"/><glyph unicode="Æ" horiz-adv-x="833" d="M112 0l73 172h274L484 0h306v80H563l-35 250h244v80H514l-31 232h297v80H332L15 0m433 252H222l169 396h2z"/><glyph unicode="Á" horiz-adv-x="611" d="M15 0h93l54 172h279L493 0h103L361 722H244m172-470H185l113 385h2m16 302l-89-141h67l131 141z"/><glyph unicode="Â" horiz-adv-x="611" d="M15 0h93l54 172h279L493 0h103L361 722H244m172-470H185l113 385h2m72 161h80L352 939h-92L160 798h80l66 94z"/><glyph unicode="Ä" horiz-adv-x="611" d="M15 0h93l54 172h279L493 0h103L361 722H244m172-470H185l113 385h2m-35 274h-94V807h94m176 104h-94V807h94z"/><glyph unicode="À" horiz-adv-x="611" d="M15 0h93l54 172h279L493 0h103L361 722H244m172-470H185l113 385h2M187 939l131-141h67l-89 141z"/><glyph unicode="Å" horiz-adv-x="611" d="M15 0h93l54 172h279L493 0h103L361 722H244m172-470H185l113 385h2m6 150c56 0 101 45 101 101 0 55-44 101-101 101-56 0-101-45-101-101 0-57 46-101 101-101m60 101c0-32-28-60-60-60-33 0-60 28-60 60 0 33 27 60 60 60 32 0 60-27 60-60z"/><glyph unicode="Ã" horiz-adv-x="611" d="M15 0h93l54 172h279L493 0h103L361 722H244m172-470H185l113 385h2m125 274c-3-31-20-45-51-45-16 0-36 9-59 19-23 9-48 18-75 18-66 0-98-47-104-108h46c3 22 23 45 46 45 22 0 47-9 72-19 25-9 50-19 72-19 32 0 56 13 73 33s28 48 31 76z"/><glyph unicode="B" horiz-adv-x="611" d="M182 338h98c94 0 165-20 165-135 0-53-35-123-133-123H182m0 562h130c77 0 111-49 111-109 0-70-35-114-107-115H182M322 0c82 0 217 18 217 203 0 99-45 161-148 173v5c93 21 124 81 124 171 0 14-4 57-29 96-27 40-61 74-161 74H90V0z"/><glyph unicode="C" horiz-adv-x="556" d="M494 523c9 140-46 214-189 214-142 0-232-58-232-262V271C73-9 211-15 301-15c47 0 208 0 204 228h-95C409 72 324 62 296 62c-71 0-129 21-129 198v193c0 124 18 142 21 150 3 10 33 56 109 56 19 0 62-8 81-31s22-64 21-105z"/><glyph unicode="Ç" horiz-adv-x="556" d="M494 523c9 140-46 214-189 214-142 0-232-58-232-262V271C73 33 172-7 257-13l-53-73 17-19c12 3 25 8 38 8 26 0 49-13 49-41 0-30-32-40-57-40-24 0-43 7-65 15l-17-40c27-11 62-22 99-22 52 0 116 25 116 93 0 49-38 76-83 76-10 0-22-3-30-6l-2 2 35 45c51 0 205 5 201 228h-95C409 72 324 62 296 62c-71 0-129 21-129 198v193c0 124 18 142 21 150 3 10 33 56 109 56 19 0 62-8 81-31s22-64 21-105z"/><glyph unicode="D" horiz-adv-x="611" d="M175 642h121c96 0 141-54 141-200V296c0-168-47-216-175-216h-87M83 0h166c126 0 199 31 238 93 30 48 44 137 44 291 0 23-3 167-32 228-36 77-102 110-194 110H83z"/><glyph unicode="E" horiz-adv-x="500" d="M459 0v80H173v250h260v80H173v232h280v80H81V0z"/><glyph unicode="É" horiz-adv-x="500" d="M459 0v80H173v250h260v80H173v232h280v80H81V0m179 939l-89-141h67l131 141z"/><glyph unicode="Ê" horiz-adv-x="500" d="M459 0v80H173v250h260v80H173v232h280v80H81V0m235 798h80L296 939h-92L104 798h80l66 94z"/><glyph unicode="Ë" horiz-adv-x="500" d="M459 0v80H173v250h260v80H173v232h280v80H81V0m128 911h-94V807h94m176 104h-94V807h94z"/><glyph unicode="È" horiz-adv-x="500" d="M459 0v80H173v250h260v80H173v232h280v80H81V0m50 939l131-141h67l-89 141z"/><glyph unicode="Ð" horiz-adv-x="611" d="M83 0h166c126 0 199 31 238 93 30 48 44 137 44 291 0 23-3 167-32 228-36 77-102 110-194 110H83V422H13v-56h70m92 0h151v56H175v220h121c96 0 141-54 141-200V296c0-168-47-216-175-216h-87z"/><glyph unicode="F" horiz-adv-x="444" d="M166 0v330h252v80H166v232h266v80H74V0z"/><glyph unicode="G" horiz-adv-x="611" d="M523 529c6 151-68 208-224 208-153 0-227-92-227-236V264C72 64 146-15 299-15c93 0 162 22 221 54v351H295v-80h133V94c-19-14-63-32-129-32-87 0-133 40-133 198v244c0 151 104 156 133 156 93 0 128-46 128-131z"/><glyph unicode="H" horiz-adv-x="611" d="M179 0v330h253V0h92v722h-92V410H179v312H87V0z"/><glyph unicode="I" horiz-adv-x="278" d="M185 722H93V0h92z"/><glyph unicode="Í" horiz-adv-x="278" d="M185 722H93V0h92m-36 939L60 798h67l131 141z"/><glyph unicode="Î" horiz-adv-x="278" d="M185 722H93V0h92m20 798h80L185 939H93L-7 798h80l66 94z"/><glyph unicode="Ï" horiz-adv-x="278" d="M185 722H93V0h92M98 911H4V807h94m176 104h-94V807h94z"/><glyph unicode="Ì" horiz-adv-x="278" d="M185 722H93V0h92M20 939l131-141h67l-89 141z"/><glyph unicode="J" horiz-adv-x="500" d="M30 224c0-58 0-120 29-168C94-1 171-15 211-15c198 0 199 155 199 194v543h-92V234c0-88-6-172-104-172-94 0-86 97-88 162z"/><glyph unicode="K" horiz-adv-x="556" d="M173 0v377h3L429 0h118L270 396l262 326H428L176 405h-3v317H81V0z"/><glyph unicode="L" horiz-adv-x="444" d="M438 0v80H173v642H81V0z"/><glyph unicode="Ł" horiz-adv-x="444" d="M81 0h357v80H173v340l97 56-22 39-75-43v250H81V419l-93-54 22-39 71 41z"/><glyph unicode="M" horiz-adv-x="833" d="M168 642h2L368 0h87l202 642h2V0h92v722H599L415 116h-2L231 722H82V0h86z"/><glyph unicode="N" horiz-adv-x="667" d="M499 722V104h-2L216 722H86V0h82v626h2L455 0h126v722z"/><glyph unicode="Ñ" horiz-adv-x="667" d="M499 722V104h-2L216 722H86V0h82v626h2L455 0h126v722M453 911c-3-31-20-45-51-45-16 0-36 9-59 19-23 9-48 18-75 18-66 0-98-47-104-108h46c3 22 23 45 46 45 22 0 47-9 72-19 25-9 50-19 72-19 32 0 56 13 73 33s28 48 31 76z"/><glyph unicode="O" horiz-adv-x="611" d="M305-15c153 0 227 79 227 279v237c0 144-74 236-227 236S78 645 78 501V264C78 64 152-15 305-15m0 77c-87 0-133 40-133 198v244c0 151 104 156 133 156s133-5 133-156V260c0-158-46-198-133-198z"/><glyph unicode="Œ" horiz-adv-x="833" d="M421 80H297c-106 0-131 78-131 193v160c0 173 42 209 123 209h132m372 80H295c-143 0-223-74-223-285V269C72 74 148 0 322 0h477v80H513v250h260v80H513v232h280z"/><glyph unicode="Ó" horiz-adv-x="611" d="M305-15c153 0 227 79 227 279v237c0 144-74 236-227 236S78 645 78 501V264C78 64 152-15 305-15m0 77c-87 0-133 40-133 198v244c0 151 104 156 133 156s133-5 133-156V260c0-158-46-198-133-198m11 877l-89-141h67l131 141z"/><glyph unicode="Ô" horiz-adv-x="611" d="M305-15c153 0 227 79 227 279v237c0 144-74 236-227 236S78 645 78 501V264C78 64 152-15 305-15m0 77c-87 0-133 40-133 198v244c0 151 104 156 133 156s133-5 133-156V260c0-158-46-198-133-198m67 736h80L352 939h-92L160 798h80l66 94z"/><glyph unicode="Ö" horiz-adv-x="611" d="M305-15c153 0 227 79 227 279v237c0 144-74 236-227 236S78 645 78 501V264C78 64 152-15 305-15m0 77c-87 0-133 40-133 198v244c0 151 104 156 133 156s133-5 133-156V260c0-158-46-198-133-198m-40 849h-94V807h94m176 104h-94V807h94z"/><glyph unicode="Ò" horiz-adv-x="611" d="M305-15c153 0 227 79 227 279v237c0 144-74 236-227 236S78 645 78 501V264C78 64 152-15 305-15m0 77c-87 0-133 40-133 198v244c0 151 104 156 133 156s133-5 133-156V260c0-158-46-198-133-198M187 939l131-141h67l-89 141z"/><glyph unicode="Ø" horiz-adv-x="611" d="M437 520c1-5 1-10 1-16V260c0-158-46-198-133-198-58 0-97 20-117 78m-12 56c-3 18-4 40-4 64v244c0 151 104 156 133 156 23 0 93-3 121-81M41-10l34-23 57 87c38-46 95-69 173-69 153 0 227 79 227 279v237c0 49-8 92-25 126l62 95-35 23-51-79c-36 44-96 71-178 71-153 0-227-92-227-236V264c0-74 10-131 30-172z"/><glyph unicode="Õ" horiz-adv-x="611" d="M305-15c153 0 227 79 227 279v237c0 144-74 236-227 236S78 645 78 501V264C78 64 152-15 305-15m0 77c-87 0-133 40-133 198v244c0 151 104 156 133 156s133-5 133-156V260c0-158-46-198-133-198m120 849c-3-31-20-45-51-45-16 0-36 9-59 19-23 9-48 18-75 18-66 0-98-47-104-108h46c3 22 23 45 46 45 22 0 47-9 72-19 25-9 50-19 72-19 32 0 56 13 73 33s28 48 31 76z"/><glyph unicode="P" horiz-adv-x="556" d="M185 642h127c20 0 102-11 102-121 0-113-90-123-128-123H185m0-398v318h121c74 0 202 34 202 198 0 170-104 206-201 206H93V0z"/><glyph unicode="Q" horiz-adv-x="611" d="M300 74c-108 0-134 66-134 186v244c0 151 104 156 133 156s133-5 133-156V260c0-120-24-186-132-186M72 264C72 6 202 0 300 0h300v80h-72c-15 0-50-12-63-16l-2 2c41 18 63 146 63 198v237c0 144-74 236-227 236S72 645 72 501z"/><glyph unicode="R" horiz-adv-x="556" d="M171 642h139c71 0 97-58 97-110 0-63-32-120-98-120H171m108-80c31 0 102-4 109-92 8-96 2-190 28-240h96c-14 45-24 158-25 189-5 145-35 173-118 186v2c85 15 132 80 132 165 0 90-45 180-173 180H79V0h92v332z"/><glyph unicode="S" horiz-adv-x="556" d="M61 215c-2-69-2-232 211-230 119 0 224 49 224 201 0 229-324 206-324 365 0 78 56 106 111 106 87 0 112-52 111-131h96c6 147-68 211-200 211-121 0-212-68-212-196 0-217 324-199 324-359 0-86-56-117-129-117-59 0-121 31-121 129v21z"/><glyph unicode="Š" horiz-adv-x="556" d="M61 215c-2-69-2-232 211-230 119 0 224 49 224 201 0 229-324 206-324 365 0 78 56 106 111 106 87 0 112-52 111-131h96c6 147-68 211-200 211-121 0-212-68-212-196 0-217 324-199 324-359 0-86-56-117-129-117-59 0-121 31-121 129v21m192 724l-66-94-66 94h-80l100-141h92l100 141z"/><glyph unicode="T" horiz-adv-x="500" d="M14 722v-80h190V0h92v642h190v80z"/><glyph unicode="Þ" horiz-adv-x="556" d="M185 520h127c20 0 102-11 102-121 0-113-90-123-128-123H185M93 0h92v196h121c74 0 202 34 202 198 0 170-104 206-201 206H185v122H93z"/><glyph unicode="U" horiz-adv-x="611" d="M78 264C78 64 152-15 305-15s227 79 227 279v458h-92V260c0-158-48-198-135-198s-135 40-135 198v462H78z"/><glyph unicode="Ú" horiz-adv-x="611" d="M78 264C78 64 152-15 305-15s227 79 227 279v458h-92V260c0-158-48-198-135-198s-135 40-135 198v462H78m238 217l-89-141h67l131 141z"/><glyph unicode="Û" horiz-adv-x="611" d="M78 264C78 64 152-15 305-15s227 79 227 279v458h-92V260c0-158-48-198-135-198s-135 40-135 198v462H78m294 76h80L352 939h-92L160 798h80l66 94z"/><glyph unicode="Ü" horiz-adv-x="611" d="M78 264C78 64 152-15 305-15s227 79 227 279v458h-92V260c0-158-48-198-135-198s-135 40-135 198v462H78m187 189h-94V807h94m176 104h-94V807h94z"/><glyph unicode="Ù" horiz-adv-x="611" d="M78 264C78 64 152-15 305-15s227 79 227 279v458h-92V260c0-158-48-198-135-198s-135 40-135 198v462H78m109 217l131-141h67l-89 141z"/><glyph unicode="V" horiz-adv-x="556" d="M543 722h-94L280 87h-2L113 722H13L222 0h110z"/><glyph unicode="W" horiz-adv-x="889" d="M182 0h112l146 626h2L579 0h112l191 722h-96L639 96h-2L506 722H387L242 96h-2L104 722H6z"/><glyph unicode="X" horiz-adv-x="556" d="M328 374l194 348H421L271 442 123 722H17l197-348L6 0h100l159 309L433 0h111z"/><glyph unicode="Y" horiz-adv-x="500" d="M252 373L111 722H8l194-447V0h92v275l197 447h-93z"/><glyph unicode="Ý" horiz-adv-x="500" d="M252 373L111 722H8l194-447V0h92v275l197 447h-93M260 939l-89-141h67l131 141z"/><glyph unicode="Ÿ" horiz-adv-x="500" d="M252 373L111 722H8l194-447V0h92v275l197 447h-93M209 911h-94V807h94m176 104h-94V807h94z"/><glyph unicode="Z" horiz-adv-x="500" d="M467 722H36v-80h338v-2L24 104V0h451v80H109l358 550z"/><glyph unicode="Ž" horiz-adv-x="500" d="M467 722H36v-80h338v-2L24 104V0h451v80H109l358 550M316 939l-66-94-66 94h-80l100-141h92l100 141z"/><glyph unicode="a" horiz-adv-x="500" d="M330 251c8-163-54-194-104-194-55 0-79 44-79 93 0 107 105 100 183 101m2-251h90c-6 39-10 80-10 120v243c0 85-34 152-164 152-107 0-167-39-171-152h89c-5 53 24 90 79 90 88 0 87-73 85-140-115 3-265-4-265-157C65 59 96-10 203-10c63 0 102 25 127 83h2z"/><glyph unicode="á" horiz-adv-x="500" d="M330 251c8-163-54-194-104-194-55 0-79 44-79 93 0 107 105 100 183 101m2-251h90c-6 39-10 80-10 120v243c0 85-34 152-164 152-107 0-167-39-171-152h89c-5 53 24 90 79 90 88 0 87-73 85-140-115 3-265-4-265-157C65 59 96-10 203-10c63 0 102 25 127 83h2m-72 649l-89-141h67l131 141z"/><glyph unicode="â" horiz-adv-x="500" d="M330 251c8-163-54-194-104-194-55 0-79 44-79 93 0 107 105 100 183 101m2-251h90c-6 39-10 80-10 120v243c0 85-34 152-164 152-107 0-167-39-171-152h89c-5 53 24 90 79 90 88 0 87-73 85-140-115 3-265-4-265-157C65 59 96-10 203-10c63 0 102 25 127 83h2m-16 508h80L296 722h-92L104 581h80l66 94z"/><glyph unicode="´" horiz-adv-x="278" d="M149 722L60 581h67l131 141z"/><glyph unicode="ä" horiz-adv-x="500" d="M330 251c8-163-54-194-104-194-55 0-79 44-79 93 0 107 105 100 183 101m2-251h90c-6 39-10 80-10 120v243c0 85-34 152-164 152-107 0-167-39-171-152h89c-5 53 24 90 79 90 88 0 87-73 85-140-115 3-265-4-265-157C65 59 96-10 203-10c63 0 102 25 127 83h2M209 694h-94V590h94m176 104h-94V590h94z"/><glyph unicode="æ" horiz-adv-x="778" d="M428 302c0 137 63 151 96 151 87 0 102-81 100-151m87-62c17 264-108 275-187 275-52 0-112-19-128-73h-2c-22 64-84 73-144 73-107 0-167-39-171-152h89c-5 53 24 90 79 90 69 0 94-34 94-100v-51c-123-8-274 7-274-161 0-95 53-151 149-151 67 0 130 24 159 91 20-63 83-91 145-91 170 0 188 100 188 172h-89c-3-61-26-105-94-105-100 0-95 112-97 183m-87 0c8-161-54-183-104-183-55 0-79 35-79 84 0 107 105 99 183 99z"/><glyph unicode="à" horiz-adv-x="500" d="M330 251c8-163-54-194-104-194-55 0-79 44-79 93 0 107 105 100 183 101m2-251h90c-6 39-10 80-10 120v243c0 85-34 152-164 152-107 0-167-39-171-152h89c-5 53 24 90 79 90 88 0 87-73 85-140-115 3-265-4-265-157C65 59 96-10 203-10c63 0 102 25 127 83h2M131 722l131-141h67l-89 141z"/><glyph unicode="&amp;" horiz-adv-x="667" d="M443 134c-37-53-82-72-147-72-86 0-148 54-148 132 0 84 54 122 117 165m27 97c-27 38-79 80-79 130 0 48 34 81 80 81 49 0 79-31 79-81 0-56-46-100-80-130M550 0h104L538 155c28 48 44 115 44 270h-82c0-108 0-158-14-205L345 399c58 49 121 116 121 192 0 102-77 146-169 146-90 0-178-38-178-143 0-67 53-134 95-182-92-57-160-101-160-220C54 52 161-15 291-15c85 0 146 22 201 89z"/><glyph unicode="å" horiz-adv-x="500" d="M330 251c8-163-54-194-104-194-55 0-79 44-79 93 0 107 105 100 183 101m2-251h90c-6 39-10 80-10 120v243c0 85-34 152-164 152-107 0-167-39-171-152h89c-5 53 24 90 79 90 88 0 87-73 85-140-115 3-265-4-265-157C65 59 96-10 203-10c63 0 102 25 127 83h2m-82 497c56 0 101 45 101 101 0 55-44 101-101 101-56 0-101-45-101-101 0-57 46-101 101-101m60 101c0-32-28-60-60-60-33 0-60 28-60 60 0 33 27 60 60 60 32 0 60-27 60-60z"/><glyph unicode="^" horiz-adv-x="500" d="M217 694L66 277h68l110 318h2l112-318h75L277 694z"/><glyph unicode="~" horiz-adv-x="500" d="M161 332c-58 0-92-62-117-118l34-48c18 40 40 90 83 90 24 0 48-14 69-25 28-14 81-44 111-44 55 0 92 57 116 111l-34 47c-16-36-44-83-81-83-21 0-52 18-85 35-32 18-67 35-96 35z"/><glyph unicode="*" horiz-adv-x="444" d="M412 522v66l-156-12 90 127-59 34-65-142-65 142-59-34 90-127-156 12v-66l156 15-91-130 58-32 67 144 67-144 58 32-91 130z"/><glyph unicode="@" horiz-adv-x="788" d="M431 536c42 0 71-34 71-73 0-43-50-264-167-264-51 0-78 48-78 96 0 92 68 241 174 241m113-7c-21 44-67 67-114 67-149 0-250-171-250-306 0-82 54-151 140-151 43 0 89 19 120 51 12-37 52-53 87-53 75 0 237 67 237 293 0 40-24 307-363 307-208 0-377-167-377-375C24 152 193-15 401-15c149 0 280 72 344 189h-60C625 87 522 41 401 41 223 41 80 183 80 361c0 177 143 320 321 320 277 0 307-191 307-251 0-158-106-237-167-237-17 0-30 9-30 26 0 14 8 38 13 52l103 305h-69z"/><glyph unicode="ã" horiz-adv-x="500" d="M330 251c8-163-54-194-104-194-55 0-79 44-79 93 0 107 105 100 183 101m2-251h90c-6 39-10 80-10 120v243c0 85-34 152-164 152-107 0-167-39-171-152h89c-5 53 24 90 79 90 88 0 87-73 85-140-115 3-265-4-265-157C65 59 96-10 203-10c63 0 102 25 127 83h2m37 621c-3-31-20-45-51-45-16 0-36 9-59 19-23 9-48 18-75 18-66 0-98-47-104-108h46c3 22 23 45 46 45 22 0 47-9 72-19 25-9 50-19 72-19 32 0 56 13 73 33s28 48 31 76z"/><glyph unicode="b" horiz-adv-x="500" d="M161 273c0 67 4 175 95 175 88 0 100-70 100-205 0-76 0-186-103-186-101 0-92 139-92 216m0-213h2c28-47 63-70 116-70 81 0 163 32 163 254 0 126-4 271-167 271-48 0-83-21-111-61h-3v268H79V0h82z"/><glyph unicode="\" horiz-adv-x="278" d="M211-15h67L66 722H-1z"/><glyph unicode="|" horiz-adv-x="250" d="M94-250h62V750H94z"/><glyph unicode="{" horiz-adv-x="274" d="M179 196c0 71-15 119-102 138v2c84 16 102 57 102 121v153c0 57 15 90 87 90v56c-49 0-169 12-169-130V440c0-51-35-65-90-77v-56c53-20 90-18 90-84V26c0-109 35-151 169-147v56c-70 0-87 34-87 89z"/><glyph unicode="}" horiz-adv-x="274" d="M94 24c0-55-17-89-87-89v-56c134-4 169 38 169 147v197c0 66 37 64 90 84v56c-55 12-90 26-90 77v186C176 768 56 756 7 756v-56c72 0 87-33 87-90V457c0-64 18-105 102-121v-2c-87-19-102-67-102-138z"/><glyph unicode="[" horiz-adv-x="278" d="M239-118v56h-87v762h84v56H70v-874z"/><glyph unicode="]" horiz-adv-x="278" d="M208-118v874H42v-56h84V-62H39v-56z"/><glyph unicode="˘" horiz-adv-x="278" d="M-15 722c6-97 66-135 157-135 87 0 141 50 151 135h-49c-12-56-50-79-105-79-53 0-95 24-105 79z"/><glyph unicode="¦" horiz-adv-x="250" d="M94 175v-350h62v350M94 675V325h62v350z"/><glyph unicode="•" horiz-adv-x="333" d="M320 361c0 84-70 154-154 154-83 0-153-70-153-154 0-83 70-153 153-153 84 0 154 70 154 153z"/><glyph unicode="c" horiz-adv-x="500" d="M421 343c5 113-54 172-155 172C91 515 74 393 74 245 74 22 159-10 266-10c56 0 162 36 159 178h-86c3-91-54-111-73-111-85 0-106 59-106 223 0 138 43 168 106 168 31 0 72-22 70-105z"/><glyph unicode="ˇ" horiz-adv-x="278" d="M205 722l-66-94-66 94H-7L93 581h92l100 141z"/><glyph unicode="ç" horiz-adv-x="500" d="M421 343c5 113-54 172-155 172C91 515 74 393 74 245 74 46 142-1 233-9l-57-77 17-19c12 3 25 8 38 8 26 0 49-13 49-41 0-30-32-40-57-40-24 0-43 7-65 15l-17-40c27-11 62-22 99-22 52 0 116 25 116 93 0 49-38 76-83 76-10 0-22-3-30-6l-2 2 39 51c57 5 148 45 145 177h-86c3-91-54-111-73-111-85 0-106 59-106 223 0 138 43 168 106 168 31 0 72-22 70-105z"/><glyph unicode="¸" horiz-adv-x="278" d="M82-105c12 3 25 8 38 8 26 0 49-13 49-41 0-30-32-40-57-40-24 0-43 7-65 15l-17-40c27-11 62-22 99-22 52 0 116 25 116 93 0 49-38 76-83 76-10 0-22-3-30-6l-2 2 46 60h-48L65-86z"/><glyph unicode="¢" horiz-adv-x="444" d="M145 134h-2c-8 34-11 82-11 146 0 138 43 168 106 168 14 0 25-3 33-9m40-271c-1-56-21-112-73-112-32 0-56 10-71 29l133 321c6-17 8-39 8-63h85c3 70-17 120-59 147l26 64-35 15-26-63c-18 6-38 9-61 9C63 515 46 393 46 245c0-111 21-175 56-212L71-42l37-16 28 67c30-16 65-20 102-20 77 0 159 66 159 179z"/><glyph unicode="ˆ" horiz-adv-x="278" d="M205 581h80L185 722H93L-7 581h80l66 94z"/><glyph unicode=":" horiz-adv-x="222" d="M158 505H64V401h94m0-297H64V0h94z"/><glyph unicode="," horiz-adv-x="222" d="M34-127h64l91 231H86z"/><glyph unicode="©" horiz-adv-x="800" d="M401 737C193 737 24 570 24 362 24 152 193-15 401-15c207 0 375 167 375 377 0 208-168 375-375 375m0-56c178 0 319-143 319-320 0-178-141-320-319-320S80 183 80 361c0 177 143 320 321 320m-84-229c0 67 31 87 82 87 25 0 69 4 69-72h70c2 86-38 128-135 128-123 0-156-72-156-171V323c0-179 112-172 160-172 94 0 140 57 138 137h-70c-1-46-19-81-77-81-48 0-81 19-81 103z"/><glyph unicode="¤" horiz-adv-x="444" d="M1 110l47-53 39 43c40-31 81-50 131-50 51 0 99 17 139 50l40-43 47 53-38 42c27 46 42 87 42 143 0 61-13 107-42 156l38 43-47 53-40-43c-40 31-82 49-131 49-51 0-98-15-139-49l-39 43-47-53 39-43C9 403-3 359-3 300c0-57 14-101 43-148m186 334c87 0 140-88 140-183 0-102-56-186-146-186-86 0-141 86-141 183 0 104 53 186 147 186z"/><glyph unicode="d" horiz-adv-x="500" d="M339 273c0-102 0-216-92-216-103 0-103 110-103 186 0 135 12 205 100 205 91 0 95-108 95-175m0 181h-3c-28 40-63 61-111 61C62 515 58 370 58 244 58 22 140-10 221-10c53 0 88 23 116 70h2V0h82v722h-82z"/><glyph unicode="†" horiz-adv-x="444" d="M181 0h82v505h142v67H263v150h-82V572H39v-67h142z"/><glyph unicode="‡" horiz-adv-x="444" d="M180 505V217H40v-67h140V0h82v150h141v67H262v288h141v67H262v150h-82V572H40v-67z"/><glyph unicode="°" horiz-adv-x="400" d="M350 555c0 82-68 150-150 150-83 0-151-68-150-150 0-83 67-150 150-150 82 0 150 67 150 150m-62 0c0-49-40-88-88-88-49 0-88 39-88 88-1 48 39 88 87 88 49 0 89-40 89-88z"/><glyph unicode="¨" horiz-adv-x="278" d="M98 694H4V590h94m176 104h-94V590h94z"/><glyph unicode="÷" horiz-adv-x="500" d="M43 222h414v62H43m254 222h-94V402h94m0-298h-94V0h94z"/><glyph unicode="$" horiz-adv-x="444" d="M243 295c56-30 103-63 103-121 0-64-44-102-103-109m-43 351c-48 25-84 56-84 111s35 91 84 98m43-640c87 0 197 54 197 192 0 132-107 174-197 217v231c74-4 96-51 95-124h101c0 130-64 204-196 204v59h-43v-59c-100 0-178-77-178-188s92-158 178-200V65c-74 6-101 73-101 146H5C3 195-13-15 200-15v-59h43z"/><glyph unicode="˙" horiz-adv-x="278" d="M186 694H92V590h94z"/><glyph unicode="ı" horiz-adv-x="222" d="M152 0v505H70V0z"/><glyph unicode="e" horiz-adv-x="500" d="M152 288c1 140 44 165 96 165 60 0 101-18 101-165m87-62v43c0 167-36 246-180 246C81 515 64 393 64 245 64 22 149-10 256-10c106 0 175 51 176 163h-90c-3-51-32-96-88-96-64 0-102 28-102 169z"/><glyph unicode="é" horiz-adv-x="500" d="M152 288c1 140 44 165 96 165 60 0 101-18 101-165m87-62v43c0 167-36 246-180 246C81 515 64 393 64 245 64 22 149-10 256-10c106 0 175 51 176 163h-90c-3-51-32-96-88-96-64 0-102 28-102 169m108 496l-89-141h67l131 141z"/><glyph unicode="ê" horiz-adv-x="500" d="M152 288c1 140 44 165 96 165 60 0 101-18 101-165m87-62v43c0 167-36 246-180 246C81 515 64 393 64 245 64 22 149-10 256-10c106 0 175 51 176 163h-90c-3-51-32-96-88-96-64 0-102 28-102 169m164 355h80L296 722h-92L104 581h80l66 94z"/><glyph unicode="ë" horiz-adv-x="500" d="M152 288c1 140 44 165 96 165 60 0 101-18 101-165m87-62v43c0 167-36 246-180 246C81 515 64 393 64 245 64 22 149-10 256-10c106 0 175 51 176 163h-90c-3-51-32-96-88-96-64 0-102 28-102 169m57 468h-94V590h94m176 104h-94V590h94z"/><glyph unicode="è" horiz-adv-x="500" d="M152 288c1 140 44 165 96 165 60 0 101-18 101-165m87-62v43c0 167-36 246-180 246C81 515 64 393 64 245 64 22 149-10 256-10c106 0 175 51 176 163h-90c-3-51-32-96-88-96-64 0-102 28-102 169m-21 496l131-141h67l-89 141z"/><glyph unicode="8" horiz-adv-x="444" d="M222 62c-69 0-93 64-93 124 0 62 7 142 93 142s93-80 93-142c0-60-24-124-93-124m57 306c82 16 121 84 121 163 0 109-69 174-178 174S44 640 44 531c0-79 39-147 121-163v1-2C63 357 37 277 37 187 37 62 101-15 222-15s185 77 185 202c0 90-26 170-128 180v2m-57 39c-69 0-86 75-86 126 0 52 27 104 86 104s86-52 86-104c0-51-17-126-86-126z"/><glyph unicode="…" horiz-adv-x="1000" d="M214 104h-94V0h94m333 104h-94V0h94m333 104h-94V0h94z"/><glyph unicode="—" horiz-adv-x="1000" d="M0 243h1000v56H0z"/><glyph unicode="–" horiz-adv-x="500" d="M0 243h500v56H0z"/><glyph unicode="=" horiz-adv-x="500" d="M457 384H43v-62h414m0-135H43v-62h414z"/><glyph unicode="ð" horiz-adv-x="500" d="M140 570l88 51c60-63 86-107 101-151l-2-2c-25 25-47 37-89 37C75 505 58 385 58 240 58 21 143-10 250-10s192 31 192 250c0 216-52 319-150 418l91 53-30 33-93-55c-30 25-65 48-97 64l-55-47c25-13 53-31 84-57l-83-49M250 56c-85 0-106 58-106 218 0 136 43 165 106 165s106-29 106-165c0-160-21-218-106-218z"/><glyph unicode="!" horiz-adv-x="333" d="M201 167l20 555H112l18-555m84-63h-94V0h94z"/><glyph unicode="¡" horiz-adv-x="333" d="M214 531h-94V427h94m-82-63l-20-555h109l-18 555z"/><glyph unicode="f" horiz-adv-x="278" d="M9 505v-62h78V0h82v443h102v62H169v86c0 41 15 78 102 72v59c-12 2-22 3-39 3-73 0-145-20-145-122v-98z"/><glyph unicode="ﬁ" horiz-adv-x="500" d="M423 505h-82V0h82m-87 634h92v88h-92M9 505v-62h78V0h82v443h102v62H169v86c0 41 15 78 102 72v59c-12 2-22 3-39 3-73 0-145-20-145-122v-98z"/><glyph unicode="5" horiz-adv-x="444" d="M59 694V304h83c8 46 35 81 85 81 86 0 89-79 89-180 0-68-6-153-93-153-61 0-82 51-82 105H49C49 64 76-15 220-15c174 0 188 132 188 243 0 160-46 234-145 234-47 0-95-22-110-52l-2 2v202h232v80z"/><glyph unicode="ﬂ" horiz-adv-x="500" d="M9 505v-62h78V0h82v443h102v62H169v86c0 41 15 78 102 72v59c-12 2-22 3-39 3-73 0-145-20-145-122v-98m343 217h-82V0h82z"/><glyph unicode="ƒ" horiz-adv-x="444" d="M34-171c64-3 149 2 168 122l67 440h98l9 62h-98l16 97c4 25 21 88 80 88 11 0 21-3 25-4l11 67c-15 1-30 4-44 4-124 0-147-112-156-172l-13-80h-89l-11-62h91L127-5c-9-55-10-105-82-99z"/><glyph unicode="4" horiz-adv-x="444" d="M105 249l150 361h2V249m0-80V0h86v169h82v80h-82v445H221L25 249v-80z"/><glyph unicode="⁄" horiz-adv-x="167" d="M-103-30l436 749h-62L-166-30z"/><glyph unicode="g" horiz-adv-x="500" d="M341 255c0-70 3-187-96-187-61 0-98 38-98 200 0 67 3 179 96 179 103 0 98-117 98-192m-2 188h-2c-23 49-65 72-118 72-41 0-158-15-158-247C61 118 88 0 225 0c44 0 90 23 111 63h3V-42c0-52-31-87-88-87-45 0-76 26-77 73H82c-7-93 69-135 153-135 111 0 186 27 186 140v556h-82z"/><glyph unicode="ß" horiz-adv-x="556" d="M501 155c0 153-165 175-165 247 0 31 29 52 56 78 26 26 53 57 53 106 0 116-88 151-187 151-56 0-188-31-188-158V0h82v546c0 54 2 124 108 124 57 0 93-31 93-92 0-32-26-62-51-91-26-29-52-58-52-90 0-131 165-131 165-249 0-45-14-92-69-92-43 0-64 28-62 69h-86c0-100 60-136 149-136 143 0 154 115 154 166z"/><glyph unicode="`" horiz-adv-x="278" d="M20 722l131-141h67l-89 141z"/><glyph unicode="&amp;gt;" horiz-adv-x="500" d="M41 60v-73l417 234v64L41 515v-73l339-189z"/><glyph unicode="«" horiz-adv-x="444" d="M121 77h78l-78 193 79 196h-76L31 270M293 77h78l-78 193 79 196h-76l-93-196z"/><glyph unicode="»" horiz-adv-x="444" d="M151 77l90 193-93 196H72l79-196L73 77m250 0l90 193-93 196h-76l79-196-78-193z"/><glyph unicode="‹" horiz-adv-x="222" d="M114 77h78l-78 193 79 196h-76L24 270z"/><glyph unicode="›" horiz-adv-x="222" d="M108 77l90 193-93 196H29l79-196L30 77z"/><glyph unicode="h" horiz-adv-x="500" d="M428 0v358c0 114-48 157-134 157-66 0-104-16-137-75h-4v282H71V0h82v297c0 85 21 151 103 151 70 0 90-44 90-106V0z"/><glyph unicode="˝" horiz-adv-x="444" d="M129 722L40 581h67l131 141m74 0l-89-141h67l131 141z"/><glyph unicode="-" horiz-adv-x="333" d="M56 234h220v77H56z"/><glyph unicode="i" horiz-adv-x="222" d="M152 505H70V0h82M65 634h92v88H65z"/><glyph unicode="í" horiz-adv-x="222" d="M152 0v505H70V0m51 722L32 581h67l131 141z"/><glyph unicode="î" horiz-adv-x="222" d="M152 0v505H70V0m107 581h80L157 722H65L-35 581h80l66 94z"/><glyph unicode="ï" horiz-adv-x="222" d="M152 0v505H70V0m0 694h-94V590h94m176 104h-94V590h94z"/><glyph unicode="ì" horiz-adv-x="222" d="M152 0v505H70V0M-8 722l131-141h67l-89 141z"/><glyph unicode="j" horiz-adv-x="222" d="M70-74c0-42-26-47-61-47v-70c120 0 143 41 143 121v575H70m-5 129h92v88H65z"/><glyph unicode="k" horiz-adv-x="444" d="M154 283h2L336 0h104L242 288l168 217H310L156 287h-2v435H72V0h82z"/><glyph unicode="l" horiz-adv-x="222" d="M152 722H70V0h82z"/><glyph unicode="&amp;lt;" horiz-adv-x="500" d="M120 253l339 189v73L42 285v-64L459-13v73z"/><glyph unicode="¬" horiz-adv-x="500" d="M395 117h62v267H43v-62h352z"/><glyph unicode="ł" horiz-adv-x="222" d="M152 722H70V422l-99-57 20-35 79 46V0h82v423l99 57-20 35-79-46z"/><glyph unicode="m" horiz-adv-x="722" d="M402 0v340c0 19 4 69 28 89 22 18 31 19 62 19 66 0 80-47 80-98V0h82v384c0 119-85 131-138 131-46 0-92-11-120-65-19 46-72 65-118 65-59 0-102-19-126-73h-2v63H63c3-35 5-70 5-105V0h82v340c0 19 4 49 19 74 12 19 46 34 71 34 66 0 80-47 80-98V0z"/><glyph unicode="¯" horiz-adv-x="278" d="M1 664v-56h276v56z"/><glyph unicode="−" horiz-adv-x="500" d="M43 222h414v62H43z"/><glyph unicode="µ" horiz-adv-x="500" d="M342 0h87c-3 35-5 70-5 105v400h-82V170c0-84-55-117-99-117-58 0-86 41-86 102v350H75v-696h82V0c7-4 37-10 54-10 53 0 101 25 128 71h3z"/><glyph unicode="×" horiz-adv-x="500" d="M206 253L43 90l44-44 163 163L413 46l44 44-163 163 163 163-44 44-163-163L87 460l-44-44z"/><glyph unicode="n" horiz-adv-x="500" d="M428 0v350c0 100-27 165-135 165-65 0-103-18-135-75h-4v65H67c3-35 5-70 5-105V0h82v299c0 69 13 149 103 149 70 0 89-44 89-98V0z"/><glyph unicode="9" horiz-adv-x="444" d="M221 638c79 0 93-81 93-144 0-69-13-144-93-144s-93 75-93 144c0 63 14 144 93 144m0 67c-92 0-185-57-185-213 0-190 104-219 159-219 53 0 97 17 119 65h2c0-178-6-276-95-276-59 0-79 53-79 104H50C48 56 117-15 221-15c188 0 187 178 187 359 0 187 3 361-187 361z"/><glyph unicode="ñ" horiz-adv-x="500" d="M428 0v350c0 100-27 165-135 165-65 0-103-18-135-75h-4v65H67c3-35 5-70 5-105V0h82v299c0 69 13 149 103 149 70 0 89-44 89-98V0m23 694c-3-31-20-45-51-45-16 0-36 9-59 19-23 9-48 18-75 18-66 0-98-47-104-108h46c3 22 23 45 46 45 22 0 47-9 72-19 25-9 50-19 72-19 32 0 56 13 73 33s28 48 31 76z"/><glyph unicode="#" horiz-adv-x="444" d="M23 0h51l74 234h80L156 0h51l72 234h103l17 56H296l35 114h102l17 56H348l72 234h-52l-71-234h-82l73 234h-51l-73-234H64l-17-56h101l-35-114H14l-17-56h99m69 56l34 114h81l-35-114z"/><glyph unicode="o" horiz-adv-x="500" d="M250 57c-85 0-106 59-106 223 0 138 43 168 106 168s106-30 106-168c0-164-21-223-106-223m0-67c107 0 192 32 192 255 0 148-17 270-192 270S58 393 58 245C58 22 143-10 250-10z"/><glyph unicode="ó" horiz-adv-x="500" d="M250 57c-85 0-106 59-106 223 0 138 43 168 106 168s106-30 106-168c0-164-21-223-106-223m0-67c107 0 192 32 192 255 0 148-17 270-192 270S58 393 58 245C58 22 143-10 250-10m10 732l-89-141h67l131 141z"/><glyph unicode="ô" horiz-adv-x="500" d="M250 57c-85 0-106 59-106 223 0 138 43 168 106 168s106-30 106-168c0-164-21-223-106-223m0-67c107 0 192 32 192 255 0 148-17 270-192 270S58 393 58 245C58 22 143-10 250-10m66 591h80L296 722h-92L104 581h80l66 94z"/><glyph unicode="ö" horiz-adv-x="500" d="M250 57c-85 0-106 59-106 223 0 138 43 168 106 168s106-30 106-168c0-164-21-223-106-223m0-67c107 0 192 32 192 255 0 148-17 270-192 270S58 393 58 245C58 22 143-10 250-10m-41 704h-94V590h94m176 104h-94V590h94z"/><glyph unicode="œ" horiz-adv-x="778" d="M439 288c1 140 44 160 96 160 60 0 101-13 101-160m87-62v43c0 167-36 246-180 246-76 0-124-25-147-84h-2c-11 66-84 84-144 84C75 515 58 393 58 245 58 22 143-10 250-10c60 0 107 17 140 80 25-67 88-80 153-80 106 0 175 51 176 163h-90c-3-51-32-96-88-96-64 0-102 28-102 169M250 57c-85 0-106 59-106 223 0 138 43 168 106 168s106-30 106-168c0-164-21-223-106-223z"/><glyph unicode="˛" horiz-adv-x="278" d="M245-115c-37-13-61-20-85-20-25 0-46 15-46 50 0 28 33 63 98 85v2l-59-2C105-12 32-50 32-100c0-66 59-91 106-91 37 0 78 11 107 22z"/><glyph unicode="ò" horiz-adv-x="500" d="M250 57c-85 0-106 59-106 223 0 138 43 168 106 168s106-30 106-168c0-164-21-223-106-223m0-67c107 0 192 32 192 255 0 148-17 270-192 270S58 393 58 245C58 22 143-10 250-10M131 722l131-141h67l-89 141z"/><glyph unicode="1" horiz-adv-x="444" d="M289 694h-79c-28-23-94-73-117-83v-88l104 70V0h92z"/><glyph unicode="½" horiz-adv-x="666" d="M628 0v53H467c108 137 159 168 159 261 0 75-39 109-130 109-77 0-115-55-109-119h71c-1 29 7 63 42 63 39 0 56-22 56-50 0-67-39-99-171-264V0M158 698H96c-18-14-61-44-76-50v-59l68 42V282h70M98-27l436 749h-62L35-27z"/><glyph unicode="¼" horiz-adv-x="666" d="M508 98V0h70v98h53v56h-53v262h-99L351 149V98m64 56l91 200h2V154M188 698h-62c-18-14-61-44-76-50v-59l68 42V282h70M128-27l436 749h-62L65-27z"/><glyph unicode="¹" horiz-adv-x="266" d="M188 698h-62c-18-14-61-44-76-50v-59l68 42V282h70z"/><glyph unicode="ª" horiz-adv-x="300" d="M205 579c5-98-40-116-73-116-35 0-48 26-48 55 0 64 65 60 121 61m1-151h72c-4 23-7 48-7 72v146c0 51-30 91-124 91-70 0-119-23-122-91h63c-3 32 21 50 57 50 57 0 61-40 60-76-80 2-187-7-187-98 0-59 30-100 99-100 41 0 72 15 87 50h2z"/><glyph unicode="º" horiz-adv-x="300" d="M150 463c-55 0-64 35-64 133 0 83 23 100 64 100s64-17 64-100c0-98-9-133-64-133m0-41c69 0 130 19 130 153 0 89-16 162-130 162S20 664 20 575c0-134 60-153 130-153z"/><glyph unicode="ø" horiz-adv-x="500" d="M153 150c-6 31-9 75-9 130 0 138 43 168 106 168 36 0 66-11 84-45m15-44c5-20 7-46 7-79 0-164-21-223-106-223-41 0-67 14-83 47m217 368c-29 27-71 43-134 43C75 515 58 393 58 245c0-83 12-140 34-180L36-13l31-22 48 68c34-35 82-43 135-43 107 0 192 32 192 255 0 77-5 147-34 196l56 78-32 20z"/><glyph unicode="õ" horiz-adv-x="500" d="M250 57c-85 0-106 59-106 223 0 138 43 168 106 168s106-30 106-168c0-164-21-223-106-223m0-67c107 0 192 32 192 255 0 148-17 270-192 270S58 393 58 245C58 22 143-10 250-10m119 704c-3-31-20-45-51-45-16 0-36 9-59 19-23 9-48 18-75 18-66 0-98-47-104-108h46c3 22 23 45 46 45 22 0 47-9 72-19 25-9 50-19 72-19 32 0 56 13 73 33s28 48 31 76z"/><glyph unicode="p" horiz-adv-x="500" d="M256 57c-91 0-95 107-95 174 0 77-9 217 92 217 103 0 103-111 103-187 0-135-12-204-100-204m-95 448H79v-696h82V51h3c28-40 63-61 111-61 163 0 167 145 167 271 0 222-82 254-163 254-53 0-88-23-116-70h-2z"/><glyph unicode="¶" horiz-adv-x="440" d="M165-121h70v776h82v-776h70v843H191C30 722 8 590 8 528c0-103 74-191 157-190z"/><glyph unicode="(" horiz-adv-x="278" d="M207-118c-33 140-63 283-63 428 0 151 30 300 67 446h-61C105 611 50 468 50 314c0-149 55-291 99-432z"/><glyph unicode=")" horiz-adv-x="278" d="M129-118c44 141 99 283 99 432 0 154-55 297-100 442H67c37-146 67-295 67-446 0-145-30-288-63-428z"/><glyph unicode="%" horiz-adv-x="778" d="M198 737C77 737 70 638 70 544c0-96 7-189 128-189s128 93 128 189c0 94-7 193-128 193m0-56c58 0 58-44 58-135s0-135-58-135-58 44-58 135 0 135 58 135m381-314c-121 0-128-99-128-193 0-96 7-189 128-189s128 93 128 189c0 94-7 193-128 193m0-56c58 0 58-44 58-135s0-135-58-135-58 44-58 135 0 135 58 135m12 447h-65L185-36h63z"/><glyph unicode="." horiz-adv-x="222" d="M158 104H64V0h94z"/><glyph unicode="·" horiz-adv-x="222" d="M158 305H64V201h94z"/><glyph unicode="‰" horiz-adv-x="889" d="M138 734C26 734 23 653 23 564c0-85 6-182 115-182s115 97 115 182c0 89-3 170-115 170m0-296c-60 0-51 105-51 144s-3 96 51 96 51-57 51-96 9-144-51-144m321-101c-112 0-115-81-115-170 0-85 6-182 115-182s115 97 115 182c0 89-3 170-115 170m0-296c-60 0-51 105-51 144s-3 96 51 96 51-57 51-96 9-144-51-144m291 296c-112 0-115-81-115-170 0-85 6-182 115-182s115 97 115 182c0 89-3 170-115 170m0-296c-60 0-51 105-51 144s-3 96 51 96 51-57 51-96 9-144-51-144M95-34h61l343 794h-63z"/><glyph unicode="+" horiz-adv-x="500" d="M219 284H43v-62h176V0h62v222h176v62H281v221h-62z"/><glyph unicode="±" horiz-adv-x="500" d="M219 343H43v-62h176V119h62v162h176v62H281v162h-62M43 0h414v62H43z"/><glyph unicode="q" horiz-adv-x="500" d="M244 57c-88 0-100 69-100 204 0 76 0 185 103 185 101 0 92-138 92-215 0-67-4-174-95-174m95 388h-2c-28 47-63 70-116 70-81 0-163-32-163-254 0-126 4-271 167-271 48 0 83 21 111 61h3v-242h82v696h-82z"/><glyph unicode="?" horiz-adv-x="444" d="M260 183v93c0 76 133 128 133 294 0 101-60 167-163 167-133 0-179-83-174-206h94c-1 52 2 139 74 139 53 0 75-54 75-98 0-130-121-188-121-275V183m88-79h-94V0h94z"/><glyph unicode="¿" horiz-adv-x="444" d="M266 348h-82v-93c0-76-133-128-133-294 0-101 60-167 163-167 133 0 179 83 174 206h-94c1-52-2-139-74-139-53 0-75 54-75 98 0 130 121 188 121 275v114m6 183h-94V427h94z"/><glyph unicode="&amp;quot;" horiz-adv-x="250" d="M35 515h60v207H35m120-207h60v207h-60z"/><glyph unicode="„" horiz-adv-x="444" d="M230-111h69l82 199H273M63-111h69l82 199H106z"/><glyph unicode="“" horiz-adv-x="444" d="M214 721h-69L63 522h108m210 199h-69l-82-199h108z"/><glyph unicode="”" horiz-adv-x="444" d="M63 523h69l82 199H106m124-199h69l82 199H273z"/><glyph unicode="‘" horiz-adv-x="222" d="M186 722h-69L35 523h108z"/><glyph unicode="’" horiz-adv-x="222" d="M35 523h69l82 199H78z"/><glyph unicode="‚" horiz-adv-x="222" d="M35-111h69l82 199H78z"/><glyph unicode="'" horiz-adv-x="250" d="M95 515h60v207H95z"/><glyph unicode="r" horiz-adv-x="333" d="M157 505H75V0h82v298c0 68 23 137 114 137 8 0 15-1 22-2s15-2 22-3v85c-80 0-122-9-156-86h-2z"/><glyph unicode="®" horiz-adv-x="800" d="M401 737C193 737 24 570 24 362 24 152 193-15 401-15c207 0 375 167 375 377 0 208-168 375-375 375m0-56c178 0 319-143 319-320 0-178-141-320-319-320S80 183 80 361c0 177 143 320 321 320m-71-344h70c20 0 60-3 65-49 5-58 1-114 18-144h69c-10 27-16 94-17 113-3 87-22 104-76 110v2c55 10 94 49 94 100 0 54-38 108-121 108H260V144h70m0 385h90c47 0 63-35 63-66 0-38-20-70-63-70h-90z"/><glyph unicode="˚" horiz-adv-x="278" d="M139 570c56 0 101 45 101 101 0 55-44 101-101 101-56 0-101-45-101-101 0-57 46-101 101-101m60 101c0-32-28-60-60-60-33 0-60 28-60 60 0 33 27 60 60 60 32 0 60-27 60-60z"/><glyph unicode="s" horiz-adv-x="444" d="M397 144c0 154-252 152-252 241 0 44 34 68 78 68 52 0 80-28 79-81h91c7 100-70 143-160 143-142 0-174-85-174-138 0-151 252-153 252-243 0-52-38-77-87-77-83 0-84 68-84 97H47C44 38 112-10 221-10c100 0 176 43 176 154z"/><glyph unicode="š" horiz-adv-x="444" d="M397 144c0 154-252 152-252 241 0 44 34 68 78 68 52 0 80-28 79-81h91c7 100-70 143-160 143-142 0-174-85-174-138 0-151 252-153 252-243 0-52-38-77-87-77-83 0-84 68-84 97H47C44 38 112-10 221-10c100 0 176 43 176 154M288 722l-66-94-66 94H76l100-141h92l100 141z"/><glyph unicode="§" horiz-adv-x="444" d="M217 284c-43 20-80 23-80 80 0 55 62 80 77 86 25-11 86-20 86-77 0-52-61-84-83-89M69 5c43-12 88-20 132-20 98 0 187 44 187 153 0 64-50 107-109 120v2c57 19 103 68 103 131 0 145-220 103-220 206 0 43 46 63 84 63 37 0 74-14 109-26v84c-37 13-75 19-114 19-83 0-173-43-173-147 0-63 37-93 90-118-55-26-103-62-103-129 0-153 239-104 239-214 0-48-51-67-96-67-66 0-110 24-129 29z"/><glyph unicode=";" horiz-adv-x="222" d="M34-127h64l91 231H86m72 401H64V401h94z"/><glyph unicode="7" horiz-adv-x="444" d="M30 614h264L100 0h104l185 614v80H30z"/><glyph unicode="6" horiz-adv-x="444" d="M130 225c0 62 11 150 92 150 80 0 94-77 94-140 0-91-13-173-88-173-89 0-98 94-98 163m93-240c135 0 185 110 185 234 0 181-76 233-165 233-48 0-90-25-113-65h-2c0 185 19 251 94 251 55 0 81-54 81-102h92c4 105-68 169-172 169C33 705 36 531 36 344c0-181-1-359 187-359z"/><glyph unicode="/" horiz-adv-x="278" d="M278 722h-67L-24-96h67z"/><glyph horiz-adv-x="222"/><glyph unicode="£" horiz-adv-x="444" d="M-4 338h80V80H2V0h426v80H168v258h138v80H168v85c0 58-4 125 88 125 66 0 82-47 80-103h96c6 116-61 180-175 180C52 705 76 527 76 499v-81H-4z"/><glyph unicode="t" horiz-adv-x="278" d="M-2 505v-62h83V84c0-58 35-90 113-90 27 0 54 6 81 8v63c-18-2-31-4-37-4-75 0-75 41-75 73v309h110v62H163v134l-82-37v-97z"/><glyph unicode="þ" horiz-adv-x="500" d="M161 273c0 67 4 175 95 175 88 0 100-70 100-205 0-76 0-186-103-186-101 0-92 139-92 216M79-191h82V51h3c28-40 63-61 115-61 81 0 163 32 163 254 0 126-4 271-167 271-49 0-84-23-112-70h-2v277H79z"/><glyph unicode="3" horiz-adv-x="444" d="M169 323c107 0 149-24 149-136 0-74-25-125-106-125-83 0-94 60-95 129H25c0-39-15-206 179-206 133 0 206 65 206 200 0 104-35 162-144 177v2c40 10 137 30 137 161 0 121-70 180-188 180-129 0-186-72-179-190h92c-1 56 11 113 87 113 68 0 96-46 96-109 0-89-59-122-142-115z"/><glyph unicode="¾" horiz-adv-x="666" d="M523 98V0h70v98h53v56h-53v262h-99L366 149V98m64 56l91 200h2V154M100 476c70 0 97-20 97-82 0-39-16-65-69-65-49 0-57 31-58 68H6c0-24-9-124 117-124 86 0 144 39 144 120 0 62-33 97-104 105v2c26 6 94 18 94 97 0 73-50 108-127 108-84 0-121-43-116-114h63c-1 34 8 64 53 64 44 0 57-29 57-62 0-48-33-73-87-69m63-551l436 749h-62L100-27z"/><glyph unicode="³" horiz-adv-x="266" d="M95 476c70 0 97-20 97-82 0-39-16-65-69-65-49 0-57 31-58 68H1c0-24-9-124 117-124 86 0 144 39 144 120 0 62-33 97-104 105v2c26 6 94 18 94 97 0 73-50 108-127 108C41 705 4 662 9 591h63c-1 34 8 64 53 64 44 0 57-29 57-62 0-48-33-73-87-69z"/><glyph unicode="˜" horiz-adv-x="278" d="M258 694c-3-31-20-45-51-45-16 0-36 9-59 19-23 9-48 18-75 18-66 0-98-47-104-108h46c3 22 23 45 46 45 22 0 47-9 72-19 25-9 50-19 72-19 32 0 56 13 73 33s28 48 31 76z"/><glyph unicode="™" horiz-adv-x="825" d="M790 722H681L576 400h-2L466 722H355V289h70v341h2l114-341h57l120 341h2V289h70M-3 722v-56h119V289h70v377h119v56z"/><glyph unicode="2" horiz-adv-x="444" d="M416 0v80H141c179 236 257 288 257 443 0 125-60 182-185 182-118 0-176-75-168-190h94c-1 56 12 113 81 113 59 0 86-37 86-92 0-120-60-172-263-456V0z"/><glyph unicode="²" horiz-adv-x="266" d="M256 282v53H95c108 137 159 168 159 261 0 75-39 109-130 109-77 0-115-55-109-119h71c-1 29 7 63 42 63 39 0 56-22 56-50 0-67-39-99-171-264v-53z"/><glyph unicode="u" horiz-adv-x="500" d="M342 170c0-84-55-117-99-117-58 0-86 41-86 102v350H75V120c0-86 48-130 136-130 53 0 101 25 128 71h3V0h87c-3 35-5 70-5 105v400h-82z"/><glyph unicode="ú" horiz-adv-x="500" d="M342 170c0-84-55-117-99-117-58 0-86 41-86 102v350H75V120c0-86 48-130 136-130 53 0 101 25 128 71h3V0h87c-3 35-5 70-5 105v400h-82m-82 217l-89-141h67l131 141z"/><glyph unicode="û" horiz-adv-x="500" d="M342 170c0-84-55-117-99-117-58 0-86 41-86 102v350H75V120c0-86 48-130 136-130 53 0 101 25 128 71h3V0h87c-3 35-5 70-5 105v400h-82m-26 76h80L296 722h-92L104 581h80l66 94z"/><glyph unicode="ü" horiz-adv-x="500" d="M342 170c0-84-55-117-99-117-58 0-86 41-86 102v350H75V120c0-86 48-130 136-130 53 0 101 25 128 71h3V0h87c-3 35-5 70-5 105v400h-82M209 694h-94V590h94m176 104h-94V590h94z"/><glyph unicode="ù" horiz-adv-x="500" d="M342 170c0-84-55-117-99-117-58 0-86 41-86 102v350H75V120c0-86 48-130 136-130 53 0 101 25 128 71h3V0h87c-3 35-5 70-5 105v400h-82M131 722l131-141h67l-89 141z"/><glyph unicode="_" horiz-adv-x="500" d="M500-125v50H0v-50z"/><glyph unicode="v" horiz-adv-x="444" d="M164 0h107l158 505h-86L221 77h-2L106 505H14z"/><glyph unicode="w" horiz-adv-x="722" d="M135 0h110l113 430h2L468 0h110l135 505h-87L526 70h-2L421 505H305L193 70h-2l-91 435H9z"/><glyph unicode="x" horiz-adv-x="444" d="M270 264l151 241h-99L220 324l-96 181H19l144-241L6 0h97l109 207L329 0h108z"/><glyph unicode="y" horiz-adv-x="444" d="M103 505H8L179 0l-57-191h85l229 696h-89L226 94h-2z"/><glyph unicode="ý" horiz-adv-x="444" d="M103 505H8L179 0l-57-191h85l229 696h-89L226 94h-2m8 628l-89-141h67l131 141z"/><glyph unicode="ÿ" horiz-adv-x="444" d="M103 505H8L179 0l-57-191h85l229 696h-89L226 94h-2m-43 600H87V590h94m176 104h-94V590h94z"/><glyph unicode="¥" horiz-adv-x="444" d="M66 132h114V0h82v132h116v67H262v66h116v67h-91l160 362h-88L225 373 95 694H-2l157-362H66v-67h114v-66H66z"/><glyph unicode="z" horiz-adv-x="389" d="M347 505H46v-67h209v-2L35 77V0h319v67H124l223 363z"/><glyph unicode="ž" horiz-adv-x="389" d="M347 505H46v-67h209v-2L35 77V0h319v67H124l223 363m-86 292l-66-94-66 94H49l100-141h92l100 141z"/><glyph unicode="0" horiz-adv-x="444" d="M222 705C32 705 35 531 35 344c0-181-1-359 187-359s187 178 187 359c0 187 3 361-187 361m0-77c94 0 95-115 95-302 0-117 7-264-95-264s-95 147-95 264c0 187 1 302 95 302z"/></font>
</svg>
